<?xml version="1.0" ?><!DOCTYPE svg  PUBLIC '-//W3C//DTD SVG 1.1//EN'  'http://www.w3.org/Graphics/SVG/1.1/DTD/svg11.dtd'><svg style="enable-background:new 0 0 512 512;" version="1.1" viewBox="0 0 512 512" xml:space="preserve" xmlns="http://www.w3.org/2000/svg" xmlns:xlink="http://www.w3.org/1999/xlink"><g id="bowling"><g><circle cx="256.003" cy="256.127" r="199.932" style="fill:#424242;"/><g><path d="M256,69.941c49.683,0,96.391,19.347,131.522,54.478S442,206.258,442,255.941     s-19.347,96.391-54.478,131.522S305.683,441.941,256,441.941s-96.391-19.347-131.522-54.478S70,305.624,70,255.941     s19.347-96.391,54.478-131.522S206.317,69.941,256,69.941 M256,55.941c-110.457,0-200,89.543-200,200s89.543,200,200,200     s200-89.543,200-200S366.457,55.941,256,55.941L256,55.941z" style="fill:#212121;"/></g><circle cx="213.5" cy="160.14" r="28.979" style="fill:#212121;stroke:#212121;stroke-width:4.6;stroke-miterlimit:10;"/><circle cx="298.5" cy="160.14" r="28.979" style="fill:#212121;stroke:#212121;stroke-width:4.6;stroke-miterlimit:10;"/><circle cx="256" cy="248.14" r="28.979" style="fill:#212121;stroke:#212121;stroke-width:4.6;stroke-miterlimit:10;"/></g></g><g id="Layer_1"/></svg>