<?xml version="1.0" ?><svg id="drill" viewBox="0 0 27.94 21.55" xmlns="http://www.w3.org/2000/svg"><defs><style>.cls-1{fill:#bb922e;}.cls-2{fill:#dbdbda;}.cls-3{fill:#424243;}.cls-4{fill:#676767;}.cls-5{fill:#fbca39;}.cls-6{fill:#6b6b6a;}.cls-7{fill:#727273;}</style></defs><title/><polygon class="cls-1" points="8.62 11.18 8.44 11.86 9.82 12.24 10.21 12.04 10.21 11.5 10.48 10.51 11.01 9.25 10.16 9.25 8.62 11.18"/><polygon class="cls-2" points="26.95 4.43 25.7 4.43 25.7 4.84 26.95 4.84 27.22 4.63 26.95 4.43"/><path d="M29.14,9.23h-1.4V8.5H27.07V8.21l-2-.32V6.5l-5.94-1v3H18.48V5.59L15.2,5.3v0H15l-0.23,0v0H4.43L2,6.24v7.29l2.39,1H5.55l-2.72,9.9L3.54,25.6,7.92,26.8l1-.64L10,22.08,9.68,20l0.68-2.46L11.91,18l0.79-.4V16.82l0.25-.9,0.59-1.41h1.22v0l0.23,0H15.2v0l3.28-.3v-2.9h0.68v3l5.94-1V11.89l2-.32V11.28h0.68V10.55h1.4L30,9.89Zm-18.88,7L9.22,20l0.36,2.07L9.32,23,7.38,21.64,7,19.71l1-3.57L9.3,14.5h2.33Zm2.26-.46-0.27,1V17.3l-0.38.19-1.39-.38,0.19-.68,1.54-1.93h0.85Zm2.23-1.71H9.08L7.62,15.93l-1,3.76L7,21.9l2.22,1.59-0.66,2.4-0.68.44-4-1.1-0.52-.87L6.14,14.06H4.52l-2-.82V6.55l2-.82H14.75v8.33ZM18,13.78L15.2,14V5.75L18,6v7.77Zm1.13-2.94H18.48V8.94h0.68v1.89Zm5.49,2.06-5,.82V6.06l5,0.82v6Zm2-1.71-1.52.25V8.34l1.52,0.25v2.6Zm0.68-.35H27.07V8.94H27.3v1.89ZM29,10.1H27.74V9.68H29l0.27,0.21Z" transform="translate(-2.04 -5.26)"/><rect class="cls-3" height="1.89" width="0.23" x="25.03" y="3.69"/><rect class="cls-3" height="1.89" width="0.68" x="16.44" y="3.69"/><polygon class="cls-4" points="23.06 6.18 24.58 5.93 24.58 3.33 23.06 3.09 23.06 6.18"/><polygon class="cls-4" points="17.57 8.46 22.61 7.64 22.61 1.63 17.57 0.81 17.57 8.46"/><path class="cls-5" d="M2.49,6.55v6.69l2,0.82H6.14L3.31,24.34l0.52,0.87,4,1.1,0.68-.44,0.66-2.4L7,21.9,6.59,19.69l1-3.76,1.45-1.87h5.67V5.72H4.52Zm7.65,5.15,0.37-.58h3.17l0.37,0.58v1l-0.37.58H10.51l-0.37-.58v-1ZM7,12.51l-0.35.22H4.07l-0.35-.22V12l0.35-.22H6.62L7,12v0.46Zm0-1-0.35.22H4.07l-0.35-.22V11.06l0.35-.22H6.62L7,11.06v0.47Zm0-1-0.35.22H4.07l-0.35-.22V10.08l0.35-.22H6.62L7,10.08v0.46Zm0-1-0.35.22H4.07L3.72,9.53V9.06l0.35-.22H6.62L7,9.06V9.53Zm0-1-0.35.22H4.07L3.72,8.55V8.08l0.35-.22H6.62L7,8.08V8.55ZM7,7.1V7.57l-0.35.22H4.07L3.72,7.57V7.1l0.35-.22H6.62Z" transform="translate(-2.04 -5.26)"/><polygon class="cls-6" points="7.26 9.25 5.99 10.88 5.01 14.45 5.34 16.38 7.28 17.77 7.54 16.8 7.18 14.73 8.22 10.97 9.59 9.25 7.26 9.25"/><polygon class="cls-4" points="13.16 8.78 15.99 8.52 15.99 0.75 13.16 0.49 13.16 8.78"/><polygon class="cls-3" points="11.48 7.75 11.71 7.38 11.71 6.53 11.48 6.16 8.63 6.16 8.4 6.53 8.4 7.38 8.63 7.75 11.48 7.75"/><path d="M13.68,13.3l0.37-.58v-1l-0.37-.58H10.51l-0.37.58v1l0.37,0.58h3.17Zm-3.25-1.52,0.23-.37h2.85l0.23,0.37v0.85L13.52,13H10.67l-0.23-.37V11.79Z" transform="translate(-2.04 -5.26)"/><polygon class="cls-7" points="1.98 2.14 2.12 2.23 4.49 2.23 4.63 2.14 4.63 2.01 4.49 1.93 2.12 1.93 1.98 2.01 1.98 2.14"/><path d="M3.72,7.1V7.57L4.07,7.78H6.62L7,7.57V7.1L6.62,6.89H4.07ZM6.53,7.18L6.67,7.27V7.4l-0.14.08H4.16L4,7.4V7.27l0.14-.08H6.53Z" transform="translate(-2.04 -5.26)"/><polygon class="cls-7" points="2.12 2.91 1.98 3 1.98 3.12 2.12 3.21 4.49 3.21 4.63 3.12 4.63 3 4.49 2.91 2.12 2.91"/><path d="M4.07,7.87l-0.35.22V8.55L4.07,8.76H6.62L7,8.55V8.08L6.62,7.87H4.07Zm2.6,0.51-0.14.08H4.16L4,8.38V8.25l0.14-.08H6.53L6.67,8.25V8.38Z" transform="translate(-2.04 -5.26)"/><polygon class="cls-7" points="2.12 3.89 1.98 3.98 1.98 4.11 2.12 4.19 4.49 4.19 4.63 4.11 4.63 3.98 4.49 3.89 2.12 3.89"/><path d="M4.07,8.85l-0.35.22V9.53L4.07,9.74H6.62L7,9.53V9.06L6.62,8.85H4.07Zm2.6,0.51-0.14.08H4.16L4,9.36V9.23l0.14-.08H6.53L6.67,9.23V9.36Z" transform="translate(-2.04 -5.26)"/><polygon class="cls-7" points="2.12 4.91 1.98 5 1.98 5.13 2.12 5.21 4.49 5.21 4.63 5.13 4.63 5 4.49 4.91 2.12 4.91"/><path d="M4.07,9.87l-0.35.22v0.46l0.35,0.22H6.62L7,10.55V10.08L6.62,9.87H4.07Zm2.6,0.51-0.14.08H4.16L4,10.38V10.25l0.14-.08H6.53l0.14,0.08v0.13Z" transform="translate(-2.04 -5.26)"/><polygon class="cls-7" points="2.12 5.89 1.98 5.98 1.98 6.11 2.12 6.19 4.49 6.19 4.63 6.11 4.63 5.98 4.49 5.89 2.12 5.89"/><path d="M4.07,10.85l-0.35.22v0.47l0.35,0.22H6.62L7,11.53V11.06l-0.35-.22H4.07Zm2.6,0.51-0.14.08H4.16L4,11.36V11.23l0.14-.08H6.53l0.14,0.08v0.13Z" transform="translate(-2.04 -5.26)"/><polygon class="cls-7" points="2.12 6.87 1.98 6.96 1.98 7.09 2.12 7.17 4.49 7.17 4.63 7.09 4.63 6.96 4.49 6.87 2.12 6.87"/><path d="M4.07,11.83L3.72,12v0.46l0.35,0.22H6.62L7,12.51V12l-0.35-.22H4.07Zm2.6,0.51-0.14.08H4.16L4,12.34V12.21l0.14-.08H6.53l0.14,0.08v0.13Z" transform="translate(-2.04 -5.26)"/></svg>