<?xml version="1.0" ?><svg enable-background="new 0 0 100 100" version="1.1" viewBox="0 0 100 100" xml:space="preserve" xmlns="http://www.w3.org/2000/svg" xmlns:xlink="http://www.w3.org/1999/xlink"><g id="Layer_10"><path d="M77.425,46.485c0.387-0.12,0.387-0.42,0-0.54l-1.819-0.565v-0.854   l1.819-0.565c0.387-0.12,0.387-0.42,0-0.54l-1.839-0.571c-0.046-0.224-0.248-0.404-0.517-0.422   c-0.287-0.018-0.569-0.051-0.846-0.098c-3.126-0.528-5.527-2.811-5.781-5.617c-0.025-0.275-0.274-0.494-0.593-0.494H32.899h-0.762   c-0.311,0-0.555,0.214-0.578,0.482c-0.014,0.159-0.035,0.317-0.063,0.472c-0.502,2.826-3.197,5.025-6.532,5.251   c-0.281,0.019-0.5,0.193-0.549,0.423l-1.84,0.571c-0.387,0.12-0.387,0.42,0,0.54l1.819,0.565v0.854l-1.819,0.565   c-0.387,0.12-0.387,0.42,0,0.54l1.819,0.565v0.854l-1.819,0.565c-0.387,0.12-0.387,0.42,0,0.54l1.819,0.565v0.854l-1.819,0.565   c-0.387,0.12-0.387,0.42,0,0.54l1.819,0.565v0.854l-1.819,0.565c-0.387,0.12-0.387,0.42,0,0.54l1.819,0.565v0.854l-1.819,0.565   c-0.387,0.12-0.387,0.42,0,0.54l1.839,0.571c0.046,0.224,0.249,0.404,0.519,0.422c0.275,0.018,0.545,0.049,0.81,0.092   c3.142,0.517,5.56,2.806,5.815,5.622c0.025,0.275,0.274,0.494,0.592,0.494h35.701c0.304,0,0.567-0.199,0.589-0.462   c0.023-0.269,0.065-0.534,0.126-0.792c0.633-2.68,3.254-4.733,6.47-4.951c0.281-0.019,0.5-0.193,0.549-0.423l1.84-0.571   c0.387-0.12,0.387-0.42,0-0.54l-1.819-0.565v-0.854l1.819-0.565c0.387-0.12,0.387-0.42,0-0.54l-1.819-0.565v-0.854l1.819-0.565   c0.387-0.12,0.387-0.42,0-0.54l-1.819-0.565v-0.854l1.819-0.565c0.387-0.12,0.387-0.42,0-0.54l-1.819-0.565V47.05L77.425,46.485z" fill="#ED7F4F" stroke="#191919" stroke-miterlimit="10"/><path d="M61.867,60.709H38.133c-2.891,0-5.234-2.343-5.234-5.234v-10.95   c0-2.891,2.343-5.234,5.234-5.234h23.734c2.891,0,5.234,2.343,5.234,5.234v10.95C67.101,58.366,64.758,60.709,61.867,60.709z" fill="#ED7F4F" stroke="#C94D17" stroke-miterlimit="10"/><g><path d="M36.584,54.739v-7.874h-1.813v-1.603h4.855v1.603h-1.809v7.874H36.584z"/><path d="M40.384,54.739v-9.477h1.233v9.477H40.384z"/><path d="M46.702,51.254l1.196,0.588c-0.183,1.034-0.488,1.803-0.915,2.305c-0.426,0.502-0.967,0.753-1.623,0.753    c-0.811,0-1.478-0.43-2-1.29c-0.522-0.86-0.783-2.035-0.783-3.526c0-1.577,0.263-2.802,0.788-3.675    c0.525-0.873,1.215-1.309,2.071-1.309c0.747,0,1.354,0.342,1.821,1.028c0.278,0.405,0.486,0.987,0.625,1.745l-1.221,0.452    c-0.072-0.491-0.223-0.879-0.452-1.164c-0.229-0.284-0.508-0.426-0.836-0.426c-0.453,0-0.82,0.252-1.102,0.756    c-0.282,0.504-0.423,1.321-0.423,2.45c0,1.198,0.139,2.051,0.417,2.56c0.278,0.508,0.639,0.763,1.083,0.763    c0.328,0,0.61-0.161,0.846-0.485C46.429,52.457,46.599,51.948,46.702,51.254z"/><path d="M48.973,54.739v-9.477h1.233v4.209l2.492-4.209h1.659l-2.3,3.691l2.425,5.786h-1.596l-1.679-4.448l-1,1.584v2.864H48.973z    "/><path d="M55.119,54.739v-9.477h4.53v1.603h-3.296v2.101h3.067v1.597h-3.067v2.579h3.413v1.597H55.119z"/><path d="M62.187,54.739v-7.874h-1.813v-1.603h4.855v1.603H63.42v7.874H62.187z"/></g></g></svg>