<?xml version="1.0" ?><svg style="enable-background:new 0 0 100 100;" version="1.1" viewBox="0 0 100 100" xml:space="preserve" xmlns="http://www.w3.org/2000/svg" xmlns:xlink="http://www.w3.org/1999/xlink"><g id="blue"><g id="Layer_8_copy_2"><path d="M42.262,27.26v8.294c0,0.571,0.305,1.1,0.8,1.385l20.212,11.669c1.066,0.616,1.066,2.155,0,2.771    L43.062,63.048c-0.495,0.286-0.8,0.814-0.8,1.385v8.294c0,1.231,1.333,2.001,2.399,1.385l39.375-22.733    c1.066-0.616,1.066-2.155,0-2.771L44.661,25.875C43.595,25.259,42.262,26.029,42.262,27.26z" style="fill:#415C8C;"/><path d="M65.1,49.08c-1.003-0.57-2.006-1.14-3.009-1.71c0.486,0.484,0.972,0.968,1.458,1.452    c0.772,0.703,0.685,2.002-0.276,2.557L43.062,63.048c-0.495,0.286-0.8,0.814-0.8,1.385v8.294c0,1.115,1.092,1.84,2.091,1.512    c-0.054-0.16-0.091-0.328-0.091-0.512v-8.294c0-0.571,0.305-1.1,0.8-1.385l20.212-11.669c0.112-0.085,0.717-0.56,0.8-1.385    C66.148,50.249,65.769,49.508,65.1,49.08z" style="opacity:0.6;fill:#FFFFFF;"/><path d="M45.062,37.939c-0.495-0.286-0.8-0.814-0.8-1.385V28.26    c0-1.008,0.894-1.693,1.803-1.575l-1.403-0.81c-1.066-0.616-2.399,0.154-2.399,1.385v8.294c0,0.571,0.305,1.1,0.8,1.385    l1.902,1.098c0.048-0.024,0.095-0.048,0.143-0.072L45.062,37.939z" style="opacity:0.6;fill:#FFFFFF;"/><path d="M84.037,48.608L44.661,25.875c-0.193-0.112-0.395-0.164-0.597-0.19l37.972,21.923c1.066,0.616,1.066,2.155,0,2.771    L42.661,73.112c-0.1,0.058-0.205,0.092-0.308,0.126c0.308,0.914,1.401,1.398,2.308,0.874l39.375-22.733    C85.103,50.763,85.103,49.224,84.037,48.608z"/><path d="M42.262,27.26v8.294c0,0.571,0.305,1.1,0.8,1.385l20.212,11.669    c1.066,0.616,1.066,2.155,0,2.771L43.062,63.048c-0.495,0.286-0.8,0.814-0.8,1.385v8.294c0,1.231,1.333,2.001,2.399,1.385    l39.375-22.733c1.066-0.616,1.066-2.155,0-2.771L44.661,25.875C43.595,25.259,42.262,26.029,42.262,27.26z" style="fill:none;stroke:#000000;stroke-miterlimit:10;"/><path d="M15.164,27.273v8.294c0,0.571,0.305,1.1,0.8,1.385l20.212,11.669c1.066,0.616,1.066,2.155,0,2.771    L15.964,63.061c-0.495,0.286-0.8,0.814-0.8,1.385v8.294c0,1.231,1.333,2.001,2.399,1.385l39.375-22.733    c1.066-0.616,1.066-2.155,0-2.771L17.563,25.888C16.497,25.272,15.164,26.042,15.164,27.273z" style="fill:#415C8C;"/><path d="M38.002,49.093c-1.003-0.57-2.006-1.14-3.009-1.71    c0.486,0.484,0.972,0.968,1.458,1.452c0.772,0.703,0.685,2.002-0.276,2.557L15.964,63.061c-0.495,0.286-0.8,0.814-0.8,1.385v8.294    c0,1.115,1.092,1.84,2.091,1.512c-0.054-0.16-0.091-0.328-0.091-0.512v-8.294c0-0.571,0.305-1.1,0.8-1.385l20.212-11.669    c0.112-0.085,0.717-0.56,0.8-1.385C39.05,50.262,38.671,49.521,38.002,49.093z" style="opacity:0.6;fill:#FFFFFF;"/><path d="M17.964,37.939c-0.495-0.286-0.8-0.814-0.8-1.385V28.26    c0-1.008,0.894-1.693,1.803-1.575l-1.403-0.81c-1.066-0.616-2.399,0.154-2.399,1.385v8.294c0,0.571,0.305,1.1,0.8,1.385    l1.902,1.098c0.048-0.024,0.095-0.048,0.143-0.072L17.964,37.939z" style="opacity:0.6;fill:#FFFFFF;"/><path d="M56.938,48.621L17.563,25.888c-0.193-0.112-0.395-0.164-0.597-0.19l37.972,21.923c1.066,0.616,1.066,2.155,0,2.771    L15.563,73.125c-0.1,0.058-0.205,0.092-0.308,0.126c0.308,0.914,1.401,1.398,2.308,0.874l39.375-22.733    C58.005,50.776,58.005,49.237,56.938,48.621z"/><path d="M15.164,27.273v8.294c0,0.571,0.305,1.1,0.8,1.385l20.212,11.669    c1.066,0.616,1.066,2.155,0,2.771L15.964,63.061c-0.495,0.286-0.8,0.814-0.8,1.385v8.294c0,1.231,1.333,2.001,2.399,1.385    l39.375-22.733c1.066-0.616,1.066-2.155,0-2.771L17.563,25.888C16.497,25.272,15.164,26.042,15.164,27.273z" style="fill:none;stroke:#000000;stroke-miterlimit:10;"/></g></g></svg>