<?xml version="1.0" ?><svg style="enable-background:new 0 0 100 100;" version="1.1" viewBox="0 0 100 100" xml:space="preserve" xmlns="http://www.w3.org/2000/svg" xmlns:xlink="http://www.w3.org/1999/xlink"><g id="blue"><g id="Layer_7"><path d="M40.306,72.858h-8.915c-2.176,0-3.94-1.764-3.94-3.94V31.119c0-2.176,1.764-3.94,3.94-3.94h8.915    c2.176,0,3.94,1.764,3.94,3.94v37.799C44.246,71.094,42.482,72.858,40.306,72.858z" style="fill:#415C8C;"/><path d="M68.609,72.821h-8.915c-2.176,0-3.94-1.764-3.94-3.94V31.082c0-2.176,1.764-3.94,3.94-3.94h8.915    c2.176,0,3.94,1.764,3.94,3.94v37.799C72.549,71.057,70.785,72.821,68.609,72.821z" style="fill:#415C8C;"/><path d="M29.451,69.918V32.119c0-2.176,1.764-3.94,3.94-3.94h8.915    c0.234,0,0.46,0.03,0.683,0.069c-0.704-0.658-1.643-1.069-2.683-1.069h-8.915c-2.176,0-3.94,1.764-3.94,3.94v37.799    c0,1.942,1.408,3.547,3.257,3.871C29.939,72.07,29.451,71.054,29.451,69.918z" style="opacity:0.6;fill:#FFFFFF;"/><path d="M57.754,69.881V32.082c0-2.176,1.764-3.94,3.94-3.94h8.915    c0.234,0,0.46,0.03,0.683,0.069c-0.704-0.658-1.643-1.069-2.683-1.069h-8.915c-2.176,0-3.94,1.764-3.94,3.94v37.799    c0,1.942,1.408,3.547,3.257,3.871C58.242,72.033,57.754,71.017,57.754,69.881z" style="opacity:0.6;fill:#FFFFFF;"/><path d="M40.989,27.248c0.769,0.719,1.257,1.735,1.257,2.871v37.799c0,2.176-1.764,3.94-3.94,3.94h-8.915    c-0.234,0-0.46-0.03-0.683-0.069c0.704,0.658,1.643,1.069,2.683,1.069h8.915c2.176,0,3.94-1.764,3.94-3.94V31.119    C44.246,29.177,42.838,27.573,40.989,27.248z"/><path d="M69.292,27.211c0.769,0.719,1.257,1.735,1.257,2.871v37.799c0,2.176-1.764,3.94-3.94,3.94h-8.915    c-0.234,0-0.46-0.03-0.683-0.069c0.704,0.658,1.643,1.069,2.683,1.069h8.915c2.176,0,3.94-1.764,3.94-3.94V31.082    C72.549,29.14,71.141,27.535,69.292,27.211z"/><path d="M40.306,72.858h-8.915c-2.176,0-3.94-1.764-3.94-3.94V31.119    c0-2.176,1.764-3.94,3.94-3.94h8.915c2.176,0,3.94,1.764,3.94,3.94v37.799C44.246,71.094,42.482,72.858,40.306,72.858z" style="fill:none;stroke:#000000;stroke-miterlimit:10;"/><path d="M68.609,72.821h-8.915c-2.176,0-3.94-1.764-3.94-3.94V31.082    c0-2.176,1.764-3.94,3.94-3.94h8.915c2.176,0,3.94,1.764,3.94,3.94v37.799C72.549,71.057,70.785,72.821,68.609,72.821z" style="fill:none;stroke:#000000;stroke-miterlimit:10;"/></g></g></svg>