<?xml version="1.0" ?><svg style="enable-background:new 0 0 100 100;" version="1.1" viewBox="0 0 100 100" xml:space="preserve" xmlns="http://www.w3.org/2000/svg" xmlns:xlink="http://www.w3.org/1999/xlink"><g id="blue"><g id="Layer_11_copy"><path d="M82.171,35.527l-16.722-9.654c-0.674-0.389-1.517,0.097-1.517,0.876v5.963    c-6.124-0.454-11.125,0.817-14.866,3.819c-4.55,3.651-5.638,8.632-6.598,13.025c-0.781,3.574-1.519,6.95-3.896,9.983    c-3.381,4.313-9.461,6.904-18.07,7.701c-1.925,0.178-3.341,1.883-3.163,3.808c0.168,1.815,1.693,3.178,3.481,3.177    c0.107,0,0.217-0.005,0.326-0.015c10.604-0.981,18.319-4.464,22.935-10.352c3.366-4.293,4.354-8.816,5.227-12.808    c0.849-3.887,1.52-6.957,4.14-9.061c2.406-1.931,5.939-2.677,10.486-2.254v6.321c0,0.779,0.843,1.265,1.517,0.876l16.722-9.654    C82.845,36.889,82.845,35.916,82.171,35.527z" style="fill:#415C8C;"/><g><path d="M19.339,72.048c-0.178-1.925,1.238-3.63,3.163-3.808     c8.609-0.797,14.689-3.388,18.07-7.701c2.378-3.033,3.115-6.409,3.896-9.983c0.96-4.394,2.048-9.374,6.598-13.025     c3.741-3.002,8.742-4.274,14.866-3.819v-5.963c0-0.592,0.487-1.012,1.016-1.01l-1.499-0.866     c-0.674-0.389-1.517,0.097-1.517,0.876v5.963c-6.124-0.454-11.125,0.817-14.866,3.819c-4.55,3.651-5.638,8.632-6.598,13.025     c-0.781,3.574-1.519,6.95-3.896,9.983c-3.381,4.313-9.461,6.904-18.07,7.701c-1.925,0.178-3.341,1.883-3.163,3.808     c0.153,1.651,1.432,2.916,3.007,3.132C19.794,73.624,19.416,72.889,19.339,72.048z" style="opacity:0.6;fill:#FFFFFF;"/><path d="M65.932,39.424c-0.498-0.018-0.838-0.058-1.063-0.094     c-0.084-0.013-0.306-0.05-0.606-0.058c-0.14-0.003-0.256,0.001-0.333,0.005c0,2.26,0.001,4.519,0.002,6.779     c0,0.779,0.843,1.265,1.517,0.876l0.483-0.279V39.424z" style="opacity:0.6;fill:#FFFFFF;"/></g><g><path d="M64.204,39.275c-3.906-0.861-9.315-1.342-12.757,1.714c-1.963,1.743-2.94,3.57-4.14,9.061     c-0.872,3.991-1.86,8.515-5.227,12.808c-4.615,5.888-12.331,9.371-22.935,10.352c-0.109,0.01-0.219,0.015-0.326,0.015     c-0.162,0-0.318-0.023-0.474-0.045c0.639,0.644,1.515,1.045,2.474,1.045c0.107,0,0.217-0.005,0.326-0.015     c10.604-0.981,18.319-4.464,22.935-10.352c3.366-4.293,4.354-8.816,5.227-12.808c0.849-3.887,1.52-6.957,4.14-9.061     c2.04-1.637,4.896-2.413,8.485-2.357C62.689,39.514,63.447,39.395,64.204,39.275z"/><path d="M82.171,35.527l-16.721-9.654c-0.162-0.094-0.333-0.134-0.501-0.134l15.222,8.789c0.674,0.389,0.674,1.362,0,1.752     l-16.239,9.375v0.403c0,0.779,0.843,1.265,1.517,0.876l16.721-9.654C82.845,36.889,82.845,35.916,82.171,35.527z"/></g><path d="M82.171,35.527l-16.722-9.654    c-0.674-0.389-1.517,0.097-1.517,0.876v5.963c-6.124-0.454-11.125,0.817-14.866,3.819c-4.55,3.651-5.638,8.632-6.598,13.025    c-0.781,3.574-1.519,6.95-3.896,9.983c-3.381,4.313-9.461,6.904-18.07,7.701c-1.925,0.178-3.341,1.883-3.163,3.808    c0.168,1.815,1.693,3.178,3.481,3.177c0.107,0,0.217-0.005,0.326-0.015c10.604-0.981,18.319-4.464,22.935-10.352    c3.366-4.293,4.354-8.816,5.227-12.808c0.849-3.887,1.52-6.957,4.14-9.061c2.406-1.931,5.939-2.677,10.486-2.254v6.321    c0,0.779,0.843,1.265,1.517,0.876l16.722-9.654C82.845,36.889,82.845,35.916,82.171,35.527z" style="fill:none;stroke:#000000;stroke-miterlimit:10;"/><path d="M82.171,67.345l-16.722,9.654c-0.674,0.389-1.517-0.097-1.517-0.876V70.16    c-6.124,0.454-11.125-0.817-14.866-3.819c-4.55-3.651-5.638-8.632-6.598-13.025c-0.781-3.574-1.519-6.95-3.896-9.983    c-3.381-4.313-9.461-6.904-18.07-7.701c-1.925-0.178-3.341-1.883-3.163-3.808c0.168-1.815,1.693-3.178,3.481-3.177    c0.107,0,0.217,0.005,0.326,0.015c10.604,0.981,18.319,4.464,22.935,10.352c3.366,4.293,4.354,8.816,5.227,12.808    c0.849,3.887,1.52,6.957,4.14,9.061c2.406,1.931,5.939,2.677,10.486,2.254v-6.321c0-0.779,0.843-1.265,1.517-0.876l16.722,9.654    C82.845,65.982,82.845,66.955,82.171,67.345z" style="fill:#415C8C;"/><g><path d="M65.932,64.136v-6.321c0-0.592,0.487-1.012,1.016-1.01l-1.499-0.866     c-0.674-0.389-1.517,0.097-1.517,0.876v6.321c-3.075,0.286-5.673,0.024-7.785-0.764C58.52,63.929,61.802,64.52,65.932,64.136z" style="opacity:0.6;fill:#FFFFFF;"/><path d="M19.338,32.824c0.168-1.815,1.693-3.178,3.481-3.177c0.107,0,0.217,0.005,0.326,0.015     c5.276,0.488,9.836,1.597,13.656,3.312c-4.194-2.287-9.422-3.735-15.656-4.312c-0.109-0.01-0.219-0.015-0.326-0.015     c-1.788,0-3.313,1.362-3.481,3.177c-0.173,1.873,1.168,3.527,3.014,3.779C19.648,34.892,19.239,33.898,19.338,32.824z" style="opacity:0.6;fill:#FFFFFF;"/><path d="M65.932,69.231c-0.33,0.003-0.67,0.011-1.018,0.025     c-0.336,0.014-0.664,0.032-0.982,0.055v6.812c0,0.779,0.843,1.265,1.517,0.876l0.483-0.279V69.231z" style="opacity:0.6;fill:#FFFFFF;"/><path d="M51.066,67.341c-4.55-3.651-5.638-8.632-6.598-13.025     c-0.781-3.574-1.519-6.95-3.896-9.983c-1.64-2.092-3.92-3.775-6.81-5.048c1.961,1.116,3.569,2.465,4.81,4.048     c2.378,3.033,3.115,6.409,3.896,9.983c0.96,4.394,2.048,9.374,6.598,13.025c1.18,0.947,2.499,1.701,3.925,2.304     C52.321,68.25,51.671,67.826,51.066,67.341z" style="opacity:0.6;fill:#FFFFFF;"/></g><g><path d="M18.501,34.631c-0.052-0.005-0.098-0.022-0.149-0.029c0.558,0.562,1.298,0.951,2.149,1.029     c4.434,0.411,8.191,1.301,11.26,2.653C28.382,36.361,23.95,35.136,18.501,34.631z"/><path d="M42.081,38.014c3.366,4.293,4.354,8.816,5.227,12.808c0.849,3.887,1.52,6.957,4.14,9.061     c0.779,0.625,1.689,1.113,2.7,1.49c-0.239-0.157-0.48-0.313-0.7-0.49c-2.62-2.104-3.291-5.173-4.14-9.061     c-0.872-3.991-1.86-8.515-5.227-12.808c-2.319-2.958-5.422-5.308-9.279-7.04C37.742,33.576,40.179,35.587,42.081,38.014z"/><path d="M64.419,69.277c-4.193,0.311-10.332-0.324-13.428-1.632c3.013,1.776,9.16,2.763,13.428,2.712     c0.014-0.256,0.018-0.526,0.011-0.808C64.428,69.457,64.424,69.366,64.419,69.277z"/><path d="M82.171,65.593l-16.722-9.654c-0.162-0.094-0.333-0.134-0.501-0.134l15.222,8.789c0.674,0.389,0.674,1.362,0,1.752     L63.932,75.72v0.403c0,0.779,0.843,1.265,1.517,0.876l16.722-9.654C82.845,66.955,82.845,65.982,82.171,65.593z"/></g><path d="M82.171,67.345l-16.722,9.654    c-0.674,0.389-1.517-0.097-1.517-0.876V70.16c-6.124,0.454-11.125-0.817-14.866-3.819c-4.55-3.651-5.638-8.632-6.598-13.025    c-0.781-3.574-1.519-6.95-3.896-9.983c-3.381-4.313-9.461-6.904-18.07-7.701c-1.925-0.178-3.341-1.883-3.163-3.808    c0.168-1.815,1.693-3.178,3.481-3.177c0.107,0,0.217,0.005,0.326,0.015c10.604,0.981,18.319,4.464,22.935,10.352    c3.366,4.293,4.354,8.816,5.227,12.808c0.849,3.887,1.52,6.957,4.14,9.061c2.406,1.931,5.939,2.677,10.486,2.254v-6.321    c0-0.779,0.843-1.265,1.517-0.876l16.722,9.654C82.845,65.982,82.845,66.955,82.171,67.345z" style="fill:none;stroke:#000000;stroke-miterlimit:10;"/></g></g></svg>