<?xml version="1.0" ?><!DOCTYPE svg  PUBLIC '-//W3C//DTD SVG 1.1//EN'  'http://www.w3.org/Graphics/SVG/1.1/DTD/svg11.dtd'><svg enable-background="new 0 0 64 64" height="64px" id="SUNNY_copia" version="1.1" viewBox="0 0 64 64" width="64px" xml:space="preserve" xmlns="http://www.w3.org/2000/svg" xmlns:xlink="http://www.w3.org/1999/xlink"><g><defs><rect height="63.957" id="SVGID_1_" width="63.957" x="0.011" y="0.021"/></defs><clipPath id="SVGID_2_"><use overflow="visible" xlink:href="#SVGID_1_"/></clipPath><path clip-path="url(#SVGID_2_)" d="M28.104,47.708c-5.205,0-10.053-2.797-12.65-7.298   c-4.021-6.968-1.624-15.909,5.343-19.933c1.819-1.051,3.815-1.684,5.933-1.881c0.403-0.037,0.763,0.158,0.958,0.496   c0.195,0.337,0.176,0.758-0.05,1.077c-2.837,4.009-3.091,9.338-0.645,13.577c2.434,4.214,7.225,6.692,12.08,6.23   c0.391-0.02,0.766,0.157,0.96,0.495c0.195,0.34,0.174,0.76-0.052,1.077c-1.234,1.739-2.78,3.152-4.595,4.201   C33.168,47.031,30.65,47.708,28.104,47.708z M24.851,20.951c-1.07,0.28-2.091,0.701-3.055,1.258   c-6.013,3.473-8.082,11.189-4.611,17.203c2.242,3.884,6.427,6.299,10.919,6.299c2.196,0,4.368-0.586,6.282-1.688   c0.963-0.557,1.837-1.231,2.616-2.019c-4.855-0.303-9.295-3.025-11.741-7.257C22.806,30.489,22.698,25.285,24.851,20.951z    M46.087,36.415c-0.388,0-1.097-0.182-1.47-1.397c-0.189-0.602-0.933-1.347-1.528-1.529c-1.218-0.374-1.399-1.083-1.401-1.473   c0-0.389,0.182-1.098,1.399-1.474c0.6-0.184,1.341-0.928,1.53-1.534c0.373-1.208,1.082-1.39,1.47-1.39   c0.389,0,1.1,0.182,1.468,1.397c0.186,0.598,0.93,1.343,1.526,1.526c1.218,0.375,1.399,1.085,1.399,1.474   c0,0.389-0.184,1.098-1.397,1.473c-0.599,0.184-1.343,0.928-1.53,1.533C47.187,36.233,46.478,36.415,46.087,36.415z M44.6,32.016   c0.582,0.373,1.111,0.902,1.485,1.487c0.375-0.585,0.904-1.115,1.485-1.487c-0.581-0.374-1.11-0.903-1.485-1.487   C45.709,31.114,45.182,31.642,44.6,32.016z M34.761,34.149c-0.389,0-1.097-0.183-1.471-1.397c-0.188-0.601-0.93-1.346-1.527-1.528   c-1.221-0.375-1.401-1.085-1.401-1.475c0-0.389,0.183-1.098,1.4-1.471c0.597-0.185,1.341-0.93,1.53-1.535   c0.372-1.21,1.08-1.391,1.469-1.391s1.099,0.182,1.468,1.398c0.186,0.596,0.929,1.342,1.53,1.528   c1.214,0.372,1.396,1.081,1.397,1.47c0,0.39-0.182,1.099-1.399,1.475c-0.6,0.184-1.343,0.928-1.53,1.531   C35.859,33.967,35.149,34.149,34.761,34.149z M33.273,29.75c0.582,0.373,1.11,0.902,1.485,1.486   c0.375-0.585,0.903-1.113,1.487-1.486c-0.584-0.375-1.112-0.904-1.487-1.487C34.384,28.848,33.855,29.377,33.273,29.75z    M41.557,25.089c-0.388,0-1.097-0.182-1.47-1.396c-0.188-0.601-0.933-1.347-1.528-1.529c-1.218-0.374-1.399-1.083-1.401-1.473   c0-0.39,0.182-1.098,1.399-1.474c0.598-0.183,1.342-0.928,1.53-1.534c0.373-1.209,1.082-1.391,1.47-1.391   c0.391,0,1.1,0.182,1.466,1.4c0.188,0.595,0.932,1.341,1.528,1.524c1.219,0.375,1.399,1.084,1.399,1.474   c-0.002,0.389-0.183,1.099-1.401,1.473c-0.595,0.183-1.339,0.929-1.528,1.534C42.656,24.906,41.947,25.089,41.557,25.089z    M40.069,20.69c0.582,0.374,1.111,0.902,1.485,1.487c0.377-0.586,0.904-1.114,1.485-1.486c-0.581-0.374-1.11-0.903-1.487-1.486   C41.179,19.79,40.649,20.317,40.069,20.69z" fill="#242C35"/></g></svg>