<?xml version="1.0" ?><svg style="enable-background:new 0 0 319.5 317;" version="1.1" viewBox="0 0 319.5 317" xml:space="preserve" xmlns="http://www.w3.org/2000/svg" xmlns:xlink="http://www.w3.org/1999/xlink"><style type="text/css">
	.st0{display:none;}
	.st1{display:inline;fill:#191E3C;stroke:#7C7C7C;stroke-miterlimit:10;stroke-dasharray:12;}
	.st2{display:inline;}
	.st3{fill:none;stroke:#3BD1EF;stroke-width:5;stroke-linecap:round;stroke-miterlimit:10;}
	.st4{fill:#3BD1EF;}
	.st5{fill:#FFFFFF;stroke:#212121;stroke-width:5;stroke-miterlimit:10;}
	.st6{fill:none;stroke:#2A2C38;stroke-width:5;stroke-miterlimit:10;}
	.st7{display:inline;fill:none;stroke:#3BD1EF;stroke-width:5;stroke-miterlimit:10;}
	.st8{fill:#A85252;}
</style><g class="st0" id="Layer_1"><rect class="st1" height="1088.6" width="1448.1" x="-605.2" y="-416.9"/><rect class="st1" height="362.9" width="362" x="480.9" y="-416.9"/><rect class="st1" height="362.9" width="362" x="480.9" y="-54"/><rect class="st1" height="362.9" width="362" x="480.9" y="308.9"/><rect class="st1" height="362.9" width="362" x="118.9" y="-416.9"/><rect class="st1" height="362.9" width="362" x="118.9" y="-54"/><rect class="st1" height="362.9" width="362" x="118.4" y="308.9"/><rect class="st1" height="362.9" width="362" x="-243.1" y="-416.9"/><rect class="st1" height="362.9" width="362" x="-243.1" y="-54.1"/><rect class="st1" height="362.9" width="362" x="-243.1" y="308.9"/><rect class="st1" height="362.9" width="362" x="-605.2" y="-416.9"/><rect class="st1" height="362.9" width="362" x="-605.2" y="-55.2"/><rect class="st1" height="362.9" width="362" x="-605.2" y="308.9"/></g><g class="st0" id="small_chair"><g class="st2"><g><path class="st3" d="M13.7,69.5V56.2c0-7.3,11.1-13.4,24.7-13.4H283c13.6,0,24.7,6,24.7,13.4v13.3"/><polygon class="st3" points="160.7,100.8 273,100.8 307.7,85.2 307.7,69.5 160.7,69.5 13.7,69.5 13.7,85.2 48.4,100.8    "/><g><path class="st3" d="M214.6,100.8c0,0,11.5,177,12.7,177c1.1,0,16.3,0,17.3,0s12.7-177,12.7-177"/><path class="st3" d="M64.2,100.8c0,0,11.6,177,12.7,177c1.1,0,16.2,0,17.3,0s12.7-177,12.7-177"/></g></g><g><g><g><circle class="st4" cx="175.3" cy="80.2" r="1.6"/><circle class="st4" cx="146.1" cy="80.2" r="1.6"/><circle class="st4" cx="160.7" cy="80.2" r="1.6"/></g><g><circle class="st4" cx="146.1" cy="80.2" r="1.6"/><circle class="st4" cx="116.9" cy="80.2" r="1.6"/><circle class="st4" cx="131.5" cy="80.2" r="1.6"/></g><g><circle class="st4" cx="204.5" cy="80.2" r="1.6"/><circle class="st4" cx="175.3" cy="80.2" r="1.6"/><circle class="st4" cx="189.9" cy="80.2" r="1.6"/></g><g><circle class="st4" cx="87.7" cy="80.2" r="1.6"/><circle class="st4" cx="58.5" cy="80.2" r="1.6"/><circle class="st4" cx="73.1" cy="80.2" r="1.6"/></g><g><circle class="st4" cx="58.5" cy="80.2" r="1.6"/><circle class="st4" cx="29.3" cy="80.2" r="1.6"/><circle class="st4" cx="43.9" cy="80.2" r="1.6"/></g><g><circle class="st4" cx="116.9" cy="80.2" r="1.6"/><circle class="st4" cx="87.7" cy="80.2" r="1.6"/><circle class="st4" cx="102.3" cy="80.2" r="1.6"/></g></g><circle class="st4" cx="292.1" cy="80.2" r="1.6"/><g><circle class="st4" cx="262.9" cy="80.2" r="1.6"/><circle class="st4" cx="233.7" cy="80.2" r="1.6"/><circle class="st4" cx="248.3" cy="80.2" r="1.6"/></g><g><circle class="st4" cx="233.7" cy="80.2" r="1.6"/><circle class="st4" cx="204.5" cy="80.2" r="1.6"/><circle class="st4" cx="219.1" cy="80.2" r="1.6"/></g><g><circle class="st4" cx="292.1" cy="80.2" r="1.6"/><circle class="st4" cx="262.9" cy="80.2" r="1.6"/><circle class="st4" cx="277.5" cy="80.2" r="1.6"/></g></g><line class="st3" x1="75.5" x2="95.6" y1="264.2" y2="264.2"/><line class="st3" x1="226.1" x2="245.3" y1="264.2" y2="264.2"/></g></g><g class="st0" id="fan"><g class="st2" id="library"/><g class="st2"><g><g><path class="st5" d="M232.9,186.9c-1,0.5-1.9,1-2.9,1.5c-2.4,1.2-4.9,2.3-7.4,3.4c-3.2,1.4-6.5,2.6-9.8,3.7      c-1.7,0.6-3.5,1.1-5.2,1.5c-1.8,0.4-3.7,0.9-5.6,0.7c-0.6,0-1.3,0-1.9,0c-0.5,0-1-0.3-1.3-0.7c-1-1.4-0.2-3.2,0-4.7      c0.2-1.4,0.2-2.9,0.2-4.3c0-1.5,0.1-3.1,0.1-4.6c0-3.3-0.1-6.6-0.7-9.8c-0.1-0.8-0.3-1.6-0.6-2.4c-2.1-6.3-3.6-11.9-9.3-15.7      c-4.7-3.2-8-5.5-9-6.3c-4.6,4-10.4,6.5-16.8,7c-1.9,1.8-6.6,6.8-7,7.2c-4.3,4.3-8.5,8.7-12.9,13c-1.5,1.5-3,3-4.7,4.2      c-1,0.7-2,1.3-3,1.9c-3,1.8-6.2,3.3-9.4,4.5c-8.8,3.2-18.3,4.3-27.6,2.6c-24.3-4.5-23.3-26.4-23.3-26.4c0-1.1,0-2.2,0.1-3.3      c0.1-2.7,0.3-5.4,0.5-8.1c0.3-3.5,0.8-7,1.4-10.4c0.3-1.8,0.7-3.5,1.2-5.3c0.5-1.8,1-3.7,2-5.3c0.3-0.5,0.6-1.1,0.9-1.7      c0.2-0.4,0.7-0.7,1.2-0.8c1.7-0.2,2.9,1.4,4.1,2.3c1.1,0.8,2.4,1.5,3.7,2.2c1.3,0.8,2.7,1.5,4,2.3c2.9,1.5,5.9,3.1,9,4.1      c0.8,0.3,1.6,0.5,2.4,0.6c6.5,1.1,12.2,2.5,18.2-0.7c4.3-2.2,7.6-3.9,9.2-4.6c-0.5-2.2-0.8-4.4-0.8-6.8c0-6.1,1.9-11.7,5.1-16.3      c-0.7-2-1.2-3.8-1.3-4.1c-1.8-5.8-3.6-11.6-5.3-17.5c-0.6-2-1.2-4-1.4-6.1c-0.1-1.2-0.2-2.4-0.3-3.6c-0.1-3.5,0-7,0.5-10.4      c1.3-9.3,4.9-18.2,10.8-25.5c15.5-19.3,34.3-8,34.3-8c1,0.5,1.9,1.1,2.8,1.6c2.3,1.4,4.6,2.8,6.9,4.3c2.9,1.9,5.8,4,8.5,6.2      c1.4,1.1,2.8,2.3,4.1,3.6c1.4,1.3,2.8,2.6,3.7,4.3c0.3,0.6,0.7,1.1,1,1.6c0.3,0.4,0.3,1,0.1,1.4c-0.6,1.6-2.6,1.9-4,2.6      c-1.3,0.6-2.5,1.4-3.7,2.2c-1.3,0.8-2.6,1.6-3.9,2.5c-2.7,1.8-5.5,3.7-7.8,6c-0.6,0.6-1.2,1.2-1.7,1.8c-4.1,5.2-8,9.5-8.1,16.4      c-0.1,5.4-0.3,9.4-0.3,10.8c5.6,2.4,10.2,6.6,13.3,11.8c2.8,0.8,8.7,2.4,9.2,2.6c5.8,1.7,11.7,3.4,17.5,5.1c2,0.6,4,1.2,5.9,2.2      c1.1,0.5,2.1,1.1,3.2,1.8c3,1.8,5.8,3.9,8.4,6.1c7,6.2,12.5,14.1,15.4,23C252.7,177.4,232.9,186.9,232.9,186.9z"/><circle class="st5" cx="160.7" cy="127.7" r="28.6"/><circle class="st5" cx="160.7" cy="127.7" r="110.8"/><path class="st5" d="M189.2,234.6v40.7c0,15.8-12.8,28.6-28.6,28.6h0c-15.8,0-28.6-12.8-28.6-28.6v-40.7"/></g><g><circle class="st5" cx="144.6" cy="256.2" r="3.8"/><circle class="st5" cx="160.7" cy="256.2" r="3.8"/><circle class="st5" cx="176.8" cy="256.2" r="3.8"/></g></g><line class="st5" x1="209.7" x2="209.7" y1="227.3" y2="275.5"/><circle class="st5" cx="209.7" cy="278.8" r="3.3"/></g></g><g class="st0" id="iron_smoother"><g class="st2"><path class="st6" d="M48.1,292.2c0-105.6,72.6-180.9,182.9-211.3"/><path class="st6" d="M236.4,292.2c0-38.4,14.6-65.7,36.9-76.8"/><line class="st6" x1="229.7" x2="272" y1="78.8" y2="218.3"/><line class="st6" x1="49.1" x2="237" y1="289.8" y2="289.8"/><line class="st6" x1="49.1" x2="237" y1="274.5" y2="274.5"/><path class="st6" d="M212.1,131.8c6.3,8.9-19.9,62.9-25.8,66.9c-6.5,4.5-65.5,21.1-71.8,12.2c-6.3-8.9,20-36.5,37.5-50.5    C169.6,146.3,205.8,122.8,212.1,131.8z"/><path class="st6" d="M172.8,204.8l-1.6-7c-0.4-1.7-2.1-2.8-3.8-2.4l-30.6,6.8c-1.7,0.4-2.8,2.1-2.4,3.8l1.2,5.6"/><path class="st6" d="M83.9,176.5l-24.1,20c-1.3,1.1-1.5,3.1-0.4,4.5l6.2,7.2"/><path class="st6" d="M202.7,90.9l3.7-28.2c0.1-1-0.2-1.8-0.7-1.9l-13.4-1.8c-0.5-0.1-1.1,0.7-1.2,1.6l-5.1,36.1"/><path class="st6" d="M195,59.1c5-29.8,30.2-30.6,31.8-30.6"/><path class="st6" d="M202.2,61.1c4.2-24,22.4-25.1,24.5-25.1"/></g></g><g class="st0" id="Cooker"><g class="st2"><path class="st6" d="M276.9,295.7H44.5c-10.9,0-19.8-8.9-19.8-19.8V55.4c0-10.9,8.9-19.8,19.8-19.8h232.4    c10.9,0,19.8,8.9,19.8,19.8v220.5C296.7,286.8,287.8,295.7,276.9,295.7z"/><path class="st6" d="M267.3,111.6H54.1c-1.6,0-2.9-1.3-2.9-2.9v-5.6c0-1.6,1.3-2.9,2.9-2.9h213.2c1.6,0,2.9,1.3,2.9,2.9v5.6    C270.2,110.2,268.9,111.6,267.3,111.6z"/><path class="st6" d="M272.6,231.5H48.8c-5,0-9.1-4.1-9.1-9.1V95.8c0-5,4.1-9.1,9.1-9.1h223.9c5,0,9.1,4.1,9.1,9.1v126.5    C281.7,227.4,277.6,231.5,272.6,231.5z"/><path class="st6" d="M277.6,279.5H43.8c-2.3,0-4.1-1.9-4.1-4.1v-21.7c0-2.3,1.9-4.1,4.1-4.1h233.7c2.3,0,4.1,1.9,4.1,4.1v21.7    C281.7,277.6,279.8,279.5,277.6,279.5z"/><g><circle class="st6" cx="272.8" cy="61.8" r="7.6"/><circle class="st6" cx="240.6" cy="61.8" r="7.6"/></g><g><circle class="st6" cx="201.1" cy="61.8" r="7.6"/><circle class="st6" cx="168.9" cy="61.8" r="7.6"/></g><g><circle class="st6" cx="128.2" cy="61.8" r="7.6"/><circle class="st6" cx="95.9" cy="61.8" r="7.6"/></g><path class="st6" d="M74.9,69.5H41c-0.7,0-1.3-0.6-1.3-1.3V55.6c0-0.7,0.6-1.3,1.3-1.3h33.9c0.7,0,1.3,0.6,1.3,1.3v12.6    C76.2,68.9,75.6,69.5,74.9,69.5z"/><g><line class="st6" x1="66.5" x2="66.5" y1="60.6" y2="63.1"/><line class="st6" x1="58" x2="58" y1="60.6" y2="63.1"/><line class="st6" x1="49.4" x2="49.4" y1="60.6" y2="63.1"/></g><g><g><polyline class="st6" points="265.4,27.5 275.7,27.5 275.7,35.7     "/><line class="st6" x1="275.7" x2="265.4" y1="27.5" y2="27.5"/></g><g><polyline class="st6" points="254,27.5 243.7,27.5 243.7,35.7     "/><line class="st6" x1="243.7" x2="254" y1="27.5" y2="27.5"/></g><line class="st6" x1="259.7" x2="259.7" y1="25" y2="34.4"/></g><g><g><polyline class="st6" points="205,27.5 215.4,27.5 215.4,35.7     "/><line class="st6" x1="215.4" x2="196.3" y1="27.5" y2="27.5"/></g><g><polyline class="st6" points="164.9,27.5 154.6,27.5 154.6,35.7     "/><line class="st6" x1="154.6" x2="173.6" y1="27.5" y2="27.5"/></g><line class="st6" x1="185" x2="185" y1="25" y2="34.4"/></g><g><g><polyline class="st6" points="115.9,27.5 126.3,27.5 126.3,35.7     "/><line class="st6" x1="126.3" x2="115.9" y1="27.5" y2="27.5"/></g><g><polyline class="st6" points="104.6,27.5 94.3,27.5 94.3,35.7     "/><line class="st6" x1="94.3" x2="104.6" y1="27.5" y2="27.5"/></g><line class="st6" x1="110.3" x2="110.3" y1="25" y2="34.4"/></g></g></g><g class="st0" id="bed"><g class="st2"><g><g><path class="st6" d="M174,68c0,8.8-12.4,56.7-13.3,56.7c-0.9,0-13.3-47.9-13.3-56.7s5.9-16,13.3-16C168,52,174,59.2,174,68z"/><path class="st6" d="M128.9,75.5c6.4,6.3,32.4,48.7,31.8,49.2c-0.6,0.6-44.1-24.7-50.5-31c-6.4-6.3-7.4-15.4-2.2-20.5      C113.1,68.2,122.5,69.2,128.9,75.5z"/><path class="st6" d="M102.5,111.8c9.1,0,58.2,12.1,58.2,12.9c0,0.8-49.1,12.9-58.2,12.9s-16.4-5.8-16.4-12.9      C86.1,117.6,93.4,111.8,102.5,111.8z"/></g><path class="st6" d="M192.5,75.5c-6.4,6.3-32.4,48.7-31.8,49.2c0.6,0.6,44.1-24.7,50.5-31c6.4-6.3,7.4-15.4,2.2-20.5     C208.3,68.2,198.9,69.2,192.5,75.5z"/><path class="st6" d="M218.9,111.8c-9.1,0-58.2,12.1-58.2,12.9c0,0.8,49.1,12.9,58.2,12.9s16.4-5.8,16.4-12.9     C235.3,117.6,228,111.8,218.9,111.8z"/></g><path class="st6" d="M297.6,295.5H23.8v-68.1c0-3.2,2.6-5.8,5.8-5.8h262.1c3.2,0,5.8,2.6,5.8,5.8V295.5z"/><path class="st6" d="M293.1,221.7H28.3v-17.2c0-3.2,2.6-5.8,5.8-5.8h253.1c3.2,0,5.8,2.6,5.8,5.8V221.7z"/><g><path class="st6" d="M180.2,198.7c0,0,0-2.1,0-4.7v-18.5c0-2.6,2.5-4.7,5.6-4.7h72c3.1,0,5.6,2.1,5.6,4.7v18.5c0,2.6,0,4.7,0,4.7     "/><path class="st6" d="M58,198.7c0,0,0-2.1,0-4.7v-18.5c0-2.6,2.5-4.7,5.6-4.7h72c3.1,0,5.6,2.1,5.6,4.7v18.5c0,2.6,0,4.7,0,4.7"/><path class="st6" d="M63.6,198.7"/><path class="st6" d="M141.2,191.3c0,4.1,0,7.4,0,7.4"/></g><path class="st6" d="M285.6,198.7c0-80.1-55.9-173.5-124.9-173.5S35.8,118.5,35.8,198.7"/></g></g><g class="st0" id="shoes_Closet"><g class="st2"><path class="st6" d="M267,304.4H54.4c-11,0-20.1-9-20.1-20.1v-248c0-11,9-20.1,20.1-20.1H267c11,0,20.1,9,20.1,20.1v248    C287.1,295.4,278.1,304.4,267,304.4z"/><path class="st6" d="M119.4,54.1H84.7c-1.8,0-3.3-1.5-3.3-3.3v-2.4c0-1.8,1.5-3.3,3.3-3.3h34.6c1.8,0,3.3,1.5,3.3,3.3v2.4    C122.7,52.6,121.2,54.1,119.4,54.1z"/><path class="st6" d="M138.7,111.8h-34.6c-1.8,0-3.3-1.5-3.3-3.3v-2.4c0-1.8,1.5-3.3,3.3-3.3h34.6c1.8,0,3.3,1.5,3.3,3.3v2.4    C142.1,110.3,140.6,111.8,138.7,111.8z"/><g><path class="st6" d="M236.6,54.1H202c-1.8,0-3.3-1.5-3.3-3.3v-2.4c0-1.8,1.5-3.3,3.3-3.3h34.6c1.8,0,3.3,1.5,3.3,3.3v2.4     C240,52.6,238.5,54.1,236.6,54.1z"/><path class="st6" d="M268.6,68.8H170c-1.8,0-3.3-1.5-3.3-3.3V33.7c0-1.8,1.5-3.3,3.3-3.3h98.6c1.8,0,3.3,1.5,3.3,3.3v31.7     C272,67.3,270.5,68.8,268.6,68.8z"/></g><path class="st6" d="M151.3,68.8H52.8c-1.8,0-3.3-1.5-3.3-3.3V33.7c0-1.8,1.5-3.3,3.3-3.3h98.6c1.8,0,3.3,1.5,3.3,3.3v31.7    C154.7,67.3,153.2,68.8,151.3,68.8z"/><g><path class="st6" d="M217.6,111.8H183c-1.8,0-3.3-1.5-3.3-3.3v-2.4c0-1.8,1.5-3.3,3.3-3.3h34.6c1.8,0,3.3,1.5,3.3,3.3v2.4     C220.9,110.3,219.4,111.8,217.6,111.8z"/><path class="st6" d="M268.8,266.8h-99c-1.7,0-3.1-1.4-3.1-3.1V91.9c0-1.7,1.4-3.1,3.1-3.1h99c1.7,0,3.1,1.4,3.1,3.1v171.8     C271.9,265.4,270.5,266.8,268.8,266.8z"/></g><path class="st6" d="M151.5,266.8h-99c-1.7,0-3.1-1.4-3.1-3.1V91.9c0-1.7,1.4-3.1,3.1-3.1h99c1.7,0,3.1,1.4,3.1,3.1v171.8    C154.7,265.4,153.3,266.8,151.5,266.8z"/><line class="st6" x1="34.3" x2="287.1" y1="284.5" y2="284.5"/><polygon class="st6" points="124.2,189.3 120.8,192.4 120.7,192.3 124.1,189.2   "/><polygon class="st6" points="117,195.8 113.5,198.8 113.4,198.7 116.8,195.7   "/><polygon class="st6" points="109.7,202.2 106.2,205.3 106.1,205.2 109.6,202.1   "/><rect class="st6" height="0" transform="matrix(0.7497 -0.6618 0.6618 0.7497 -100.4634 122.2716)" width="4.6" x="109.1" y="193.9"/><rect class="st6" height="0" transform="matrix(0.7497 -0.6618 0.6618 0.7497 -106.5368 119.0628)" width="4.6" x="101.8" y="200.4"/><polygon class="st6" points="120.4,186 117,189.1 117,189 120.4,186   "/><path class="st6" d="M129.8,123.6H74.3c-3.2,0-5.7,2.3-5.7,5.1v120.9c0,2.8,2.6,5.1,5.7,5.1h55.5c3.2,0,5.7-2.3,5.7-5.1V128.6    C135.6,125.8,133,123.6,129.8,123.6z M130.2,132.7v3.7l-2.1-1.9L130.2,132.7z M130.2,145.5v3.7l-2.1-1.9L130.2,145.5z     M127.5,128.3l-3.3,2.9l-3.3-2.9H127.5z M124.3,137.9l3.5,3.1l-3.5,3.1l-3.5-3.1L124.3,137.9z M124.2,150.8l3.5,3.1l-3.5,3.1    l-3.5-3.1L124.2,150.8z M112.9,128.3l-3.3,2.9l-3.3-2.9H112.9z M109.7,137.9l3.5,3.1l-3.5,3.1l-3.5-3.1L109.7,137.9z M109.7,163.6    l3.5,3.1l-3.5,3.1l-3.5-3.1L109.7,163.6z M98.4,128.3l-3.3,2.9l-3.3-2.9H98.4z M95.1,176.5l3.5,3.1l-3.5,3.1l-3.5-3.1L95.1,176.5z     M83.8,128.3l-3.2,2.9l-3.2-2.9H83.8z M80.5,137.9L84,141l-3.5,3.1l-3.5-3.1L80.5,137.9z M73.9,183.6l2.8,2.4l-2.8,2.4V183.6z     M73.9,196.5l2.8,2.4l-2.8,2.4V196.5z M74.3,249.8c-0.2,0-0.4-0.1-0.4-0.3v-1.6l2.2,1.9c0,0,0,0,0,0H74.3z M73.9,239.9V235    l2.7,2.4L73.9,239.9z M73.9,227v-4.9l2.8,2.4L73.9,227z M73.9,214.2v-4.9l2.8,2.4L73.9,214.2z M73.9,175.6v-5l2.8,2.5L73.9,175.6z     M73.9,162.8v-5l2.8,2.5L73.9,162.8z M73.9,149.9v-5l2.8,2.5L73.9,149.9z M73.9,137v-4.9l2.8,2.5L73.9,137z M80.5,246.9l-3.5-3.1    l3.5-3.1l3.5,3.1L80.5,246.9z M76.9,230.9l3.5-3.1l0.1,0.1l3.4,3.1l-3.5,3.1L77,231L76.9,230.9z M80.5,221.2l-3.5-3.1l3.5-3.1    l3.5,3.1L80.5,221.2z M80.5,208.4l-3.5-3.1l3.5-3.1l3.5,3.1L80.5,208.4z M80.5,195.5l-3.5-3.1l3.5-3.1l3.5,3.1L80.5,195.5z     M80.6,182.6l-3.5-3.1l3.5-3.1l3.5,3.1L80.6,182.6z M77.1,166.7l3.5-3.1l3.5,3.1l-3.5,3.1L77.1,166.7z M80.6,156.9l-3.5-3.1    l3.5-3.1l3.5,3.1L80.6,156.9z M84.8,249.8l2.9-2.6l2.9,2.6H84.8z M87.8,240.5l-3.5-3.1l3.5-3.1l3.5,3.1L87.8,240.5z M87.8,227.7    l-3.6-3.2l3.5-3.1l3.6,3.2L87.8,227.7z M87.8,214.8l-3.5-3.1l3.5-3.1l3.5,3.1L87.8,214.8z M87.8,202l-3.5-3.1l3.5-3.1l3.5,3.1    L87.8,202z M87.8,189.1l-3.5-3.1l3.5-3.1l3.5,3.1L87.8,189.1z M87.8,176.2l-3.5-3.1l3.5-3.1l3.5,3.1L87.8,176.2z M87.8,163.3    l-3.5-3.1l3.5-3.1l3.5,3.1L87.8,163.3z M87.8,150.5l-3.5-3.1l3.5-3.1l3.5,3.1L87.8,150.5z M87.8,137.6l-3.5-3.1l3.5-3.1l3.5,3.1    L87.8,137.6z M95,247l-3.5-3.1l3.5-3.1l3.5,3.1L95,247z M95,234.1l-3.5-3.1l3.5-3.1l3.5,3.1L95,234.1z M95,221.2l-3.6-3.2l3.5-3.1    l3.6,3.2L95,221.2z M95.1,208.4l-3.5-3.1l3.5-3.1l3.5,3.1L95.1,208.4z M95.1,195.5l-3.5-3.1l3.5-3.1l3.5,3.1L95.1,195.5z     M95.1,169.8l-3.5-3.1l3.5-3.1l3.5,3.1L95.1,169.8z M91.6,153.9l3.5-3.1l3.5,3.1l-3.5,3.1L91.6,153.9z M95.1,144.1l-3.5-3.1    l3.5-3.1l3.5,3.1L95.1,144.1z M98.7,211.6l3.5-3.1l0.1,0.1l3.5,3.1l-3.5,3.1l-3.5-3.1L98.7,211.6z M102.3,221.5l3.5,3.1l-3.5,3.1    l-3.5-3.1L102.3,221.5z M99.4,249.8l2.9-2.6l2.9,2.6H99.4z M102.3,240.5l-3.5-3.1l3.5-3.1l3.5,3.1L102.3,240.5z M102.4,201.9    L102.4,201.9l-3.5-3.1l3.5-3.1l3.5,3.1L102.4,201.9z M102.4,189.1l-3.5-3.1l3.5-3.1l3.5,3.1L102.4,189.1z M102.4,176.2l-3.5-3.1    l3.5-3.1l3.5,3.1L102.4,176.2z M102.4,163.3l-3.5-3.1l3.5-3.1l3.5,3.1L102.4,163.3z M102.4,150.5l-3.5-3.1l3.5-3.1l3.5,3.1    L102.4,150.5z M102.4,137.6l-3.5-3.1l3.5-3.1l3.5,3.1L102.4,137.6z M109.6,246.9l-3.5-3.1l3.5-3.1l3.5,3.1L109.6,246.9z     M106.1,218.2l3.5-3.1l3.5,3.1l-3.5,3.1L106.1,218.2z M109.6,234.1l-3.5-3.1l3.5-3.1l3.5,3.1L109.6,234.1z M109.7,208.3l-3.4-3.1    l0,0l-0.1-0.1l3.5-3.1l0.1,0.1l0,0l3.4,3.1L109.7,208.3z M109.7,195.5L109.7,195.5l-3.5-3.1l3.5-3.1l3.5,3.1l0,0L109.7,195.5z     M109.7,182.6l-3.5-3.1l3.5-3.1l3.5,3.1L109.7,182.6z M109.7,156.9l-3.5-3.1l3.5-3.1l3.5,3.1L109.7,156.9z M114,249.8l3-2.6    l2.9,2.6H114z M116.9,240.5l-3.5-3.1l3.5-3.1l3.5,3.1L116.9,240.5z M113.4,198.7l3.5-3.1l0.1,0.1l0,0l3.4,3.1l-3.5,3.1l-3.5-3.1    L113.4,198.7z M116.9,227.7l-3.5-3.1l3.5-3.1l3.5,3.1L116.9,227.7z M117,214.8l-3.5-3.1l3.5-3.1l3.5,3.1L117,214.8z M117,189.1    L117,189.1l-3.5-3.1l3.5-3.1l3.5,3.1l0,0L117,189.1z M117,176.2l-3.5-3.1l3.5-3.1l3.5,3.1L117,176.2z M117,163.3l-3.5-3.1l3.5-3.1    l3.5,3.1L117,163.3z M117,150.5l-3.5-3.1l3.5-3.1l3.5,3.1L117,150.5z M117,137.6l-3.5-3.1l3.5-3.1l3.5,3.1L117,137.6z M124.2,247    l-3.5-3.1l3.5-3.1l3.5,3.1L124.2,247z M120.7,231l3.5-3.1l3.5,3.1l-3.5,3.1L120.7,231z M124.2,221.2l-3.5-3.1l3.5-3.1l3.5,3.1    L124.2,221.2z M124.2,208.3l-3.5-3.1l3.5-3.1l3.5,3.1L124.2,208.3z M124.2,195.5l-3.5-3.1l0,0l-0.1-0.1l3.5-3.1l3.6,3.2    L124.2,195.5z M124.3,182.6l-3.5-3.1l3.5-3.1l3.5,3.1L124.3,182.6z M124.3,169.8l-3.5-3.1l3.5-3.1l3.5,3.1L124.3,169.8z     M130.2,249.5c0,0.2-0.2,0.3-0.4,0.3h-1.3l1.6-1.5V249.5z M130.2,239.4l-2.2-1.9l2.2-1.9V239.4z M130.2,226.4l-2.1-1.9l2.1-1.9    V226.4z M130.2,213.6l-2.1-1.9l2.1-1.9V213.6z M130.2,200.7l-2.1-1.9l2.1-1.9V200.7z M130.2,187.9l-2.1-1.9l-0.1-0.1l2.2-2V187.9z     M130.2,175l-2.1-1.9l2.1-1.9V175z M130.2,162.1l-2.1-1.9l2.1-1.9V162.1z"/><path class="st6" d="M247.1,123.6h-55.5c-3.2,0-5.7,2.3-5.7,5.1v120.9c0,2.8,2.6,5.1,5.7,5.1h55.5c3.2,0,5.7-2.3,5.7-5.1V128.7    C252.8,125.9,250.2,123.6,247.1,123.6z M247.4,132.7v3.7l-2.1-1.9L247.4,132.7z M247.4,145.6v3.7l-2.1-1.9L247.4,145.6z     M244.8,128.4l-3.3,2.9l-3.3-2.9H244.8z M241.5,138l3.5,3.1l-3.5,3.1L238,141L241.5,138z M241.5,150.8l3.5,3.1l-3.5,3.1l-3.5-3.1    L241.5,150.8z M230.2,128.4l-3.3,2.9l-3.3-2.9H230.2z M226.9,138l3.5,3.1l-3.5,3.1l-3.5-3.1L226.9,138z M226.9,163.7l3.5,3.1    l-3.5,3.1l-3.5-3.1L226.9,163.7z M215.6,128.4l-3.3,2.9l-3.3-2.9H215.6z M212.4,176.5l3.5,3.1l-3.5,3.1l-3.5-3.1L212.4,176.5z     M201,128.4l-3.2,2.9l-3.2-2.9H201z M197.8,138l3.5,3.1l-3.5,3.1l-3.5-3.1L197.8,138z M191.2,183.7l2.8,2.4l-2.8,2.4V183.7z     M191.2,196.5l2.8,2.4l-2.8,2.4V196.5z M191.6,249.9c-0.2,0-0.4-0.1-0.4-0.3v-1.6l2.2,1.9c0,0,0,0,0,0H191.6z M191.2,239.9v-4.8    l2.7,2.4L191.2,239.9z M191.2,227.1v-4.9l2.8,2.4L191.2,227.1z M191.2,214.2v-4.9l2.8,2.4L191.2,214.2z M191.2,175.7v-5l2.8,2.5    L191.2,175.7z M191.2,162.8v-5l2.8,2.5L191.2,162.8z M191.2,149.9v-5l2.8,2.5L191.2,149.9z M191.2,137.1v-4.9l2.8,2.5L191.2,137.1    z M197.7,247l-3.5-3.1l3.5-3.1l3.5,3.1L197.7,247z M194.1,231l3.5-3.1l0.1,0.1l3.4,3.1l-3.5,3.1l-3.4-3.1L194.1,231z M197.8,221.3    l-3.5-3.1l3.5-3.1l3.5,3.1L197.8,221.3z M197.8,208.4l-3.5-3.1l3.5-3.1l3.5,3.1L197.8,208.4z M197.8,195.6l-3.5-3.1l3.5-3.1    l3.5,3.1L197.8,195.6z M197.8,182.7l-3.5-3.1l3.5-3.1l3.5,3.1L197.8,182.7z M194.3,166.7l3.5-3.1l3.5,3.1l-3.5,3.1L194.3,166.7z     M197.8,157l-3.5-3.1l3.5-3.1l3.5,3.1L197.8,157z M202.1,249.9l2.9-2.6l2.9,2.6H202.1z M205,240.6l-3.5-3.1l3.5-3.1l3.5,3.1    L205,240.6z M205,227.7l-3.6-3.2l3.5-3.1l3.6,3.2L205,227.7z M205,214.9l-3.5-3.1l3.5-3.1l3.5,3.1L205,214.9z M205,202l-3.5-3.1    l3.5-3.1l3.5,3.1L205,202z M205.1,189.1l-3.5-3.1l3.5-3.1l3.5,3.1L205.1,189.1z M205.1,176.3l-3.5-3.1l3.5-3.1l3.5,3.1    L205.1,176.3z M205.1,163.4l-3.5-3.1l3.5-3.1l3.5,3.1L205.1,163.4z M205.1,150.5l-3.5-3.1l3.5-3.1l3.5,3.1L205.1,150.5z     M205.1,137.7l-3.5-3.1l3.5-3.1l3.5,3.1L205.1,137.7z M212.3,247l-3.5-3.1l3.5-3.1l3.5,3.1L212.3,247z M212.3,234.1l-3.5-3.1    l3.5-3.1l3.5,3.1L212.3,234.1z M212.3,221.3l-3.6-3.2l3.5-3.1l3.6,3.2L212.3,221.3z M212.3,208.4l-3.5-3.1l3.5-3.1l3.5,3.1    L212.3,208.4z M212.4,195.5l-3.5-3.1l3.5-3.1l3.5,3.1L212.4,195.5z M212.4,169.8l-3.5-3.1l3.5-3.1l3.5,3.1L212.4,169.8z     M208.9,153.9l3.5-3.1l3.5,3.1l-3.5,3.1L208.9,153.9z M212.4,144.1l-3.5-3.1l3.5-3.1l3.5,3.1L212.4,144.1z M216,211.7l3.5-3.1    l0.1,0.1l3.5,3.1l-3.5,3.1l-3.5-3.1L216,211.7z M219.6,221.6l3.5,3.1l-3.5,3.1l-3.5-3.1L219.6,221.6z M216.7,249.9l2.9-2.6    l2.9,2.6H216.7z M219.6,240.6l-3.5-3.1l3.5-3.1l3.5,3.1L219.6,240.6z M219.7,202L219.7,202l-3.5-3.1l3.5-3.1l3.5,3.1L219.7,202z     M219.7,189.1l-3.5-3.1l3.5-3.1l3.5,3.1L219.7,189.1z M219.7,176.2l-3.5-3.1l3.5-3.1l3.5,3.1L219.7,176.2z M219.7,163.4l-3.5-3.1    l3.5-3.1l3.5,3.1L219.7,163.4z M219.7,150.5l-3.5-3.1l3.5-3.1l3.5,3.1L219.7,150.5z M219.7,137.7l-3.5-3.1l3.5-3.1l3.5,3.1    L219.7,137.7z M226.9,247l-3.5-3.1l3.5-3.1l3.5,3.1L226.9,247z M223.4,218.2l3.5-3.1l3.5,3.1l-3.5,3.1L223.4,218.2z M226.9,234.1    l-3.5-3.1l3.5-3.1l3.5,3.1L226.9,234.1z M226.9,208.4l-3.4-3.1l0,0l-0.1-0.1l3.5-3.1l0.1,0.1l0,0l3.4,3.1L226.9,208.4z     M226.9,195.5L226.9,195.5l-3.5-3.1l3.5-3.1l3.5,3.1l0,0L226.9,195.5z M227,182.7l-3.5-3.1l3.5-3.1l3.5,3.1L227,182.7z M226.9,157    l-3.5-3.1l3.5-3.1l3.5,3.1L226.9,157z M231.2,249.9l3-2.6l2.9,2.6H231.2z M234.1,240.6l-3.5-3.1l3.5-3.1l3.5,3.1L234.1,240.6z     M230.6,198.8l3.5-3.1l0.1,0.1l0,0l3.4,3.1l-3.5,3.1l-3.5-3.1L230.6,198.8z M234.2,227.7l-3.5-3.1l3.5-3.1l3.5,3.1L234.2,227.7z     M234.2,214.8l-3.5-3.1l3.5-3.1l3.5,3.1L234.2,214.8z M234.2,189.1L234.2,189.1l-3.5-3.1l3.5-3.1l3.5,3.1l0,0L234.2,189.1z     M234.2,176.3l-3.5-3.1l3.5-3.1l3.5,3.1L234.2,176.3z M234.2,163.4l-3.5-3.1l3.5-3.1l3.5,3.1L234.2,163.4z M234.2,150.5l-3.5-3.1    l3.5-3.1l3.5,3.1L234.2,150.5z M234.2,137.7l-3.5-3.1l3.5-3.1l3.5,3.1L234.2,137.7z M241.4,247l-3.5-3.1l3.5-3.1l3.5,3.1    L241.4,247z M237.9,231.1l3.5-3.1l3.5,3.1l-3.5,3.1L237.9,231.1z M241.5,221.2l-3.5-3.1l3.5-3.1l3.5,3.1L241.5,221.2z     M241.5,208.4l-3.5-3.1l3.5-3.1l3.5,3.1L241.5,208.4z M241.5,195.5l-3.5-3.1l0,0l-0.1-0.1l3.5-3.1l3.6,3.2L241.5,195.5z     M241.5,182.7l-3.5-3.1l3.5-3.1l3.5,3.1L241.5,182.7z M241.5,169.8l-3.5-3.1l3.5-3.1l3.5,3.1L241.5,169.8z M247.4,249.6    c0,0.2-0.2,0.3-0.4,0.3h-1.3l1.6-1.5V249.6z M247.4,239.4l-2.2-1.9l2.2-1.9V239.4z M247.4,226.5l-2.1-1.9l2.1-1.9V226.5z     M247.4,213.6l-2.1-1.9l2.1-1.9V213.6z M247.4,200.7l-2.1-1.9l2.1-1.9V200.7z M247.4,187.9l-2.1-1.9l-0.1-0.1l2.2-2V187.9z     M247.4,175l-2.1-1.9l2.1-1.9V175z M247.4,162.2l-2.1-1.9l2.1-1.9V162.2z"/></g></g><g id="kettle"><g><path class="st6" d="M68,294.3c0-96.4,51.7-174.5,115.5-174.5S299,197.9,299,294.3H68z"/><line class="st6" x1="68" x2="298.5" y1="278.1" y2="278.1"/><line class="st6" x1="131" x2="235.4" y1="138.8" y2="138.8"/><path class="st6" d="M82.6,204.9l-37.5-18c-1.1-0.5-1.6-1.9-1.1-3.1l11.8-24.6c0.5-1.1,1.9-1.6,3.1-1.1l37.5,18"/><line class="st6" x1="53.2" x2="67" y1="191" y2="162.2"/><circle class="st6" cx="36.8" cy="165.3" r="14.4"/><circle class="st6" cx="183.5" cy="105.4" r="14.4"/><path class="st6" d="M118.3,150.2c-15.5-22.5-18.8-52.5-6.2-78.9c18.8-39.4,66-56,105.4-37.2s56,66,37.2,105.4    c-1.8,3.8-3.9,7.3-6.2,10.7"/></g></g><g class="st0" id="fredge"><g class="st2" id="Layer_4"/><g class="st2"><path class="st6" d="M244.4,283.1H77c-9.4,0-17-7.7-17-17v-226c0-9.4,7.7-17,17-17h167.3c9.4,0,17,7.7,17,17v226    C261.4,275.5,253.7,283.1,244.4,283.1z"/><line class="st6" x1="261.4" x2="60" y1="82.5" y2="82.5"/><line class="st6" x1="261.4" x2="60" y1="94.5" y2="94.5"/><line class="st6" x1="261.4" x2="60" y1="218.5" y2="218.5"/><line class="st6" x1="261.4" x2="60" y1="230.5" y2="230.5"/><path class="st6" d="M60,105.3c0,0,19.2,0,22.5,0c8.2,0,5.3-5.9,10.6-9c2.6-1.5,10.2-1.9,10.2-1.9"/><path class="st6" d="M200.6,230.5c-8.5,0-20.3,4.9-23.3,6.1c-3.8,1.6-7.4,4.5-16.6,4.5s-12.8-2.9-16.6-4.5    c-3-1.3-14.7-6.1-23.3-6.1"/><path class="st6" d="M160.7,263.7"/><path class="st6" d="M160.7,281.7"/><g><path class="st6" d="M239.5,283.6v4.1c0,0.9-0.7,1.7-1.7,1.7h-12.7c-0.9,0-1.7-0.7-1.7-1.7v-4.1"/><circle class="st6" cx="231.5" cy="294.1" r="3.4"/></g><g><path class="st6" d="M97.7,283.4v4.1c0,0.9-0.7,1.7-1.7,1.7H83.4c-0.9,0-1.7-0.7-1.7-1.7v-4.1"/><circle class="st6" cx="89.7" cy="293.9" r="3.4"/></g><path class="st6" d="M244,45.8h-17c-1.6,0-2.8-1.3-2.8-2.8v-2.7c0-1.6,1.3-2.8,2.8-2.8h17c1.6,0,2.8,1.3,2.8,2.8V43    C246.9,44.5,245.6,45.8,244,45.8z"/></g></g><g class="st0" id="image_frame"><path class="st7" d="M373.7-229.3"/><path class="st7" d="M353.9-236.7"/><g class="st2"><rect class="st6" height="260" width="197.1" x="62.2" y="30.3"/><rect class="st6" height="195.6" width="131.8" x="94.8" y="62.5"/><line class="st6" x1="226.6" x2="192.9" y1="156.2" y2="122.4"/><line class="st6" x1="194.4" x2="94.5" y1="120.5" y2="220.4"/><line class="st6" x1="142" x2="124.7" y1="173.8" y2="156.5"/><line class="st6" x1="126.5" x2="95.3" y1="154.8" y2="186.1"/><path class="st6" d="M165.5,149.4c0.9-2.8,0.9-4,0.9-7.2c0-16.8-13.6-30.4-30.4-30.4s-30.4,13.6-30.4,30.4    c0,9.2,3.9,17.2,10.3,22.8"/></g><path class="st7" d="M402.7-250.7"/></g><g class="st0" id="chair"><g class="st2"><path class="st6" d="M251.8,160.5"/><path class="st6" d="M246.9,76.7"/><path class="st6" d="M183.7,37.3"/><path class="st6" d="M69.6,160.5"/><path class="st6" d="M74.5,76.7"/><path class="st6" d="M137.7,37.3"/><path class="st6" d="M185.3,38.6c25.3,21.4,31.3,19.3,54.3,34.6"/><path class="st6" d="M239.3,72.9c5.8,3.9,11.3,8.1,16,13.2c4.5,5,8,10.8,9.4,17.4c1.5,7.1,0.4,14-1.7,20.8    c-1.7,5.6-3.7,11.2-5.6,16.8c-1.7,5-3.5,10.1-4.8,15.2c-0.3,1.3-0.8,2.7-0.8,4.1"/><path class="st6" d="M236.8,177.1c0-8.2,6.7-14.9,14.9-14.9c8.2,0,14.9,6.7,14.9,14.9"/><line class="st6" x1="236.8" x2="236.8" y1="200.7" y2="177.1"/><polyline class="st6" points="266.7,177.1 266.7,230.1 236.8,230.1   "/><path class="st6" d="M160.8,230.1"/><line class="st6" x1="236.8" x2="208.4" y1="230.1" y2="230.1"/><path class="st6" d="M107.7,226.1"/><polyline class="st6" points="240.6,230.1 237.4,290.5 229.5,290.5 225.8,230.1   "/><path class="st6" d="M91.1,106.4"/><path class="st6" d="M160.8,78.7c38.5,0,68.5,11.6,69.7,27.4"/><path class="st6" d="M230.4,105.8c1.2,10.4,0.5,24.8-16.2,47.5"/><path class="st6" d="M214.8,152.3c-3.4,4.9-11.2,12.3-35.3,12.3"/><path class="st6" d="M135.9,38.6c6.5-5.3,14.7-8.5,23.8-8.5h2c9,0,17.3,3.2,23.8,8.5"/><path class="st6" d="M136,38.6c-25.3,21.4-31.3,19.3-54.3,34.6"/><path class="st6" d="M82.1,72.9c-5.8,3.9-11.3,8.1-16,13.2c-4.5,5-8,10.8-9.4,17.4c-1.5,7.1-0.4,14,1.7,20.8    c1.7,5.6,3.7,11.2,5.6,16.8c1.7,5,3.5,10.1,4.8,15.2c0.3,1.3,0.8,2.7,0.8,4.1"/><path class="st6" d="M84.6,177.1c0-8.2-6.7-14.9-14.9-14.9s-14.9,6.7-14.9,14.9"/><line class="st6" x1="84.6" x2="84.6" y1="200.7" y2="177.1"/><polyline class="st6" points="54.7,177.1 54.7,230.1 84.6,230.1   "/><polyline class="st6" points="82.2,200.3 160.6,200.3 160.8,200.3 239.2,200.3   "/><path class="st6" d="M160.6,230.1"/><line class="st6" x1="84.4" x2="113" y1="230.1" y2="230.1"/><path class="st6" d="M84.6,200.3c0-9.2,34-16.7,76-16.7h0.3c42,0,76,7.5,76,16.7"/><path class="st6" d="M112.6,230.1c26.9,0,31.5,15.7,48,15.7h0.1c16.5,0,21.1-15.7,48-15.7"/><polyline class="st6" points="80.8,230.1 84,290.5 91.9,290.5 95.6,230.1   "/><path class="st6" d="M160.9,78.7c-38.5,0-68.5,11.6-69.7,27.4"/><path class="st6" d="M91,105.8c-1.2,10.4-0.5,24.8,16.2,47.5"/><path class="st6" d="M106.6,152.3c3.4,4.9,11.2,12.3,35.3,12.3"/><path class="st6" d="M141.8,164.6c9.2,0,8.4,7.6,18.8,7.6h0.2c10.4,0,9.5-7.6,18.8-7.6"/></g></g><g class="st0" id="Wash_machine"><g class="st2"><path class="st6" d="M244.3,287.6H77c-9.4,0-17-7.7-17-17v-226c0-9.4,7.7-17,17-17h167.3c9.4,0,17,7.7,17,17v226    C261.4,279.9,253.7,287.6,244.3,287.6z"/><path class="st6" d="M166.8,275.1"/><path class="st6" d="M166.8,293.1"/><line class="st6" x1="60" x2="261.4" y1="58" y2="58"/><g><line class="st6" x1="60" x2="261.4" y1="110.3" y2="110.3"/><line class="st6" x1="60" x2="261.4" y1="271.3" y2="271.3"/></g><circle class="st6" cx="229.2" cy="83.1" r="11"/><line class="st6" x1="227.6" x2="230.7" y1="86.1" y2="80.2"/><g><line class="st6" x1="186.9" x2="186.9" y1="75.8" y2="90.5"/><line class="st6" x1="164.3" x2="164.3" y1="75.8" y2="90.5"/><line class="st6" x1="175.6" x2="175.6" y1="75.8" y2="90.5"/></g><path class="st6" d="M127.4,97.8H77.7c-3.1,0-5.7-2.6-5.7-5.7V75.3c0-3.1,2.6-5.7,5.7-5.7h49.7c3.1,0,5.7,2.6,5.7,5.7v16.8    C133.1,95.2,130.5,97.8,127.4,97.8z"/><line class="st6" x1="72" x2="133.1" y1="79.5" y2="79.5"/><circle class="st6" cx="160.7" cy="190.8" r="58"/><path class="st6" d="M140,190.8c0-11.4,9.3-20.7,20.7-20.7"/><path class="st6" d="M195.5,195.3c0,19.2-15.6,30.3-34.8,30.3s-34.8-15.6-34.8-34.8s15.6-34.8,34.8-34.8    c19.5,0,34.8,14.3,34.8,30.3"/><polyline class="st6" points="195.5,183.8 182.6,183.8 182.6,197.8 194.7,197.8   "/></g></g><g class="st0" id="home_sweet_home"><g class="st2" id="Layer_16"/><g class="st2"><path class="st8" d="M-416.4-251.2c-2.3-2.3-6.7-2.3-7.4,1.7c-1.6,9.1-5.7,16.8-12.5,23c-2.3,2.1-0.8,6.1,2.5,6.7    c7.1,1.2,10.9,0.5,14.8-5.8c4.2-6.8,7.4-14.1,10.2-21.5C-407.1-251.8-413.4-254.2-416.4-251.2z"/><g><path class="st3" d="M-470.6-304.1c-0.1,1.4-0.5,2.4-1.2,3c-0.7,0.6-1.5,1-2.5,1.2c-1,0.2-2,0.2-3.2,0.1     c-1.1-0.1-2.1-0.2-3.1-0.2c-1,0-1.7-0.3-1.9-0.8c-0.2-0.5-0.4-1.1-0.4-1.8c-0.1-0.6-0.2-1.2-0.3-1.8c-0.2-0.5-0.7-0.8-1.6-0.8     c-0.5,0-0.8,0.3-0.9,0.9c-0.1,0.6-0.2,1.1-0.2,1.6c0,1-0.4,1.8-1.3,2.2c-0.9,0.4-2,0.7-3.3,0.8c-1.3,0.1-2.6,0.1-4,0     c-1.4-0.1-2.6-0.1-3.7-0.1c-0.3,0-0.6-0.1-0.9-0.3c-0.3-0.2-0.5-0.5-0.7-0.9c-0.2-0.3-0.4-0.7-0.5-1.1c-0.1-0.4-0.2-0.6-0.2-0.9     c0-2.1,0-4.7,0-7.7c0-3,0-6.2,0-9.6c0-3.4,0-6.9,0-10.4c0-3.5,0-6.9,0-10.1c0-3.2,0-6.1,0-8.8c0-2.6,0-4.8,0.1-6.4     c0-0.9,0.2-1.4,0.5-1.7c0.3-0.2,0.7-0.3,1.2-0.3c1.6,0,3.1-0.1,4.6-0.2c1.5-0.1,3.1-0.2,4.7-0.2c0.8,0,1.4,0.4,1.6,1.2     c0.3,0.8,0.4,1.8,0.4,2.8c0,0.4,0,1.2,0,2.5c0,1.3,0,2.6,0.1,3.9c0.1,1.3,0.2,2.4,0.5,3.2c0.2,0.9,0.6,1.1,1.1,0.6     c1.9,0,3.6,0.6,5.3,1.7c1.6,1.1,3.1,2.6,4.4,4.6c1.3,1.9,2.4,4.2,3.3,6.8s1.7,5.3,2.2,8.3c0.5,3,0.8,6,0.8,9.2     C-469.8-310.2-470-307.1-470.6-304.1z"/><path class="st3" d="M-452.4-349.3c2.2,0,4.2,0.5,6.1,1.4c1.9,0.9,3.6,2.2,5,4c1.4,1.7,2.6,3.9,3.4,6.3c0.9,2.5,1.3,5.3,1.3,8.4     c0,3-0.4,5.9-1.3,8.7c-0.9,2.8-2,5.3-3.6,7.5c-1.5,2.2-3.3,3.9-5.4,5.3c-2.1,1.3-4.4,2-6.9,2c-2.1,0-4-0.5-5.8-1.6     c-1.8-1.1-3.3-2.6-4.6-4.5c-1.3-1.9-2.3-4.1-3-6.7c-0.7-2.5-1.1-5.3-1.1-8.2c0-2.3,0.4-4.8,1.1-7.5c0.8-2.6,1.8-5.1,3.2-7.3     c1.3-2.2,3-4,4.9-5.5C-457-348.6-454.8-349.3-452.4-349.3z M-455.5-328.8c0,0.9,0.3,1.7,0.9,2.3c0.6,0.6,1.3,0.9,2.2,0.9     c0.9,0,1.6-0.3,2.3-0.9s0.9-1.4,0.9-2.3s-0.3-1.7-0.9-2.4c-0.6-0.6-1.4-1-2.3-1c-0.9,0-1.6,0.3-2.2,1     C-455.2-330.5-455.5-329.7-455.5-328.8z"/><path class="st3" d="M-387.7-306.2c-0.2,0.5-0.6,0.9-1.2,1.1c-0.7,0.2-1.4,0.3-2.3,0.4c-0.9,0.1-1.7,0-2.6-0.1     c-0.9-0.1-1.5-0.2-2-0.3c-0.5-0.2-0.8-0.7-0.9-1.4c-0.1-0.8-0.2-1.5-0.3-2.4c-0.1-0.8-0.2-1.6-0.3-2.3c-0.2-0.7-0.5-1-1.1-1     c-0.5,0-0.9,0.3-1.1,0.8c-0.2,0.5-0.4,1.2-0.5,1.9c-0.1,0.7-0.2,1.4-0.3,2.1c-0.1,0.7-0.2,1.2-0.5,1.6c-0.3,0.4-0.9,0.7-1.8,0.9     c-1,0.2-2,0.3-3.1,0.3c-1.1,0-2.1-0.1-3-0.2c-0.9-0.1-1.5-0.3-1.8-0.6c-0.4-0.4-0.7-1-0.7-1.7s-0.1-1.4-0.2-2.1     c-0.1-0.7-0.2-1.3-0.3-1.8c-0.2-0.5-0.5-0.7-1-0.7c-0.7,0-1.2,0.4-1.4,1.1c-0.3,0.7-0.5,1.5-0.7,2.4c-0.2,0.9-0.5,1.7-0.8,2.4     c-0.3,0.7-0.9,1.1-1.8,1.1c-1.6,0-3.1,0-4.6,0c-1.5,0-3,0-4.7,0c-2.1,0-3.5-0.4-4.4-1.2c-0.9-0.8-1.3-2.3-1.3-4.3     c0-6.2,0.1-12.2,0.2-18c0.1-5.8,0.2-11.8,0.2-18c0-1.1,0.2-2.2,0.6-3.3c0.4-1.1,0.9-1.6,1.5-1.6c2,0,4,0,6,0c2,0,4,0.1,6,0.2     c0.5,0.1,0.8,0.2,1.1,0.4c0.3,0.2,0.4,0.5,0.5,0.9c0.1,0.4,0.2,0.8,0.3,1.3c0.1,0.5,0.2,1,0.3,1.6c0.5-1.6,1.3-2.7,2.5-3.4     c1.2-0.7,2.5-1.1,3.9-1.1c1.4,0,2.7,0.3,4,1.1c1.3,0.7,2.2,1.7,2.8,3c1-0.8,2.1-1.7,3.2-2.6c1.1-0.9,2.2-1.4,3.3-1.4     c2.4,0,4.3,1,5.7,3c1.4,2,2.5,4.5,3.2,7.5c0.7,3,1.2,6.4,1.3,10c0.1,3.6,0.1,7.1-0.1,10.4c-0.2,3.3-0.4,6.3-0.8,8.8     C-387.2-308.8-387.5-307-387.7-306.2z"/><path class="st3" d="M-354.6-322.8c0.1,0.4,0.3,0.9,0.5,1.6c0.2,0.6,0.5,1,0.9,1c0.4,0,0.8-0.3,1.2-0.9c0.4-0.6,0.9-0.9,1.4-0.9     c0.4,0,0.7,0.4,1.1,1.3c0.4,0.9,0.7,1.8,0.9,3c0.3,1.1,0.5,2.2,0.7,3.3c0.2,1.1,0.3,1.9,0.3,2.3c0,1-0.6,1.9-1.7,2.8     c-1.1,0.9-2.5,1.6-4,2.2s-3.1,1.1-4.7,1.5c-1.6,0.4-2.8,0.6-3.6,0.6c-2.1,0-4.3-0.4-6.7-1.1c-2.3-0.7-4.4-1.9-6.3-3.5     c-1.9-1.6-3.5-3.7-4.7-6.1c-1.2-2.5-1.9-5.5-1.9-9.1c0-3.5,0.5-6.8,1.6-10c1.1-3.2,2.6-6,4.4-8.4c1.8-2.4,3.9-4.4,6.3-5.8     c2.3-1.5,4.7-2.2,7.2-2.2c2,0,3.8,0.6,5.4,1.7c1.6,1.1,3,2.6,4.1,4.5c1.1,1.8,2,3.9,2.6,6.2c0.6,2.3,0.9,4.5,0.9,6.8     c0,1-0.1,2.1-0.4,3.2c-0.3,1.1-0.7,2.1-1.2,3c-0.5,0.9-1.1,1.7-1.9,2.3C-353-323.1-353.8-322.8-354.6-322.8z M-359.7-334.6     c0.3,0,0.6-0.1,0.9-0.4c0.3-0.3,0.4-0.7,0.4-1.3c0-0.8-0.2-1.5-0.5-1.9c-0.3-0.4-0.7-0.6-1.1-0.7c-0.4,0-0.8,0.2-1.1,0.5     c-0.3,0.4-0.5,1-0.5,1.8c0,0.4,0.2,0.8,0.5,1.2C-360.7-334.9-360.3-334.6-359.7-334.6z"/><path class="st3" d="M-470.6-117.4c-0.1,1.4-0.5,2.4-1.2,3c-0.7,0.6-1.5,1-2.5,1.2c-1,0.2-2,0.2-3.2,0.1     c-1.1-0.1-2.1-0.2-3.1-0.2c-1,0-1.7-0.3-1.9-0.8c-0.2-0.5-0.4-1.1-0.4-1.8c-0.1-0.6-0.2-1.2-0.3-1.8c-0.2-0.5-0.7-0.8-1.6-0.8     c-0.5,0-0.8,0.3-0.9,0.9c-0.1,0.6-0.2,1.1-0.2,1.6c0,1-0.4,1.8-1.3,2.2c-0.9,0.4-2,0.7-3.3,0.8c-1.3,0.1-2.6,0.1-4,0     c-1.4-0.1-2.6-0.1-3.7-0.1c-0.3,0-0.6-0.1-0.9-0.3c-0.3-0.2-0.5-0.5-0.7-0.9c-0.2-0.3-0.4-0.7-0.5-1.1c-0.1-0.4-0.2-0.6-0.2-0.9     c0-2.1,0-4.7,0-7.7c0-3,0-6.2,0-9.6c0-3.4,0-6.9,0-10.4c0-3.5,0-6.9,0-10.1c0-3.2,0-6.1,0-8.8c0-2.6,0-4.8,0.1-6.4     c0-0.9,0.2-1.4,0.5-1.7c0.3-0.2,0.7-0.3,1.2-0.3c1.6,0,3.1-0.1,4.6-0.2c1.5-0.1,3.1-0.2,4.7-0.2c0.8,0,1.4,0.4,1.6,1.2     c0.3,0.8,0.4,1.8,0.4,2.8c0,0.4,0,1.2,0,2.5c0,1.3,0,2.6,0.1,3.9c0.1,1.3,0.2,2.4,0.5,3.2c0.2,0.9,0.6,1.1,1.1,0.6     c1.9,0,3.6,0.6,5.3,1.7c1.6,1.1,3.1,2.6,4.4,4.6c1.3,1.9,2.4,4.2,3.3,6.8s1.7,5.3,2.2,8.3c0.5,3,0.8,6,0.8,9.2     C-469.8-123.5-470-120.4-470.6-117.4z"/><path class="st3" d="M-452.4-162.6c2.2,0,4.2,0.5,6.1,1.4c1.9,0.9,3.6,2.2,5,4c1.4,1.7,2.6,3.9,3.4,6.3s1.3,5.3,1.3,8.4     c0,3-0.4,5.9-1.3,8.7c-0.9,2.8-2,5.3-3.6,7.5c-1.5,2.2-3.3,3.9-5.4,5.3c-2.1,1.3-4.4,2-6.9,2c-2.1,0-4-0.5-5.8-1.6     c-1.8-1.1-3.3-2.6-4.6-4.5c-1.3-1.9-2.3-4.1-3-6.7c-0.7-2.5-1.1-5.3-1.1-8.2c0-2.3,0.4-4.8,1.1-7.5c0.8-2.6,1.8-5.1,3.2-7.3     c1.3-2.2,3-4,4.9-5.5C-457-161.9-454.8-162.6-452.4-162.6z M-455.5-142.1c0,0.9,0.3,1.7,0.9,2.3c0.6,0.6,1.3,0.9,2.2,0.9     c0.9,0,1.6-0.3,2.3-0.9s0.9-1.4,0.9-2.3s-0.3-1.7-0.9-2.4c-0.6-0.6-1.4-1-2.3-1c-0.9,0-1.6,0.3-2.2,1     C-455.2-143.8-455.5-143-455.5-142.1z"/><path class="st3" d="M-387.7-119.5c-0.2,0.5-0.6,0.9-1.2,1.1c-0.7,0.2-1.4,0.3-2.3,0.4c-0.9,0.1-1.7,0-2.6-0.1     c-0.9-0.1-1.5-0.2-2-0.3c-0.5-0.2-0.8-0.7-0.9-1.4c-0.1-0.8-0.2-1.5-0.3-2.4c-0.1-0.8-0.2-1.6-0.3-2.3c-0.2-0.7-0.5-1-1.1-1     c-0.5,0-0.9,0.3-1.1,0.8c-0.2,0.5-0.4,1.2-0.5,1.9c-0.1,0.7-0.2,1.4-0.3,2.1c-0.1,0.7-0.2,1.2-0.5,1.6c-0.3,0.4-0.9,0.7-1.8,0.9     c-1,0.2-2,0.3-3.1,0.3c-1.1,0-2.1-0.1-3-0.2c-0.9-0.1-1.5-0.3-1.8-0.6c-0.4-0.4-0.7-1-0.7-1.7c-0.1-0.7-0.1-1.4-0.2-2.1     c-0.1-0.7-0.2-1.3-0.3-1.8c-0.2-0.5-0.5-0.7-1-0.7c-0.7,0-1.2,0.4-1.4,1.1c-0.3,0.7-0.5,1.5-0.7,2.4c-0.2,0.9-0.5,1.7-0.8,2.4     c-0.3,0.7-0.9,1.1-1.8,1.1c-1.6,0-3.1,0-4.6,0c-1.5,0-3,0-4.7,0c-2.1,0-3.5-0.4-4.4-1.2c-0.9-0.8-1.3-2.3-1.3-4.3     c0-6.2,0.1-12.2,0.2-18c0.1-5.8,0.2-11.8,0.2-18c0-1.1,0.2-2.2,0.6-3.3c0.4-1.1,0.9-1.6,1.5-1.6c2,0,4,0,6,0c2,0,4,0.1,6,0.2     c0.5,0.1,0.8,0.2,1.1,0.4c0.3,0.2,0.4,0.5,0.5,0.9c0.1,0.4,0.2,0.8,0.3,1.3c0.1,0.5,0.2,1,0.3,1.6c0.5-1.6,1.3-2.7,2.5-3.4     c1.2-0.7,2.5-1.1,3.9-1.1c1.4,0,2.7,0.3,4,1.1c1.3,0.7,2.2,1.7,2.8,3c1-0.8,2.1-1.7,3.2-2.6c1.1-0.9,2.2-1.4,3.3-1.4     c2.4,0,4.3,1,5.7,3c1.4,2,2.5,4.5,3.2,7.5c0.7,3,1.2,6.4,1.3,10c0.1,3.6,0.1,7.1-0.1,10.4c-0.2,3.3-0.4,6.2-0.8,8.8     C-387.2-122.1-387.5-120.4-387.7-119.5z"/><path class="st3" d="M-354.6-136.1c0.1,0.4,0.3,0.9,0.5,1.6c0.2,0.6,0.5,1,0.9,1c0.4,0,0.8-0.3,1.2-0.9c0.4-0.6,0.9-0.9,1.4-0.9     c0.4,0,0.7,0.4,1.1,1.3c0.4,0.9,0.7,1.8,0.9,3c0.3,1.1,0.5,2.2,0.7,3.3c0.2,1.1,0.3,1.9,0.3,2.3c0,1-0.6,1.9-1.7,2.8     c-1.1,0.9-2.5,1.6-4,2.2s-3.1,1.1-4.7,1.5c-1.6,0.4-2.8,0.6-3.6,0.6c-2.1,0-4.3-0.4-6.7-1.1c-2.3-0.7-4.4-1.9-6.3-3.5     c-1.9-1.6-3.5-3.7-4.7-6.1c-1.2-2.5-1.9-5.5-1.9-9.1c0-3.5,0.5-6.8,1.6-10c1.1-3.2,2.6-6,4.4-8.4c1.8-2.4,3.9-4.4,6.3-5.8     c2.3-1.5,4.7-2.2,7.2-2.2c2,0,3.8,0.6,5.4,1.7c1.6,1.1,3,2.6,4.1,4.5c1.1,1.8,2,3.9,2.6,6.2c0.6,2.3,0.9,4.5,0.9,6.8     c0,1-0.1,2.1-0.4,3.2c-0.3,1.1-0.7,2.1-1.2,3c-0.5,0.9-1.1,1.7-1.9,2.3C-353-136.4-353.8-136.1-354.6-136.1z M-359.7-147.9     c0.3,0,0.6-0.1,0.9-0.4c0.3-0.3,0.4-0.7,0.4-1.3c0-0.8-0.2-1.5-0.5-1.9c-0.3-0.4-0.7-0.6-1.1-0.7c-0.4,0-0.8,0.2-1.1,0.5     c-0.3,0.4-0.5,1-0.5,1.8c0,0.4,0.2,0.8,0.5,1.2C-360.7-148.2-360.3-147.9-359.7-147.9z"/></g><g><path class="st4" d="M-427.8-218.5c-8.7,0-16.3-3.1-16.8-3.3l-1.3-0.5l0.1-1.4c0.1-0.8,1.7-19.7,14-27.2     c12.3-7.6,29.9-0.5,30.6-0.2l1.3,0.5l-0.1,1.4c-0.1,0.8-1.7,19.7-14,27.2C-418.3-219.4-423.2-218.5-427.8-218.5z M-441.8-224.9     c4.2,1.4,16.9,5,25.7-0.4c8.8-5.4,11.3-18.3,12-22.7c-4.2-1.4-16.9-5-25.7,0.4C-438.6-242.2-441.2-229.3-441.8-224.9z"/></g><g><path class="st4" d="M-385.9-244.3c-8.7,0-16.4-3.1-16.8-3.3l-1.3-0.5l0.1-1.4c0.1-0.7,1.5-17.1,11.6-25.5c1-0.8,2.3-1,3.5-0.5     c1.2,0.5,1.9,1.6,2,2.8c0.2,2.6,0.9,7.5,3.5,11.8c2.5,4,6.1,6.7,8.7,8.3c1.1,0.7,1.8,1.9,1.7,3.3c-0.1,1.3-0.9,2.5-2.2,3     C-378.6-244.8-382.4-244.3-385.9-244.3z M-399.9-250.7c3.7,1.2,14,4.2,22.5,1.1c-2.9-1.9-6.7-4.9-9.3-9.2c-2.6-4.3-3.6-9-4-12.5     C-397.2-265.1-399.3-254.5-399.9-250.7z"/></g><g><path class="st4" d="M-455.5-197.3c-0.5,0-0.9-0.1-1.3-0.3c-1.2-0.5-2.1-1.6-2.2-3c-0.2-3.1-1.1-7.5-3.5-11.5     c-2.7-4.3-6.8-7.2-9-8.5c-1.1-0.6-1.7-1.8-1.6-3.1c0.1-1.3,0.8-2.4,2-2.9c12-5.2,27.3,0.9,28,1.1l1.3,0.5l-0.1,1.4     c-0.1,0.7-1.5,16.7-11.3,25.2v0C-453.9-197.6-454.7-197.3-455.5-197.3z M-468.5-223.4c3,1.9,6.7,4.9,9.3,9.2     c2.6,4.3,3.6,9,4,12.5c6.5-6.1,8.6-16.7,9.1-20.5C-449.8-223.5-460.1-226.4-468.5-223.4z"/></g><g><path class="st4" d="M-423.9-218.7c-0.5,0-1.1-0.2-1.5-0.6c-0.7-0.8-0.7-2,0.1-2.8c12.9-11.7,14.2-28.9,14.2-29     c0.1-1.1,1-1.9,2.1-1.8c1.1,0.1,1.9,1,1.8,2.1c-0.1,0.8-1.4,18.9-15.5,31.7C-423-218.9-423.5-218.7-423.9-218.7z"/></g><g><path class="st4" d="M-440.4-220.7c-0.5,0-1-0.2-1.3-0.6c-0.7-0.7-0.6-1.9,0.1-2.6c12.1-11,14.9-27.1,15-27.3     c0.2-1,1.1-1.7,2.1-1.5c1,0.2,1.7,1.1,1.5,2.1c-0.1,0.7-3.1,17.5-16.1,29.3C-439.5-220.8-439.9-220.7-440.4-220.7z"/></g></g></g></svg>