<?xml version="1.0" ?><!DOCTYPE svg  PUBLIC '-//W3C//DTD SVG 1.1//EN'  'http://www.w3.org/Graphics/SVG/1.1/DTD/svg11.dtd'><svg enable-background="new 0 0 512 512" height="512px" id="Layer_1" version="1.1" viewBox="0 0 512 512" width="512px" xml:space="preserve" xmlns="http://www.w3.org/2000/svg" xmlns:xlink="http://www.w3.org/1999/xlink"><g><g/><g><g><linearGradient gradientUnits="userSpaceOnUse" id="SVGID_1_" x1="257.979492" x2="257.979462" y1="509.568359" y2="2.225494"><stop offset="0" style="stop-color:#272727"/><stop offset="1" style="stop-color:#57565A"/></linearGradient><path d="M459.84668,487.612305C459.84668,501.087891,446.900391,512,430.936523,512H85.023438     c-15.972168,0-28.910156-10.912109-28.910156-24.387695V24.375488C56.113281,10.912598,69.05127,0,85.023438,0h345.913086     c15.963867,0,28.910156,10.912598,28.910156,24.375488V487.612305z" fill="url(#SVGID_1_)"/><linearGradient gradientUnits="userSpaceOnUse" id="SVGID_2_" x1="257.980469" x2="257.980438" y1="503.678711" y2="4.998352"><stop offset="0" style="stop-color:#424244"/><stop offset="1" style="stop-color:#79787D"/></linearGradient><path d="M457.625,485.283203c0,13.334961-12.818359,24.143555-28.619141,24.143555H86.95166     c-15.804688,0-28.614746-10.808594-28.614746-24.143555V26.708984c0-13.328613,12.810059-24.131836,28.614746-24.131836     h342.054199c15.800781,0,28.619141,10.803223,28.619141,24.131836V485.283203z" fill="url(#SVGID_2_)"/><linearGradient gradientUnits="userSpaceOnUse" id="SVGID_3_" x1="257.982422" x2="257.982391" y1="497.857422" y2="7.767273"><stop offset="0" style="stop-color:#5D5D60"/><stop offset="1" style="stop-color:#9B9BA0"/></linearGradient><path d="M455.40332,482.953125c0,13.195312-12.69043,23.900391-28.327148,23.900391H88.879883     c-15.637207,0-28.318848-10.705078-28.318848-23.900391V29.041992c0-13.193848,12.681641-23.887695,28.318848-23.887695     h338.196289c15.636719,0,28.327148,10.693848,28.327148,23.887695V482.953125z" fill="url(#SVGID_3_)"/><linearGradient gradientUnits="userSpaceOnUse" id="SVGID_4_" x1="257.983398" x2="257.983368" y1="492.103516" y2="10.531677"><stop offset="0" style="stop-color:#77787D"/><stop offset="1" style="stop-color:#BDBDC3"/></linearGradient><path d="M453.181641,480.624023c0,13.053711-12.5625,23.65625-28.036133,23.65625H90.808105     c-15.469727,0-28.022949-10.602539-28.022949-23.65625V31.375488c0-13.05957,12.553223-23.643555,28.022949-23.643555h334.337402     c15.473633,0,28.036133,10.583984,28.036133,23.643555V480.624023z" fill="url(#SVGID_4_)"/><linearGradient gradientUnits="userSpaceOnUse" id="SVGID_5_" x1="257.984375" x2="257.984344" y1="486.417969" y2="13.291626"><stop offset="0" style="stop-color:#929399"/><stop offset="1" style="stop-color:#DFDFE6"/></linearGradient><path d="M450.959961,478.294922c0,12.913086-12.43457,23.412109-27.745117,23.412109H92.736328     c-15.302246,0-27.727539-10.499023-27.727539-23.412109V33.708984c0-12.925293,12.425293-23.399902,27.727539-23.399902     h330.478516c15.310547,0,27.745117,10.474609,27.745117,23.399902V478.294922z" fill="url(#SVGID_5_)"/></g><path d="M445.222656,471.813477c0,12.549805-12.0625,22.726562-26.943359,22.726562H97.67627    c-14.880859,0-26.93457-10.176758-26.93457-22.726562V40.178223c0-12.54541,12.053711-22.718262,26.93457-22.718262h320.603027    c14.880859,0,26.943359,10.172852,26.943359,22.718262V471.813477z" fill="none"/><rect fill="#B3B3B3" height="119.534668" width="357.12793" x="79.414062" y="51.59082"/><path d="M409.673828,144.286133c0,6.179688-7.035156,11.202148-15.724609,11.202148H122.026855    c-8.688477,0-15.748535-5.022461-15.748535-11.202148V78.438477c0-6.191895,7.060059-11.214355,15.748535-11.214355h271.922363    c8.689453,0,15.724609,5.022461,15.724609,11.214355V144.286133z" fill="none"/><linearGradient gradientUnits="userSpaceOnUse" id="SVGID_6_" x1="257.980469" x2="257.980469" y1="1.39502" y2="177.595413"><stop offset="0.012121" style="stop-color:#484A4D"/><stop offset="0.981818" style="stop-color:#242626"/><stop offset="1" style="stop-color:#000000"/></linearGradient><path d="M430.936523,0H85.023438C69.05127,0,56.113281,10.912598,56.113281,24.375488v157.100586H459.84668    V24.375488C459.84668,10.912598,446.900391,0,430.936523,0z M436.541992,171.125488H79.414062V51.59082h357.12793V171.125488z" fill="url(#SVGID_6_)"/><linearGradient gradientUnits="userSpaceOnUse" id="SVGID_7_" x1="65.336914" x2="448.231995" y1="184.582031" y2="184.582031"><stop offset="0" style="stop-color:#FFFFFF"/><stop offset="0.290909" style="stop-color:#FFFFFF"/><stop offset="0.757576" style="stop-color:#FFFFFF"/><stop offset="1" style="stop-color:#FFFFFF"/></linearGradient><rect fill="url(#SVGID_7_)" height="6.212402" opacity="0.5" width="386.021484" x="64.938477" y="181.476074"/><linearGradient gradientUnits="userSpaceOnUse" id="SVGID_8_" x1="82.049316" x2="82.049309" y1="55.732422" y2="169.835785"><stop offset="0" style="stop-color:#333333"/><stop offset="0.981818" style="stop-color:#333333"/><stop offset="1" style="stop-color:#333333"/></linearGradient><polygon fill="url(#SVGID_8_)" points="84.68457,57.568359 79.414062,51.59082 79.414062,171.125488 84.68457,165.148438   "/><linearGradient gradientUnits="userSpaceOnUse" id="SVGID_9_" x1="257.978516" x2="257.978516" y1="51.075684" y2="58.361706"><stop offset="0" style="stop-color:#000000"/><stop offset="1" style="stop-color:#000000"/></linearGradient><polygon fill="url(#SVGID_9_)" points="431.28418,57.568359 436.541992,51.59082 79.414062,51.59082 84.68457,57.568359   "/><linearGradient gradientUnits="userSpaceOnUse" id="SVGID_10_" x1="257.977539" x2="257.977539" y1="172.162109" y2="163.822922"><stop offset="0" style="stop-color:#4D4D4D"/><stop offset="1" style="stop-color:#4D4D4D"/></linearGradient><polygon fill="url(#SVGID_10_)" points="431.28418,165.148438 84.68457,165.148438 79.414062,171.125488 436.541992,171.125488       "/><linearGradient gradientUnits="userSpaceOnUse" id="SVGID_11_" x1="433.913086" x2="433.913086" y1="50.038574" y2="164.958008"><stop offset="0" style="stop-color:#333333"/><stop offset="1" style="stop-color:#333333"/></linearGradient><polygon fill="url(#SVGID_11_)" points="436.541992,51.59082 431.28418,57.568359 431.28418,165.148438 436.541992,171.125488     436.541992,171.125488   "/><linearGradient gradientUnits="userSpaceOnUse" id="SVGID_12_" x1="257.986328" x2="257.986328" y1="51.069336" y2="59.904266"><stop offset="0" style="stop-color:#808080"/><stop offset="1" style="stop-color:#808080"/></linearGradient><rect fill="url(#SVGID_12_)" height="8.800781" width="357.107422" x="79.432617" y="51.59082"/><linearGradient gradientUnits="userSpaceOnUse" id="SVGID_13_" x1="63.209961" x2="447.299896" y1="255.996094" y2="255.996094"><stop offset="0" style="stop-color:#FFFFFF;stop-opacity:0"/><stop offset="0.290909" style="stop-color:#FFFFFF"/><stop offset="0.757576" style="stop-color:#FFFFFF"/><stop offset="1" style="stop-color:#FFFFFF;stop-opacity:0"/></linearGradient><path d="M423.264648,10.226562H92.695312    c-15.331543,0-27.756836,10.478516-27.756836,23.420898v444.705078c0,12.921875,12.425293,23.413086,27.756836,23.413086    h330.569336c15.327148,0,27.769531-10.491211,27.769531-23.413086V33.647461    C451.03418,20.705078,438.591797,10.226562,423.264648,10.226562z M446.800781,478.352539    c0,10.574219-10.556641,19.179688-23.536133,19.179688H92.695312c-12.971191,0-23.524414-8.605469-23.524414-19.179688V33.647461    c0-10.582031,10.553223-19.188477,23.524414-19.188477h330.569336c12.979492,0,23.536133,8.606445,23.536133,19.188477V478.352539    z" fill="url(#SVGID_13_)" opacity="0.5"/></g><g><g><linearGradient gradientUnits="userSpaceOnUse" id="SVGID_14_" x1="257.982422" x2="257.982422" y1="159.742676" y2="63.440849"><stop offset="0" style="stop-color:#333333"/><stop offset="1" style="stop-color:#4D4D4D"/></linearGradient><path d="M429.101562,147.841309c0,6.857422-7.333008,12.416992-16.418945,12.416992H103.269043     c-9.04834,0-16.40625-5.55957-16.40625-12.416992V74.879395c0-6.869629,7.35791-12.425293,16.40625-12.425293h309.413574     c9.085938,0,16.418945,5.555664,16.418945,12.425293V147.841309z" fill="url(#SVGID_14_)"/><linearGradient gradientUnits="userSpaceOnUse" id="SVGID_15_" x1="257.980469" x2="257.980469" y1="158.44873" y2="64.724854"><stop offset="0" style="stop-color:#555555"/><stop offset="1" style="stop-color:#777777"/></linearGradient><path d="M427.949219,146.859863c0,6.677246-7.283203,12.090332-16.296875,12.090332H104.302246     c-8.983887,0-16.290527-5.413086-16.290527-12.090332V75.853516c0-6.684082,7.306641-12.089355,16.290527-12.089355h307.350098     c9.013672,0,16.296875,5.405273,16.296875,12.089355V146.859863z" fill="url(#SVGID_15_)"/><linearGradient gradientUnits="userSpaceOnUse" id="SVGID_16_" x1="257.978516" x2="257.978516" y1="157.154785" y2="66.00885"><stop offset="0" style="stop-color:#777777"/><stop offset="1" style="stop-color:#A2A2A2"/></linearGradient><path d="M426.796875,145.878906c0,6.49707-7.232422,11.763672-16.175781,11.763672H105.335938     c-8.918945,0-16.174805-5.266602-16.174805-11.763672V76.828125c0-6.498047,7.255859-11.753418,16.174805-11.753418h305.285156     c8.943359,0,16.175781,5.255371,16.175781,11.753418V145.878906z" fill="url(#SVGID_16_)"/><linearGradient gradientUnits="userSpaceOnUse" id="SVGID_17_" x1="257.977539" x2="257.977539" y1="155.861328" y2="67.292862"><stop offset="0" style="stop-color:#999999"/><stop offset="1" style="stop-color:#CCCCCC"/></linearGradient><path d="M425.645508,144.897949c0,6.315918-7.183594,11.4375-16.054688,11.4375h-303.22168     c-8.854004,0-16.059082-5.121582-16.059082-11.4375V77.801758c0-6.311523,7.205078-11.416504,16.059082-11.416504h303.22168     c8.871094,0,16.054688,5.10498,16.054688,11.416504V144.897949z" fill="url(#SVGID_17_)"/></g><path d="M105.352051,83.473145v20.378418l-6.42334,6.427734l-2.141113-2.132812V80.249023L105.352051,83.473145z     M96.787598,142.463379v-27.885254l2.141113-2.149414l6.42334,6.44043v20.378418L96.787598,142.463379z M134.315918,149.969727    h-32.16748c-2.860352-0.714844-4.654297-2.492188-5.36084-5.365234l8.564453-3.21582h25.760742L134.315918,149.969727z     M131.112793,81.32373h-25.64502l-8.577148-3.211914c0.707031-2.860352,2.492676-4.649902,5.353027-5.369141h32.072266    L131.112793,81.32373z M133.245605,103.851562V81.32373l3.219727-8.581055c2.856445,0.719238,4.638184,2.508789,5.382324,5.369141    v30.034668l-2.174316,2.132812L133.245605,103.851562z M139.67334,112.428711l2.174316,2.149414v30.026367    c-0.744141,2.873047-2.525879,4.650391-5.382324,5.365234l-3.219727-8.581055v-22.519531L139.67334,112.428711z" fill="#CCCCCC"/><path d="M161.130371,83.473145v20.378418l-6.439941,6.427734l-2.132812-2.132812V80.249023L161.130371,83.473145z     M152.557617,142.463379v-27.885254l2.132812-2.149414l6.439941,6.44043v20.378418L152.557617,142.463379z M190.106934,149.969727    h-32.192383c-2.860352-0.714844-4.654297-2.492188-5.356934-5.365234l8.572754-3.21582h25.760742L190.106934,149.969727z     M186.891113,81.32373h-25.64502l-8.581055-3.211914c0.710938-2.860352,2.504883-4.649902,5.356934-5.369141h32.084961    L186.891113,81.32373z M189.015625,103.851562V81.32373l3.224121-8.581055c2.868652,0.719238,4.645996,2.508789,5.365234,5.369141    v30.034668l-2.149414,2.132812L189.015625,103.851562z M195.455566,112.428711l2.149414,2.149414v30.026367    c-0.719238,2.873047-2.496582,4.650391-5.365234,5.365234l-3.224121-8.581055v-22.519531L195.455566,112.428711z" fill="#CCCCCC"/><path d="M216.908691,83.473145v20.378418l-6.431641,6.427734l-2.157715-2.132812V80.249023L216.908691,83.473145z     M208.319336,142.463379v-27.885254l2.157715-2.149414l6.431641,6.44043v20.378418L208.319336,142.463379z M245.868652,149.969727    H213.68457c-2.860352-0.714844-4.654297-2.492188-5.365234-5.365234l8.589355-3.21582h25.73584L245.868652,149.969727z     M242.644531,81.32373h-25.63623l-8.556641-3.211914c0.702637-2.860352,2.488281-4.649902,5.340332-5.369141h32.07666    L242.644531,81.32373z M244.793945,103.851562V81.32373l3.21582-8.581055c2.868652,0.719238,4.654297,2.508789,5.381836,5.369141    v30.034668l-2.166016,2.132812L244.793945,103.851562z M251.225586,112.428711l2.166016,2.149414v30.026367    c-0.727539,2.873047-2.513184,4.650391-5.381836,5.365234l-3.21582-8.581055v-22.519531L251.225586,112.428711z" fill="#CCCCCC"/><path d="M272.678711,83.473145v20.378418l-6.431641,6.427734l-2.149414-2.132812V80.249023L272.678711,83.473145z     M264.097656,142.463379v-27.885254l2.149414-2.149414l6.431641,6.44043v20.378418L264.097656,142.463379z M301.646484,149.969727    h-32.183594c-2.876953-0.714844-4.637695-2.492188-5.365234-5.365234l8.581055-3.21582h25.751953L301.646484,149.969727z     M298.430664,81.32373h-25.635742l-8.589844-3.211914c0.703125-2.860352,2.504883-4.649902,5.374023-5.369141h32.067383    L298.430664,81.32373z M300.572266,103.851562V81.32373l3.208008-8.581055c2.860352,0.719238,4.645508,2.508789,5.381836,5.369141    v30.034668l-2.158203,2.132812L300.572266,103.851562z M307.003906,112.428711l2.158203,2.149414v30.026367    c-0.736328,2.873047-2.521484,4.650391-5.381836,5.365234l-3.208008-8.581055v-22.519531L307.003906,112.428711z" fill="#CCCCCC"/><path d="M328.44043,83.473145v20.378418l-6.422852,6.427734l-2.141602-2.132812V80.249023L328.44043,83.473145z     M319.875977,142.463379v-27.885254l2.141602-2.149414l6.422852,6.44043v20.378418L319.875977,142.463379z M357.40918,149.969727    h-32.167969c-2.860352-0.714844-4.645508-2.492188-5.365234-5.365234l8.564453-3.21582h25.760742L357.40918,149.969727z     M354.201172,81.32373h-25.62793l-8.597656-3.211914c0.710938-2.860352,2.504883-4.649902,5.373047-5.369141h32.060547    L354.201172,81.32373z M356.341797,103.851562V81.32373l3.224609-8.581055c2.84375,0.719238,4.646484,2.508789,5.365234,5.369141    v30.034668l-2.166016,2.132812L356.341797,103.851562z M362.765625,112.428711l2.166016,2.149414v30.026367    c-0.71875,2.873047-2.521484,4.650391-5.365234,5.365234l-3.224609-8.581055v-22.519531L362.765625,112.428711z" fill="#CCCCCC"/><path d="M384.227539,83.473145v20.378418l-6.431641,6.427734l-2.158203-2.132812V80.249023L384.227539,83.473145z     M375.637695,142.463379v-27.885254l2.158203-2.149414l6.431641,6.44043v20.378418L375.637695,142.463379z M413.178711,149.969727    h-32.166992c-2.860352-0.714844-4.663086-2.492188-5.374023-5.365234l8.589844-3.21582h25.735352L413.178711,149.969727z     M409.962891,81.32373h-25.62793l-8.589844-3.211914c0.710938-2.860352,2.513672-4.649902,5.365234-5.369141h32.068359    L409.962891,81.32373z M412.121094,103.851562V81.32373l3.223633-8.581055c2.84375,0.719238,4.629883,2.508789,5.348633,5.369141    v30.034668l-2.140625,2.132812L412.121094,103.851562z M418.552734,112.428711l2.140625,2.149414v30.026367    c-0.71875,2.873047-2.504883,4.650391-5.348633,5.365234l-3.223633-8.581055v-22.519531L418.552734,112.428711z" fill="#CCCCCC"/><path d="M384.227539,83.473145v20.378418l-6.431641,6.427734l-2.158203-2.132812V80.249023L384.227539,83.473145z     M375.637695,142.463379v-27.885254l2.158203-2.149414l6.431641,6.44043v20.378418L375.637695,142.463379z M413.178711,149.969727    h-32.166992c-2.860352-0.714844-4.663086-2.492188-5.374023-5.365234l8.589844-3.21582h25.735352L413.178711,149.969727z     M409.962891,81.32373h-25.62793l-8.589844-3.211914c0.710938-2.860352,2.513672-4.649902,5.365234-5.369141h32.068359    L409.962891,81.32373z M412.121094,103.851562V81.32373l3.223633-8.581055c2.84375,0.719238,4.629883,2.508789,5.348633,5.369141    v30.034668l-2.140625,2.132812L412.121094,103.851562z M418.552734,112.428711l2.140625,2.149414v30.026367    c-0.71875,2.873047-2.504883,4.650391-5.348633,5.365234l-3.223633-8.581055v-22.519531L418.552734,112.428711z" fill="#4D4D4D"/><path d="M264.701172,142.012695v-27.492188l2.108398-2.108398l6.324219,6.345215v20.072754L264.701172,142.012695z     M304.854492,149.416016h-34.886719c-2.819336-0.707031-4.563477-2.47168-5.266602-5.286621l8.432617-3.174805h28.5625    L304.854492,149.416016z M298.505859,81.745605h-25.248047l-8.457031-3.162598    c0.710938-2.823242,2.47168-4.583984,5.265625-5.282227h31.629883L298.505859,81.745605z M300.62207,107.117188l4.232422,4.236816    l-4.232422,4.224609h-27.488281l-4.216797-4.224609l4.216797-4.236816H300.62207z M300.62207,103.955078V81.745605    l3.182617-8.444824c2.810547,0.698242,4.571289,2.458984,5.283203,5.282227v29.600586l-2.108398,2.108398L300.62207,103.955078z" fill="#4D4D4D"/><path d="M244.93457,104.513184V82.307617l3.157715-8.453125    c2.835938,0.706543,4.571777,2.467773,5.299316,5.286621V108.75l-2.141113,2.104004L244.93457,104.513184z M251.250488,112.978516    l2.141113,2.104004v29.608887c-0.727539,2.814941-2.463379,4.575684-5.299316,5.27832l-3.157715-8.457031V119.31543    L251.250488,112.978516z" fill="#4D4D4D"/><path d="M328.647461,84.428223v20.080566l-6.333008,6.34082l-2.124023-2.10791V81.249512L328.647461,84.428223z     M357.193359,149.969727h-31.711914c-2.819336-0.706543-4.572266-2.463379-5.291016-5.282715l8.457031-3.174316h25.37207    L357.193359,149.969727z M357.193359,82.307617h-28.429688l-8.46582-3.17041    c0.694336-2.814941,2.47168-4.583984,5.291016-5.282715h34.779297L357.193359,82.307617z M356.143555,107.679199    l4.224609,4.229004l-4.224609,4.224121h-27.496094l-4.224609-4.224121l4.224609-4.229004H356.143555z M362.476562,112.974609    l2.125,2.104004v29.608398c-0.719727,2.819336-2.480469,4.576172-5.283203,5.282715l-3.174805-8.457031v-22.20166    L362.476562,112.974609z" fill="#4D4D4D"/><linearGradient gradientUnits="userSpaceOnUse" id="SVGID_18_" x1="257.978516" x2="257.978516" y1="69.702637" y2="138.02359"><stop offset="0" style="stop-color:#E9FFCC"/><stop offset="0.987879" style="stop-color:#EBFFCC"/></linearGradient><path d="M425.645508,111.358398V77.801758    c0-6.311523-7.183594-11.416504-16.054688-11.416504h-303.22168c-8.854004,0-16.059082,5.10498-16.059082,11.416504v33.556641    H425.645508z" fill="url(#SVGID_18_)" opacity="0.1"/></g><g><linearGradient gradientUnits="userSpaceOnUse" id="SVGID_19_" x1="117.622559" x2="117.622559" y1="256.510742" y2="264.293243"><stop offset="0" style="stop-color:#232323"/><stop offset="1" style="stop-color:#232323;stop-opacity:0"/></linearGradient><path d="M143.744629,255.479004c0,3.773926-2.731934,6.828613-6.134277,6.828613H97.647461    c-3.397949,0-6.146973-3.054688-6.146973-6.828613v-44.402832c0-3.773926,2.749023-6.828613,6.146973-6.828613h39.962891    c3.402344,0,6.134277,3.054688,6.134277,6.828613V255.479004z" fill="url(#SVGID_19_)" opacity="0.7"/><linearGradient gradientUnits="userSpaceOnUse" id="SVGID_20_" x1="117.628418" x2="117.628418" y1="200.106445" y2="260.689056"><stop offset="0" style="stop-color:#FFFFFF"/><stop offset="1" style="stop-color:#FFFFFF;stop-opacity:0"/></linearGradient><path d="M146.658691,252.846191c0,3.765625-3.054688,6.824707-6.815918,6.824707H95.431641    c-3.77832,0-6.833008-3.059082-6.833008-6.824707v-44.407227c0-3.769531,3.054688-6.828613,6.833008-6.828613h44.411133    c3.76123,0,6.815918,3.059082,6.815918,6.828613V252.846191z" fill="url(#SVGID_20_)" opacity="0.25"/><linearGradient gradientUnits="userSpaceOnUse" id="SVGID_21_" x1="117.620605" x2="117.620605" y1="258.056641" y2="204.761551"><stop offset="0" style="stop-color:#000000"/><stop offset="0.987879" style="stop-color:#303133"/></linearGradient><path d="M137.809082,204.247559H97.44043c-3.430664,0-6.212402,2.782227-6.212402,6.208984v40.368164    c0,3.426758,2.781738,6.200684,6.212402,6.200684h40.368652c3.430664,0,6.20459-2.773926,6.20459-6.200684v-40.368164    C144.013672,207.029785,141.239746,204.247559,137.809082,204.247559z M141.388672,248.807617    c0,3.087891-2.504883,5.588379-5.592773,5.588379H99.461914c-3.087891,0-5.584473-2.500488-5.584473-5.588379v-36.330078    c0-3.091797,2.496582-5.59668,5.584473-5.59668h36.333984c3.087891,0,5.592773,2.504883,5.592773,5.59668V248.807617z" fill="url(#SVGID_21_)"/><linearGradient gradientUnits="userSpaceOnUse" id="SVGID_22_" x1="117.633301" x2="117.633301" y1="253.407227" y2="208.381317"><stop offset="0" style="stop-color:#333333"/><stop offset="0.090909" style="stop-color:#181A1A"/><stop offset="0.945455" style="stop-color:#484A4D"/><stop offset="1" style="stop-color:#5F6266"/></linearGradient><path d="M141.388672,248.807617c0,3.087891-2.504883,5.588379-5.592773,5.588379H99.461914    c-3.087891,0-5.584473-2.500488-5.584473-5.588379v-36.330078c0-3.091797,2.496582-5.59668,5.584473-5.59668h36.333984    c3.087891,0,5.592773,2.504883,5.592773,5.59668V248.807617z" fill="url(#SVGID_22_)"/><linearGradient gradientUnits="userSpaceOnUse" id="SVGID_23_" x1="187.188477" x2="187.188477" y1="256.510742" y2="264.293243"><stop offset="0" style="stop-color:#232323"/><stop offset="1" style="stop-color:#232323;stop-opacity:0"/></linearGradient><path d="M213.3125,255.479004c0,3.773926-2.76123,6.828613-6.158691,6.828613H167.19043    c-3.397949,0-6.125977-3.054688-6.125977-6.828613v-44.402832c0-3.773926,2.728027-6.828613,6.125977-6.828613h39.963379    c3.397461,0,6.158691,3.054688,6.158691,6.828613V255.479004z" fill="url(#SVGID_23_)" opacity="0.55"/><linearGradient gradientUnits="userSpaceOnUse" id="SVGID_24_" x1="187.171875" x2="187.171875" y1="200.106445" y2="260.689056"><stop offset="0" style="stop-color:#FFFFFF"/><stop offset="1" style="stop-color:#FFFFFF;stop-opacity:0"/></linearGradient><path d="M216.206055,252.846191c0,3.765625-3.050293,6.824707-6.828613,6.824707    h-44.402832c-3.777832,0-6.836914-3.059082-6.836914-6.824707v-44.407227c0-3.769531,3.059082-6.828613,6.836914-6.828613    h44.402832c3.77832,0,6.828613,3.059082,6.828613,6.828613V252.846191z" fill="url(#SVGID_24_)" opacity="0.25"/><linearGradient gradientUnits="userSpaceOnUse" id="SVGID_25_" x1="187.180176" x2="187.180176" y1="258.056641" y2="204.761551"><stop offset="0" style="stop-color:#000000"/><stop offset="0.987879" style="stop-color:#303133"/></linearGradient><path d="M207.352051,204.247559H167c-3.422363,0-6.208496,2.782227-6.208496,6.208984    v40.368164c0,3.426758,2.786133,6.200684,6.208496,6.200684h40.352051c3.447266,0,6.216797-2.773926,6.216797-6.200684v-40.368164    C213.568848,207.029785,210.799316,204.247559,207.352051,204.247559z M210.931641,248.807617    c0,3.087891-2.496582,5.588379-5.59668,5.588379h-36.317383c-3.100586,0-5.580566-2.500488-5.580566-5.588379v-36.330078    c0-3.091797,2.47998-5.59668,5.580566-5.59668h36.317383c3.100098,0,5.59668,2.504883,5.59668,5.59668V248.807617z" fill="url(#SVGID_25_)" opacity="0.2"/><linearGradient gradientUnits="userSpaceOnUse" id="SVGID_26_" x1="187.184082" x2="187.184082" y1="253.407227" y2="208.381317"><stop offset="0" style="stop-color:#999999"/><stop offset="0.090909" style="stop-color:#768080"/><stop offset="0.945455" style="stop-color:#A8ACB3"/><stop offset="1" style="stop-color:#CBD0D9"/></linearGradient><path d="M210.931641,248.807617c0,3.087891-2.496582,5.588379-5.59668,5.588379h-36.317383    c-3.100586,0-5.580566-2.500488-5.580566-5.588379v-36.330078c0-3.091797,2.47998-5.59668,5.580566-5.59668h36.317383    c3.100098,0,5.59668,2.504883,5.59668,5.59668V248.807617z" fill="url(#SVGID_26_)"/><linearGradient gradientUnits="userSpaceOnUse" id="SVGID_27_" x1="256.727051" x2="256.727051" y1="256.510742" y2="264.293243"><stop offset="0" style="stop-color:#232323"/><stop offset="1" style="stop-color:#232323;stop-opacity:0"/></linearGradient><path d="M282.855469,255.479004c0,3.773926-2.744141,6.828613-6.133789,6.828613H236.75    c-3.389648,0-6.150879-3.054688-6.150879-6.828613v-44.402832c0-3.773926,2.76123-6.828613,6.150879-6.828613h39.97168    c3.389648,0,6.133789,3.054688,6.133789,6.828613V255.479004z" fill="url(#SVGID_27_)" opacity="0.55"/><linearGradient gradientUnits="userSpaceOnUse" id="SVGID_28_" x1="256.735352" x2="256.735352" y1="200.106445" y2="260.689056"><stop offset="0" style="stop-color:#FFFFFF"/><stop offset="1" style="stop-color:#FFFFFF;stop-opacity:0"/></linearGradient><path d="M285.765625,252.846191c0,3.765625-3.058594,6.824707-6.828125,6.824707h-44.40332    c-3.777832,0-6.828613-3.059082-6.828613-6.824707v-44.407227c0-3.769531,3.050781-6.828613,6.828613-6.828613h44.40332    c3.769531,0,6.828125,3.059082,6.828125,6.828613V252.846191z" fill="url(#SVGID_28_)" opacity="0.25"/><linearGradient gradientUnits="userSpaceOnUse" id="SVGID_29_" x1="256.728027" x2="256.728027" y1="258.056641" y2="204.761551"><stop offset="0" style="stop-color:#000000"/><stop offset="0.987879" style="stop-color:#303133"/></linearGradient><path d="M276.90332,204.247559h-40.351562c-3.439453,0-6.216797,2.782227-6.216797,6.208984    v40.368164c0,3.426758,2.777344,6.200684,6.216797,6.200684h40.351562c3.439453,0,6.216797-2.773926,6.216797-6.200684v-40.368164    C283.120117,207.029785,280.342773,204.247559,276.90332,204.247559z M280.491211,248.807617    c0,3.087891-2.496094,5.588379-5.59668,5.588379h-36.317383c-3.100098,0-5.588867-2.500488-5.588867-5.588379v-36.330078    c0-3.091797,2.48877-5.59668,5.588867-5.59668h36.317383c3.100586,0,5.59668,2.504883,5.59668,5.59668V248.807617z" fill="url(#SVGID_29_)" opacity="0.2"/><linearGradient gradientUnits="userSpaceOnUse" id="SVGID_30_" x1="256.739746" x2="256.739746" y1="253.407227" y2="208.381317"><stop offset="0" style="stop-color:#999999"/><stop offset="0.090909" style="stop-color:#768080"/><stop offset="0.945455" style="stop-color:#A8ACB3"/><stop offset="1" style="stop-color:#CBD0D9"/></linearGradient><path d="M280.491211,248.807617c0,3.087891-2.496094,5.588379-5.59668,5.588379h-36.317383    c-3.100098,0-5.588867-2.500488-5.588867-5.588379v-36.330078c0-3.091797,2.48877-5.59668,5.588867-5.59668h36.317383    c3.100586,0,5.59668,2.504883,5.59668,5.59668V248.807617z" fill="url(#SVGID_30_)"/><linearGradient gradientUnits="userSpaceOnUse" id="SVGID_31_" x1="326.283203" x2="326.283203" y1="256.510742" y2="264.293243"><stop offset="0" style="stop-color:#232323"/><stop offset="1" style="stop-color:#232323;stop-opacity:0"/></linearGradient><path d="M352.407227,255.479004c0,3.773926-2.745117,6.828613-6.142578,6.828613    h-39.962891c-3.389648,0-6.142578-3.054688-6.142578-6.828613v-44.402832c0-3.773926,2.75293-6.828613,6.142578-6.828613    h39.962891c3.397461,0,6.142578,3.054688,6.142578,6.828613V255.479004z" fill="url(#SVGID_31_)" opacity="0.55"/><linearGradient gradientUnits="userSpaceOnUse" id="SVGID_32_" x1="326.287109" x2="326.287109" y1="200.106445" y2="260.689056"><stop offset="0" style="stop-color:#FFFFFF"/><stop offset="1" style="stop-color:#FFFFFF;stop-opacity:0"/></linearGradient><path d="M355.317383,252.846191c0,3.765625-3.058594,6.824707-6.845703,6.824707    h-44.385742c-3.786133,0-6.829102-3.059082-6.829102-6.824707v-44.407227c0-3.769531,3.042969-6.828613,6.829102-6.828613    h44.385742c3.787109,0,6.845703,3.059082,6.845703,6.828613V252.846191z" fill="url(#SVGID_32_)" opacity="0.25"/><linearGradient gradientUnits="userSpaceOnUse" id="SVGID_33_" x1="326.287109" x2="326.287109" y1="258.056641" y2="204.761551"><stop offset="0" style="stop-color:#000000"/><stop offset="0.987879" style="stop-color:#303133"/></linearGradient><path d="M346.47168,204.247559h-40.360352c-3.447266,0-6.216797,2.782227-6.216797,6.208984    v40.368164c0,3.426758,2.769531,6.200684,6.216797,6.200684h40.360352c3.438477,0,6.208008-2.773926,6.208008-6.200684v-40.368164    C352.679688,207.029785,349.910156,204.247559,346.47168,204.247559z M350.026367,248.807617    c0,3.087891-2.488281,5.588379-5.588867,5.588379h-36.317383c-3.091797,0-5.59668-2.500488-5.59668-5.588379v-36.330078    c0-3.091797,2.504883-5.59668,5.59668-5.59668H344.4375c3.100586,0,5.588867,2.504883,5.588867,5.59668V248.807617z" fill="url(#SVGID_33_)" opacity="0.2"/><linearGradient gradientUnits="userSpaceOnUse" id="SVGID_34_" x1="326.275391" x2="326.275391" y1="253.407227" y2="208.381317"><stop offset="0" style="stop-color:#999999"/><stop offset="0.090909" style="stop-color:#768080"/><stop offset="0.945455" style="stop-color:#A8ACB3"/><stop offset="1" style="stop-color:#CBD0D9"/></linearGradient><path d="M350.026367,248.807617c0,3.087891-2.488281,5.588379-5.588867,5.588379h-36.317383    c-3.091797,0-5.59668-2.500488-5.59668-5.588379v-36.330078c0-3.091797,2.504883-5.59668,5.59668-5.59668H344.4375    c3.100586,0,5.588867,2.504883,5.588867,5.59668V248.807617z" fill="url(#SVGID_34_)"/><linearGradient gradientUnits="userSpaceOnUse" id="SVGID_35_" x1="395.833984" x2="395.833984" y1="256.510742" y2="264.293243"><stop offset="0" style="stop-color:#232323"/><stop offset="1" style="stop-color:#232323;stop-opacity:0"/></linearGradient><path d="M421.966797,255.479004c0,3.773926-2.75293,6.828613-6.150391,6.828613h-39.955078    c-3.398438,0-6.15918-3.054688-6.15918-6.828613v-44.402832c0-3.773926,2.760742-6.828613,6.15918-6.828613h39.955078    c3.397461,0,6.150391,3.054688,6.150391,6.828613V255.479004z" fill="url(#SVGID_35_)" opacity="0.7"/><linearGradient gradientUnits="userSpaceOnUse" id="SVGID_36_" x1="395.837891" x2="395.837891" y1="200.106445" y2="260.689056"><stop offset="0" style="stop-color:#FFFFFF"/><stop offset="1" style="stop-color:#FFFFFF;stop-opacity:0"/></linearGradient><path d="M424.868164,252.846191c0,3.765625-3.041992,6.824707-6.844727,6.824707    h-44.386719c-3.769531,0-6.828125-3.059082-6.828125-6.824707v-44.407227c0-3.769531,3.058594-6.828613,6.828125-6.828613    h44.386719c3.802734,0,6.844727,3.059082,6.844727,6.828613V252.846191z" fill="url(#SVGID_36_)" opacity="0.25"/><linearGradient gradientUnits="userSpaceOnUse" id="SVGID_37_" x1="395.826172" x2="395.826172" y1="258.056641" y2="204.761551"><stop offset="0" style="stop-color:#000000"/><stop offset="0.987879" style="stop-color:#303133"/></linearGradient><path d="M416.014648,204.247559h-40.376953c-3.422852,0-6.200195,2.782227-6.200195,6.208984v40.368164    c0,3.426758,2.777344,6.200684,6.200195,6.200684h40.376953c3.447266,0,6.200195-2.773926,6.200195-6.200684v-40.368164    C422.214844,207.029785,419.461914,204.247559,416.014648,204.247559z M419.602539,248.807617    c0,3.087891-2.49707,5.588379-5.605469,5.588379h-36.317383c-3.091797,0-5.588867-2.500488-5.588867-5.588379v-36.330078    c0-3.091797,2.49707-5.59668,5.588867-5.59668h36.317383c3.108398,0,5.605469,2.504883,5.605469,5.59668V248.807617z" fill="url(#SVGID_37_)"/><linearGradient gradientUnits="userSpaceOnUse" id="SVGID_38_" x1="395.84668" x2="395.84668" y1="253.407227" y2="208.381317"><stop offset="0" style="stop-color:#333333"/><stop offset="0.090909" style="stop-color:#181A1A"/><stop offset="0.945455" style="stop-color:#484A4D"/><stop offset="1" style="stop-color:#5F6266"/></linearGradient><path d="M419.602539,248.807617c0,3.087891-2.49707,5.588379-5.605469,5.588379h-36.317383    c-3.091797,0-5.588867-2.500488-5.588867-5.588379v-36.330078c0-3.091797,2.49707-5.59668,5.588867-5.59668h36.317383    c3.108398,0,5.605469,2.504883,5.605469,5.59668V248.807617z" fill="url(#SVGID_38_)"/><linearGradient gradientUnits="userSpaceOnUse" id="SVGID_39_" x1="117.622559" x2="117.622559" y1="326.054688" y2="333.835358"><stop offset="0" style="stop-color:#232323"/><stop offset="0.987879" style="stop-color:#232323;stop-opacity:0"/></linearGradient><path d="M143.744629,325.039062c0,3.761719-2.731934,6.811523-6.134277,6.811523H97.647461    c-3.397949,0-6.146973-3.049805-6.146973-6.811523V280.62793c0-3.769531,2.749023-6.824219,6.146973-6.824219h39.962891    c3.402344,0,6.134277,3.054688,6.134277,6.824219V325.039062z" fill="url(#SVGID_39_)" opacity="0.7"/><linearGradient gradientUnits="userSpaceOnUse" id="SVGID_40_" x1="117.628418" x2="117.628418" y1="269.658203" y2="330.248474"><stop offset="0" style="stop-color:#FFFFFF"/><stop offset="1" style="stop-color:#FFFFFF;stop-opacity:0"/></linearGradient><path d="M146.658691,322.393555c0,3.77832-3.054688,6.836914-6.815918,6.836914H95.431641    c-3.77832,0-6.833008-3.058594-6.833008-6.836914v-44.407227c0-3.773438,3.054688-6.824219,6.833008-6.824219h44.411133    c3.76123,0,6.815918,3.050781,6.815918,6.824219V322.393555z" fill="url(#SVGID_40_)" opacity="0.2"/><linearGradient gradientUnits="userSpaceOnUse" id="SVGID_41_" x1="117.620605" x2="117.620605" y1="327.624023" y2="274.317108"><stop offset="0" style="stop-color:#000000"/><stop offset="0.987879" style="stop-color:#303133"/></linearGradient><path d="M137.809082,273.803711H97.44043c-3.430664,0-6.212402,2.777344-6.212402,6.204102v40.368164    c0,3.422852,2.781738,6.216797,6.212402,6.216797h40.368652c3.430664,0,6.20459-2.793945,6.20459-6.216797v-40.368164    C144.013672,276.581055,141.239746,273.803711,137.809082,273.803711z M141.388672,318.359375    c0,3.091797-2.504883,5.580078-5.592773,5.580078H99.461914c-3.087891,0-5.584473-2.488281-5.584473-5.580078v-36.330078    c0-3.091797,2.496582-5.588867,5.584473-5.588867h36.333984c3.087891,0,5.592773,2.49707,5.592773,5.588867V318.359375z" fill="url(#SVGID_41_)"/><linearGradient gradientUnits="userSpaceOnUse" id="SVGID_42_" x1="117.633301" x2="117.633301" y1="322.951172" y2="277.940521"><stop offset="0" style="stop-color:#2E2E2E"/><stop offset="0.090909" style="stop-color:#131515"/><stop offset="0.945455" style="stop-color:#434548"/><stop offset="1" style="stop-color:#5F6266"/></linearGradient><path d="M141.388672,318.359375c0,3.091797-2.504883,5.580078-5.592773,5.580078H99.461914    c-3.087891,0-5.584473-2.488281-5.584473-5.580078v-36.330078c0-3.091797,2.496582-5.588867,5.584473-5.588867h36.333984    c3.087891,0,5.592773,2.49707,5.592773,5.588867V318.359375z" fill="url(#SVGID_42_)"/><linearGradient gradientUnits="userSpaceOnUse" id="SVGID_43_" x1="187.188477" x2="187.188477" y1="326.054688" y2="333.835358"><stop offset="0" style="stop-color:#232323"/><stop offset="0.987879" style="stop-color:#232323;stop-opacity:0"/></linearGradient><path d="M213.3125,325.039062c0,3.761719-2.76123,6.811523-6.158691,6.811523H167.19043    c-3.397949,0-6.125977-3.049805-6.125977-6.811523V280.62793c0-3.769531,2.728027-6.824219,6.125977-6.824219h39.963379    c3.397461,0,6.158691,3.054688,6.158691,6.824219V325.039062z" fill="url(#SVGID_43_)" opacity="0.6"/><linearGradient gradientUnits="userSpaceOnUse" id="SVGID_44_" x1="187.171875" x2="187.171875" y1="269.658203" y2="330.248474"><stop offset="0" style="stop-color:#FFFFFF"/><stop offset="1" style="stop-color:#FFFFFF;stop-opacity:0"/></linearGradient><path d="M216.206055,322.393555c0,3.77832-3.050293,6.836914-6.828613,6.836914h-44.402832    c-3.777832,0-6.836914-3.058594-6.836914-6.836914v-44.407227c0-3.773438,3.059082-6.824219,6.836914-6.824219h44.402832    c3.77832,0,6.828613,3.050781,6.828613,6.824219V322.393555z" fill="url(#SVGID_44_)" opacity="0.2"/><linearGradient gradientUnits="userSpaceOnUse" id="SVGID_45_" x1="187.180176" x2="187.180176" y1="327.624023" y2="274.317108"><stop offset="0" style="stop-color:#000000"/><stop offset="0.987879" style="stop-color:#303133"/></linearGradient><path d="M207.352051,273.803711H167c-3.422363,0-6.208496,2.777344-6.208496,6.204102    v40.368164c0,3.422852,2.786133,6.216797,6.208496,6.216797h40.352051c3.447266,0,6.216797-2.793945,6.216797-6.216797v-40.368164    C213.568848,276.581055,210.799316,273.803711,207.352051,273.803711z M210.931641,318.359375    c0,3.091797-2.496582,5.580078-5.59668,5.580078h-36.317383c-3.100586,0-5.580566-2.488281-5.580566-5.580078v-36.330078    c0-3.091797,2.47998-5.588867,5.580566-5.588867h36.317383c3.100098,0,5.59668,2.49707,5.59668,5.588867V318.359375z" fill="url(#SVGID_45_)" opacity="0.25"/><linearGradient gradientUnits="userSpaceOnUse" id="SVGID_46_" x1="187.184082" x2="187.184082" y1="322.951172" y2="277.940521"><stop offset="0" style="stop-color:#949494"/><stop offset="0.090909" style="stop-color:#717B7B"/><stop offset="0.945455" style="stop-color:#979BA1"/><stop offset="1" style="stop-color:#CBD1D9"/></linearGradient><path d="M210.931641,318.359375c0,3.091797-2.496582,5.580078-5.59668,5.580078h-36.317383    c-3.100586,0-5.580566-2.488281-5.580566-5.580078v-36.330078c0-3.091797,2.47998-5.588867,5.580566-5.588867h36.317383    c3.100098,0,5.59668,2.49707,5.59668,5.588867V318.359375z" fill="url(#SVGID_46_)"/><linearGradient gradientUnits="userSpaceOnUse" id="SVGID_47_" x1="256.727051" x2="256.727051" y1="326.054688" y2="333.835358"><stop offset="0" style="stop-color:#232323"/><stop offset="0.987879" style="stop-color:#232323;stop-opacity:0"/></linearGradient><path d="M282.855469,325.039062c0,3.761719-2.744141,6.811523-6.133789,6.811523H236.75    c-3.389648,0-6.150879-3.049805-6.150879-6.811523V280.62793c0-3.769531,2.76123-6.824219,6.150879-6.824219h39.97168    c3.389648,0,6.133789,3.054688,6.133789,6.824219V325.039062z" fill="url(#SVGID_47_)" opacity="0.6"/><linearGradient gradientUnits="userSpaceOnUse" id="SVGID_48_" x1="256.735352" x2="256.735352" y1="269.658203" y2="330.248474"><stop offset="0" style="stop-color:#FFFFFF"/><stop offset="1" style="stop-color:#FFFFFF;stop-opacity:0"/></linearGradient><path d="M285.765625,322.393555c0,3.77832-3.058594,6.836914-6.828125,6.836914h-44.40332    c-3.777832,0-6.828613-3.058594-6.828613-6.836914v-44.407227c0-3.773438,3.050781-6.824219,6.828613-6.824219h44.40332    c3.769531,0,6.828125,3.050781,6.828125,6.824219V322.393555z" fill="url(#SVGID_48_)" opacity="0.2"/><linearGradient gradientUnits="userSpaceOnUse" id="SVGID_49_" x1="256.728027" x2="256.728027" y1="327.624023" y2="274.317108"><stop offset="0" style="stop-color:#000000"/><stop offset="0.987879" style="stop-color:#303133"/></linearGradient><path d="M276.90332,273.803711h-40.351562    c-3.439453,0-6.216797,2.777344-6.216797,6.204102v40.368164c0,3.422852,2.777344,6.216797,6.216797,6.216797h40.351562    c3.439453,0,6.216797-2.793945,6.216797-6.216797v-40.368164C283.120117,276.581055,280.342773,273.803711,276.90332,273.803711z     M280.491211,318.359375c0,3.091797-2.496094,5.580078-5.59668,5.580078h-36.317383    c-3.100098,0-5.588867-2.488281-5.588867-5.580078v-36.330078c0-3.091797,2.48877-5.588867,5.588867-5.588867h36.317383    c3.100586,0,5.59668,2.49707,5.59668,5.588867V318.359375z" fill="url(#SVGID_49_)" opacity="0.25"/><linearGradient gradientUnits="userSpaceOnUse" id="SVGID_50_" x1="256.739746" x2="256.739746" y1="322.951172" y2="277.940521"><stop offset="0" style="stop-color:#949494"/><stop offset="0.090909" style="stop-color:#717B7B"/><stop offset="0.945455" style="stop-color:#979BA1"/><stop offset="1" style="stop-color:#CBD1D9"/></linearGradient><path d="M280.491211,318.359375c0,3.091797-2.496094,5.580078-5.59668,5.580078h-36.317383    c-3.100098,0-5.588867-2.488281-5.588867-5.580078v-36.330078c0-3.091797,2.48877-5.588867,5.588867-5.588867h36.317383    c3.100586,0,5.59668,2.49707,5.59668,5.588867V318.359375z" fill="url(#SVGID_50_)"/><linearGradient gradientUnits="userSpaceOnUse" id="SVGID_51_" x1="326.283203" x2="326.283203" y1="326.054688" y2="333.835358"><stop offset="0" style="stop-color:#232323"/><stop offset="1" style="stop-color:#232323;stop-opacity:0"/></linearGradient><path d="M352.407227,325.039062c0,3.761719-2.745117,6.811523-6.142578,6.811523h-39.962891    c-3.389648,0-6.142578-3.049805-6.142578-6.811523V280.62793c0-3.769531,2.75293-6.824219,6.142578-6.824219h39.962891    c3.397461,0,6.142578,3.054688,6.142578,6.824219V325.039062z" fill="url(#SVGID_51_)" opacity="0.6"/><linearGradient gradientUnits="userSpaceOnUse" id="SVGID_52_" x1="326.287109" x2="326.287109" y1="269.658203" y2="330.248474"><stop offset="0" style="stop-color:#FFFFFF"/><stop offset="1" style="stop-color:#FFFFFF;stop-opacity:0"/></linearGradient><path d="M355.317383,322.393555c0,3.77832-3.058594,6.836914-6.845703,6.836914h-44.385742    c-3.786133,0-6.829102-3.058594-6.829102-6.836914v-44.407227c0-3.773438,3.042969-6.824219,6.829102-6.824219h44.385742    c3.787109,0,6.845703,3.050781,6.845703,6.824219V322.393555z" fill="url(#SVGID_52_)" opacity="0.2"/><linearGradient gradientUnits="userSpaceOnUse" id="SVGID_53_" x1="326.287109" x2="326.287109" y1="327.624023" y2="274.317108"><stop offset="0" style="stop-color:#000000"/><stop offset="0.987879" style="stop-color:#303133"/></linearGradient><path d="M346.47168,273.803711h-40.360352    c-3.447266,0-6.216797,2.777344-6.216797,6.204102v40.368164c0,3.422852,2.769531,6.216797,6.216797,6.216797h40.360352    c3.438477,0,6.208008-2.793945,6.208008-6.216797v-40.368164C352.679688,276.581055,349.910156,273.803711,346.47168,273.803711z     M350.026367,318.359375c0,3.091797-2.488281,5.580078-5.588867,5.580078h-36.317383    c-3.091797,0-5.59668-2.488281-5.59668-5.580078v-36.330078c0-3.091797,2.504883-5.588867,5.59668-5.588867H344.4375    c3.100586,0,5.588867,2.49707,5.588867,5.588867V318.359375z" fill="url(#SVGID_53_)" opacity="0.25"/><linearGradient gradientUnits="userSpaceOnUse" id="SVGID_54_" x1="326.275391" x2="326.275391" y1="322.951172" y2="277.940521"><stop offset="0" style="stop-color:#949494"/><stop offset="0.090909" style="stop-color:#717B7B"/><stop offset="0.945455" style="stop-color:#979BA1"/><stop offset="1" style="stop-color:#CBD1D9"/></linearGradient><path d="M350.026367,318.359375c0,3.091797-2.488281,5.580078-5.588867,5.580078h-36.317383    c-3.091797,0-5.59668-2.488281-5.59668-5.580078v-36.330078c0-3.091797,2.504883-5.588867,5.59668-5.588867H344.4375    c3.100586,0,5.588867,2.49707,5.588867,5.588867V318.359375z" fill="url(#SVGID_54_)"/><linearGradient gradientUnits="userSpaceOnUse" id="SVGID_55_" x1="395.833984" x2="395.833984" y1="326.054688" y2="333.835358"><stop offset="0" style="stop-color:#232323"/><stop offset="0.987879" style="stop-color:#232323;stop-opacity:0"/></linearGradient><path d="M421.966797,325.039062c0,3.761719-2.75293,6.811523-6.150391,6.811523h-39.955078    c-3.398438,0-6.15918-3.049805-6.15918-6.811523V280.62793c0-3.769531,2.760742-6.824219,6.15918-6.824219h39.955078    c3.397461,0,6.150391,3.054688,6.150391,6.824219V325.039062z" fill="url(#SVGID_55_)" opacity="0.7"/><linearGradient gradientUnits="userSpaceOnUse" id="SVGID_56_" x1="395.837891" x2="395.837891" y1="269.658203" y2="330.248474"><stop offset="0" style="stop-color:#FFFFFF"/><stop offset="1" style="stop-color:#FFFFFF;stop-opacity:0"/></linearGradient><path d="M424.868164,322.393555c0,3.77832-3.041992,6.836914-6.844727,6.836914h-44.386719    c-3.769531,0-6.828125-3.058594-6.828125-6.836914v-44.407227c0-3.773438,3.058594-6.824219,6.828125-6.824219h44.386719    c3.802734,0,6.844727,3.050781,6.844727,6.824219V322.393555z" fill="url(#SVGID_56_)" opacity="0.2"/><linearGradient gradientUnits="userSpaceOnUse" id="SVGID_57_" x1="395.826172" x2="395.826172" y1="327.624023" y2="274.317108"><stop offset="0" style="stop-color:#000000"/><stop offset="0.987879" style="stop-color:#303133"/></linearGradient><path d="M416.014648,273.803711h-40.376953c-3.422852,0-6.200195,2.777344-6.200195,6.204102v40.368164    c0,3.422852,2.777344,6.216797,6.200195,6.216797h40.376953c3.447266,0,6.200195-2.793945,6.200195-6.216797v-40.368164    C422.214844,276.581055,419.461914,273.803711,416.014648,273.803711z M419.602539,318.359375    c0,3.091797-2.49707,5.580078-5.605469,5.580078h-36.317383c-3.091797,0-5.588867-2.488281-5.588867-5.580078v-36.330078    c0-3.091797,2.49707-5.588867,5.588867-5.588867h36.317383c3.108398,0,5.605469,2.49707,5.605469,5.588867V318.359375z" fill="url(#SVGID_57_)"/><linearGradient gradientUnits="userSpaceOnUse" id="SVGID_58_" x1="395.84668" x2="395.84668" y1="322.951172" y2="277.940521"><stop offset="0" style="stop-color:#2E2E2E"/><stop offset="0.090909" style="stop-color:#131515"/><stop offset="0.945455" style="stop-color:#434548"/><stop offset="1" style="stop-color:#5F6266"/></linearGradient><path d="M419.602539,318.359375c0,3.091797-2.49707,5.580078-5.605469,5.580078h-36.317383    c-3.091797,0-5.588867-2.488281-5.588867-5.580078v-36.330078c0-3.091797,2.49707-5.588867,5.588867-5.588867h36.317383    c3.108398,0,5.605469,2.49707,5.605469,5.588867V318.359375z" fill="url(#SVGID_58_)"/><linearGradient gradientUnits="userSpaceOnUse" id="SVGID_59_" x1="117.622559" x2="117.622559" y1="395.620117" y2="403.403656"><stop offset="0" style="stop-color:#232323"/><stop offset="0.993976" style="stop-color:#232323;stop-opacity:0"/></linearGradient><path d="M143.744629,394.598633c0,3.75293-2.731934,6.820312-6.134277,6.820312H97.647461    c-3.397949,0-6.146973-3.067383-6.146973-6.820312V350.1875c0-3.77832,2.749023-6.836914,6.146973-6.836914h39.962891    c3.402344,0,6.134277,3.058594,6.134277,6.836914V394.598633z" fill="url(#SVGID_59_)" opacity="0.7"/><linearGradient gradientUnits="userSpaceOnUse" id="SVGID_60_" x1="117.628418" x2="117.628418" y1="339.208984" y2="399.799255"><stop offset="0" style="stop-color:#FFFFFF"/><stop offset="1" style="stop-color:#FFFFFF;stop-opacity:0"/></linearGradient><path d="M146.658691,391.944336c0,3.77832-3.054688,6.836914-6.815918,6.836914H95.431641    c-3.77832,0-6.833008-3.058594-6.833008-6.836914v-44.402344c0-3.761719,3.054688-6.829102,6.833008-6.829102h44.411133    c3.76123,0,6.815918,3.067383,6.815918,6.829102V391.944336z" fill="url(#SVGID_60_)" opacity="0.15"/><linearGradient gradientUnits="userSpaceOnUse" id="SVGID_61_" x1="117.620605" x2="117.620605" y1="397.166992" y2="343.864014"><stop offset="0" style="stop-color:#000000"/><stop offset="0.987879" style="stop-color:#303133"/></linearGradient><path d="M137.809082,343.350586H97.44043c-3.430664,0-6.212402,2.793945-6.212402,6.216797v40.351562    c0,3.430664,2.781738,6.216797,6.212402,6.216797h40.368652c3.430664,0,6.20459-2.786133,6.20459-6.216797v-40.351562    C144.013672,346.144531,141.239746,343.350586,137.809082,343.350586z M141.388672,387.902344    c0,3.083008-2.504883,5.59668-5.592773,5.59668H99.461914c-3.087891,0-5.584473-2.513672-5.584473-5.59668v-36.333984    c0-3.083984,2.496582-5.572266,5.584473-5.572266h36.333984c3.087891,0,5.592773,2.488281,5.592773,5.572266V387.902344z" fill="url(#SVGID_61_)"/><linearGradient gradientUnits="userSpaceOnUse" id="SVGID_62_" x1="117.633301" x2="117.633301" y1="392.510742" y2="347.496399"><stop offset="0" style="stop-color:#262626"/><stop offset="0.090909" style="stop-color:#0C0D0D"/><stop offset="0.945455" style="stop-color:#3C3E40"/><stop offset="1" style="stop-color:#5F6366"/></linearGradient><path d="M141.388672,387.902344c0,3.083008-2.504883,5.59668-5.592773,5.59668H99.461914    c-3.087891,0-5.584473-2.513672-5.584473-5.59668v-36.333984c0-3.083984,2.496582-5.572266,5.584473-5.572266h36.333984    c3.087891,0,5.592773,2.488281,5.592773,5.572266V387.902344z" fill="url(#SVGID_62_)"/><linearGradient gradientUnits="userSpaceOnUse" id="SVGID_63_" x1="187.188477" x2="187.188477" y1="395.620117" y2="403.403656"><stop offset="0" style="stop-color:#232323"/><stop offset="0.993976" style="stop-color:#232323;stop-opacity:0"/></linearGradient><path d="M213.3125,394.598633c0,3.75293-2.76123,6.820312-6.158691,6.820312H167.19043    c-3.397949,0-6.125977-3.067383-6.125977-6.820312V350.1875c0-3.77832,2.728027-6.836914,6.125977-6.836914h39.963379    c3.397461,0,6.158691,3.058594,6.158691,6.836914V394.598633z" fill="url(#SVGID_63_)" opacity="0.65"/><linearGradient gradientUnits="userSpaceOnUse" id="SVGID_64_" x1="187.171875" x2="187.171875" y1="339.208984" y2="399.799255"><stop offset="0" style="stop-color:#FFFFFF"/><stop offset="1" style="stop-color:#FFFFFF;stop-opacity:0"/></linearGradient><path d="M216.206055,391.944336c0,3.77832-3.050293,6.836914-6.828613,6.836914h-44.402832    c-3.777832,0-6.836914-3.058594-6.836914-6.836914v-44.402344c0-3.761719,3.059082-6.829102,6.836914-6.829102h44.402832    c3.77832,0,6.828613,3.067383,6.828613,6.829102V391.944336z" fill="url(#SVGID_64_)" opacity="0.15"/><linearGradient gradientUnits="userSpaceOnUse" id="SVGID_65_" x1="187.180176" x2="187.180176" y1="397.166992" y2="343.864014"><stop offset="0" style="stop-color:#000000"/><stop offset="0.987879" style="stop-color:#303133"/></linearGradient><path d="M207.352051,343.350586H167c-3.422363,0-6.208496,2.793945-6.208496,6.216797    v40.351562c0,3.430664,2.786133,6.216797,6.208496,6.216797h40.352051c3.447266,0,6.216797-2.786133,6.216797-6.216797v-40.351562    C213.568848,346.144531,210.799316,343.350586,207.352051,343.350586z M210.931641,387.902344    c0,3.083008-2.496582,5.59668-5.59668,5.59668h-36.317383c-3.100586,0-5.580566-2.513672-5.580566-5.59668v-36.333984    c0-3.083984,2.47998-5.572266,5.580566-5.572266h36.317383c3.100098,0,5.59668,2.488281,5.59668,5.572266V387.902344z" fill="url(#SVGID_65_)" opacity="0.3"/><linearGradient gradientUnits="userSpaceOnUse" id="SVGID_66_" x1="187.184082" x2="187.184082" y1="392.510742" y2="347.496399"><stop offset="0" style="stop-color:#8C8C8C"/><stop offset="0.090909" style="stop-color:#6A7373"/><stop offset="0.945455" style="stop-color:#9CA0A6"/><stop offset="1" style="stop-color:#CBD1D9"/></linearGradient><path d="M210.931641,387.902344c0,3.083008-2.496582,5.59668-5.59668,5.59668h-36.317383    c-3.100586,0-5.580566-2.513672-5.580566-5.59668v-36.333984c0-3.083984,2.47998-5.572266,5.580566-5.572266h36.317383    c3.100098,0,5.59668,2.488281,5.59668,5.572266V387.902344z" fill="url(#SVGID_66_)"/><linearGradient gradientUnits="userSpaceOnUse" id="SVGID_67_" x1="256.727051" x2="256.727051" y1="395.620117" y2="403.403656"><stop offset="0" style="stop-color:#232323"/><stop offset="0.993976" style="stop-color:#232323;stop-opacity:0"/></linearGradient><path d="M282.855469,394.598633c0,3.75293-2.744141,6.820312-6.133789,6.820312H236.75    c-3.389648,0-6.150879-3.067383-6.150879-6.820312V350.1875c0-3.77832,2.76123-6.836914,6.150879-6.836914h39.97168    c3.389648,0,6.133789,3.058594,6.133789,6.836914V394.598633z" fill="url(#SVGID_67_)" opacity="0.65"/><linearGradient gradientUnits="userSpaceOnUse" id="SVGID_68_" x1="256.735352" x2="256.735352" y1="339.208984" y2="399.799255"><stop offset="0" style="stop-color:#FFFFFF"/><stop offset="1" style="stop-color:#FFFFFF;stop-opacity:0"/></linearGradient><path d="M285.765625,391.944336c0,3.77832-3.058594,6.836914-6.828125,6.836914h-44.40332    c-3.777832,0-6.828613-3.058594-6.828613-6.836914v-44.402344c0-3.761719,3.050781-6.829102,6.828613-6.829102h44.40332    c3.769531,0,6.828125,3.067383,6.828125,6.829102V391.944336z" fill="url(#SVGID_68_)" opacity="0.15"/><linearGradient gradientUnits="userSpaceOnUse" id="SVGID_69_" x1="256.728027" x2="256.728027" y1="397.166992" y2="343.864014"><stop offset="0" style="stop-color:#000000"/><stop offset="0.987879" style="stop-color:#303133"/></linearGradient><path d="M276.90332,343.350586h-40.351562c-3.439453,0-6.216797,2.793945-6.216797,6.216797    v40.351562c0,3.430664,2.777344,6.216797,6.216797,6.216797h40.351562c3.439453,0,6.216797-2.786133,6.216797-6.216797v-40.351562    C283.120117,346.144531,280.342773,343.350586,276.90332,343.350586z M280.491211,387.902344    c0,3.083008-2.496094,5.59668-5.59668,5.59668h-36.317383c-3.100098,0-5.588867-2.513672-5.588867-5.59668v-36.333984    c0-3.083984,2.48877-5.572266,5.588867-5.572266h36.317383c3.100586,0,5.59668,2.488281,5.59668,5.572266V387.902344z" fill="url(#SVGID_69_)" opacity="0.3"/><linearGradient gradientUnits="userSpaceOnUse" id="SVGID_70_" x1="256.739746" x2="256.739746" y1="392.510742" y2="347.496399"><stop offset="0" style="stop-color:#8C8C8C"/><stop offset="0.090909" style="stop-color:#6A7373"/><stop offset="0.945455" style="stop-color:#9CA0A6"/><stop offset="1" style="stop-color:#CBD1D9"/></linearGradient><path d="M280.491211,387.902344c0,3.083008-2.496094,5.59668-5.59668,5.59668h-36.317383    c-3.100098,0-5.588867-2.513672-5.588867-5.59668v-36.333984c0-3.083984,2.48877-5.572266,5.588867-5.572266h36.317383    c3.100586,0,5.59668,2.488281,5.59668,5.572266V387.902344z" fill="url(#SVGID_70_)"/><linearGradient gradientUnits="userSpaceOnUse" id="SVGID_71_" x1="326.283203" x2="326.283203" y1="395.620117" y2="403.403656"><stop offset="0" style="stop-color:#232323"/><stop offset="0.993976" style="stop-color:#232323;stop-opacity:0"/></linearGradient><path d="M352.407227,394.598633c0,3.75293-2.745117,6.820312-6.142578,6.820312h-39.962891    c-3.389648,0-6.142578-3.067383-6.142578-6.820312V350.1875c0-3.77832,2.75293-6.836914,6.142578-6.836914h39.962891    c3.397461,0,6.142578,3.058594,6.142578,6.836914V394.598633z" fill="url(#SVGID_71_)" opacity="0.65"/><linearGradient gradientUnits="userSpaceOnUse" id="SVGID_72_" x1="326.287109" x2="326.287109" y1="339.208984" y2="399.799255"><stop offset="0" style="stop-color:#FFFFFF"/><stop offset="1" style="stop-color:#FFFFFF;stop-opacity:0"/></linearGradient><path d="M355.317383,391.944336c0,3.77832-3.058594,6.836914-6.845703,6.836914h-44.385742    c-3.786133,0-6.829102-3.058594-6.829102-6.836914v-44.402344c0-3.761719,3.042969-6.829102,6.829102-6.829102h44.385742    c3.787109,0,6.845703,3.067383,6.845703,6.829102V391.944336z" fill="url(#SVGID_72_)" opacity="0.15"/><linearGradient gradientUnits="userSpaceOnUse" id="SVGID_73_" x1="326.287109" x2="326.287109" y1="397.166992" y2="343.864014"><stop offset="0" style="stop-color:#000000"/><stop offset="0.987879" style="stop-color:#303133"/></linearGradient><path d="M346.47168,343.350586h-40.360352c-3.447266,0-6.216797,2.793945-6.216797,6.216797    v40.351562c0,3.430664,2.769531,6.216797,6.216797,6.216797h40.360352c3.438477,0,6.208008-2.786133,6.208008-6.216797v-40.351562    C352.679688,346.144531,349.910156,343.350586,346.47168,343.350586z M350.026367,387.902344    c0,3.083008-2.488281,5.59668-5.588867,5.59668h-36.317383c-3.091797,0-5.59668-2.513672-5.59668-5.59668v-36.333984    c0-3.083984,2.504883-5.572266,5.59668-5.572266H344.4375c3.100586,0,5.588867,2.488281,5.588867,5.572266V387.902344z" fill="url(#SVGID_73_)" opacity="0.3"/><linearGradient gradientUnits="userSpaceOnUse" id="SVGID_74_" x1="326.275391" x2="326.275391" y1="392.510742" y2="347.496399"><stop offset="0" style="stop-color:#8C8C8C"/><stop offset="0.090909" style="stop-color:#6A7373"/><stop offset="0.945455" style="stop-color:#9CA0A6"/><stop offset="1" style="stop-color:#CBD1D9"/></linearGradient><path d="M350.026367,387.902344c0,3.083008-2.488281,5.59668-5.588867,5.59668h-36.317383    c-3.091797,0-5.59668-2.513672-5.59668-5.59668v-36.333984c0-3.083984,2.504883-5.572266,5.59668-5.572266H344.4375    c3.100586,0,5.588867,2.488281,5.588867,5.572266V387.902344z" fill="url(#SVGID_74_)"/><linearGradient gradientUnits="userSpaceOnUse" id="SVGID_75_" x1="117.622559" x2="117.622559" y1="465.163086" y2="472.946625"><stop offset="0" style="stop-color:#801919"/><stop offset="1" style="stop-color:#801A1A;stop-opacity:0"/></linearGradient><path d="M143.744629,464.141602c0,3.761719-2.731934,6.820312-6.134277,6.820312H97.647461    c-3.397949,0-6.146973-3.058594-6.146973-6.820312v-44.402344c0-3.770508,2.749023-6.845703,6.146973-6.845703h39.962891    c3.402344,0,6.134277,3.075195,6.134277,6.845703V464.141602z" fill="url(#SVGID_75_)" opacity="0.7"/><linearGradient gradientUnits="userSpaceOnUse" id="SVGID_76_" x1="117.628418" x2="117.628418" y1="408.777344" y2="469.358429"><stop offset="0" style="stop-color:#FFFFFF"/><stop offset="1" style="stop-color:#FFFFFF;stop-opacity:0"/></linearGradient><path d="M146.658691,461.503906c0,3.761719-3.054688,6.836914-6.815918,6.836914H95.431641    c-3.77832,0-6.833008-3.075195-6.833008-6.836914v-44.418945c0-3.75293,3.054688-6.803711,6.833008-6.803711h44.411133    c3.76123,0,6.815918,3.050781,6.815918,6.803711V461.503906z" fill="url(#SVGID_76_)" opacity="0.1"/><linearGradient gradientUnits="userSpaceOnUse" id="SVGID_77_" x1="117.620605" x2="117.620605" y1="466.71875" y2="413.406891"><stop offset="0" style="stop-color:#330A0A"/><stop offset="0.993939" style="stop-color:#661515"/></linearGradient><path d="M137.809082,412.893555H97.44043c-3.430664,0-6.212402,2.786133-6.212402,6.225586    v40.359375c0,3.439453,2.781738,6.208984,6.212402,6.208984h40.368652c3.430664,0,6.20459-2.769531,6.20459-6.208984v-40.359375    C144.013672,415.679688,141.239746,412.893555,137.809082,412.893555z M141.388672,457.461914    c0,3.091797-2.504883,5.588867-5.592773,5.588867H99.461914c-3.087891,0-5.584473-2.49707-5.584473-5.588867V421.12793    c0-3.083984,2.496582-5.588867,5.584473-5.588867h36.333984c3.087891,0,5.592773,2.504883,5.592773,5.588867V457.461914z" fill="url(#SVGID_77_)" opacity="0.5"/><linearGradient gradientUnits="userSpaceOnUse" id="SVGID_78_" x1="117.633301" x2="117.633301" y1="462.0625" y2="417.039825"><stop offset="0" style="stop-color:#A02828"/><stop offset="0.090909" style="stop-color:#881B1B"/><stop offset="0.945455" style="stop-color:#BB2525"/><stop offset="1" style="stop-color:#E63A3A"/></linearGradient><path d="M141.388672,457.461914c0,3.091797-2.504883,5.588867-5.592773,5.588867H99.461914    c-3.087891,0-5.584473-2.49707-5.584473-5.588867V421.12793c0-3.083984,2.496582-5.588867,5.584473-5.588867h36.333984    c3.087891,0,5.592773,2.504883,5.592773,5.588867V457.461914z" fill="url(#SVGID_78_)"/><linearGradient gradientUnits="userSpaceOnUse" id="SVGID_79_" x1="187.188477" x2="187.188477" y1="465.163086" y2="472.946625"><stop offset="0" style="stop-color:#232323"/><stop offset="0.987952" style="stop-color:#232323;stop-opacity:0"/></linearGradient><path d="M213.3125,464.141602c0,3.761719-2.76123,6.820312-6.158691,6.820312H167.19043    c-3.397949,0-6.125977-3.058594-6.125977-6.820312v-44.402344c0-3.770508,2.728027-6.845703,6.125977-6.845703h39.963379    c3.397461,0,6.158691,3.075195,6.158691,6.845703V464.141602z" fill="url(#SVGID_79_)" opacity="0.7"/><linearGradient gradientUnits="userSpaceOnUse" id="SVGID_80_" x1="187.171875" x2="187.171875" y1="408.777344" y2="469.358429"><stop offset="0" style="stop-color:#FFFFFF"/><stop offset="1" style="stop-color:#FFFFFF;stop-opacity:0"/></linearGradient><path d="M216.206055,461.503906c0,3.761719-3.050293,6.836914-6.828613,6.836914h-44.402832    c-3.777832,0-6.836914-3.075195-6.836914-6.836914v-44.418945c0-3.75293,3.059082-6.803711,6.836914-6.803711h44.402832    c3.77832,0,6.828613,3.050781,6.828613,6.803711V461.503906z" fill="url(#SVGID_80_)" opacity="0.1"/><linearGradient gradientUnits="userSpaceOnUse" id="SVGID_81_" x1="187.180176" x2="187.180176" y1="466.71875" y2="413.406891"><stop offset="0" style="stop-color:#000000"/><stop offset="0.987879" style="stop-color:#303133"/></linearGradient><path d="M207.352051,412.893555H167c-3.422363,0-6.208496,2.786133-6.208496,6.225586    v40.359375c0,3.439453,2.786133,6.208984,6.208496,6.208984h40.352051c3.447266,0,6.216797-2.769531,6.216797-6.208984v-40.359375    C213.568848,415.679688,210.799316,412.893555,207.352051,412.893555z M210.931641,457.461914    c0,3.091797-2.496582,5.588867-5.59668,5.588867h-36.317383c-3.100586,0-5.580566-2.49707-5.580566-5.588867V421.12793    c0-3.083984,2.47998-5.588867,5.580566-5.588867h36.317383c3.100098,0,5.59668,2.504883,5.59668,5.588867V457.461914z" fill="url(#SVGID_81_)" opacity="0.35"/><linearGradient gradientUnits="userSpaceOnUse" id="SVGID_82_" x1="187.184082" x2="187.184082" y1="462.0625" y2="417.039825"><stop offset="0" style="stop-color:#878787"/><stop offset="0.084849" style="stop-color:#666E6E"/><stop offset="0.945455" style="stop-color:#979BA1"/><stop offset="1" style="stop-color:#CBD1D9"/></linearGradient><path d="M210.931641,457.461914c0,3.091797-2.496582,5.588867-5.59668,5.588867h-36.317383    c-3.100586,0-5.580566-2.49707-5.580566-5.588867V421.12793c0-3.083984,2.47998-5.588867,5.580566-5.588867h36.317383    c3.100098,0,5.59668,2.504883,5.59668,5.588867V457.461914z" fill="url(#SVGID_82_)"/><linearGradient gradientUnits="userSpaceOnUse" id="SVGID_83_" x1="256.727051" x2="256.727051" y1="465.163086" y2="472.946625"><stop offset="0" style="stop-color:#232323"/><stop offset="0.987952" style="stop-color:#232323;stop-opacity:0"/></linearGradient><path d="M282.855469,464.141602c0,3.761719-2.744141,6.820312-6.133789,6.820312H236.75    c-3.389648,0-6.150879-3.058594-6.150879-6.820312v-44.402344c0-3.770508,2.76123-6.845703,6.150879-6.845703h39.97168    c3.389648,0,6.133789,3.075195,6.133789,6.845703V464.141602z" fill="url(#SVGID_83_)" opacity="0.7"/><linearGradient gradientUnits="userSpaceOnUse" id="SVGID_84_" x1="256.735352" x2="256.735352" y1="408.777344" y2="469.358429"><stop offset="0" style="stop-color:#FFFFFF"/><stop offset="1" style="stop-color:#FFFFFF;stop-opacity:0"/></linearGradient><path d="M285.765625,461.503906c0,3.761719-3.058594,6.836914-6.828125,6.836914h-44.40332    c-3.777832,0-6.828613-3.075195-6.828613-6.836914v-44.418945c0-3.75293,3.050781-6.803711,6.828613-6.803711h44.40332    c3.769531,0,6.828125,3.050781,6.828125,6.803711V461.503906z" fill="url(#SVGID_84_)" opacity="0.1"/><linearGradient gradientUnits="userSpaceOnUse" id="SVGID_85_" x1="256.728027" x2="256.728027" y1="466.71875" y2="413.406891"><stop offset="0" style="stop-color:#000000"/><stop offset="0.987879" style="stop-color:#303133"/></linearGradient><path d="M276.90332,412.893555h-40.351562    c-3.439453,0-6.216797,2.786133-6.216797,6.225586v40.359375c0,3.439453,2.777344,6.208984,6.216797,6.208984h40.351562    c3.439453,0,6.216797-2.769531,6.216797-6.208984v-40.359375C283.120117,415.679688,280.342773,412.893555,276.90332,412.893555z     M280.491211,457.461914c0,3.091797-2.496094,5.588867-5.59668,5.588867h-36.317383    c-3.100098,0-5.588867-2.49707-5.588867-5.588867V421.12793c0-3.083984,2.48877-5.588867,5.588867-5.588867h36.317383    c3.100586,0,5.59668,2.504883,5.59668,5.588867V457.461914z" fill="url(#SVGID_85_)" opacity="0.35"/><linearGradient gradientUnits="userSpaceOnUse" id="SVGID_86_" x1="256.739746" x2="256.739746" y1="462.0625" y2="417.039825"><stop offset="0" style="stop-color:#878787"/><stop offset="0.084849" style="stop-color:#666E6E"/><stop offset="0.945455" style="stop-color:#979BA1"/><stop offset="1" style="stop-color:#CBD1D9"/></linearGradient><path d="M280.491211,457.461914c0,3.091797-2.496094,5.588867-5.59668,5.588867h-36.317383    c-3.100098,0-5.588867-2.49707-5.588867-5.588867V421.12793c0-3.083984,2.48877-5.588867,5.588867-5.588867h36.317383    c3.100586,0,5.59668,2.504883,5.59668,5.588867V457.461914z" fill="url(#SVGID_86_)"/><linearGradient gradientUnits="userSpaceOnUse" id="SVGID_87_" x1="326.283203" x2="326.283203" y1="465.163086" y2="472.946625"><stop offset="0" style="stop-color:#232323"/><stop offset="0.993976" style="stop-color:#232323;stop-opacity:0"/></linearGradient><path d="M352.407227,464.141602c0,3.761719-2.745117,6.820312-6.142578,6.820312h-39.962891    c-3.389648,0-6.142578-3.058594-6.142578-6.820312v-44.402344c0-3.770508,2.75293-6.845703,6.142578-6.845703h39.962891    c3.397461,0,6.142578,3.075195,6.142578,6.845703V464.141602z" fill="url(#SVGID_87_)" opacity="0.7"/><linearGradient gradientUnits="userSpaceOnUse" id="SVGID_88_" x1="326.287109" x2="326.287109" y1="408.777344" y2="469.358429"><stop offset="0" style="stop-color:#FFFFFF"/><stop offset="1" style="stop-color:#FFFFFF;stop-opacity:0"/></linearGradient><path d="M355.317383,461.503906c0,3.761719-3.058594,6.836914-6.845703,6.836914h-44.385742    c-3.786133,0-6.829102-3.075195-6.829102-6.836914v-44.418945c0-3.75293,3.042969-6.803711,6.829102-6.803711h44.385742    c3.787109,0,6.845703,3.050781,6.845703,6.803711V461.503906z" fill="url(#SVGID_88_)" opacity="0.1"/><linearGradient gradientUnits="userSpaceOnUse" id="SVGID_89_" x1="326.287109" x2="326.287109" y1="466.71875" y2="413.406891"><stop offset="0" style="stop-color:#000000"/><stop offset="0.987879" style="stop-color:#303133"/></linearGradient><path d="M346.47168,412.893555h-40.360352c-3.447266,0-6.216797,2.786133-6.216797,6.225586v40.359375    c0,3.439453,2.769531,6.208984,6.216797,6.208984h40.360352c3.438477,0,6.208008-2.769531,6.208008-6.208984v-40.359375    C352.679688,415.679688,349.910156,412.893555,346.47168,412.893555z M350.026367,457.461914    c0,3.091797-2.488281,5.588867-5.588867,5.588867h-36.317383c-3.091797,0-5.59668-2.49707-5.59668-5.588867V421.12793    c0-3.083984,2.504883-5.588867,5.59668-5.588867H344.4375c3.100586,0,5.588867,2.504883,5.588867,5.588867V457.461914z" fill="url(#SVGID_89_)"/><linearGradient gradientUnits="userSpaceOnUse" id="SVGID_90_" x1="326.275391" x2="326.275391" y1="462.0625" y2="417.039825"><stop offset="0" style="stop-color:#212121"/><stop offset="0.090909" style="stop-color:#080808"/><stop offset="0.945455" style="stop-color:#37393B"/><stop offset="1" style="stop-color:#5F6266"/></linearGradient><path d="M350.026367,457.461914c0,3.091797-2.488281,5.588867-5.588867,5.588867h-36.317383    c-3.091797,0-5.59668-2.49707-5.59668-5.588867V421.12793c0-3.083984,2.504883-5.588867,5.59668-5.588867H344.4375    c3.100586,0,5.588867,2.504883,5.588867,5.588867V457.461914z" fill="url(#SVGID_90_)"/><linearGradient gradientUnits="userSpaceOnUse" id="SVGID_91_" x1="395.833984" x2="395.833984" y1="395.620117" y2="403.403656"><stop offset="0" style="stop-color:#232323"/><stop offset="0.987879" style="stop-color:#232323"/></linearGradient><path d="M421.966797,394.598633c0,3.75293-2.75293,6.820312-6.150391,6.820312h-39.963867    c-3.397461,0-6.150391-3.067383-6.150391-6.820312V350.1875c0-3.77832,2.75293-6.836914,6.150391-6.836914h39.963867    c3.397461,0,6.150391,3.058594,6.150391,6.836914V394.598633z" fill="url(#SVGID_91_)" opacity="0.7"/><linearGradient gradientUnits="userSpaceOnUse" id="SVGID_92_" x1="395.833984" x2="395.833984" y1="465.163086" y2="472.946625"><stop offset="0" style="stop-color:#232323"/><stop offset="0.993976" style="stop-color:#232323;stop-opacity:0"/></linearGradient><path d="M421.966797,464.141602c0,3.761719-2.75293,6.820312-6.150391,6.820312h-39.963867    c-3.397461,0-6.150391-3.058594-6.150391-6.820312v-44.402344c0-3.770508,2.75293-6.845703,6.150391-6.845703h39.963867    c3.397461,0,6.150391,3.075195,6.150391,6.845703V464.141602z" fill="url(#SVGID_92_)" opacity="0.7"/><linearGradient gradientUnits="userSpaceOnUse" id="SVGID_93_" x1="395.830078" x2="395.830078" y1="333.148438" y2="461.271545"><stop offset="0" style="stop-color:#FFFFFF"/><stop offset="1" style="stop-color:#FFFFFF;stop-opacity:0"/></linearGradient><path d="M418.015625,340.712891h-44.378906    c-3.777344,0-6.844727,3.067383-6.844727,6.829102v26.19043v18.211914v25.140625v16.426758v27.992188    c0,3.761719,3.067383,6.836914,6.844727,6.836914h44.378906c3.810547,0,6.852539-3.075195,6.852539-6.836914v-27.992188    v-16.426758v-25.140625v-18.211914v-26.19043C424.868164,343.780273,421.826172,340.712891,418.015625,340.712891z" fill="url(#SVGID_93_)" opacity="0.15"/><linearGradient gradientUnits="userSpaceOnUse" id="SVGID_94_" x1="395.826172" x2="395.826172" y1="468.077148" y2="344.5401"><stop offset="0" style="stop-color:#000000"/><stop offset="0.987879" style="stop-color:#303133"/></linearGradient><path d="M416.014648,343.350586h-40.376953c-3.40625,0-6.200195,2.793945-6.200195,6.216797v33.225586    v54.323242v22.362305c0,3.439453,2.793945,6.208984,6.200195,6.208984h40.376953c3.455078,0,6.200195-2.769531,6.200195-6.208984    V349.567383C422.214844,346.144531,419.469727,343.350586,416.014648,343.350586z M419.602539,414.183594    c0,0-0.008789,0-0.008789-0.016602v43.294922c0,3.091797-2.504883,5.588867-5.59668,5.588867h-36.333984    c-3.075195,0-5.572266-2.49707-5.572266-5.588867V351.568359c0-3.083984,2.49707-5.572266,5.572266-5.572266h36.333984    c3.091797,0,5.59668,2.488281,5.59668,5.572266L419.602539,414.183594z" fill="url(#SVGID_94_)"/><linearGradient gradientUnits="userSpaceOnUse" id="SVGID_95_" x1="395.841797" x2="395.841797" y1="463.396484" y2="345.268402"><stop offset="0.018182" style="stop-color:#212121"/><stop offset="0.060606" style="stop-color:#080808"/><stop offset="0.951515" style="stop-color:#3C3E40"/><stop offset="0.981818" style="stop-color:#5F6366"/></linearGradient><path d="M413.99707,345.996094h-36.333984c-3.075195,0-5.572266,2.488281-5.572266,5.572266v105.893555    c0,3.091797,2.49707,5.588867,5.572266,5.588867h36.333984c3.091797,0,5.59668-2.49707,5.59668-5.588867V351.568359    C419.59375,348.484375,417.088867,345.996094,413.99707,345.996094z" fill="url(#SVGID_95_)"/><path d="M394.288086,410.231445v-7.316406h-7.266602v-3.067383h7.266602v-7.257812h3.100586    v7.257812h7.25v3.067383h-7.25v7.316406H394.288086z" fill="#FFFFFF" opacity="0.5"/><path d="M400.993164,240.160156l-5.183594-5.170898l-5.117188,5.129395l-2.166016-2.157715    l5.117188-5.129395l-5.117188-5.134277l2.19043-2.182129l5.117188,5.129395l5.142578-5.129395l2.166016,2.157715L398,232.802246    l5.183594,5.166992L400.993164,240.160156z" fill="#FFFFFF" opacity="0.5"/><path d="M387.021484,301.845703v-3.298828h17.617188v3.298828H387.021484z" fill="#FFFFFF" opacity="0.5"/><path d="M107.997559,234.521973v-3.290527h17.60498v3.290527H107.997559z" fill="#FFFFFF" opacity="0.5"/><path d="M104.719727,293.722656c0-1.714844,0.437988-3.166016,1.297852-4.369141    c0.859863-1.210938,2.112305-1.801758,3.749023-1.801758c1.504883,0,2.749023,0.537109,3.741211,1.612305    c0.987793,1.070312,1.47168,2.644531,1.47168,4.732422c0,2.025391-0.483887,3.59668-1.496582,4.700195    c-0.983887,1.086914-2.211426,1.640625-3.695312,1.640625c-1.438477,0-2.649902-0.545898-3.608887-1.616211    C105.20752,297.53418,104.719727,295.905273,104.719727,293.722656z M109.836914,289.573242    c-0.731445,0-1.334961,0.317383-1.818359,0.958984c-0.483887,0.624023-0.727539,1.785156-0.727539,3.480469    c0,1.537109,0.243652,2.624023,0.735352,3.249023c0.508789,0.635742,1.112305,0.942383,1.810547,0.942383    c0.756836,0,1.364258-0.310547,1.847656-0.947266c0.487793-0.631836,0.731934-1.78125,0.731934-3.47168    c0-1.550781-0.244141-2.641602-0.731934-3.269531C111.201172,289.890625,110.577148,289.573242,109.836914,289.573242z     M109.866211,312.844727l13.132324-25.292969h2.393066l-13.09082,25.292969H109.866211z M120.249512,306.333984    c0-1.731445,0.434082-3.182617,1.28125-4.393555c0.868164-1.186523,2.125-1.786133,3.77002-1.786133    c1.520996,0,2.756836,0.545898,3.745117,1.617188c0.987793,1.074219,1.483887,2.644531,1.483887,4.745117    c0,2.029297-0.504395,3.583008-1.500488,4.691406c-0.996094,1.09082-2.232422,1.636719-3.720215,1.636719    c-1.43457,0-2.649902-0.545898-3.608887-1.628906C120.729004,310.132812,120.249512,308.512695,120.249512,306.333984z     M125.391602,302.179688c-0.760254,0-1.36377,0.327148-1.847656,0.955078c-0.487793,0.632812-0.731445,1.786133-0.731445,3.493164    c0,1.529297,0.243652,2.604492,0.731445,3.249023c0.496094,0.620117,1.099609,0.93457,1.814453,0.93457    c0.756836,0,1.38916-0.314453,1.872559-0.93457c0.483887-0.644531,0.727539-1.802734,0.727539-3.484375    c0-1.550781-0.243652-2.633789-0.731445-3.261719C126.727051,302.506836,126.115234,302.179688,125.391602,302.179688z" fill="#FFFFFF" opacity="0.5"/><path d="M191.032715,383.140625h-3.273926v-20.866211    c-0.776855,0.743164-1.82666,1.496094-3.100098,2.248047c-1.28125,0.760742-2.430664,1.323242-3.447266,1.686523v-3.141602    c1.827148-0.884766,3.447266-1.917969,4.803223-3.141602c1.37207-1.231445,2.347656-2.414062,2.893555-3.571289h2.124512    V383.140625z" fill="#FFFFFF" opacity="0.5"/><path d="M266.78418,378.75v3.141602h-17.600586    c-0.032715-0.776367,0.083008-1.545898,0.36377-2.28125c0.45459-1.19043,1.166016-2.380859,2.174316-3.538086    c0.975586-1.166016,2.397461-2.521484,4.249512-4.042969c2.918457-2.380859,4.86084-4.257812,5.88623-5.638672    c1.025391-1.396484,1.521484-2.710938,1.521484-3.93457c0-1.306641-0.447266-2.397461-1.380859-3.306641    c-0.93457-0.876953-2.125-1.331055-3.629883-1.331055c-1.595215,0-2.84375,0.470703-3.786133,1.421875    c-0.958984,0.950195-1.413574,2.256836-1.438477,3.93457l-3.364746-0.355469c0.248047-2.512695,1.10791-4.40625,2.612793-5.737305    c1.504395-1.297852,3.538086-1.975586,6.042969-1.975586c2.571289,0,4.59668,0.71875,6.092773,2.125    c1.480469,1.429688,2.232422,3.182617,2.232422,5.282227c0,1.075195-0.223633,2.125-0.65332,3.149414    c-0.429688,1.03418-1.165039,2.125-2.166016,3.257812c-1.033203,1.140625-2.711914,2.703125-5.05957,4.678711    c-1.975586,1.662109-3.224121,2.77832-3.777832,3.373047c-0.570312,0.586914-1.01709,1.182617-1.396973,1.777344H266.78418z" fill="#FFFFFF" opacity="0.5"/><path d="M318.263672,375.865234l3.265625-0.438477    c0.364258,1.852539,1.008789,3.182617,1.917969,4.009766c0.892578,0.818359,2.017578,1.231445,3.298828,1.231445    c1.529297,0,2.851562-0.544922,3.893555-1.594727c1.075195-1.083008,1.595703-2.397461,1.595703-3.976562    c0-1.513672-0.496094-2.737305-1.47168-3.728516c-0.992188-0.975586-2.21582-1.463867-3.745117-1.463867    c-0.611328,0-1.379883,0.132812-2.314453,0.364258l0.355469-2.860352c0.239258,0.007812,0.413086,0.024414,0.545898,0.024414    c1.388672,0,2.636719-0.363281,3.760742-1.09082c1.125-0.727539,1.686523-1.852539,1.686523-3.365234    c0-1.198242-0.4375-2.19043-1.222656-2.984375c-0.835938-0.785156-1.869141-1.181641-3.158203-1.181641    c-1.265625,0-2.332031,0.413086-3.183594,1.189453c-0.851562,0.810547-1.396484,2.000977-1.644531,3.621094l-3.274414-0.586914    c0.414062-2.198242,1.31543-3.901367,2.745117-5.108398c1.405273-1.199219,3.182617-1.810547,5.283203-1.810547    c1.470703,0,2.801758,0.305664,4.017578,0.942383c1.223633,0.62793,2.182617,1.47168,2.827148,2.545898    c0.636719,1.091797,0.975586,2.240234,0.975586,3.463867c0,1.132812-0.322266,2.191406-0.93457,3.125    c-0.611328,0.942383-1.537109,1.695312-2.760742,2.265625c1.579102,0.363281,2.827148,1.116211,3.695312,2.256836    c0.884766,1.157227,1.297852,2.587891,1.297852,4.31543c0,2.314453-0.851562,4.298828-2.545898,5.918945    c-1.703125,1.612305-3.861328,2.422852-6.449219,2.422852c-2.331055,0-4.265625-0.694336-5.811523-2.091797    C319.34668,379.891602,318.478516,378.081055,318.263672,375.865234z" fill="#FFFFFF" opacity="0.5"/><path d="M188.469727,313.539062v-6.390625h-11.57373v-3.008789l12.168945-17.282227h2.687012    v17.282227h3.587891v3.008789h-3.587891v6.390625H188.469727z M188.469727,304.139648v-12.02832l-8.35791,12.02832H188.469727z" fill="#FFFFFF" opacity="0.5"/><path d="M247.885742,306.131836l3.430664-0.293945    c0.256348,1.674805,0.859863,2.939453,1.786133,3.774414c0.934082,0.842773,2.041992,1.273438,3.356445,1.273438    c1.570312,0,2.893555-0.603516,4.000977-1.793945c1.091797-1.182617,1.636719-2.757812,1.636719-4.729492    c0-1.864258-0.520508-3.339844-1.570312-4.417969c-1.058594-1.079102-2.422852-1.616211-4.117188-1.616211    c-1.066406,0-2.025391,0.239258-2.868652,0.71875c-0.843262,0.483398-1.512695,1.091797-1.983887,1.856445l-3.075684-0.397461    l2.57959-13.698242h13.244141v3.125h-10.640137l-1.438477,7.179688c1.604004-1.124023,3.282227-1.673828,5.05127-1.673828    c2.331055,0,4.298828,0.805664,5.911133,2.410156c1.586914,1.620117,2.388672,3.69043,2.388672,6.224609    c0,2.414062-0.702148,4.49707-2.132812,6.266602c-1.710938,2.149414-4.041992,3.232422-6.985352,3.232422    c-2.422363,0-4.422852-0.686523-5.952637-2.033203C248.985352,310.174805,248.092285,308.37207,247.885742,306.131836z" fill="#FFFFFF" opacity="0.5"/><path d="M334.608398,293.209961l-3.249023,0.260742    c-0.290039-1.285156-0.719727-2.219727-1.240234-2.806641c-0.876953-0.925781-1.967773-1.397461-3.265625-1.397461    c-1.058594,0-1.967773,0.285156-2.761719,0.87207c-1.024414,0.75293-1.826172,1.84375-2.429688,3.294922    c-0.603516,1.442383-0.901367,3.49707-0.917969,6.163086c0.785156-1.207031,1.744141-2.083008,2.893555-2.669922    c1.124023-0.586914,2.331055-0.876953,3.579102-0.876953c2.182617,0,4.042969,0.806641,5.581055,2.410156    c1.520508,1.608398,2.306641,3.678711,2.306641,6.233398c0,1.673828-0.37207,3.232422-1.099609,4.663086    c-0.719727,1.438477-1.703125,2.545898-2.952148,3.297852c-1.28125,0.777344-2.710938,1.158203-4.306641,1.158203    c-2.736328,0-4.96875-1.008789-6.679688-3.017578c-1.728516-2.000977-2.587891-5.307617-2.587891-9.924805    c0-5.150391,0.951172-8.904297,2.860352-11.243164c1.662109-2.038086,3.893555-3.054688,6.72168-3.054688    c2.083008,0,3.810547,0.586914,5.141602,1.764648C333.549805,289.506836,334.351562,291.135742,334.608398,293.209961z     M321.248047,304.717773c0,1.120117,0.231445,2.199219,0.719727,3.233398c0.470703,1.033203,1.149414,1.818359,2.016602,2.347656    c0.84375,0.553711,1.75293,0.818359,2.695312,0.818359c1.388672,0,2.571289-0.5625,3.580078-1.678711    c0.992188-1.107422,1.479492-2.620117,1.479492-4.546875c0-1.84375-0.479492-3.290039-1.47168-4.352539    c-0.975586-1.058594-2.199219-1.595703-3.711914-1.595703c-1.496094,0-2.719727,0.537109-3.761719,1.595703    C321.760742,301.601562,321.248047,302.990234,321.248047,304.717773z" fill="#FFFFFF" opacity="0.5"/><path d="M178.549316,220.616699v-3.137207h17.27002v2.545898    c-1.694824,1.802246-3.381348,4.204102-5.042969,7.196777c-1.678223,3.000977-2.967773,6.084473-3.869141,9.246582    c-0.661133,2.236328-1.074707,4.675293-1.272949,7.329102h-3.356445c0.033203-2.095703,0.45459-4.629883,1.240234-7.605957    c0.793457-2.963867,1.917969-5.824219,3.405762-8.589355c1.463379-2.757324,3.03418-5.088379,4.695801-6.98584H178.549316z" fill="#FFFFFF" opacity="0.5"/><path d="M254.276367,229.334473c-1.380859-0.496094-2.380859-1.207031-3.050781-2.124512    c-0.652832-0.92627-0.958984-2.029785-0.958984-3.31543c0-1.938477,0.694336-3.571289,2.083496-4.894043    c1.388672-1.314453,3.257324-1.97998,5.571777-1.97998c2.31543,0,4.208008,0.682129,5.613281,2.029297    c1.414062,1.352051,2.141602,2.99707,2.141602,4.931641c0,1.244141-0.338867,2.323242-0.967773,3.232422    c-0.661133,0.91748-1.644531,1.624512-2.984375,2.120605c1.645508,0.537109,2.902344,1.396973,3.753906,2.583496    c0.868164,1.19043,1.28125,2.608398,1.28125,4.257324c0,2.286133-0.801758,4.204102-2.421875,5.75    c-1.612305,1.554199-3.728516,2.331055-6.357422,2.331055c-2.662598,0-4.746094-0.776855-6.374512-2.339355    c-1.604004-1.558594-2.414062-3.509277-2.414062-5.828125c0-1.740234,0.413574-3.1875,1.314453-4.356934    C251.374512,230.558105,252.647461,229.76416,254.276367,229.334473z M252.54834,236.109375    c0,0.929688,0.215332,1.839355,0.661621,2.703125c0.437988,0.876465,1.107422,1.558594,1.967285,2.029785    c0.876465,0.483398,1.827637,0.723145,2.818848,0.723145c1.571289,0,2.861328-0.503906,3.87793-1.512695    c1.024414-1.008789,1.529297-2.281738,1.529297-3.839844c0-1.575195-0.520508-2.877441-1.571289-3.910645    c-1.033203-1.029297-2.347656-1.545898-3.926758-1.545898c-1.553711,0-2.818848,0.504395-3.819336,1.529297    C253.052734,233.306641,252.54834,234.575684,252.54834,236.109375z M253.598633,223.791016    c0,1.256836,0.413086,2.290039,1.223145,3.092285c0.810547,0.797852,1.876953,1.19873,3.166504,1.19873    c1.256836,0,2.290039-0.396973,3.091797-1.194824c0.810547-0.789551,1.223633-1.769043,1.223633-2.914062    c0-1.207031-0.429688-2.21582-1.248047-3.025879c-0.84375-0.82666-1.860352-1.23584-3.100586-1.23584    s-2.281738,0.405273-3.108398,1.202637C254.036621,221.711914,253.598633,222.666992,253.598633,223.791016z" fill="#FFFFFF" opacity="0.5"/><path d="M318.007812,237.630371l3.141602-0.280762    c0.264648,1.471191,0.768555,2.545898,1.520508,3.211426c0.744141,0.669922,1.719727,1.004395,2.902344,1.004395    c0.992188,0,1.875977-0.231445,2.636719-0.698242c0.760742-0.458984,1.388672-1.066406,1.876953-1.847656    c0.479492-0.765137,0.884766-1.802246,1.223633-3.117188c0.305664-1.310059,0.479492-2.641113,0.479492-4.005371    c0-0.140137,0-0.359375-0.016602-0.648926c-0.65332,1.045898-1.554688,1.88916-2.686523,2.538086    c-1.125,0.65332-2.365234,0.975586-3.670898,0.975586c-2.207031,0-4.067383-0.806152-5.605469-2.409668    c-1.529297-1.595703-2.297852-3.703613-2.297852-6.324707c0-2.70752,0.801758-4.881348,2.397461-6.535156    c1.586914-1.648926,3.579102-2.47168,5.985352-2.47168c1.736328,0,3.332031,0.467285,4.745117,1.405273    c1.455078,0.930176,2.538086,2.265137,3.282227,3.984863c0.751953,1.740234,1.124023,4.228516,1.124023,7.506348    c0,3.410156-0.37207,6.125977-1.107422,8.13916c-0.751953,2.025391-1.84375,3.562988-3.306641,4.621582    c-1.455078,1.04541-3.174805,1.578613-5.125977,1.578613c-2.099609,0-3.802734-0.574219-5.117188-1.731934    C319.057617,241.363281,318.272461,239.730469,318.007812,237.630371z M331.400391,225.85791    c0-1.876465-0.488281-3.364746-1.496094-4.472168c-1.000977-1.10791-2.191406-1.653809-3.587891-1.653809    c-1.47168,0-2.745117,0.591309-3.811523,1.781738c-1.09082,1.186523-1.636719,2.728027-1.636719,4.617188    c0,1.703125,0.529297,3.083496,1.553711,4.145996c1.008789,1.058105,2.282227,1.587402,3.794922,1.587402    c1.504883,0,2.75293-0.529297,3.728516-1.587402C330.920898,229.214355,331.400391,227.743164,331.400391,225.85791z" fill="#FFFFFF" opacity="0.5"/><path d="M178.483398,439.298828c0-3.149414,0.322266-5.670898,0.975586-7.614258    c0.644531-1.901367,1.603516-3.397461,2.876953-4.422852c1.306152-1.057617,2.893066-1.579102,4.835938-1.579102    c1.430176,0,2.695312,0.290039,3.77832,0.868164c1.066406,0.579102,1.967285,1.414062,2.669922,2.480469    c0.703125,1.099609,1.248535,2.414062,1.653809,3.976562c0.404785,1.5625,0.603516,3.645508,0.603516,6.291016    c0,3.141602-0.322754,5.663086-0.958984,7.581055c-0.65332,1.925781-1.604004,3.422852-2.901855,4.447266    c-1.28125,1.066406-2.876953,1.587891-4.844727,1.587891c-2.570801,0-4.587891-0.901367-6.042969-2.761719    C179.359375,447.929688,178.483398,444.325195,178.483398,439.298828z M181.848145,439.298828    c0,4.389648,0.495605,7.308594,1.537598,8.763672c1.024902,1.446289,2.281738,2.157227,3.786133,2.157227    c1.504883,0,2.76123-0.719727,3.811523-2.182617c1.008301-1.462891,1.520996-4.365234,1.520996-8.738281    c0-4.381836-0.512695-7.283203-1.520996-8.746094c-1.050293-1.439453-2.306641-2.174805-3.844727-2.174805    c-1.504395,0-2.711426,0.65332-3.604004,1.93457C182.410156,431.924805,181.848145,434.925781,181.848145,439.298828z" fill="#FFFFFF" opacity="0.5"/><path d="M335.798828,436.777344h-17.617188v-3.050781h17.617188V436.777344z M335.798828,444.878906    h-17.617188V441.8125h17.617188V444.878906z" fill="#FFFFFF" opacity="0.5"/><path d="M256.111816,452.915039v-3.720703h3.744629v3.720703H256.111816z" fill="#FFFFFF" opacity="0.5"/><path d="M114.946289,242.024414v-3.724609h3.720215v3.724609H114.946289z" fill="#FFFFFF" opacity="0.5"/><path d="M114.933594,227.375v-3.724121h3.73291V227.375H114.933594z" fill="#FFFFFF" opacity="0.5"/><path d="M99.358398,448.640625l7.184082-18.675781h2.662109l7.634766,18.675781h-2.818848    l-2.174316-5.654297h-7.800293l-2.054199,5.654297H99.358398z M104.75293,440.960938h6.328613l-1.942871-5.166992    c-0.591309-1.5625-1.049805-2.860352-1.322754-3.869141c-0.244141,1.19043-0.578613,2.397461-1.012695,3.5625    L104.75293,440.960938z" fill="#FFFFFF" opacity="0.5"/><path d="M132.137695,442.084961l2.476074,0.62793    c-0.520996,2.025391-1.458984,3.580078-2.794434,4.637695c-1.359863,1.075195-3.000977,1.587891-4.952148,1.587891    c-2.012695,0-3.637207-0.397461-4.902344-1.223633c-1.264648-0.810547-2.231934-2.000977-2.880859-3.563477    c-0.657227-1.545898-0.987793-3.207031-0.987793-4.984375c0-1.943359,0.384277-3.637695,1.120117-5.101562    c0.73584-1.438477,1.810547-2.545898,3.162109-3.290039c1.384766-0.760742,2.893555-1.124023,4.538574-1.124023    c1.872559,0,3.447266,0.479492,4.704102,1.429688c1.293945,0.942383,2.157715,2.282227,2.657715,4.001953l-2.43457,0.570312    c-0.421387-1.364258-1.045898-2.339844-1.872559-2.967773c-0.822754-0.612305-1.868164-0.926758-3.104492-0.926758    c-1.438477,0-2.649414,0.347656-3.596191,1.050781c-0.962891,0.677734-1.636719,1.586914-2.033691,2.75293    c-0.384277,1.157227-0.599121,2.347656-0.599121,3.579102c0,1.604492,0.235352,2.976562,0.702637,4.166992    c0.45459,1.173828,1.182129,2.058594,2.149414,2.65332c0.992188,0.579102,2.041992,0.868164,3.183105,0.868164    c1.384277,0,2.550293-0.379883,3.517578-1.19043C131.133301,444.845703,131.790527,443.647461,132.137695,442.084961z" fill="#FFFFFF" opacity="0.5"/><path d="M128.607422,362.728516h-7.845215h-2.20752h-1.148926    c0,0-5.220703,14.43457-5.518555,15.459961c-0.227051-0.793945-2.099609-6.134766-3.566895-10.317383h-3.302734    l5.377441,14.161133h3.059082l6.063965-16.021484h9.089355V362.728516z" fill="#FFFFFF" opacity="0.5"/></g></g></svg>