<?xml version="1.0" ?><!DOCTYPE svg  PUBLIC '-//W3C//DTD SVG 1.1//EN'  'http://www.w3.org/Graphics/SVG/1.1/DTD/svg11.dtd'><svg enable-background="new 0 0 512 512" height="512px" id="Layer_1" version="1.1" viewBox="0 0 512 512" width="512px" xml:space="preserve" xmlns="http://www.w3.org/2000/svg" xmlns:xlink="http://www.w3.org/1999/xlink"><g><g><g/><linearGradient gradientUnits="userSpaceOnUse" id="SVGID_1_" x1="256.806641" x2="256.806641" y1="63.074707" y2="76.535645"><stop offset="0" style="stop-color:#313133"/><stop offset="0.406061" style="stop-color:#3D3D40"/><stop offset="0.624242" style="stop-color:#555559"/><stop offset="1" style="stop-color:#636366"/></linearGradient><path d="M23.280762,72.417969h466.179199c5.617188,0,10.566406,2.831055,13.521484,7.135254    c-3.243164-5.533691-7.944336-8.957031-11.126953-11.799805c-4.348633-3.879883-12.236328-4.788574-19.207031-4.788574H40.337891    c-6.970703,0-14.858887,0.908691-19.207031,4.788574c-2.987305,2.67041-7.29541,5.337402-10.498535,10.742676    C13.63916,74.816406,18.159668,72.417969,23.280762,72.417969z" fill="url(#SVGID_1_)"/><linearGradient gradientUnits="userSpaceOnUse" id="SVGID_2_" x1="256.807129" x2="256.807098" y1="448.106445" y2="74.925934"><stop offset="0" style="stop-color:#333333"/><stop offset="1" style="stop-color:#7E7E80"/></linearGradient><path d="M506.296875,88.818359c0-9.057129-7.34375-16.400391-16.400391-16.400391H23.717285    c-9.057129,0-16.400391,7.343262-16.400391,16.400391v341.951172c0,9.056641,7.343262,16.400391,16.400391,16.400391h466.179199    c9.056641,0,16.400391-7.34375,16.400391-16.400391V88.818359z" fill="url(#SVGID_2_)"/><linearGradient gradientUnits="userSpaceOnUse" id="SVGID_3_" x1="483.508789" x2="496.292084" y1="78.841309" y2="68.411346"><stop offset="0.187879" style="stop-color:#FFFFFF;stop-opacity:0"/><stop offset="0.339394" style="stop-color:#FFFFFF;stop-opacity:0.5"/><stop offset="0.581818" style="stop-color:#FFFFFF;stop-opacity:0.7"/><stop offset="0.836364" style="stop-color:#FFFFFF;stop-opacity:0"/></linearGradient><path d="M507.089844,85.97168c0,0-9.494141-13.513672-14.762695-18.218262    c-4.348633-3.879883-12.236328-4.788574-19.208008-4.788574h-2.473633l7.367188,11.311035h6.518555    c7.935547,0,12.736328,2.078125,16.107422,4.869141C503.357422,81.026855,505.591797,83.325195,507.089844,85.97168z" fill="url(#SVGID_3_)" opacity="0.2"/><linearGradient gradientTransform="matrix(-1 0 0 1 -3698.306641 0)" gradientUnits="userSpaceOnUse" id="SVGID_4_" x1="-3728.48584" x2="-3715.699951" y1="78.842773" y2="68.410698"><stop offset="0.187879" style="stop-color:#FFFFFF;stop-opacity:0"/><stop offset="0.339394" style="stop-color:#FFFFFF;stop-opacity:0.5"/><stop offset="0.581818" style="stop-color:#FFFFFF;stop-opacity:0.7"/><stop offset="0.836364" style="stop-color:#FFFFFF;stop-opacity:0"/></linearGradient><path d="M6.596191,85.97168c0,0,9.493652-13.513672,14.762695-18.218262    c4.348145-3.879883,12.236328-4.788574,19.207031-4.788574h2.474609l-7.363281,11.311035h-6.522461    c-7.936035,0-12.736816,2.078125-16.108398,4.869141C10.327637,81.026855,8.09375,83.325195,6.596191,85.97168z" fill="url(#SVGID_4_)" opacity="0.2"/><g><linearGradient gradientUnits="userSpaceOnUse" id="SVGID_5_" x1="257.203125" x2="257.203094" y1="446.460938" y2="75.19278"><stop offset="0" style="stop-color:#19191A"/><stop offset="1" style="stop-color:#3D3D40"/></linearGradient><path d="M507.089844,88.306152c-0.792969-8.544922-8.136719-15.888184-17.193359-15.888184H23.717285     c-9.057129,0-16.400391,7.343262-16.400391,16.400391v341.951172c0,9.056641,7.343262,16.400391,16.400391,16.400391h466.179199     c9.056641,0,16.400391-7.34375,17.193359-16.913086V88.306152z" fill="url(#SVGID_5_)"/><linearGradient gradientUnits="userSpaceOnUse" id="SVGID_6_" x1="257.136719" x2="257.136688" y1="446.054688" y2="75.822449"><stop offset="0" style="stop-color:#252527"/><stop offset="1" style="stop-color:#555557"/></linearGradient><path d="M23.717285,446.487305c-8.677734,0-15.716797-7.040039-15.716797-15.717773V88.818359     c0-8.678223,7.039062-15.716797,15.716797-15.716797h466.179199c8.677734,0,15.717773,7.038574,16.37793,15.290039v341.951172     c-0.660156,9.104492-7.700195,16.144531-16.37793,16.144531H23.717285z" fill="url(#SVGID_6_)"/><linearGradient gradientUnits="userSpaceOnUse" id="SVGID_7_" x1="257.071289" x2="257.071259" y1="445.643555" y2="76.45108"><stop offset="0" style="stop-color:#313133"/><stop offset="1" style="stop-color:#6C6C6F"/></linearGradient><path d="M23.716797,445.802734c-8.298828,0-15.033203-6.734375-15.033203-15.033203V88.818359     c0-8.298828,6.734375-15.033691,15.033203-15.033691h466.179688c8.298828,0,15.033203,6.734863,15.5625,14.692383v341.950684     c-0.529297,8.640625-7.263672,15.375-15.5625,15.375H23.716797z" fill="url(#SVGID_7_)"/><linearGradient gradientUnits="userSpaceOnUse" id="SVGID_8_" x1="257.003906" x2="257.003876" y1="445.232422" y2="77.081055"><stop offset="0" style="stop-color:#3C3D40"/><stop offset="1" style="stop-color:#848486"/></linearGradient><path d="M23.716797,445.119141c-7.919922,0-14.350098-6.430664-14.350098-14.349609V88.818359     c0-7.919922,6.430176-14.350586,14.350098-14.350586h466.179688c7.918945,0,14.349609,6.430664,14.746094,14.094238v341.950684     c-0.396484,8.175781-6.827148,14.606445-14.746094,14.606445H23.716797z" fill="url(#SVGID_8_)"/><linearGradient gradientUnits="userSpaceOnUse" id="SVGID_9_" x1="256.938965" x2="256.938934" y1="444.819336" y2="77.710846"><stop offset="0" style="stop-color:#484A4D"/><stop offset="1" style="stop-color:#9B9B9D"/></linearGradient><path d="M23.716797,444.436523c-7.540039,0-13.666992-6.126953-13.666992-13.666992V88.818359     c0-7.541016,6.126953-13.666992,13.666992-13.666992h466.179688c7.540039,0,13.666992,6.125977,13.931641,13.496094v341.951172     c-0.264648,7.710938-6.391602,13.837891-13.931641,13.837891H23.716797z" fill="url(#SVGID_9_)"/><linearGradient gradientUnits="userSpaceOnUse" id="SVGID_10_" x1="256.873047" x2="256.873016" y1="444.40332" y2="78.341064"><stop offset="0" style="stop-color:#545659"/><stop offset="1" style="stop-color:#B3B3B5"/></linearGradient><path d="M23.717285,443.75293c-7.162109,0-12.983398-5.822266-12.983398-12.983398V88.818359     c0-7.162109,5.821289-12.983398,12.983398-12.983398h466.179199c7.161133,0,12.983398,5.821289,13.115234,12.897949v341.95166     c-0.131836,7.246094-5.954102,13.068359-13.115234,13.068359H23.717285z" fill="url(#SVGID_10_)"/><linearGradient gradientUnits="userSpaceOnUse" id="SVGID_11_" x1="256.807129" x2="256.807098" y1="443.985352" y2="78.971161"><stop offset="0" style="stop-color:#606266"/><stop offset="1" style="stop-color:#CACACC"/></linearGradient><path d="M23.717285,443.069336c-6.782715,0-12.300293-5.517578-12.300293-12.299805V88.818359     c0-6.782715,5.517578-12.300293,12.300293-12.300293h466.179199c6.782227,0,12.299805,5.517578,12.299805,12.300293v341.951172     c0,6.782227-5.517578,12.299805-12.299805,12.299805H23.717285z" fill="url(#SVGID_11_)"/></g><linearGradient gradientUnits="userSpaceOnUse" id="SVGID_12_" x1="12.48584" x2="499.044922" y1="259.793945" y2="259.793945"><stop offset="0" style="stop-color:#FFFFFF;stop-opacity:0"/><stop offset="0.290909" style="stop-color:#FFFFFF"/><stop offset="0.757576" style="stop-color:#FFFFFF"/><stop offset="1" style="stop-color:#FFFFFF;stop-opacity:0"/></linearGradient><path d="M489.896484,76.518066H23.717285    c-6.782715,0-12.300293,5.517578-12.300293,12.300293v341.951172c0,6.782227,5.517578,12.299805,12.300293,12.299805h466.179199    c6.782227,0,12.299805-5.517578,12.299805-12.299805V88.818359C502.196289,82.035645,496.678711,76.518066,489.896484,76.518066z     M498.09668,430.769531c0,4.520508-3.679688,8.200195-8.200195,8.200195H23.717285    c-4.520508,0-8.200195-3.679688-8.200195-8.200195V88.818359c0-4.520508,3.679688-8.200195,8.200195-8.200195h466.179199    c4.520508,0,8.200195,3.679688,8.200195,8.200195V430.769531z" fill="url(#SVGID_12_)" opacity="0.5"/><linearGradient gradientUnits="userSpaceOnUse" id="SVGID_13_" x1="256.807129" x2="256.807129" y1="405.74707" y2="106.318756"><stop offset="0" style="stop-color:#0F0F12"/><stop offset="1" style="stop-color:#15161A"/></linearGradient><path d="M473.496094,389.767578c0,9.057617-7.34375,16.400391-16.400391,16.400391H56.518066    c-9.057129,0-16.400391-7.342773-16.400391-16.400391V121.619141c0-9.056641,7.343262-16.400391,16.400391-16.400391h400.577637    c9.056641,0,16.400391,7.34375,16.400391,16.400391V389.767578z" fill="url(#SVGID_13_)"/><path d="M457.095703,105.21875H56.518066c-9.057129,0-16.400391,7.34375-16.400391,16.400391v268.148438    c0,9.057617,7.343262,16.400391,16.400391,16.400391h400.577637c9.056641,0,16.400391-7.342773,16.400391-16.400391V121.619141    C473.496094,112.5625,466.152344,105.21875,457.095703,105.21875z M469.395508,389.767578    c0,6.783203-5.517578,12.300781-12.299805,12.300781H56.518066c-6.782715,0-12.300293-5.517578-12.300293-12.300781V121.619141    c0-6.782715,5.517578-12.300293,12.300293-12.300293h400.577637c6.782227,0,12.299805,5.517578,12.299805,12.300293V389.767578z" fill="#787C80"/><linearGradient gradientUnits="userSpaceOnUse" id="SVGID_14_" x1="36.017578" x2="477.595703" y1="255.693359" y2="255.693359"><stop offset="0" style="stop-color:#FFFFFF;stop-opacity:0.2"/><stop offset="0.290909" style="stop-color:#FFFFFF;stop-opacity:0.8"/><stop offset="0.757576" style="stop-color:#FFFFFF;stop-opacity:0.8"/><stop offset="1" style="stop-color:#FFFFFF;stop-opacity:0.2"/></linearGradient><path d="M457.095703,101.118652H56.518066    c-11.303223,0-20.500488,9.197266-20.500488,20.500488v268.148438c0,11.307617,9.197266,20.500977,20.500488,20.500977h400.577637    c11.302734,0,20.5-9.193359,20.5-20.500977V121.619141C477.595703,110.315918,468.398438,101.118652,457.095703,101.118652z     M473.496094,389.767578c0,9.057617-7.34375,16.400391-16.400391,16.400391H56.518066    c-9.057129,0-16.400391-7.342773-16.400391-16.400391V121.619141c0-9.056641,7.343262-16.400391,16.400391-16.400391h400.577637    c9.056641,0,16.400391,7.34375,16.400391,16.400391V389.767578z" fill="url(#SVGID_14_)" opacity="0.5"/><rect fill="#333333" height="249.602539" width="381.474121" x="66.067871" y="131.292969"/><linearGradient gradientUnits="userSpaceOnUse" id="SVGID_15_" x1="260.394531" x2="253.969818" y1="213.466309" y2="81.680115"><stop offset="0" style="stop-color:#FFFFFF;stop-opacity:0"/><stop offset="1" style="stop-color:#FFFFFF"/></linearGradient><path d="M489.896484,80.618164H23.717285c-4.520508,0-8.200195,3.679688-8.200195,8.200195    V191.10498c54.762695,16.047852,123.808105,25.649902,198.92334,25.649902c122.710938,0,229.357422-25.553711,283.65625-63.135254    v-64.80127C498.09668,84.297852,494.416992,80.618164,489.896484,80.618164z" fill="url(#SVGID_15_)" opacity="0.6"/><linearGradient gradientUnits="userSpaceOnUse" id="SVGID_16_" x1="429.113281" x2="429.113281" y1="417.010742" y2="439.0495"><stop offset="0" style="stop-color:#45474D"/><stop offset="0.454545" style="stop-color:#616266"/><stop offset="0.569697" style="stop-color:#6F7073"/><stop offset="1" style="stop-color:#B3B3B3"/></linearGradient><path d="M448.931641,434.869141c0,2.266602-1.833984,4.100586-4.100586,4.100586h-31.435547    c-2.265625,0-4.099609-1.833984-4.099609-4.100586v-13.413086c0-2.266602,1.833984-4.100586,4.099609-4.100586h31.435547    c2.266602,0,4.100586,1.833984,4.100586,4.100586V434.869141z" fill="url(#SVGID_16_)"/><path d="M444.831055,432.411133c0,2.265625-1.833984,4.099609-4.099609,4.099609h-23.235352    c-2.266602,0-4.100586-1.833984-4.100586-4.099609v-8.49707c0-2.265625,1.833984-4.099609,4.100586-4.099609h23.235352    c2.265625,0,4.099609,1.833984,4.099609,4.099609V432.411133z" fill="#808080" opacity="0.8"/><linearGradient gradientUnits="userSpaceOnUse" id="SVGID_17_" x1="429.113281" x2="429.113281" y1="421.624023" y2="434.976288"><stop offset="0" style="stop-color:#CCEEFF"/><stop offset="0.515152" style="stop-color:#1A5B80"/><stop offset="0.587879" style="stop-color:#237DAC"/><stop offset="0.885542" style="stop-color:#2996CC"/><stop offset="1" style="stop-color:#3B7A99"/></linearGradient><path d="M443.189453,430.769531c0,2.265625-1.833984,4.099609-4.099609,4.099609h-19.952148    c-2.266602,0-4.100586-1.833984-4.100586-4.099609v-5.213867c0-2.265625,1.833984-4.099609,4.100586-4.099609h19.952148    c2.265625,0,4.099609,1.833984,4.099609,4.099609V430.769531z" fill="url(#SVGID_17_)"/><path d="M443.277344,131.292969h-12.135742h-4.264648h-12.135742h-4.264648H398.34082h-4.264648    H381.94043h-4.264648h-12.135742h-4.264648h-12.135742H344.875h-12.135742h-4.264648h-12.135742h-4.264648h-12.135742h-4.264648    h-12.136719h-4.263672h-12.136719h-4.263672h-12.13623h-4.26416h-12.13623h-4.26416h-12.13623h-4.264648h-12.135742h-4.264648    h-12.13623h-4.26416h-12.13623h-4.26416h-12.13623h-4.26416h-12.13623h-4.26416h-12.13623h-4.26416h-12.13623h-4.26416h-12.13623    h-4.26416h-12.13623h-4.26416v250.274414h0.003906h4.260254h12.13623h4.26416h12.13623h4.26416h12.13623h4.26416h12.13623h4.26416    h12.13623h4.26416h12.13623h4.26416h12.13623h4.26416h12.13623h4.264648h12.135742h4.264648h12.13623h4.26416h12.13623h4.26416    h12.13623h4.263672h12.136719h4.263672h12.136719h4.264648h12.135742h4.264648h12.135742h4.264648H344.875h4.264648h12.135742    h4.264648h12.135742h4.264648h12.135742h4.264648h12.135742h4.264648h12.135742h4.264648h12.135742h4.264648h0.003906v-4.267578    h-0.003906v-12.132812h0.003906v-4.267578h-0.003906v-12.132812h0.003906v-4.267578h-0.003906v-12.132812h0.003906v-4.267578    h-0.003906V315.96582h0.003906v-4.267578h-0.003906V299.56543h0.003906v-4.268555h-0.003906v-12.131836h0.003906v-4.268555    h-0.003906v-12.131836h0.003906v-4.268555h-0.003906v-12.131836h0.003906v-4.268066h-0.003906v-12.132324h0.003906v-4.268066    h-0.003906v-12.132324h0.003906v-4.268066h-0.003906v-12.132324h0.003906v-4.268555h-0.003906v-12.131836h0.003906v-4.268555    h-0.003906v-12.131836h0.003906v-4.268555h-0.003906v-12.131836h0.003906v-4.268555h-0.003906v-12.131836h0.003906v-4.268555    h-0.003906H443.277344z M82.468262,377.299805h-12.13623v-12.132812h12.13623V377.299805z M82.468262,360.899414h-12.13623    v-12.132812h12.13623V360.899414z M82.468262,344.499023h-12.13623v-12.132812h12.13623V344.499023z M82.468262,328.098633    h-12.13623V315.96582h12.13623V328.098633z M82.468262,311.698242h-12.13623V299.56543h12.13623V311.698242z     M82.468262,295.296875h-12.13623v-12.131836h12.13623V295.296875z M82.468262,278.896484h-12.13623v-12.131836h12.13623    V278.896484z M82.468262,262.496094h-12.13623v-12.131836h12.13623V262.496094z M82.468262,246.096191h-12.13623v-12.132324    h12.13623V246.096191z M82.468262,229.695801h-12.13623v-12.132324h12.13623V229.695801z M82.468262,213.29541h-12.13623    v-12.132324h12.13623V213.29541z M82.468262,196.894531h-12.13623v-12.131836h12.13623V196.894531z M82.468262,180.494141    h-12.13623v-12.131836h12.13623V180.494141z M82.468262,164.09375h-12.13623v-12.131836h12.13623V164.09375z     M82.468262,147.693359h-12.13623v-12.131836h12.13623V147.693359z M98.868652,377.299805h-12.13623v-12.132812h12.13623    V377.299805z M98.868652,360.899414h-12.13623v-12.132812h12.13623V360.899414z M98.868652,344.499023h-12.13623v-12.132812    h12.13623V344.499023z M98.868652,328.098633h-12.13623V315.96582h12.13623V328.098633z M98.868652,311.698242h-12.13623    V299.56543h12.13623V311.698242z M98.868652,295.296875h-12.13623v-12.131836h12.13623V295.296875z M98.868652,278.896484    h-12.13623v-12.131836h12.13623V278.896484z M98.868652,262.496094h-12.13623v-12.131836h12.13623V262.496094z     M98.868652,246.096191h-12.13623v-12.132324h12.13623V246.096191z M98.868652,229.695801h-12.13623v-12.132324h12.13623    V229.695801z M98.868652,213.29541h-12.13623v-12.132324h12.13623V213.29541z M98.868652,196.894531h-12.13623v-12.131836    h12.13623V196.894531z M98.868652,180.494141h-12.13623v-12.131836h12.13623V180.494141z M98.868652,164.09375h-12.13623    v-12.131836h12.13623V164.09375z M98.868652,147.693359h-12.13623v-12.131836h12.13623V147.693359z M115.269043,377.299805    h-12.13623v-12.132812h12.13623V377.299805z M115.269043,360.899414h-12.13623v-12.132812h12.13623V360.899414z     M115.269043,344.499023h-12.13623v-12.132812h12.13623V344.499023z M115.269043,328.098633h-12.13623V315.96582h12.13623    V328.098633z M115.269043,311.698242h-12.13623V299.56543h12.13623V311.698242z M115.269043,295.296875h-12.13623v-12.131836    h12.13623V295.296875z M115.269043,278.896484h-12.13623v-12.131836h12.13623V278.896484z M115.269043,262.496094h-12.13623    v-12.131836h12.13623V262.496094z M115.269043,246.096191h-12.13623v-12.132324h12.13623V246.096191z M115.269043,229.695801    h-12.13623v-12.132324h12.13623V229.695801z M115.269043,213.29541h-12.13623v-12.132324h12.13623V213.29541z     M115.269043,196.894531h-12.13623v-12.131836h12.13623V196.894531z M115.269043,180.494141h-12.13623v-12.131836h12.13623    V180.494141z M115.269043,164.09375h-12.13623v-12.131836h12.13623V164.09375z M115.269043,147.693359h-12.13623v-12.131836    h12.13623V147.693359z M131.669434,377.299805h-12.13623v-12.132812h12.13623V377.299805z M131.669434,360.899414h-12.13623    v-12.132812h12.13623V360.899414z M131.669434,344.499023h-12.13623v-12.132812h12.13623V344.499023z M131.669434,328.098633    h-12.13623V315.96582h12.13623V328.098633z M131.669434,311.698242h-12.13623V299.56543h12.13623V311.698242z     M131.669434,295.296875h-12.13623v-12.131836h12.13623V295.296875z M131.669434,278.896484h-12.13623v-12.131836h12.13623    V278.896484z M131.669434,262.496094h-12.13623v-12.131836h12.13623V262.496094z M131.669434,246.096191h-12.13623v-12.132324    h12.13623V246.096191z M131.669434,229.695801h-12.13623v-12.132324h12.13623V229.695801z M131.669434,213.29541h-12.13623    v-12.132324h12.13623V213.29541z M131.669434,196.894531h-12.13623v-12.131836h12.13623V196.894531z M131.669434,180.494141    h-12.13623v-12.131836h12.13623V180.494141z M131.669434,164.09375h-12.13623v-12.131836h12.13623V164.09375z     M131.669434,147.693359h-12.13623v-12.131836h12.13623V147.693359z M148.069824,377.299805h-12.13623v-12.132812h12.13623    V377.299805z M148.069824,360.899414h-12.13623v-12.132812h12.13623V360.899414z M148.069824,344.499023h-12.13623v-12.132812    h12.13623V344.499023z M148.069824,328.098633h-12.13623V315.96582h12.13623V328.098633z M148.069824,311.698242h-12.13623    V299.56543h12.13623V311.698242z M148.069824,295.296875h-12.13623v-12.131836h12.13623V295.296875z M148.069824,278.896484    h-12.13623v-12.131836h12.13623V278.896484z M148.069824,262.496094h-12.13623v-12.131836h12.13623V262.496094z     M148.069824,246.096191h-12.13623v-12.132324h12.13623V246.096191z M148.069824,229.695801h-12.13623v-12.132324h12.13623    V229.695801z M148.069824,213.29541h-12.13623v-12.132324h12.13623V213.29541z M148.069824,196.894531h-12.13623v-12.131836    h12.13623V196.894531z M148.069824,180.494141h-12.13623v-12.131836h12.13623V180.494141z M148.069824,164.09375h-12.13623    v-12.131836h12.13623V164.09375z M148.069824,147.693359h-12.13623v-12.131836h12.13623V147.693359z M164.470215,377.299805    h-12.13623v-12.132812h12.13623V377.299805z M164.470215,360.899414h-12.13623v-12.132812h12.13623V360.899414z     M164.470215,344.499023h-12.13623v-12.132812h12.13623V344.499023z M164.470215,328.098633h-12.13623V315.96582h12.13623    V328.098633z M164.470215,311.698242h-12.13623V299.56543h12.13623V311.698242z M164.470215,295.296875h-12.13623v-12.131836    h12.13623V295.296875z M164.470215,278.896484h-12.13623v-12.131836h12.13623V278.896484z M164.470215,262.496094h-12.13623    v-12.131836h12.13623V262.496094z M164.470215,246.096191h-12.13623v-12.132324h12.13623V246.096191z M164.470215,229.695801    h-12.13623v-12.132324h12.13623V229.695801z M164.470215,213.29541h-12.13623v-12.132324h12.13623V213.29541z     M164.470215,196.894531h-12.13623v-12.131836h12.13623V196.894531z M164.470215,180.494141h-12.13623v-12.131836h12.13623    V180.494141z M164.470215,164.09375h-12.13623v-12.131836h12.13623V164.09375z M164.470215,147.693359h-12.13623v-12.131836    h12.13623V147.693359z M180.870605,377.299805h-12.13623v-12.132812h12.13623V377.299805z M180.870605,360.899414h-12.13623    v-12.132812h12.13623V360.899414z M180.870605,344.499023h-12.13623v-12.132812h12.13623V344.499023z M180.870605,328.098633    h-12.13623V315.96582h12.13623V328.098633z M180.870605,311.698242h-12.13623V299.56543h12.13623V311.698242z     M180.870605,295.296875h-12.13623v-12.131836h12.13623V295.296875z M180.870605,278.896484h-12.13623v-12.131836h12.13623    V278.896484z M180.870605,262.496094h-12.13623v-12.131836h12.13623V262.496094z M180.870605,246.096191h-12.13623v-12.132324    h12.13623V246.096191z M180.870605,229.695801h-12.13623v-12.132324h12.13623V229.695801z M180.870605,213.29541h-12.13623    v-12.132324h12.13623V213.29541z M180.870605,196.894531h-12.13623v-12.131836h12.13623V196.894531z M180.870605,180.494141    h-12.13623v-12.131836h12.13623V180.494141z M180.870605,164.09375h-12.13623v-12.131836h12.13623V164.09375z     M180.870605,147.693359h-12.13623v-12.131836h12.13623V147.693359z M197.270996,377.299805h-12.13623v-12.132812h12.13623    V377.299805z M197.270996,360.899414h-12.13623v-12.132812h12.13623V360.899414z M197.270996,344.499023h-12.13623v-12.132812    h12.13623V344.499023z M197.270996,328.098633h-12.13623V315.96582h12.13623V328.098633z M197.270996,311.698242h-12.13623    V299.56543h12.13623V311.698242z M197.270996,295.296875h-12.13623v-12.131836h12.13623V295.296875z M197.270996,278.896484    h-12.13623v-12.131836h12.13623V278.896484z M197.270996,262.496094h-12.13623v-12.131836h12.13623V262.496094z     M197.270996,246.096191h-12.13623v-12.132324h12.13623V246.096191z M197.270996,229.695801h-12.13623v-12.132324h12.13623    V229.695801z M197.270996,213.29541h-12.13623v-12.132324h12.13623V213.29541z M197.270996,196.894531h-12.13623v-12.131836    h12.13623V196.894531z M197.270996,180.494141h-12.13623v-12.131836h12.13623V180.494141z M197.270996,164.09375h-12.13623    v-12.131836h12.13623V164.09375z M197.270996,147.693359h-12.13623v-12.131836h12.13623V147.693359z M213.671387,377.299805    h-12.135742v-12.132812h12.135742V377.299805z M213.671387,360.899414h-12.135742v-12.132812h12.135742V360.899414z     M213.671387,344.499023h-12.135742v-12.132812h12.135742V344.499023z M213.671387,328.098633h-12.135742V315.96582h12.135742    V328.098633z M213.671387,311.698242h-12.135742V299.56543h12.135742V311.698242z M213.671387,295.296875h-12.135742v-12.131836    h12.135742V295.296875z M213.671387,278.896484h-12.135742v-12.131836h12.135742V278.896484z M213.671387,262.496094h-12.135742    v-12.131836h12.135742V262.496094z M213.671387,246.096191h-12.135742v-12.132324h12.135742V246.096191z M213.671387,229.695801    h-12.135742v-12.132324h12.135742V229.695801z M213.671387,213.29541h-12.135742v-12.132324h12.135742V213.29541z     M213.671387,196.894531h-12.135742v-12.131836h12.135742V196.894531z M213.671387,180.494141h-12.135742v-12.131836h12.135742    V180.494141z M213.671387,164.09375h-12.135742v-12.131836h12.135742V164.09375z M213.671387,147.693359h-12.135742v-12.131836    h12.135742V147.693359z M230.072266,377.299805h-12.13623v-12.132812h12.13623V377.299805z M230.072266,360.899414h-12.13623    v-12.132812h12.13623V360.899414z M230.072266,344.499023h-12.13623v-12.132812h12.13623V344.499023z M230.072266,328.098633    h-12.13623V315.96582h12.13623V328.098633z M230.072266,311.698242h-12.13623V299.56543h12.13623V311.698242z     M230.072266,295.296875h-12.13623v-12.131836h12.13623V295.296875z M230.072266,278.896484h-12.13623v-12.131836h12.13623    V278.896484z M230.072266,262.496094h-12.13623v-12.131836h12.13623V262.496094z M230.072266,246.096191h-12.13623v-12.132324    h12.13623V246.096191z M230.072266,229.695801h-12.13623v-12.132324h12.13623V229.695801z M230.072266,213.29541h-12.13623    v-12.132324h12.13623V213.29541z M230.072266,196.894531h-12.13623v-12.131836h12.13623V196.894531z M230.072266,180.494141    h-12.13623v-12.131836h12.13623V180.494141z M230.072266,164.09375h-12.13623v-12.131836h12.13623V164.09375z     M230.072266,147.693359h-12.13623v-12.131836h12.13623V147.693359z M246.472656,377.299805h-12.13623v-12.132812h12.13623    V377.299805z M246.472656,360.899414h-12.13623v-12.132812h12.13623V360.899414z M246.472656,344.499023h-12.13623v-12.132812    h12.13623V344.499023z M246.472656,328.098633h-12.13623V315.96582h12.13623V328.098633z M246.472656,311.698242h-12.13623    V299.56543h12.13623V311.698242z M246.472656,295.296875h-12.13623v-12.131836h12.13623V295.296875z M246.472656,278.896484    h-12.13623v-12.131836h12.13623V278.896484z M246.472656,262.496094h-12.13623v-12.131836h12.13623V262.496094z     M246.472656,246.096191h-12.13623v-12.132324h12.13623V246.096191z M246.472656,229.695801h-12.13623v-12.132324h12.13623    V229.695801z M246.472656,213.29541h-12.13623v-12.132324h12.13623V213.29541z M246.472656,196.894531h-12.13623v-12.131836    h12.13623V196.894531z M246.472656,180.494141h-12.13623v-12.131836h12.13623V180.494141z M246.472656,164.09375h-12.13623    v-12.131836h12.13623V164.09375z M246.472656,147.693359h-12.13623v-12.131836h12.13623V147.693359z M262.873047,377.299805    h-12.13623v-12.132812h12.13623V377.299805z M262.873047,360.899414h-12.13623v-12.132812h12.13623V360.899414z     M262.873047,344.499023h-12.13623v-12.132812h12.13623V344.499023z M262.873047,328.098633h-12.13623V315.96582h12.13623    V328.098633z M262.873047,311.698242h-12.13623V299.56543h12.13623V311.698242z M262.873047,295.296875h-12.13623v-12.131836    h12.13623V295.296875z M262.873047,278.896484h-12.13623v-12.131836h12.13623V278.896484z M262.873047,262.496094h-12.13623    v-12.131836h12.13623V262.496094z M262.873047,246.096191h-12.13623v-12.132324h12.13623V246.096191z M262.873047,229.695801    h-12.13623v-12.132324h12.13623V229.695801z M262.873047,213.29541h-12.13623v-12.132324h12.13623V213.29541z     M262.873047,196.894531h-12.13623v-12.131836h12.13623V196.894531z M262.873047,180.494141h-12.13623v-12.131836h12.13623    V180.494141z M262.873047,164.09375h-12.13623v-12.131836h12.13623V164.09375z M262.873047,147.693359h-12.13623v-12.131836    h12.13623V147.693359z M279.273438,377.299805h-12.136719v-12.132812h12.136719V377.299805z M279.273438,360.899414h-12.136719    v-12.132812h12.136719V360.899414z M279.273438,344.499023h-12.136719v-12.132812h12.136719V344.499023z M279.273438,328.098633    h-12.136719V315.96582h12.136719V328.098633z M279.273438,311.698242h-12.136719V299.56543h12.136719V311.698242z     M279.273438,295.296875h-12.136719v-12.131836h12.136719V295.296875z M279.273438,278.896484h-12.136719v-12.131836h12.136719    V278.896484z M279.273438,262.496094h-12.136719v-12.131836h12.136719V262.496094z M279.273438,246.096191h-12.136719v-12.132324    h12.136719V246.096191z M279.273438,229.695801h-12.136719v-12.132324h12.136719V229.695801z M279.273438,213.29541h-12.136719    v-12.132324h12.136719V213.29541z M279.273438,196.894531h-12.136719v-12.131836h12.136719V196.894531z M279.273438,180.494141    h-12.136719v-12.131836h12.136719V180.494141z M279.273438,164.09375h-12.136719v-12.131836h12.136719V164.09375z     M279.273438,147.693359h-12.136719v-12.131836h12.136719V147.693359z M295.673828,377.299805h-12.136719v-12.132812h12.136719    V377.299805z M295.673828,360.899414h-12.136719v-12.132812h12.136719V360.899414z M295.673828,344.499023h-12.136719v-12.132812    h12.136719V344.499023z M295.673828,328.098633h-12.136719V315.96582h12.136719V328.098633z M295.673828,311.698242h-12.136719    V299.56543h12.136719V311.698242z M295.673828,295.296875h-12.136719v-12.131836h12.136719V295.296875z M295.673828,278.896484    h-12.136719v-12.131836h12.136719V278.896484z M295.673828,262.496094h-12.136719v-12.131836h12.136719V262.496094z     M295.673828,246.096191h-12.136719v-12.132324h12.136719V246.096191z M295.673828,229.695801h-12.136719v-12.132324h12.136719    V229.695801z M295.673828,213.29541h-12.136719v-12.132324h12.136719V213.29541z M295.673828,196.894531h-12.136719v-12.131836    h12.136719V196.894531z M295.673828,180.494141h-12.136719v-12.131836h12.136719V180.494141z M295.673828,164.09375h-12.136719    v-12.131836h12.136719V164.09375z M295.673828,147.693359h-12.136719v-12.131836h12.136719V147.693359z M312.074219,377.299805    h-12.135742v-12.132812h12.135742V377.299805z M312.074219,360.899414h-12.135742v-12.132812h12.135742V360.899414z     M312.074219,344.499023h-12.135742v-12.132812h12.135742V344.499023z M312.074219,328.098633h-12.135742V315.96582h12.135742    V328.098633z M312.074219,311.698242h-12.135742V299.56543h12.135742V311.698242z M312.074219,295.296875h-12.135742v-12.131836    h12.135742V295.296875z M312.074219,278.896484h-12.135742v-12.131836h12.135742V278.896484z M312.074219,262.496094h-12.135742    v-12.131836h12.135742V262.496094z M312.074219,246.096191h-12.135742v-12.132324h12.135742V246.096191z M312.074219,229.695801    h-12.135742v-12.132324h12.135742V229.695801z M312.074219,213.29541h-12.135742v-12.132324h12.135742V213.29541z     M312.074219,196.894531h-12.135742v-12.131836h12.135742V196.894531z M312.074219,180.494141h-12.135742v-12.131836h12.135742    V180.494141z M312.074219,164.09375h-12.135742v-12.131836h12.135742V164.09375z M312.074219,147.693359h-12.135742v-12.131836    h12.135742V147.693359z M328.474609,377.299805h-12.135742v-12.132812h12.135742V377.299805z M328.474609,360.899414h-12.135742    v-12.132812h12.135742V360.899414z M328.474609,344.499023h-12.135742v-12.132812h12.135742V344.499023z M328.474609,328.098633    h-12.135742V315.96582h12.135742V328.098633z M328.474609,311.698242h-12.135742V299.56543h12.135742V311.698242z     M328.474609,295.296875h-12.135742v-12.131836h12.135742V295.296875z M328.474609,278.896484h-12.135742v-12.131836h12.135742    V278.896484z M328.474609,262.496094h-12.135742v-12.131836h12.135742V262.496094z M328.474609,246.096191h-12.135742v-12.132324    h12.135742V246.096191z M328.474609,229.695801h-12.135742v-12.132324h12.135742V229.695801z M328.474609,213.29541h-12.135742    v-12.132324h12.135742V213.29541z M328.474609,196.894531h-12.135742v-12.131836h12.135742V196.894531z M328.474609,180.494141    h-12.135742v-12.131836h12.135742V180.494141z M328.474609,164.09375h-12.135742v-12.131836h12.135742V164.09375z     M328.474609,147.693359h-12.135742v-12.131836h12.135742V147.693359z M344.875,377.299805h-12.135742v-12.132812H344.875    V377.299805z M344.875,360.899414h-12.135742v-12.132812H344.875V360.899414z M344.875,344.499023h-12.135742v-12.132812H344.875    V344.499023z M344.875,328.098633h-12.135742V315.96582H344.875V328.098633z M344.875,311.698242h-12.135742V299.56543H344.875    V311.698242z M344.875,295.296875h-12.135742v-12.131836H344.875V295.296875z M344.875,278.896484h-12.135742v-12.131836H344.875    V278.896484z M344.875,262.496094h-12.135742v-12.131836H344.875V262.496094z M344.875,246.096191h-12.135742v-12.132324H344.875    V246.096191z M344.875,229.695801h-12.135742v-12.132324H344.875V229.695801z M344.875,213.29541h-12.135742v-12.132324H344.875    V213.29541z M344.875,196.894531h-12.135742v-12.131836H344.875V196.894531z M344.875,180.494141h-12.135742v-12.131836H344.875    V180.494141z M344.875,164.09375h-12.135742v-12.131836H344.875V164.09375z M344.875,147.693359h-12.135742v-12.131836H344.875    V147.693359z M361.275391,377.299805h-12.135742v-12.132812h12.135742V377.299805z M361.275391,360.899414h-12.135742v-12.132812    h12.135742V360.899414z M361.275391,344.499023h-12.135742v-12.132812h12.135742V344.499023z M361.275391,328.098633h-12.135742    V315.96582h12.135742V328.098633z M361.275391,311.698242h-12.135742V299.56543h12.135742V311.698242z M361.275391,295.296875    h-12.135742v-12.131836h12.135742V295.296875z M361.275391,278.896484h-12.135742v-12.131836h12.135742V278.896484z     M361.275391,262.496094h-12.135742v-12.131836h12.135742V262.496094z M361.275391,246.096191h-12.135742v-12.132324h12.135742    V246.096191z M361.275391,229.695801h-12.135742v-12.132324h12.135742V229.695801z M361.275391,213.29541h-12.135742v-12.132324    h12.135742V213.29541z M361.275391,196.894531h-12.135742v-12.131836h12.135742V196.894531z M361.275391,180.494141h-12.135742    v-12.131836h12.135742V180.494141z M361.275391,164.09375h-12.135742v-12.131836h12.135742V164.09375z M361.275391,147.693359    h-12.135742v-12.131836h12.135742V147.693359z M377.675781,377.299805h-12.135742v-12.132812h12.135742V377.299805z     M377.675781,360.899414h-12.135742v-12.132812h12.135742V360.899414z M377.675781,344.499023h-12.135742v-12.132812h12.135742    V344.499023z M377.675781,328.098633h-12.135742V315.96582h12.135742V328.098633z M377.675781,311.698242h-12.135742V299.56543    h12.135742V311.698242z M377.675781,295.296875h-12.135742v-12.131836h12.135742V295.296875z M377.675781,278.896484h-12.135742    v-12.131836h12.135742V278.896484z M377.675781,262.496094h-12.135742v-12.131836h12.135742V262.496094z M377.675781,246.096191    h-12.135742v-12.132324h12.135742V246.096191z M377.675781,229.695801h-12.135742v-12.132324h12.135742V229.695801z     M377.675781,213.29541h-12.135742v-12.132324h12.135742V213.29541z M377.675781,196.894531h-12.135742v-12.131836h12.135742    V196.894531z M377.675781,180.494141h-12.135742v-12.131836h12.135742V180.494141z M377.675781,164.09375h-12.135742v-12.131836    h12.135742V164.09375z M377.675781,147.693359h-12.135742v-12.131836h12.135742V147.693359z M394.076172,377.299805H381.94043    v-12.132812h12.135742V377.299805z M394.076172,360.899414H381.94043v-12.132812h12.135742V360.899414z M394.076172,344.499023    H381.94043v-12.132812h12.135742V344.499023z M394.076172,328.098633H381.94043V315.96582h12.135742V328.098633z     M394.076172,311.698242H381.94043V299.56543h12.135742V311.698242z M394.076172,295.296875H381.94043v-12.131836h12.135742    V295.296875z M394.076172,278.896484H381.94043v-12.131836h12.135742V278.896484z M394.076172,262.496094H381.94043v-12.131836    h12.135742V262.496094z M394.076172,246.096191H381.94043v-12.132324h12.135742V246.096191z M394.076172,229.695801H381.94043    v-12.132324h12.135742V229.695801z M394.076172,213.29541H381.94043v-12.132324h12.135742V213.29541z M394.076172,196.894531    H381.94043v-12.131836h12.135742V196.894531z M394.076172,180.494141H381.94043v-12.131836h12.135742V180.494141z     M394.076172,164.09375H381.94043v-12.131836h12.135742V164.09375z M394.076172,147.693359H381.94043v-12.131836h12.135742    V147.693359z M410.476562,377.299805H398.34082v-12.132812h12.135742V377.299805z M410.476562,360.899414H398.34082v-12.132812    h12.135742V360.899414z M410.476562,344.499023H398.34082v-12.132812h12.135742V344.499023z M410.476562,328.098633H398.34082    V315.96582h12.135742V328.098633z M410.476562,311.698242H398.34082V299.56543h12.135742V311.698242z M410.476562,295.296875    H398.34082v-12.131836h12.135742V295.296875z M410.476562,278.896484H398.34082v-12.131836h12.135742V278.896484z     M410.476562,262.496094H398.34082v-12.131836h12.135742V262.496094z M410.476562,246.096191H398.34082v-12.132324h12.135742    V246.096191z M410.476562,229.695801H398.34082v-12.132324h12.135742V229.695801z M410.476562,213.29541H398.34082v-12.132324    h12.135742V213.29541z M410.476562,196.894531H398.34082v-12.131836h12.135742V196.894531z M410.476562,180.494141H398.34082    v-12.131836h12.135742V180.494141z M410.476562,164.09375H398.34082v-12.131836h12.135742V164.09375z M410.476562,147.693359    H398.34082v-12.131836h12.135742V147.693359z M426.876953,377.299805h-12.135742v-12.132812h12.135742V377.299805z     M426.876953,360.899414h-12.135742v-12.132812h12.135742V360.899414z M426.876953,344.499023h-12.135742v-12.132812h12.135742    V344.499023z M426.876953,328.098633h-12.135742V315.96582h12.135742V328.098633z M426.876953,311.698242h-12.135742V299.56543    h12.135742V311.698242z M426.876953,295.296875h-12.135742v-12.131836h12.135742V295.296875z M426.876953,278.896484h-12.135742    v-12.131836h12.135742V278.896484z M426.876953,262.496094h-12.135742v-12.131836h12.135742V262.496094z M426.876953,246.096191    h-12.135742v-12.132324h12.135742V246.096191z M426.876953,229.695801h-12.135742v-12.132324h12.135742V229.695801z     M426.876953,213.29541h-12.135742v-12.132324h12.135742V213.29541z M426.876953,196.894531h-12.135742v-12.131836h12.135742    V196.894531z M426.876953,180.494141h-12.135742v-12.131836h12.135742V180.494141z M426.876953,164.09375h-12.135742v-12.131836    h12.135742V164.09375z M426.876953,147.693359h-12.135742v-12.131836h12.135742V147.693359z M443.277344,377.299805h-12.135742    v-12.132812h12.135742V377.299805z M443.277344,360.899414h-12.135742v-12.132812h12.135742V360.899414z M443.277344,344.499023    h-12.135742v-12.132812h12.135742V344.499023z M443.277344,328.098633h-12.135742V315.96582h12.135742V328.098633z     M443.277344,311.698242h-12.135742V299.56543h12.135742V311.698242z M443.277344,295.296875h-12.135742v-12.131836h12.135742    V295.296875z M443.277344,278.896484h-12.135742v-12.131836h12.135742V278.896484z M443.277344,262.496094h-12.135742v-12.131836    h12.135742V262.496094z M443.277344,246.096191h-12.135742v-12.132324h12.135742V246.096191z M443.277344,229.695801h-12.135742    v-12.132324h12.135742V229.695801z M443.277344,213.29541h-12.135742v-12.132324h12.135742V213.29541z M443.277344,196.894531    h-12.135742v-12.131836h12.135742V196.894531z M443.277344,180.494141h-12.135742v-12.131836h12.135742V180.494141z     M443.277344,164.09375h-12.135742v-12.131836h12.135742V164.09375z M443.277344,147.693359h-12.135742v-12.131836h12.135742    V147.693359z" fill="#808080" opacity="0.5"/></g><g opacity="0.8"><rect fill="#FFFFFF" height="12.132324" width="12.13623" x="119.533203" y="233.963867"/><rect fill="#FFFFFF" height="12.132324" width="12.13623" x="135.933594" y="233.963867"/><rect fill="#FFFFFF" height="12.132324" width="12.13623" x="152.333984" y="217.563477"/><rect fill="#FFFFFF" height="12.132324" width="12.135742" x="86.524414" y="217.563477"/><rect fill="#FFFFFF" height="12.132324" width="12.135742" x="86.524414" y="201.163086"/><rect fill="#FFFFFF" height="12.131836" width="12.135742" x="86.524414" y="184.762695"/><rect fill="#FFFFFF" height="12.131836" width="12.13623" x="119.533203" y="152.12207"/><rect fill="#FFFFFF" height="12.131836" width="12.13623" x="135.933594" y="152.12207"/><rect fill="#FFFFFF" height="12.131836" width="12.13623" x="152.333984" y="168.362305"/><rect fill="#FFFFFF" height="12.132324" width="12.13623" x="185.134766" y="201.163086"/><rect fill="#FFFFFF" height="12.132324" width="12.13623" x="185.134766" y="233.963867"/><rect fill="#FFFFFF" height="12.131836" width="12.135742" x="201.535645" y="151.961914"/><rect fill="#FFFFFF" height="12.131836" width="12.135742" x="201.535645" y="168.362305"/><rect fill="#FFFFFF" height="12.131836" width="12.13623" x="217.936035" y="184.762695"/><rect fill="#FFFFFF" height="12.132324" width="12.13623" x="217.936035" y="201.163086"/><rect fill="#FFFFFF" height="12.132324" width="12.13623" x="234.336426" y="217.563477"/><rect fill="#FFFFFF" height="12.132324" width="12.13623" x="234.336426" y="233.963867"/><rect fill="#FFFFFF" height="12.132324" width="12.136719" x="267.136719" y="233.963867"/><rect fill="#FFFFFF" height="12.132324" width="12.136719" x="283.537109" y="233.963867"/><rect fill="#FFFFFF" height="12.132324" width="12.135742" x="299.938477" y="233.963867"/><rect fill="#FFFFFF" height="12.132324" width="12.13623" x="103.132812" y="233.963867"/><rect fill="#FFFFFF" height="12.131836" width="12.13623" x="86.732422" y="168.362305"/><rect fill="#FFFFFF" height="12.131836" width="12.13623" x="103.132812" y="151.961914"/><rect fill="#FFFFFF" height="12.132324" width="12.135742" x="316.338867" y="233.963867"/></g></g></svg>