<?xml version="1.0" ?><!DOCTYPE svg  PUBLIC '-//W3C//DTD SVG 1.1//EN'  'http://www.w3.org/Graphics/SVG/1.1/DTD/svg11.dtd'><svg enable-background="new 0 0 512 512" height="512px" id="Layer_1" version="1.1" viewBox="0 0 512 512" width="512px" xml:space="preserve" xmlns="http://www.w3.org/2000/svg" xmlns:xlink="http://www.w3.org/1999/xlink"><g><radialGradient cx="85.082031" cy="427.435547" gradientTransform="matrix(0.6303 -0.1111 0.016651 0.094458 -27.977425 457.669708)" gradientUnits="userSpaceOnUse" id="SVGID_1_" r="426.16217"><stop offset="0" style="stop-color:#000000"/><stop offset="0.581818" style="stop-color:#000000;stop-opacity:0.3"/><stop offset="1" style="stop-color:#000000;stop-opacity:0"/></radialGradient><path d="M303.891602,440.794922c2.419922,13.736328-54.291016,35.21582-126.664551,47.978516   c-72.377441,12.761719-133.01416,11.972656-135.434082-1.763672c-2.424316-13.737305,54.286133-35.217773,126.663086-47.980469   C240.82959,426.268555,301.467773,427.057617,303.891602,440.794922z" fill="url(#SVGID_1_)"/><g><path d="M252.807617,291.692383l-39.990723-39.979004c0,0-4.901855-7.727051-12.79834-1.23584    c-7.898926,6.491211-6.499023,9.310547-16.317871,16.326172c-9.82666,7.014648-84.302246,73.073242-101.845703,93.422852    c-17.545898,20.334961-49.865234,61.094727-55.472656,63.890625c-5.615234,2.803711-16.096191,0.658203-21.70752,6.271484    c-5.605469,5.599609-5.605469,15.424805-1.401855,19.637695c4.211426,4.204102,34.897461,34.912109,40.166992,40.166992    c5.272949,5.261719,17.496094,9.049805,23.28125-6.202148c5.789551-15.259766,23.552734-25.90918,47.233398-46.422852    C137.635742,417.054688,252.453613,300.807617,252.807617,291.692383z" fill="#262626"/><linearGradient gradientTransform="matrix(0.7071 0.7071 -0.7071 0.7071 319.420898 186.075195)" gradientUnits="userSpaceOnUse" id="SVGID_2_" x1="-45.812012" x2="33.230957" y1="265.916016" y2="265.916016"><stop offset="0.052059" style="stop-color:#DADEE6"/><stop offset="0.19086" style="stop-color:#303133"/><stop offset="0.405457" style="stop-color:#303133"/><stop offset="0.909091" style="stop-color:#DADEE6"/></linearGradient><path d="M7.567383,438.1875c5.615234-5.599609,16.086426-3.452148,21.70166-6.255859    c5.611328-2.801758,37.938965-43.557617,55.484375-63.889648c17.541504-20.367188,92.019043-86.425781,101.849609-93.432617    c9.818848-7.014648,6.439941-8.104492,14.34668-14.595703c7.893066-6.473145,13.972656,1.862305,13.972656,1.862305    l35.022461,35.024414c0.978516-1.518555,2.827148-4.557617,2.862793-5.208008l-39.990723-39.979004    c0,0-4.901855-7.727051-12.79834-1.23584c-7.898926,6.491211-6.499023,9.310547-16.317871,16.326172    c-9.82666,7.014648-84.302246,73.073242-101.845703,93.422852c-17.545898,20.334961-49.865234,61.094727-55.472656,63.890625    c-5.615234,2.803711-16.096191,0.658203-21.70752,6.271484c-5.605469,5.599609-5.605469,15.424805-1.401855,19.637695    c0.023926,0.016602,0.079102,0.079102,0.103027,0.101562C3.162109,445.985352,4.342773,441.421875,7.567383,438.1875z" fill="url(#SVGID_2_)" opacity="0.15"/><linearGradient gradientUnits="userSpaceOnUse" id="SVGID_3_" x1="213.741211" x2="248.503418" y1="262.421875" y2="262.421875"><stop offset="0" style="stop-color:#2E2E2E"/><stop offset="1" style="stop-color:#141414"/></linearGradient><path d="M252.807617,291.692383c0,0,2.143555-11.242188-1.186523-16.332031    c-8.205078-12.511719-41.819336-42.208984-41.819336-42.208984l0.658203,16.205078L252.807617,291.692383z" fill="url(#SVGID_3_)"/><linearGradient gradientTransform="matrix(0.7071 0.7071 -0.7071 0.7071 319.420898 186.075195)" gradientUnits="userSpaceOnUse" id="SVGID_4_" x1="30.90625" x2="-150.33696" y1="161.330078" y2="395.702911"><stop offset="0" style="stop-color:#333333"/><stop offset="0.030303" style="stop-color:#4D4D4D"/><stop offset="0.078788" style="stop-color:#1A1A1A"/><stop offset="0.307229" style="stop-color:#262626"/><stop offset="0.518072" style="stop-color:#1A1A1A"/><stop offset="0.672727" style="stop-color:#1A1A1A"/><stop offset="0.704819" style="stop-color:#202026"/><stop offset="0.73494" style="stop-color:#404040"/><stop offset="0.771084" style="stop-color:#242426"/><stop offset="0.8" style="stop-color:#1A1A1A"/><stop offset="1" style="stop-color:#1A1A1A"/></linearGradient><path d="M210.997559,249.890625l-0.021484-0.016113l-0.658691-16.205078    c-2.174805-1.565918-5.785156-2.742188-10.471191,1.101562c-7.896973,6.499023-6.491211,9.318359-16.317871,16.325684    c-9.820801,7.014648-84.293945,73.081055-101.839355,93.422852C64.14502,364.860352,31.82373,405.625,26.214355,408.410156    c-5.621094,2.795898-16.098145,0.65918-21.699707,6.263672c-6.429688,6.430664-4.104492,28.907227-4.104492,28.907227    c0.185547-6.537109,4.34375-11.195312,7.192871-14.123047c7.185059-3.625977,14.971191-2.670898,19.297363-4.824219    c5.607422-2.793945,37.926758-43.555664,55.472656-63.889648c17.541504-20.349609,92.018555-86.40918,101.849609-93.424805    c9.818359-7.008789,8.410645-9.832031,16.311523-16.32373C205.220215,247.14209,208.818848,248.324707,210.997559,249.890625z" fill="url(#SVGID_4_)"/><linearGradient gradientTransform="matrix(0.7071 0.7071 -0.7071 0.7071 319.420898 186.075195)" gradientUnits="userSpaceOnUse" id="SVGID_5_" x1="29.346191" x2="15.78519" y1="265.991211" y2="265.991211"><stop offset="0.218182" style="stop-color:#4D4D4D"/><stop offset="1" style="stop-color:#FFFFFF;stop-opacity:0"/></linearGradient><path d="M66.721191,483.991211c5.789551-15.259766,23.552734-25.90918,47.233398-46.422852    c23.681152-20.513672,138.499023-136.760742,138.853027-145.875977l-4.601074-4.586914    c-0.347656,9.115234-115.164062,125.34668-138.844727,145.860352c-23.681152,20.520508-41.454102,31.169922-47.231445,46.421875    c-5.791504,15.260742-18.016113,11.461914-23.287598,6.201172c-1.314941-1.31543,2.779785,2.779297,4.597168,4.604492    C48.712891,495.455078,60.936035,499.243164,66.721191,483.991211z" fill="url(#SVGID_5_)" opacity="0.5"/><linearGradient gradientTransform="matrix(0.7071 0.7071 -0.7071 0.7071 319.420898 186.075195)" gradientUnits="userSpaceOnUse" id="SVGID_6_" x1="-36.835449" x2="-31.935249" y1="124.383301" y2="128.855286"><stop offset="0" style="stop-color:#999999"/><stop offset="1" style="stop-color:#FFFFFF;stop-opacity:0"/></linearGradient><path d="M205.627441,256.664551c-3.388672,0-6.128906-1.819336-6.125-4.088867    c-0.008301-2.246094,2.744141-4.071289,6.129395-4.071289c3.396484-0.015625,6.13916,1.833008,6.132812,4.071289    C211.772949,254.837402,209.022461,256.672363,205.627441,256.664551z" fill="url(#SVGID_6_)" opacity="0.3"/><g><path d="M215.54541,311.847656c-1.708496,1.728516-4.46875,1.728516-6.166992,0.032227     c-1.698242-1.724609-1.706543-4.488281-0.007812-6.186523c1.698242-1.699219,4.470215-1.699219,6.166992,0     C217.239746,307.391602,217.249512,310.155273,215.54541,311.847656z" fill="#F1F1F2" opacity="0.05"/><path d="M214.726562,311.033203c-1.257324,1.285156-3.286133,1.267578-4.537598,0.015625     c-1.247559-1.260742-1.259277-3.290039-0.003906-4.542969c1.251465-1.251953,3.28418-1.244141,4.533691,0     C215.972168,307.758789,215.980469,309.788086,214.726562,311.033203z" fill="#808080"/><path d="M213.493164,306.84375c1.257324,1.259766,1.265137,3.280273,0.015625,4.533203     c-0.25293,0.257812-0.551758,0.423828-0.855957,0.572266c0.750977-0.047852,1.494629-0.330078,2.07373-0.916016     c1.253906-1.245117,1.245605-3.274414-0.007812-4.527344c-1.002441-0.993164-2.491211-1.15918-3.685547-0.553711     C211.918945,305.888672,212.820801,306.169922,213.493164,306.84375z" fill="#B9BABF"/><path d="M204.208008,300.50293c-1.708496,1.736328-4.468262,1.736328-6.170898,0.037109     c-1.698242-1.72168-1.702148-4.486328-0.003906-6.18457s4.466309-1.698242,6.166992,0     C205.902344,296.053711,205.910156,298.818359,204.208008,300.50293z" fill="#F1F1F2" opacity="0.05"/><path d="M203.389648,299.696289c-1.257812,1.283203-3.286133,1.269531-4.538086,0.015625     c-1.247559-1.261719-1.259277-3.290039-0.003906-4.541992c1.248047-1.25293,3.28418-1.245117,4.529785-0.001953     C204.635254,296.421875,204.643066,298.450195,203.389648,299.696289z" fill="#808080"/><path d="M202.155762,295.506836c1.257324,1.260742,1.265137,3.280273,0.011719,4.533203     c-0.25293,0.256836-0.547363,0.422852-0.85791,0.571289c0.755371-0.046875,1.498535-0.330078,2.080078-0.915039     c1.253418-1.246094,1.245605-3.274414-0.012207-4.52832c-0.998535-0.992188-2.487305-1.158203-3.685547-0.561523     C200.582031,294.551758,201.479492,294.832031,202.155762,295.506836z" fill="#B9BABF"/><path d="M192.870605,289.166016c-1.711914,1.737305-4.472168,1.737305-6.170898,0.039062     c-1.698242-1.723633-1.702148-4.488281-0.003906-6.186523c1.700684-1.698242,4.466797-1.698242,6.163086-0.007812     C194.561035,284.716797,194.569336,287.481445,192.870605,289.166016z" fill="#F1F1F2" opacity="0.05"/><path d="M192.04834,288.359375c-1.257812,1.274414-3.282227,1.268555-4.537598,0.015625     c-1.248047-1.261719-1.255859-3.290039,0-4.541992c1.249512-1.253906,3.279785-1.245117,4.529785-0.001953     C193.293945,285.084961,193.305664,287.113281,192.04834,288.359375z" fill="#808080"/><path d="M190.818359,284.168945c1.257812,1.261719,1.265625,3.280273,0.011719,4.53418     c-0.25293,0.249023-0.55127,0.422852-0.85791,0.571289c0.751465-0.047852,1.494629-0.330078,2.076172-0.915039     c1.257324-1.246094,1.245605-3.274414-0.007812-4.52832c-0.996582-1-2.491699-1.158203-3.685547-0.561523     C189.240723,283.213867,190.14209,283.495117,190.818359,284.168945z" fill="#B9BABF"/><path d="M219.729004,296.321289c-1.704102,1.737305-4.466309,1.729492-6.165039,0.029297     c-1.700195-1.719727-1.706055-4.484375-0.007812-6.18457c1.702637-1.698242,4.470703-1.698242,6.165039,0     C221.425293,291.866211,221.433594,294.638672,219.729004,296.321289z" fill="#F1F1F2" opacity="0.05"/><path d="M218.910645,295.514648c-1.255859,1.277344-3.282227,1.266602-4.535645,0.009766     c-1.25-1.253906-1.261719-3.282227-0.003906-4.543945c1.253418-1.25293,3.283691-1.245117,4.53125,0.007812     C220.15625,292.242188,220.164062,294.262695,218.910645,295.514648z" fill="#808080"/><path d="M217.678711,291.324219c1.255371,1.253906,1.263672,3.282227,0.013672,4.526367     c-0.25293,0.258789-0.549316,0.430664-0.854004,0.571289c0.749512-0.039062,1.494629-0.328125,2.072266-0.907227     c1.253418-1.251953,1.245605-3.272461-0.008301-4.526367c-0.996094-1.001953-2.489258-1.166016-3.681152-0.563477     C216.10498,290.370117,217.004395,290.644531,217.678711,291.324219z" fill="#B9BABF"/><path d="M208.391602,284.981445c-1.706055,1.732422-4.466309,1.732422-6.164551,0.03418     c-1.70459-1.722656-1.708496-4.486328-0.008301-6.186523c1.69873-1.698242,4.466797-1.698242,6.165039,0     C210.088379,280.529297,210.096191,283.292969,208.391602,284.981445z" fill="#F1F1F2" opacity="0.05"/><path d="M207.575195,284.168945c-1.257324,1.283203-3.286133,1.269531-4.537598,0.015625     c-1.249512-1.260742-1.261719-3.279297-0.003906-4.541016c1.251465-1.253906,3.28418-1.246094,4.531738,0     C208.818848,280.905273,208.82666,282.923828,207.575195,284.168945z" fill="#808080"/><path d="M206.341309,279.987305c1.257812,1.253906,1.263672,3.282227,0.01416,4.52832     c-0.253418,0.256836-0.549805,0.420898-0.860352,0.569336c0.755371-0.040039,1.500977-0.328125,2.080078-0.916016     c1.251465-1.245117,1.243652-3.263672-0.009766-4.525391c-1.000488-0.993164-2.489258-1.15918-3.685547-0.555664     C204.767578,279.032227,205.663086,279.307617,206.341309,279.987305z" fill="#B9BABF"/><path d="M194.705566,332.681641c-1.706543,1.738281-4.466309,1.730469-6.165039,0.032227     c-1.704102-1.722656-1.708008-4.478516-0.007812-6.178711c1.700684-1.707031,4.466309-1.707031,6.165039-0.008789     C196.401855,328.235352,196.410156,330.999023,194.705566,332.681641z" fill="#F1F1F2" opacity="0.05"/><path d="M193.88916,331.875c-1.257812,1.275391-3.286133,1.267578-4.537598,0.015625     c-1.25-1.258789-1.261719-3.288086-0.004395-4.541016c1.251953-1.251953,3.282227-1.251953,4.531738,0     C195.132812,328.602539,195.140625,330.623047,193.88916,331.875z" fill="#808080"/><path d="M192.65332,327.685547c1.257324,1.261719,1.265137,3.282227,0.015625,4.535156     c-0.25293,0.25-0.549316,0.421875-0.85791,0.570312c0.753418-0.047852,1.498535-0.329102,2.078125-0.916016     c1.251465-1.251953,1.243652-3.272461-0.010254-4.525391c-1-1.000977-2.489258-1.15918-3.6875-0.561523     C191.07959,326.732422,191.980957,327.013672,192.65332,327.685547z" fill="#B9BABF"/><path d="M183.368164,321.344727c-1.709961,1.737305-4.470215,1.729492-6.168945,0.03125     c-1.700195-1.72168-1.704102-4.486328-0.003906-6.186523c1.69873-1.698242,4.466797-1.698242,6.165039,0     C185.061035,316.889648,185.072754,319.662109,183.368164,321.344727z" fill="#F1F1F2" opacity="0.05"/><path d="M182.545898,320.538086c-1.255859,1.275391-3.280273,1.267578-4.535645,0.017578     c-1.245605-1.261719-1.257812-3.290039,0-4.551758c1.249512-1.245117,3.279785-1.245117,4.527832,0.007812     C183.79541,317.265625,183.803223,319.286133,182.545898,320.538086z" fill="#808080"/><path d="M181.315918,316.347656c1.257324,1.253906,1.265625,3.282227,0.011719,4.536133     c-0.25293,0.249023-0.54541,0.420898-0.855957,0.563477c0.751465-0.041016,1.498535-0.330078,2.074219-0.90918     c1.257324-1.251953,1.249512-3.272461-0.007812-4.526367c-0.996582-1-2.485352-1.158203-3.683594-0.563477     C179.738281,315.395508,180.639648,315.675781,181.315918,316.347656z" fill="#B9BABF"/><path d="M172.027344,310.006836c-1.708496,1.738281-4.466797,1.730469-6.165039,0.030273     c-1.700684-1.720703-1.708496-4.484375-0.003906-6.18457c1.698242-1.698242,4.466309-1.698242,6.160645,0     C173.723633,305.552734,173.731445,308.324219,172.027344,310.006836z" fill="#F1F1F2" opacity="0.05"/><path d="M171.208496,309.200195c-1.257324,1.275391-3.280273,1.267578-4.535645,0.007812     c-1.249512-1.250977-1.261719-3.279297-0.003906-4.541016c1.251465-1.253906,3.28418-1.246094,4.531738,0.007812     C172.454102,305.928711,172.461914,307.949219,171.208496,309.200195z" fill="#808080"/><path d="M169.974609,305.010742c1.257812,1.253906,1.269531,3.282227,0.016113,4.526367     c-0.253418,0.258789-0.551758,0.430664-0.856445,0.571289c0.751465-0.040039,1.495117-0.328125,2.074219-0.908203     c1.253418-1.250977,1.245605-3.271484-0.007812-4.525391c-0.996582-1.00293-2.489258-1.166992-3.683594-0.563477     C168.400879,304.057617,169.302734,304.331055,169.974609,305.010742z" fill="#B9BABF"/><path d="M198.891113,317.155273c-1.706055,1.739258-4.466309,1.739258-6.166504,0.039062     c-1.69873-1.72168-1.706543-4.486328-0.008301-6.18457c1.70459-1.700195,4.472656-1.700195,6.166992-0.007812     C200.585938,312.708008,200.59375,315.472656,198.891113,317.155273z" fill="#F1F1F2" opacity="0.05"/><path d="M198.074707,316.347656c-1.257324,1.285156-3.286133,1.269531-4.539551,0.016602     c-1.247559-1.259766-1.261719-3.288086-0.003906-4.540039c1.253418-1.253906,3.286133-1.245117,4.533691,0     C199.316406,313.076172,199.324219,315.104492,198.074707,316.347656z" fill="#808080"/><path d="M196.838867,312.160156c1.257812,1.261719,1.265625,3.280273,0.016113,4.532227     c-0.253418,0.260742-0.551758,0.422852-0.856445,0.573242c0.751465-0.047852,1.495117-0.328125,2.076172-0.917969     c1.249512-1.243164,1.241699-3.271484-0.009766-4.523438c-0.998535-0.996094-2.489258-1.158203-3.683594-0.56543     C195.26709,311.203125,196.164551,311.488281,196.838867,312.160156z" fill="#B9BABF"/><path d="M187.552246,305.817383c-1.70459,1.740234-4.464844,1.740234-6.168945,0.040039     c-1.69873-1.722656-1.702637-4.486328-0.003906-6.18457c1.700195-1.701172,4.468262-1.701172,6.164551-0.008789     C189.248535,301.371094,189.256348,304.134766,187.552246,305.817383z" fill="#F1F1F2" opacity="0.05"/><path d="M186.735352,305.010742c-1.255371,1.277344-3.28418,1.269531-4.537598,0.017578     c-1.249512-1.262695-1.26123-3.290039-0.003906-4.541016c1.253418-1.253906,3.286133-1.246094,4.529785,0     C187.979004,301.738281,187.987305,303.765625,186.735352,305.010742z" fill="#808080"/><path d="M185.501953,300.823242c1.255371,1.261719,1.263184,3.282227,0.011719,4.533203     c-0.255371,0.251953-0.547852,0.421875-0.856445,0.572266c0.755371-0.047852,1.499023-0.329102,2.078125-0.917969     c1.251953-1.245117,1.243652-3.272461-0.011719-4.523438c-0.998535-1.004883-2.485352-1.15918-3.683594-0.56543     C183.927734,299.866211,184.82373,300.148438,185.501953,300.823242z" fill="#B9BABF"/><path d="M175.040527,352.348633c-1.708496,1.732422-4.46875,1.732422-6.168945,0.032227     c-1.69873-1.722656-1.702637-4.484375-0.003906-6.18457c1.700195-1.701172,4.468262-1.701172,6.164551,0     C176.736816,347.896484,176.744629,350.658203,175.040527,352.348633z" fill="#F1F1F2" opacity="0.05"/><path d="M174.219727,351.543945c-1.257324,1.275391-3.280273,1.259766-4.533691,0.005859     c-1.249512-1.258789-1.26123-3.277344-0.003906-4.539062c1.249512-1.253906,3.280273-1.246094,4.529785,0.007812     C175.467285,348.272461,175.475586,350.291016,174.219727,351.543945z" fill="#808080"/><path d="M172.990234,347.354492c1.255371,1.253906,1.263184,3.282227,0.011719,4.526367     c-0.255371,0.258789-0.547852,0.428711-0.856445,0.571289c0.751465-0.040039,1.499023-0.328125,2.074219-0.908203     c1.255859-1.25293,1.247559-3.271484-0.007812-4.525391c-0.998535-1.00293-2.485352-1.166992-3.683594-0.56543     C171.412109,346.399414,172.313965,346.674805,172.990234,347.354492z" fill="#B9BABF"/><path d="M163.699219,341.011719c-1.70459,1.732422-4.464844,1.732422-6.165039,0.03125     c-1.698242-1.72168-1.706055-4.486328-0.003906-6.18457c1.700195-1.700195,4.466309-1.698242,6.161133,0     C165.395508,336.556641,165.40332,339.323242,163.699219,341.011719z" fill="#F1F1F2" opacity="0.05"/><path d="M162.880371,340.199219c-1.255371,1.283203-3.277832,1.267578-4.535645,0.013672     c-1.249512-1.259766-1.26123-3.27832-0.003906-4.540039c1.253418-1.25293,3.28418-1.245117,4.533691,0     C164.125977,336.93457,164.134277,338.953125,162.880371,340.199219z" fill="#808080"/><path d="M161.648926,336.009766c1.26123,1.260742,1.26709,3.280273,0.017578,4.533203     c-0.256836,0.258789-0.553711,0.422852-0.85791,0.571289c0.750977-0.046875,1.494629-0.328125,2.071777-0.915039     c1.253906-1.246094,1.245605-3.264648-0.005859-4.526367c-0.998535-0.992188-2.489258-1.158203-3.683594-0.557617     C160.074707,335.0625,160.974609,335.336914,161.648926,336.009766z" fill="#B9BABF"/><path d="M152.361816,329.666992c-1.704102,1.739258-4.464355,1.739258-6.165039,0.039062     c-1.698242-1.72168-1.708008-4.486328-0.007812-6.18457c1.700684-1.700195,4.470703-1.698242,6.166992,0     C154.058105,325.22168,154.066406,327.984375,152.361816,329.666992z" fill="#F1F1F2" opacity="0.05"/><path d="M151.543457,328.859375c-1.255859,1.285156-3.282227,1.269531-4.535645,0.016602     c-1.25-1.257812-1.261719-3.288086-0.004395-4.540039c1.253906-1.253906,3.28418-1.245117,4.531738,0     C152.789062,325.587891,152.796875,327.616211,151.543457,328.859375z" fill="#808080"/><path d="M150.311523,324.671875c1.257324,1.261719,1.263184,3.280273,0.017578,4.53418     c-0.256836,0.258789-0.553223,0.420898-0.859863,0.571289c0.753418-0.047852,1.496582-0.328125,2.074219-0.917969     c1.253418-1.243164,1.245605-3.271484-0.008301-4.523438c-1-0.994141-2.487305-1.158203-3.681152-0.56543     C148.739746,323.716797,149.637207,324,150.311523,324.671875z" fill="#B9BABF"/><path d="M179.226074,336.824219c-1.706543,1.738281-4.466309,1.729492-6.170898,0.03125     c-1.696289-1.723633-1.700195-4.480469,0-6.18457c1.696289-1.700195,4.464355-1.700195,6.165039,0     C180.922363,332.375,180.928711,335.139648,179.226074,336.824219z" fill="#F1F1F2" opacity="0.05"/><path d="M178.409668,336.017578c-1.257812,1.277344-3.286133,1.269531-4.537598,0.015625     c-1.25-1.259766-1.261719-3.290039-0.006348-4.549805c1.253906-1.243164,3.286133-1.243164,4.531738,0.007812     C179.65332,332.743164,179.661133,334.763672,178.409668,336.017578z" fill="#808080"/><path d="M177.175781,331.830078c1.257324,1.250977,1.263184,3.277344,0.011719,4.53125     c-0.254883,0.250977-0.549805,0.422852-0.85791,0.573242c0.755371-0.046875,1.498535-0.337891,2.080078-0.916992     c1.251465-1.253906,1.243652-3.274414-0.012207-4.526367c-1.000488-1.001953-2.487305-1.158203-3.685547-0.563477     C175.602051,330.873047,176.497559,331.155273,177.175781,331.830078z" fill="#B9BABF"/><path d="M167.888672,325.486328c-1.709961,1.738281-4.470215,1.730469-6.170898,0.032227     c-1.696289-1.724609-1.700195-4.488281-0.003906-6.186523c1.700684-1.699219,4.46875-1.699219,6.163086,0     C169.579102,321.030273,169.587402,323.801758,167.888672,325.486328z" fill="#F1F1F2" opacity="0.05"/><path d="M167.068359,324.679688c-1.257812,1.277344-3.282227,1.269531-4.539551,0.007812     c-1.247559-1.25293-1.255859-3.28125,0-4.541016c1.249512-1.251953,3.281738-1.244141,4.531738,0.007812     C168.312012,321.40625,168.32373,323.426758,167.068359,324.679688z" fill="#808080"/><path d="M165.838379,320.492188c1.257324,1.251953,1.263672,3.280273,0.011719,4.532227     c-0.254883,0.250977-0.553223,0.422852-0.85791,0.563477c0.751465-0.038086,1.498535-0.328125,2.076172-0.908203     c1.255371-1.25293,1.243652-3.273438-0.007812-4.525391c-1.000488-1.00293-2.491211-1.166992-3.685547-0.563477     C164.260742,319.535156,165.160156,319.810547,165.838379,320.492188z" fill="#B9BABF"/><path d="M154.202637,373.18457c-1.710449,1.738281-4.470215,1.738281-6.170898,0.040039     c-1.696289-1.722656-1.700195-4.486328-0.003906-6.18457c1.700195-1.701172,4.468262-1.701172,6.166992-0.008789     C155.893066,368.738281,155.904785,371.501953,154.202637,373.18457z" fill="#F1F1F2" opacity="0.05"/><path d="M153.381836,372.37793c-1.257324,1.277344-3.281738,1.269531-4.539551,0.017578     c-1.241699-1.262695-1.255371-3.290039,0-4.541016c1.249512-1.253906,3.282227-1.246094,4.531738,0     C154.629883,369.105469,154.637695,371.132812,153.381836,372.37793z" fill="#808080"/><path d="M152.152344,368.19043c1.255371,1.261719,1.265137,3.280273,0.011719,4.533203     c-0.254883,0.25-0.549805,0.423828-0.85791,0.572266c0.751465-0.047852,1.498535-0.331055,2.075684-0.917969     c1.255859-1.245117,1.248047-3.272461-0.007812-4.523438c-1.000488-1.004883-2.487305-1.161133-3.685547-0.56543     C150.574219,367.233398,151.474121,367.515625,152.152344,368.19043z" fill="#B9BABF"/><path d="M142.861328,361.847656c-1.706055,1.738281-4.466309,1.738281-6.166992,0.03125     c-1.698242-1.713867-1.706055-4.480469-0.003906-6.176758c1.700684-1.700195,4.46875-1.700195,6.163086-0.007812     C144.555664,357.398438,144.563965,360.163086,142.861328,361.847656z" fill="#F1F1F2" opacity="0.05"/><path d="M142.042969,361.041016c-1.255859,1.277344-3.28418,1.269531-4.537598,0.015625     c-1.247559-1.261719-1.257812-3.288086-0.001953-4.541992c1.251465-1.250977,3.283691-1.250977,4.531738,0     C143.288574,357.768555,143.296387,359.794922,142.042969,361.041016z" fill="#808080"/><path d="M140.811035,356.853516c1.257324,1.258789,1.269531,3.279297,0.015625,4.533203     c-0.256836,0.250977-0.553223,0.420898-0.85791,0.571289c0.751465-0.046875,1.494629-0.330078,2.074219-0.916992     c1.253418-1.246094,1.245605-3.272461-0.007812-4.526367c-0.996582-1.001953-2.489746-1.158203-3.683594-0.563477     C139.237305,355.898438,140.136719,356.178711,140.811035,356.853516z" fill="#B9BABF"/><path d="M131.523926,350.509766c-1.706055,1.740234-4.466309,1.730469-6.166504,0.032227     c-1.702637-1.724609-1.706543-4.478516-0.008301-6.18457c1.700684-1.700195,4.46875-1.700195,6.166992,0     C133.21875,346.063477,133.226562,348.825195,131.523926,350.509766z" fill="#F1F1F2" opacity="0.05"/><path d="M130.705566,349.703125c-1.255371,1.277344-3.28418,1.269531-4.537598,0.016602     c-1.249512-1.261719-1.259766-3.288086-0.003906-4.549805c1.253418-1.244141,3.286133-1.244141,4.533691,0.007812     C131.949219,346.431641,131.957031,348.450195,130.705566,349.703125z" fill="#808080"/><path d="M129.473633,345.515625c1.255859,1.251953,1.265625,3.27832,0.016113,4.532227     c-0.257324,0.25293-0.553711,0.422852-0.862305,0.56543c0.755371-0.040039,1.499023-0.330078,2.078125-0.910156     c1.251465-1.25293,1.243652-3.271484-0.007812-4.525391c-1.002441-1.00293-2.489258-1.158203-3.6875-0.563477     C127.899902,344.560547,128.799805,344.841797,129.473633,345.515625z" fill="#B9BABF"/><path d="M158.388184,357.667969c-1.708008,1.727539-4.468262,1.727539-6.17041,0.029297     c-1.69873-1.72168-1.702637-4.486328-0.004395-6.18457c1.69873-1.698242,4.466797-1.698242,6.166992,0     C160.083008,353.210938,160.092773,355.975586,158.388184,357.667969z" fill="#F1F1F2" opacity="0.05"/><path d="M157.569824,356.853516c-1.26123,1.285156-3.286133,1.266602-4.537598,0.015625     c-1.247559-1.261719-1.259766-3.290039-0.001953-4.543945c1.245605-1.250977,3.27832-1.243164,4.527832,0     C158.81543,353.579102,158.823242,355.607422,157.569824,356.853516z" fill="#808080"/><path d="M156.335938,352.663086c1.257812,1.261719,1.265625,3.280273,0.011719,4.53418     c-0.25293,0.256836-0.54541,0.422852-0.85791,0.573242c0.757324-0.049805,1.500488-0.332031,2.080078-0.916992     c1.253418-1.246094,1.245605-3.274414-0.011719-4.52832c-0.998535-0.992188-2.487305-1.158203-3.685547-0.553711     C154.762207,351.708008,155.659668,351.989258,156.335938,352.663086z" fill="#B9BABF"/><path d="M147.05127,346.322266c-1.712402,1.738281-4.472656,1.738281-6.170898,0.040039     c-1.69873-1.724609-1.706543-4.488281-0.003906-6.188477c1.698242-1.697266,4.466309-1.697266,6.162598,0     C148.741699,341.874023,148.749512,344.637695,147.05127,346.322266z" fill="#F1F1F2" opacity="0.05"/><path d="M146.228516,345.515625c-1.257324,1.283203-3.282227,1.269531-4.535645,0.015625     c-1.249512-1.260742-1.257324-3.290039,0-4.542969c1.245605-1.251953,3.27832-1.244141,4.527832,0     C147.474121,342.241211,147.486328,344.270508,146.228516,345.515625z" fill="#808080"/><path d="M144.998535,341.326172c1.257812,1.261719,1.265625,3.280273,0.012207,4.533203     c-0.253418,0.257812-0.551758,0.423828-0.858398,0.572266c0.751465-0.047852,1.49707-0.330078,2.076172-0.916016     c1.257812-1.245117,1.245605-3.274414-0.007812-4.527344c-0.998535-0.993164-2.491211-1.15918-3.685547-0.561523     C143.420898,340.371094,144.322754,340.652344,144.998535,341.326172z" fill="#B9BABF"/><path d="M134.208984,393.322266c-1.706055,1.740234-4.466309,1.730469-6.164551,0.032227     c-1.702637-1.722656-1.706543-4.478516-0.010254-6.178711c1.700684-1.705078,4.46875-1.705078,6.166992-0.007812     C135.905762,388.875977,135.911621,391.639648,134.208984,393.322266z" fill="#F1F1F2" opacity="0.05"/><path d="M133.392578,392.515625c-1.257324,1.277344-3.286133,1.269531-4.539551,0.015625     c-1.247559-1.258789-1.259766-3.288086-0.003906-4.548828c1.253418-1.242188,3.286133-1.242188,4.535645,0.007812     C134.638184,389.243164,134.644043,391.264648,133.392578,392.515625z" fill="#808080"/><path d="M132.158691,388.326172c1.257812,1.253906,1.263672,3.282227,0.016113,4.533203     c-0.259277,0.251953-0.553711,0.425781-0.862305,0.572266c0.755371-0.045898,1.499023-0.333984,2.080078-0.916016     c1.251465-1.250977,1.245605-3.272461-0.007812-4.525391c-1.002441-1.000977-2.491211-1.15918-3.689453-0.561523     C130.584961,387.371094,131.480469,387.654297,132.158691,388.326172z" fill="#B9BABF"/><path d="M122.87207,381.985352c-1.710449,1.740234-4.470703,1.731445-6.168945,0.03125     c-1.69873-1.72168-1.702637-4.486328-0.005859-6.186523c1.700195-1.698242,4.468262-1.698242,6.168945,0     C124.564453,377.530273,124.576172,380.302734,122.87207,381.985352z" fill="#F1F1F2" opacity="0.05"/><path d="M122.05127,381.178711c-1.257324,1.275391-3.282227,1.269531-4.537598,0.007812     c-1.249512-1.251953-1.257324-3.280273,0-4.540039c1.247559-1.25293,3.280273-1.24707,4.529785,0.005859     C123.300781,377.90625,123.306641,379.926758,122.05127,381.178711z" fill="#808080"/><path d="M120.821289,376.989258c1.257812,1.25293,1.263672,3.282227,0.012207,4.535156     c-0.255371,0.250977-0.553711,0.422852-0.858398,0.563477c0.751465-0.039062,1.499023-0.328125,2.076172-0.90918     c1.255371-1.251953,1.249512-3.272461-0.007812-4.526367c-1.000488-1.001953-2.487305-1.158203-3.685547-0.563477     C119.243652,376.036133,120.143555,376.316406,120.821289,376.989258z" fill="#B9BABF"/><path d="M111.530762,370.650391c-1.706543,1.727539-4.466797,1.727539-6.165039,0.029297     c-1.700195-1.722656-1.706543-4.486328-0.009766-6.186523c1.704102-1.698242,4.472168-1.698242,6.168945,0     C113.227051,366.193359,113.23291,368.957031,111.530762,370.650391z" fill="#F1F1F2" opacity="0.05"/><path d="M110.713867,369.841797c-1.257324,1.274414-3.286133,1.258789-4.539551,0.007812     c-1.247559-1.259766-1.259277-3.280273-0.001953-4.541992c1.251465-1.251953,3.28418-1.246094,4.533691,0     C111.959961,366.569336,111.96582,368.589844,110.713867,369.841797z" fill="#808080"/><path d="M109.480469,365.65332c1.257324,1.251953,1.26709,3.280273,0.015625,4.526367     c-0.254883,0.256836-0.553711,0.422852-0.85791,0.571289c0.750977-0.041992,1.494629-0.330078,2.075684-0.90918     c1.251953-1.251953,1.246094-3.272461-0.007812-4.53418c-1.000488-0.992188-2.491211-1.15918-3.685547-0.553711     C107.90625,364.698242,108.806152,364.97168,109.480469,365.65332z" fill="#B9BABF"/><path d="M138.39502,377.795898c-1.708496,1.739258-4.46875,1.739258-6.165039,0.041016     c-1.70459-1.72168-1.708496-4.488281-0.007812-6.186523c1.696289-1.700195,4.470215-1.700195,6.165039-0.007812     C140.091309,373.348633,140.097168,376.113281,138.39502,377.795898z" fill="#F1F1F2" opacity="0.05"/><path d="M137.576172,376.989258c-1.257324,1.277344-3.28418,1.270508-4.537598,0.015625     c-1.247559-1.259766-1.259277-3.286133-0.003906-4.540039c1.255371-1.25293,3.28418-1.245117,4.533691,0     C138.821777,373.71875,138.830078,375.745117,137.576172,376.989258z" fill="#808080"/><path d="M136.342773,372.800781c1.257324,1.261719,1.265137,3.282227,0.015625,4.53418     c-0.25293,0.258789-0.551758,0.420898-0.862305,0.571289c0.757324-0.046875,1.500977-0.328125,2.080078-0.916992     c1.253906-1.244141,1.245605-3.270508-0.007812-4.524414c-1.000488-1.001953-2.489258-1.158203-3.683594-0.56543     C134.768555,371.847656,135.67041,372.128906,136.342773,372.800781z" fill="#B9BABF"/><path d="M127.057617,366.458008c-1.712402,1.740234-4.468262,1.740234-6.168945,0.032227     c-1.700195-1.714844-1.704102-4.476562-0.003906-6.176758c1.696289-1.698242,4.464355-1.700195,6.165039-0.007812     C128.751953,362.011719,128.759766,364.775391,127.057617,366.458008z" fill="#F1F1F2" opacity="0.05"/><path d="M126.235352,365.651367c-1.257812,1.277344-3.282227,1.269531-4.53418,0.015625     c-1.247559-1.258789-1.259277-3.286133-0.003906-4.539062c1.25-1.253906,3.280273-1.253906,4.529785,0     C127.484863,362.380859,127.492676,364.410156,126.235352,365.651367z" fill="#808080"/><path d="M125.005371,361.463867c1.257324,1.261719,1.265137,3.280273,0.011719,4.53418     c-0.25293,0.250977-0.547363,0.420898-0.85791,0.571289c0.750977-0.047852,1.502441-0.328125,2.076172-0.917969     c1.257324-1.241211,1.249512-3.270508-0.008301-4.523438c-0.996582-1.00293-2.485352-1.15918-3.681152-0.56543     C123.427734,360.510742,124.329102,360.791992,125.005371,361.463867z" fill="#B9BABF"/><path d="M113.371582,414.164062c-1.708496,1.732422-4.46875,1.732422-6.170898,0.03418     c-1.69873-1.722656-1.702637-4.486328-0.003906-6.1875c1.698242-1.698242,4.466309-1.696289,6.166992,0     C115.065918,409.711914,115.07373,412.475586,113.371582,414.164062z" fill="#F1F1F2" opacity="0.05"/><path d="M112.552734,413.351562c-1.257324,1.283203-3.286133,1.269531-4.537598,0.017578     c-1.247559-1.263672-1.259277-3.282227-0.001953-4.542969c1.245605-1.251953,3.282227-1.244141,4.527832,0     C113.79834,410.086914,113.806641,412.105469,112.552734,413.351562z" fill="#808080"/><path d="M111.319336,409.162109c1.257324,1.261719,1.265137,3.282227,0.011719,4.533203     c-0.25293,0.259766-0.547852,0.423828-0.858398,0.571289c0.755371-0.044922,1.500977-0.328125,2.080078-0.915039     c1.253906-1.246094,1.245605-3.264648-0.011719-4.525391c-0.998535-0.993164-2.487305-1.15918-3.685547-0.555664     C109.745117,408.214844,110.643066,408.489258,111.319336,409.162109z" fill="#B9BABF"/><path d="M102.03418,402.819336c-1.710449,1.739258-4.472656,1.739258-6.170898,0.041016     c-1.698242-1.72168-1.702148-4.486328-0.001953-6.186523c1.698242-1.698242,4.464355-1.698242,6.161133,0     C103.724609,398.374023,103.732422,401.138672,102.03418,402.819336z" fill="#F1F1F2" opacity="0.05"/><path d="M101.211914,402.014648c-1.257812,1.283203-3.282227,1.266602-4.538086,0.013672     c-1.247559-1.259766-1.255371-3.286133,0-4.540039c1.247559-1.25293,3.280273-1.243164,4.529785,0     C102.45752,398.742188,102.469238,400.770508,101.211914,402.014648z" fill="#808080"/><path d="M99.981934,397.824219c1.257324,1.261719,1.265137,3.282227,0.011719,4.53418     c-0.25293,0.258789-0.551758,0.422852-0.85791,0.571289c0.750977-0.044922,1.494629-0.328125,2.076172-0.915039     c1.257324-1.244141,1.245605-3.272461-0.008301-4.526367c-0.998535-0.994141-2.491211-1.158203-3.685547-0.563477     C98.404297,396.869141,99.305664,397.152344,99.981934,397.824219z" fill="#B9BABF"/><path d="M90.692871,391.481445c-1.708008,1.738281-4.468262,1.740234-6.166992,0.040039     c-1.698242-1.722656-1.706055-4.486328-0.005859-6.18457c1.702637-1.700195,4.46875-1.700195,6.165039-0.007812     C92.387207,387.035156,92.395508,389.798828,90.692871,391.481445z" fill="#F1F1F2" opacity="0.05"/><path d="M89.874512,390.676758c-1.257812,1.275391-3.286133,1.267578-4.537598,0.016602     c-1.248047-1.261719-1.259766-3.289062-0.003906-4.541992c1.251465-1.253906,3.283691-1.246094,4.533691,0     C91.120117,387.404297,91.12793,389.431641,89.874512,390.676758z" fill="#808080"/><path d="M88.640625,386.487305c1.257324,1.261719,1.265625,3.282227,0.015625,4.53418     c-0.254883,0.250977-0.553223,0.422852-0.85791,0.571289c0.751465-0.045898,1.494629-0.328125,2.076172-0.916016     c1.253418-1.245117,1.245605-3.272461-0.007812-4.525391c-0.998535-1.00293-2.491699-1.15918-3.685547-0.56543     C87.066895,385.532227,87.968262,385.81543,88.640625,386.487305z" fill="#B9BABF"/><path d="M117.555176,398.639648c-1.704102,1.737305-4.466309,1.731445-6.165039,0.03125     c-1.702148-1.723633-1.708008-4.486328-0.007812-6.18457c1.69873-1.700195,4.466309-1.698242,6.165039,0     C119.251465,394.18457,119.259766,396.955078,117.555176,398.639648z" fill="#F1F1F2" opacity="0.05"/><path d="M116.736816,397.832031c-1.255859,1.277344-3.28418,1.267578-4.535645,0.008789     c-1.25-1.253906-1.261719-3.280273-0.004395-4.540039c1.253906-1.253906,3.28418-1.246094,4.531738,0.007812     C117.982422,394.560547,117.990234,396.581055,116.736816,397.832031z" fill="#808080"/><path d="M115.506836,393.644531c1.255371,1.251953,1.26123,3.282227,0.011719,4.532227     c-0.25293,0.250977-0.549316,0.422852-0.859863,0.56543c0.755371-0.040039,1.500488-0.330078,2.078125-0.910156     c1.253418-1.250977,1.245605-3.271484-0.008301-4.523438c-1-1.001953-2.489258-1.167969-3.685059-0.56543     C113.933105,392.6875,114.82666,392.962891,115.506836,393.644531z" fill="#B9BABF"/><path d="M106.217773,387.301758c-1.708008,1.730469-4.468262,1.730469-6.168945,0.032227     c-1.698242-1.724609-1.702148-4.486328-0.003906-6.185547c1.69873-1.700195,4.466797-1.700195,6.165039,0     C107.910645,382.847656,107.922363,385.609375,106.217773,387.301758z" fill="#F1F1F2" opacity="0.05"/><path d="M105.397461,386.495117c-1.257812,1.277344-3.280273,1.261719-4.537598,0.007812     c-1.245605-1.258789-1.257812-3.280273,0-4.541016c1.247559-1.253906,3.279785-1.244141,4.527832,0     C106.64502,383.224609,106.652832,385.244141,105.397461,386.495117z" fill="#808080"/><path d="M104.165527,382.307617c1.257324,1.251953,1.265625,3.27832,0.01416,4.523438     c-0.255371,0.259766-0.547852,0.423828-0.858398,0.573242c0.753418-0.039062,1.500977-0.330078,2.076172-0.90918     c1.255371-1.250977,1.247559-3.270508-0.009766-4.533203c-0.996582-0.995117-2.485352-1.157227-3.681641-0.555664     C102.587891,381.350586,103.489258,381.625,104.165527,382.307617z" fill="#B9BABF"/><path d="M92.86377,434.671875c-1.709961,1.729492-4.468262,1.729492-6.168457,0.03125     c-1.700684-1.723633-1.70459-4.486328-0.004395-6.18457c1.700684-1.700195,4.46875-1.700195,6.161133,0     C94.556641,430.216797,94.564453,432.979492,92.86377,434.671875z" fill="#F1F1F2" opacity="0.05"/><path d="M92.041504,433.865234c-1.255371,1.277344-3.27832,1.259766-4.535645,0.007812     c-1.25-1.259766-1.257812-3.27832,0-4.541992c1.249512-1.250977,3.282227-1.243164,4.527832,0     C93.287109,430.592773,93.298828,432.613281,92.041504,433.865234z" fill="#808080"/><path d="M90.813477,429.677734c1.255859,1.250977,1.263672,3.279297,0.011719,4.523438     c-0.254883,0.260742-0.55127,0.422852-0.85791,0.573242c0.753418-0.039062,1.500488-0.330078,2.074219-0.90918     c1.257324-1.251953,1.245605-3.272461-0.007812-4.53418c-0.996582-0.994141-2.487305-1.158203-3.681641-0.555664     C89.23584,428.722656,90.135254,428.995117,90.813477,429.677734z" fill="#B9BABF"/><path d="M81.522461,423.333984c-1.706055,1.730469-4.464355,1.730469-6.164551,0.032227     c-1.69873-1.724609-1.708496-4.486328-0.007812-6.18457c1.702148-1.700195,4.472168-1.700195,6.164551,0     C83.219238,418.879883,83.227051,421.641602,81.522461,423.333984z" fill="#F1F1F2" opacity="0.05"/><path d="M80.704102,422.519531c-1.255371,1.285156-3.282227,1.269531-4.535645,0.016602     c-1.249512-1.261719-1.26123-3.288086-0.003906-4.541992c1.253418-1.251953,3.28418-1.244141,4.531738,0     C81.949707,419.248047,81.95752,421.274414,80.704102,422.519531z" fill="#808080"/><path d="M79.472168,418.330078c1.255859,1.263672,1.263672,3.282227,0.018066,4.53418     c-0.257324,0.258789-0.553711,0.422852-0.860352,0.573242c0.753418-0.047852,1.49707-0.330078,2.074219-0.917969     c1.253418-1.245117,1.245605-3.271484-0.007812-4.525391c-0.996582-0.994141-2.487305-1.158203-3.681641-0.555664     C77.898438,417.376953,78.79834,417.658203,79.472168,418.330078z" fill="#B9BABF"/><path d="M70.185547,411.989258c-1.706543,1.738281-4.466797,1.738281-6.165039,0.040039     c-1.704102-1.722656-1.708496-4.488281-0.007812-6.1875c1.698242-1.698242,4.466309-1.698242,6.166992,0     C71.881836,407.541016,71.889648,410.306641,70.185547,411.989258z" fill="#F1F1F2" opacity="0.05"/><path d="M69.366699,411.182617c-1.255371,1.285156-3.28418,1.269531-4.535645,0.015625     c-1.249512-1.261719-1.26123-3.288086-0.003906-4.541016c1.253418-1.251953,3.28418-1.244141,4.531738,0.001953     C70.612305,407.910156,70.620605,409.936523,69.366699,411.182617z" fill="#808080"/><path d="M68.137207,406.995117c1.253418,1.258789,1.26123,3.280273,0.011719,4.53125     c-0.256836,0.258789-0.549805,0.423828-0.859863,0.573242c0.756836-0.046875,1.500488-0.330078,2.077637-0.916992     c1.253906-1.246094,1.245605-3.272461-0.007812-4.523438c-1.000488-0.99707-2.487305-1.161133-3.685547-0.56543     C66.562988,406.040039,67.457031,406.320312,68.137207,406.995117z" fill="#B9BABF"/><path d="M97.049805,419.146484c-1.710449,1.738281-4.470703,1.730469-6.170898,0.030273     c-1.69873-1.722656-1.700684-4.478516-0.003906-6.186523c1.700195-1.697266,4.468262-1.697266,6.166992,0     C98.740234,414.698242,98.751953,417.461914,97.049805,419.146484z" fill="#F1F1F2" opacity="0.05"/><path d="M96.227051,418.339844c-1.255371,1.275391-3.280273,1.267578-4.537598,0.015625     c-1.243652-1.260742-1.255371-3.290039,0-4.550781c1.249512-1.244141,3.282227-1.244141,4.531738,0.007812     C97.476562,415.06543,97.484863,417.086914,96.227051,418.339844z" fill="#808080"/><path d="M94.999512,414.152344c1.255371,1.251953,1.265137,3.27832,0.011719,4.53125     c-0.25293,0.25-0.549805,0.423828-0.858398,0.564453c0.751465-0.040039,1.499023-0.331055,2.074219-0.908203     c1.257812-1.25293,1.249512-3.274414-0.005859-4.527344c-0.998535-1.000977-2.487305-1.15918-3.685547-0.561523     C93.421387,413.195312,94.321289,413.476562,94.999512,414.152344z" fill="#B9BABF"/><path d="M85.708496,407.80957c-1.706543,1.738281-4.466309,1.729492-6.166992,0.029297     c-1.696289-1.72168-1.706543-4.486328-0.003906-6.186523c1.700195-1.696289,4.468262-1.696289,6.163086,0     C87.402832,403.352539,87.410645,406.125,85.708496,407.80957z" fill="#F1F1F2" opacity="0.05"/><path d="M84.889648,407.00293c-1.255371,1.275391-3.283691,1.267578-4.537598,0.007812     c-1.249512-1.253906-1.257324-3.282227-0.003906-4.541992c1.253418-1.250977,3.286133-1.245117,4.533691,0.005859     C86.135742,403.728516,86.143555,405.749023,84.889648,407.00293z" fill="#808080"/><path d="M83.658203,402.813477c1.255371,1.25293,1.26709,3.280273,0.015625,4.525391     c-0.256836,0.256836-0.553711,0.430664-0.85791,0.569336c0.750977-0.037109,1.494629-0.326172,2.07373-0.905273     c1.253906-1.253906,1.246094-3.274414-0.007812-4.52832c-0.998535-1-2.489258-1.166016-3.683594-0.561523     C82.083984,401.856445,82.983887,402.130859,83.658203,402.813477z" fill="#B9BABF"/><path d="M72.022461,455.507812c-1.706543,1.737305-4.466797,1.737305-6.165039,0.039062     c-1.69873-1.723633-1.708496-4.488281-0.005859-6.186523c1.700195-1.698242,4.468262-1.698242,6.162598-0.007812     C73.716797,451.058594,73.724609,453.823242,72.022461,455.507812z" fill="#F1F1F2" opacity="0.05"/><path d="M71.203613,454.701172c-1.255371,1.277344-3.280273,1.266602-4.535645,0.015625     c-1.251465-1.259766-1.257324-3.290039,0-4.541992c1.247559-1.25293,3.280273-1.245117,4.527832,0     C72.447266,451.426758,72.460938,453.455078,71.203613,454.701172z" fill="#808080"/><path d="M69.975586,450.512695c1.257812,1.257812,1.265625,3.27832,0.012207,4.532227     c-0.255371,0.250977-0.553711,0.422852-0.858398,0.571289c0.751465-0.047852,1.495117-0.330078,2.074219-0.915039     c1.257324-1.246094,1.243652-3.274414-0.007812-4.526367c-0.998535-1.001953-2.489258-1.160156-3.683594-0.563477     C68.397949,449.556641,69.297852,449.838867,69.975586,450.512695z" fill="#B9BABF"/><path d="M60.685059,444.169922c-1.706543,1.738281-4.466797,1.730469-6.166992,0.032227     c-1.698242-1.716797-1.706543-4.480469-0.007812-6.178711c1.704102-1.707031,4.472168-1.707031,6.166992-0.007812     C62.379395,439.723633,62.387207,442.485352,60.685059,444.169922z" fill="#F1F1F2" opacity="0.05"/><path d="M59.866211,443.363281c-1.255371,1.275391-3.28418,1.267578-4.537598,0.015625     c-1.249512-1.260742-1.259277-3.290039-0.003906-4.542969c1.253418-1.251953,3.286133-1.251953,4.533691,0     C61.109863,440.088867,61.118164,442.110352,59.866211,443.363281z" fill="#808080"/><path d="M58.634766,439.173828c1.255371,1.259766,1.265137,3.280273,0.013672,4.53418     c-0.25293,0.250977-0.551758,0.422852-0.855957,0.571289c0.750977-0.047852,1.494629-0.328125,2.07373-0.916016     c1.251953-1.25293,1.243652-3.274414-0.007812-4.527344c-1.002441-1.000977-2.489258-1.15918-3.683594-0.561523     C57.060547,438.21875,57.960449,438.5,58.634766,439.173828z" fill="#B9BABF"/><path d="M49.347656,432.833008c-1.706055,1.738281-4.466309,1.729492-6.170898,0.03125     c-1.698242-1.723633-1.700195-4.479492-0.001953-6.186523c1.698242-1.698242,4.466797-1.698242,6.165039,0.001953     C51.041992,428.384766,51.050293,431.148438,49.347656,432.833008z" fill="#F1F1F2" opacity="0.05"/><path d="M48.529297,432.026367c-1.255859,1.275391-3.28418,1.267578-4.538086,0.015625     c-1.249512-1.261719-1.26123-3.290039-0.003906-4.549805c1.253906-1.245117,3.286133-1.245117,4.529785,0.007812     C49.772949,428.751953,49.780762,430.774414,48.529297,432.026367z" fill="#808080"/><path d="M47.297363,427.836914c1.255371,1.25293,1.263184,3.280273,0.009766,4.533203     c-0.254883,0.250977-0.547363,0.422852-0.855957,0.563477c0.755371-0.037109,1.498535-0.330078,2.078125-0.907227     c1.251465-1.251953,1.243652-3.274414-0.012207-4.526367c-0.998535-1.001953-2.485352-1.160156-3.683105-0.56543     C45.723633,426.881836,46.619141,427.162109,47.297363,427.836914z" fill="#B9BABF"/><path d="M76.211914,439.988281c-1.712402,1.730469-4.470215,1.730469-6.168945,0.030273     c-1.700195-1.720703-1.704102-4.484375-0.005859-6.185547c1.698242-1.698242,4.466309-1.698242,6.166992,0     C77.904297,435.53418,77.914062,438.297852,76.211914,439.988281z" fill="#F1F1F2" opacity="0.05"/><path d="M75.389648,439.173828c-1.257812,1.285156-3.280273,1.267578-4.536133,0.015625     c-1.249512-1.259766-1.257324-3.288086,0-4.541016c1.246094-1.251953,3.27832-1.244141,4.527832,0     C76.63916,435.901367,76.646973,437.929688,75.389648,439.173828z" fill="#808080"/><path d="M74.159668,434.984375c1.257324,1.261719,1.265137,3.282227,0.011719,4.533203     c-0.254883,0.259766-0.553711,0.423828-0.85791,0.571289c0.750977-0.044922,1.498535-0.328125,2.076172-0.915039     c1.257324-1.244141,1.249512-3.272461-0.008301-4.525391c-0.998535-0.995117-2.485352-1.15918-3.685547-0.553711     C72.582031,434.029297,73.483398,434.311523,74.159668,434.984375z" fill="#B9BABF"/><path d="M64.870605,428.643555c-1.708008,1.737305-4.466309,1.737305-6.166992,0.037109     c-1.698242-1.719727-1.706055-4.484375-0.007812-6.18457c1.702637-1.698242,4.470703-1.698242,6.166992-0.007812     C66.567383,424.196289,66.571289,426.960938,64.870605,428.643555z" fill="#F1F1F2" opacity="0.05"/><path d="M64.052246,427.836914c-1.257812,1.283203-3.28418,1.266602-4.537598,0.015625     c-1.25-1.261719-1.261719-3.288086-0.001953-4.541992c1.249512-1.250977,3.281738-1.243164,4.531738,0     C65.297852,424.564453,65.303711,426.59082,64.052246,427.836914z" fill="#808080"/><path d="M62.818359,423.646484c1.257324,1.261719,1.269531,3.282227,0.015625,4.53418     c-0.254883,0.258789-0.553223,0.422852-0.85791,0.571289c0.751465-0.044922,1.494629-0.328125,2.076172-0.915039     c1.251465-1.246094,1.245605-3.272461-0.007812-4.526367c-0.998535-0.994141-2.489746-1.158203-3.685547-0.563477     C61.244629,422.691406,62.145996,422.972656,62.818359,423.646484z" fill="#B9BABF"/></g></g><linearGradient gradientUnits="userSpaceOnUse" id="SVGID_7_" x1="437.978516" x2="463.792358" y1="200.44873" y2="223.731796"><stop offset="0" style="stop-color:#1A1A1A"/><stop offset="0.448485" style="stop-color:#333333"/><stop offset="0.551515" style="stop-color:#404040"/><stop offset="1" style="stop-color:#4D4D4D"/></linearGradient><path d="M464.163086,225.333496c-17.6875,17.684082-37.886719,26.150391-45.103516,18.931641   c-7.236328-7.234375,1.233398-27.421387,18.921875-45.103516c17.679688-17.698242,37.871094-26.148926,45.095703-18.916016   C490.301758,187.456543,481.847656,207.661133,464.163086,225.333496z" fill="url(#SVGID_7_)"/><linearGradient gradientTransform="matrix(0.7071 0.7071 -0.7071 0.7071 319.420898 186.075195)" gradientUnits="userSpaceOnUse" id="SVGID_8_" x1="138.144531" x2="138.144531" y1="-118.55127" y2="-32.100586"><stop offset="0.072727" style="stop-color:#45474D"/><stop offset="0.169697" style="stop-color:#B4B4B4"/><stop offset="0.248485" style="stop-color:#FFFFFE"/><stop offset="0.454545" style="stop-color:#F2F2F3"/><stop offset="0.527273" style="stop-color:#C5C5C5"/><stop offset="0.575758" style="stop-color:#AEAEAE"/><stop offset="0.606061" style="stop-color:#808080"/><stop offset="0.751515" style="stop-color:#4D4D4D"/><stop offset="0.830303" style="stop-color:#9A9CA6"/><stop offset="0.854545" style="stop-color:#CCCCCC"/><stop offset="0.921212" style="stop-color:#D9D9D9"/><stop offset="1" style="stop-color:#5F5F5F"/></linearGradient><path d="M507.539062,204.699707l-24.461914-24.454102   c7.224609,7.210938-1.229492,27.415527-18.914062,45.087891c-17.6875,17.684082-37.886719,26.150391-45.103516,18.931641   l24.461914,24.452637c7.220703,7.216797,27.423828-1.240234,45.087891-18.930176   C506.30957,232.115234,514.767578,211.92627,507.539062,204.699707z" fill="url(#SVGID_8_)"/><path d="M465.527344,226.705566c17.68457-17.691895,26.146484-37.871094,18.921875-45.105469   l-1.37207-1.354492c7.224609,7.210938-1.229492,27.415527-18.914062,45.087891   c-17.6875,17.684082-37.886719,26.150391-45.103516,18.931641l1.368164,1.362305   C427.652344,252.844238,447.851562,244.395996,465.527344,226.705566z" fill="#7F7F80" opacity="0.5"/><path d="M488.744141,250.701172c17.675781-17.684082,26.138672-37.879395,18.914062-45.105957   l-1.375977-1.370117c7.232422,7.228516-1.226562,27.415527-18.914062,45.11377   c-17.68457,17.681641-37.871094,26.132812-45.100586,18.904297l1.368164,1.379883   C450.865234,276.839844,471.047852,268.380859,488.744141,250.701172z" fill="#7F7F80" opacity="0.3"/><linearGradient gradientTransform="matrix(0.7071 0.7071 -0.7071 0.7071 319.420898 186.075195)" gradientUnits="userSpaceOnUse" id="SVGID_9_" x1="92.12793" x2="92.12793" y1="-107.508789" y2="-38.832703"><stop offset="0" style="stop-color:#999999"/><stop offset="1" style="stop-color:#4D4D4D"/></linearGradient><path d="M461.193359,220.366699c14.338867-14.789062,20.282227-32.117676,14.291992-38.128418   c-35.950195-0.009766-42.913086-24.849121-42.913086-24.849121l-7.648438,7.639648l-10.538086,10.532715l-18.19043,18.192383   c0,0,24.865234,7.833496,24.869141,42.907227c6.006836,5.996582,23.342773,0.041504,38.112305-14.271484   c0.051758-0.033691,0.557617-0.500488,1.043945-0.990723C460.703125,220.908691,461.169922,220.408203,461.193359,220.366699z" fill="url(#SVGID_9_)"/><linearGradient gradientTransform="matrix(0.7071 0.7071 -0.7071 0.7071 319.420898 186.075195)" gradientUnits="userSpaceOnUse" id="SVGID_10_" x1="92.128906" x2="92.128906" y1="-111.276367" y2="-35.655205"><stop offset="0.121212" style="stop-color:#C5C5C5"/><stop offset="0.2" style="stop-color:#EAEAEA"/><stop offset="0.454545" style="stop-color:#F3F3F3"/><stop offset="0.527273" style="stop-color:#C5C5C5"/><stop offset="0.575758" style="stop-color:#AEAEAE"/><stop offset="0.606061" style="stop-color:#999999"/><stop offset="0.830303" style="stop-color:#D9D9D9"/><stop offset="0.854545" style="stop-color:#CCCCCC"/><stop offset="0.921212" style="stop-color:#D9D9D9"/><stop offset="1" style="stop-color:#4F4F5F"/></linearGradient><path d="M461.162109,220.398438c13.749023-14.208008,19.242188-31.07373,13.24707-37.076172   c-35.241211-0.723633-42.573242-25.209473-42.573242-25.209473l-7.334961,7.339355l-10.115234,10.109375l-17.455078,17.458496   c0,0,24.513672,8.171875,25.225586,42.547363c5.994141,6.00293,22.87207,0.516113,37.060547-13.229004   c0.050781-0.025879,0.537109-0.457031,1.003906-0.939453C460.6875,220.924316,461.134766,220.449707,461.162109,220.398438z" fill="url(#SVGID_10_)"/><radialGradient cx="109.182129" cy="-93.384766" gradientTransform="matrix(0.701203 0.712945 -0.5323 0.522794 327.457062 177.15657)" gradientUnits="userSpaceOnUse" id="SVGID_11_" r="32.661331"><stop offset="0.363636" style="stop-color:#FFFFFF"/><stop offset="0.69697" style="stop-color:#CCCCCC"/><stop offset="1" style="stop-color:#808080"/></radialGradient><path d="M461.162109,220.398438c13.749023-14.208008,19.242188-31.07373,13.24707-37.076172   c-35.241211-0.723633-42.573242-25.209473-42.573242-25.209473l-7.334961,7.339355l-10.115234,10.109375l-17.455078,17.458496   c0,0,24.513672,8.171875,25.225586,42.547363c5.994141,6.00293,22.87207,0.516113,37.060547-13.229004   c0.050781-0.025879,0.537109-0.457031,1.003906-0.939453C460.6875,220.924316,461.134766,220.449707,461.162109,220.398438z" fill="url(#SVGID_11_)" opacity="0.5"/><linearGradient gradientTransform="matrix(0.7071 0.7071 -0.6788 0.6788 313.132324 192.363281)" gradientUnits="userSpaceOnUse" id="SVGID_12_" x1="59.716309" x2="77.975365" y1="-86.96875" y2="-86.96875"><stop offset="0.187879" style="stop-color:#808080"/><stop offset="1" style="stop-color:#FFFFFF"/></linearGradient><path d="M461.162109,220.398438c13.749023-14.208008,19.242188-31.07373,13.24707-37.076172   c-35.241211-0.723633-42.573242-25.209473-42.573242-25.209473l-7.334961,7.339355l-10.115234,10.109375l-17.455078,17.458496   c0,0,24.513672,8.171875,25.225586,42.547363c5.994141,6.00293,22.87207,0.516113,37.060547-13.229004   c0.050781-0.025879,0.537109-0.457031,1.003906-0.939453C460.6875,220.924316,461.134766,220.449707,461.162109,220.398438z" fill="url(#SVGID_12_)" opacity="0.7"/><radialGradient cx="84.203613" cy="-109.163086" gradientTransform="matrix(0.857759 0.514033 -0.220449 0.367859 359.859192 165.29953)" gradientUnits="userSpaceOnUse" id="SVGID_13_" r="49.34745"><stop offset="0.630303" style="stop-color:#1A1A1A"/><stop offset="0.848485" style="stop-color:#808080;stop-opacity:0.8"/><stop offset="1" style="stop-color:#808080;stop-opacity:0"/></radialGradient><path d="M461.193359,220.366699   c14.338867-14.789062,20.282227-32.117676,14.291992-38.128418c-35.950195-0.009766-42.913086-24.849121-42.913086-24.849121   l-7.648438,7.639648l-10.538086,10.532715l-18.19043,18.192383c0,0,24.865234,7.833496,24.869141,42.907227   c6.006836,5.996582,23.342773,0.041504,38.112305-14.271484c0.051758-0.033691,0.557617-0.500488,1.043945-0.990723   C460.703125,220.908691,461.169922,220.408203,461.193359,220.366699z" fill="url(#SVGID_13_)" opacity="0.6"/><radialGradient cx="88.532715" cy="-58.866699" gradientTransform="matrix(0.644437 0.764245 -0.148274 0.123218 349.910339 154.598831)" gradientUnits="userSpaceOnUse" id="SVGID_14_" r="77.22139"><stop offset="0.10303" style="stop-color:#FFFFFF"/><stop offset="0.545455" style="stop-color:#FFFFFF;stop-opacity:0.5"/><stop offset="1" style="stop-color:#000000;stop-opacity:0"/></radialGradient><path d="M461.162109,220.398438c13.749023-14.208008,19.242188-31.07373,13.24707-37.076172   c-35.241211-0.723633-42.573242-25.209473-42.573242-25.209473l-7.334961,7.339355l-10.115234,10.109375l-17.455078,17.458496   c0,0,24.513672,8.171875,25.225586,42.547363c5.994141,6.00293,22.87207,0.516113,37.060547-13.229004   c0.050781-0.025879,0.537109-0.457031,1.003906-0.939453C460.6875,220.924316,461.134766,220.449707,461.162109,220.398438z" fill="url(#SVGID_14_)" opacity="0.5"/><radialGradient cx="89.488281" cy="-50.335938" gradientTransform="matrix(0.689169 0.724588 -0.267585 0.254505 343.148956 161.728455)" gradientUnits="userSpaceOnUse" id="SVGID_15_" r="65.330566"><stop offset="0" style="stop-color:#0D141A;stop-opacity:0.5"/><stop offset="0.278788" style="stop-color:#0D141A;stop-opacity:0.933036"/><stop offset="0.678788" style="stop-color:#0D141A"/><stop offset="0.848485" style="stop-color:#737B80;stop-opacity:0.8"/><stop offset="1" style="stop-color:#808080;stop-opacity:0"/></radialGradient><path d="M461.193359,220.366699   c14.338867-14.789062,20.282227-32.117676,14.291992-38.128418c-35.950195-0.009766-42.913086-24.849121-42.913086-24.849121   l-7.648438,7.639648l-10.538086,10.532715l-18.19043,18.192383c0,0,24.865234,7.833496,24.869141,42.907227   c6.006836,5.996582,23.342773,0.041504,38.112305-14.271484c0.051758-0.033691,0.557617-0.500488,1.043945-0.990723   C460.703125,220.908691,461.169922,220.408203,461.193359,220.366699z" fill="url(#SVGID_15_)" opacity="0.3"/><linearGradient gradientTransform="matrix(0.7071 0.7071 -0.7071 0.7071 319.420898 186.075195)" gradientUnits="userSpaceOnUse" id="SVGID_16_" x1="157.665527" x2="157.665527" y1="-118.557129" y2="-32.098984"><stop offset="0.072727" style="stop-color:#353946"/><stop offset="0.175758" style="stop-color:#777B80"/><stop offset="0.606061" style="stop-color:#3E3F4D"/><stop offset="0.757576" style="stop-color:#494B5C"/><stop offset="0.848485" style="stop-color:#626980"/><stop offset="1" style="stop-color:#4F4F5F"/></linearGradient><path d="M509.097656,206.249512c-0.273438-0.264648-0.688477-0.361816-0.993164-0.612793   c5.896484,7.865234-2.435547,27.115234-19.495117,44.150879c-17.042969,17.068848-36.317383,25.38916-44.154297,19.499512   c0.233398,0.308594,0.347656,0.713867,0.612305,0.988281c7.691406,7.691406,28.258789-0.411133,45.946289-18.095215   C508.686523,234.515625,516.78125,213.94873,509.097656,206.249512z" fill="url(#SVGID_16_)"/><g><linearGradient gradientTransform="matrix(0.7071 0.7071 -0.7071 0.7071 319.420898 186.075195)" gradientUnits="userSpaceOnUse" id="SVGID_17_" x1="-28.770996" x2="15.70752" y1="67.716797" y2="67.716797"><stop offset="0" style="stop-color:#E4E4E6"/><stop offset="0.09697" style="stop-color:#666666"/><stop offset="0.127273" style="stop-color:#808080"/><stop offset="0.2" style="stop-color:#999999"/><stop offset="0.824242" style="stop-color:#999999"/><stop offset="0.848485" style="stop-color:#808080"/><stop offset="1" style="stop-color:#313133"/></linearGradient><polygon fill="url(#SVGID_17_)" points="215.153809,249.655273 246.597168,281.106445 318.689453,209.019531     287.239258,177.568359   "/><linearGradient gradientTransform="matrix(0.7071 0.7071 -0.7071 0.7071 319.420898 186.075195)" gradientUnits="userSpaceOnUse" id="SVGID_18_" x1="-6.531738" x2="-6.531741" y1="14.293457" y2="70.592285"><stop offset="0" style="stop-color:#FFFFFF;stop-opacity:0.8"/><stop offset="1" style="stop-color:#FBFEFF;stop-opacity:0"/></linearGradient><polygon fill="url(#SVGID_18_)" opacity="0.6" points="215.153809,249.655273 246.597168,281.106445 318.689453,209.019531     287.239258,177.568359   "/><linearGradient gradientTransform="matrix(0.7071 0.7071 -0.7071 0.7071 319.420898 186.075195)" gradientUnits="userSpaceOnUse" id="SVGID_19_" x1="-6.531738" x2="-6.531739" y1="17.558105" y2="33.873123"><stop offset="0" style="stop-color:#000000"/><stop offset="0.448485" style="stop-color:#FFFFFF;stop-opacity:0"/></linearGradient><polygon fill="url(#SVGID_19_)" opacity="0.6" points="215.153809,249.655273 246.597168,281.106445 318.689453,209.019531     287.239258,177.568359   "/><linearGradient gradientTransform="matrix(0.7071 0.7071 -0.7071 0.7071 -1075.001953 -158.881836)" gradientUnits="userSpaceOnUse" id="SVGID_20_" x1="1223.407227" x2="1223.407227" y1="-623.25293" y2="-724.978455"><stop offset="0" style="stop-color:#FFFFFF;stop-opacity:0"/><stop offset="0.787879" style="stop-color:#FFFFFF"/><stop offset="0.890909" style="stop-color:#4D4D4D"/></linearGradient><polygon fill="url(#SVGID_20_)" opacity="0.5" points="287.239258,177.568359 318.689453,209.019531 246.597168,281.106445     215.153809,249.655273   "/><linearGradient gradientTransform="matrix(0.7071 0.7071 -0.7071 0.7071 319.420898 186.075195)" gradientUnits="userSpaceOnUse" id="SVGID_21_" x1="-37.384277" x2="-26.762325" y1="65.305664" y2="64.32579"><stop offset="0" style="stop-color:#262626"/><stop offset="1" style="stop-color:#3C3D40"/></linearGradient><polygon fill="url(#SVGID_21_)" points="215.153809,249.655273 287.239258,177.568359 286.021484,168.265625     213.781738,240.494629   "/></g><polygon fill="#D0D2D3" opacity="0.2" points="423.808594,143.429199 425.691406,145.486328 381.698242,189.471191    379.729492,187.507812  "/><polygon fill="#D0D2D3" opacity="0.2" points="320.646484,216.586426 283.016602,178.948242 281.375,181.755859    318.423828,218.806641  "/><g><linearGradient gradientTransform="matrix(0.7071 0.7071 -0.7071 0.7071 319.420898 186.075195)" gradientUnits="userSpaceOnUse" id="SVGID_22_" x1="-194.816895" x2="53.435059" y1="-74.616211" y2="-74.616211"><stop offset="0.169697" style="stop-color:#999999"/><stop offset="0.721212" style="stop-color:#333333"/><stop offset="1" style="stop-color:#333333"/></linearGradient><path d="M444.818359,136.245117c-2.423828-6.588379-33.236328-52.157715-66.208008-74.87793    c-34.727539-23.934082-96.459961-54.812012-139.682617-45.526855c-43.217773,9.26709-39.350098,16.201172-39.350098,16.201172    s3.908691,14.950684,8.877441,19.463379c9.354004-10.773438,36.196777-19.024414,67.545898-14.374023    c44.487305,6.597656,75.980469,24.235352,99.144531,39.291016C392.133789,87.463379,431.626953,124.127441,444.818359,136.245117z    " fill="url(#SVGID_22_)"/><linearGradient gradientTransform="matrix(0.7071 0.7071 -0.7071 0.7071 319.420898 186.075195)" gradientUnits="userSpaceOnUse" id="SVGID_23_" x1="-145.538086" x2="-176.617142" y1="-90.092773" y2="-19.35511"><stop offset="0" style="stop-color:#000000;stop-opacity:0"/><stop offset="0.236364" style="stop-color:#FFFFFF;stop-opacity:0.5"/><stop offset="0.769697" style="stop-color:#FFFFFF"/><stop offset="1" style="stop-color:#FFFFFF;stop-opacity:0"/></linearGradient><path d="M276.000977,37.130859c4.117188,0.612793,8.003906,1.403809,11.899414,2.186523    l-8.123047-22.546875c-14.405273-2.875977-28.40918-3.591797-40.849609-0.930176    c-43.217773,9.26709-39.350098,16.201172-39.350098,16.201172s3.908691,14.950684,8.877441,19.463379    C217.809082,40.731445,244.651855,32.480469,276.000977,37.130859z" fill="url(#SVGID_23_)" opacity="0.8"/><linearGradient gradientTransform="matrix(0.7071 0.7071 -0.7071 0.7071 319.420898 186.075195)" gradientUnits="userSpaceOnUse" id="SVGID_24_" x1="-179.289062" x2="-148.752502" y1="-18.666016" y2="-80.273018"><stop offset="0" style="stop-color:#606366"/><stop offset="0.163636" style="stop-color:#19191A;stop-opacity:0.776316"/><stop offset="0.460606" style="stop-color:#FFFFFF;stop-opacity:0"/></linearGradient><path d="M276.000977,37.130859c4.117188,0.612793,8.003906,1.403809,11.899414,2.186523    l-8.123047-22.546875c-14.405273-2.875977-28.40918-3.591797-40.849609-0.930176    c-43.217773,9.26709-39.350098,16.201172-39.350098,16.201172s3.908691,14.950684,8.877441,19.463379    C217.809082,40.731445,244.651855,32.480469,276.000977,37.130859z" fill="url(#SVGID_24_)"/><linearGradient gradientTransform="matrix(0.7071 0.7071 -0.7071 0.7071 319.420898 186.075195)" gradientUnits="userSpaceOnUse" id="SVGID_25_" x1="-187.45166" x2="-25.700195" y1="-73.61084" y2="-73.61084"><stop offset="0" style="stop-color:#303133"/><stop offset="1" style="stop-color:#606266;stop-opacity:0"/></linearGradient><path d="M380.804688,70.168945c-34.723633-23.934082-90.899414-49.763184-126.628906-48.515625    c-28.287598,0.991699-48.279297,13.194824-52.514648,17.087891c0.490723,1.429688-0.064941-0.024902,0.585449,1.603516    c3.907227-3.22168,18.694336-11.636719,41.499512-14.168457c43.924805-4.875,101.970703,22.745605,136.707031,46.671387    C388.124023,78.135742,399.402344,82.967285,380.804688,70.168945z" fill="url(#SVGID_25_)"/><linearGradient gradientTransform="matrix(0.7071 0.7071 -0.7071 0.7071 319.420898 186.075195)" gradientUnits="userSpaceOnUse" id="SVGID_26_" x1="66.862305" x2="-130.723282" y1="-28.647461" y2="-73.682541"><stop offset="0" style="stop-color:#737373"/><stop offset="0.248485" style="stop-color:#999999"/><stop offset="0.315152" style="stop-color:#A6A6A6"/><stop offset="0.672727" style="stop-color:#D9D9D9"/><stop offset="1" style="stop-color:#CCCCCC"/></linearGradient><path d="M225.557617,54.52832l-0.007812-0.008301    c13.717773,2.308594,33.744141,7.398926,48.110352,17.655762c21.602539,15.434082,39.350586,37.810059,27.004883,59.418945    c-12.349609,21.600586-21.607422,32.417969-21.607422,32.417969l2.317383,17.743164l37.048828,37.050781    c0,0,31.927734-20.859375,53.080078-19.14502c10.020508,0.810547,22.663086,2.281738,22.663086,2.281738l43.996094-43.984863    C438.163086,157.958496,320.90332,26.889648,225.557617,54.52832z" fill="url(#SVGID_26_)"/><radialGradient cx="-5.006836" cy="-31.438965" gradientTransform="matrix(0.78315 0.621817 -0.305999 0.385392 332.411865 175.534027)" gradientUnits="userSpaceOnUse" id="SVGID_27_" r="154.121353"><stop offset="0.890909" style="stop-color:#FFFFFF"/><stop offset="1" style="stop-color:#BDBFCC"/></radialGradient><path d="M225.557617,54.52832l-0.007812-0.008301    c13.717773,2.308594,33.744141,7.398926,48.110352,17.655762c21.602539,15.434082,39.350586,37.810059,27.004883,59.418945    c-12.349609,21.600586-21.607422,32.417969-21.607422,32.417969l2.317383,17.743164l37.048828,37.050781    c0,0,29.851562-20.343262,53.080078-19.14502c10.040039,0.516113,22.663086,2.281738,22.663086,2.281738l43.996094-43.984863    C438.163086,157.958496,320.90332,26.889648,225.557617,54.52832z" fill="url(#SVGID_27_)" opacity="0.3"/><linearGradient gradientTransform="matrix(0.7071 0.7071 -0.7071 0.7071 319.420898 186.075195)" gradientUnits="userSpaceOnUse" id="SVGID_28_" x1="-168.325684" x2="65.289688" y1="-68.230469" y2="-68.230469"><stop offset="0" style="stop-color:#CCCCCC"/><stop offset="0.709091" style="stop-color:#CCCCCC"/><stop offset="1" style="stop-color:#E6E6E6"/></linearGradient><path d="M221.856445,53.959961c1.202148,0.180664,2.390625,0.34375,3.701172,0.568359    c95.345703-27.638672,212.605469,103.430176,212.605469,103.430176s1.545898-2.214355,2.404297-6.847168    c0.162109-0.853027-2.329102-3.461914-2.016602-4.339844C438.550781,146.771484,302.305664,11.293457,221.856445,53.959961z" fill="url(#SVGID_28_)"/><path d="M440.567383,151.111328c0.05957-0.302246-0.241211-0.835449-0.604492-1.438477    c-0.827148,2.901855-1.799805,4.341309-1.799805,4.341309S328.800781,31.964355,236.588867,48.120117    c-5.038086,1.412598-9.971191,3.325684-14.732422,5.839844c1.202148,0.180664,2.390625,0.34375,3.701172,0.568359    c95.345703-27.638672,212.605469,103.430176,212.605469,103.430176S439.708984,155.744141,440.567383,151.111328z" fill="#D0D2D3" opacity="0.5"/><linearGradient gradientTransform="matrix(0.7071 0.7071 -0.7071 0.7071 319.420898 186.075195)" gradientUnits="userSpaceOnUse" id="SVGID_29_" x1="-173.623535" x2="56.445801" y1="-70.123047" y2="-70.123047"><stop offset="0" style="stop-color:#E6E6E6"/><stop offset="0.127273" style="stop-color:#B8B8B8"/><stop offset="0.163636" style="stop-color:#999999"/><stop offset="0.709091" style="stop-color:#808080"/><stop offset="1" style="stop-color:#B3B3B3"/></linearGradient><path d="M438.550781,146.771484c1.400391-3.885254,6.873047-8.097656,6.556641-9.646973    c-0.051758-0.19873-0.169922-0.525879-0.289062-0.886719c-13.210938-12.12793-52.68457-48.774414-69.672852-59.815918    c-23.164062-15.055664-54.657227-32.693359-99.144531-39.291016c-30.97168-4.581055-57.466309,3.419434-67.130859,13.987793    c-0.047363,0.395996-0.102539,0.782715-0.14209,1.162598c0.774902,0.274414,1.510254,0.59375,2.419922,0.59375    c1.674805,0,5.615234,0.36084,10.708496,1.084961C302.305664,11.293457,438.550781,146.771484,438.550781,146.771484z" fill="url(#SVGID_29_)"/><linearGradient gradientTransform="matrix(0.7071 0.7071 -0.7071 0.7071 319.420898 186.075195)" gradientUnits="userSpaceOnUse" id="SVGID_30_" x1="-173.623535" x2="54.953613" y1="-70.123047" y2="-70.123047"><stop offset="0" style="stop-color:#FFFFFF;stop-opacity:0"/><stop offset="0.539394" style="stop-color:#FFFFFF"/></linearGradient><path d="M275.289062,39.843262c44.479492,6.597168,75.980469,24.244629,99.125,39.283203    c17.003906,11.050781,56.472656,47.697266,69.688477,59.823242c0.016602,0.052246,0.016602,0.078125,0.02832,0.130371    c0.640625-0.819336,1.063477-1.516602,0.976562-1.955566c-0.051758-0.19873-0.169922-0.525879-0.289062-0.886719    c-13.210938-12.12793-52.68457-48.774414-69.672852-59.815918c-23.164062-15.055664-54.657227-32.693359-99.144531-39.291016    c-30.97168-4.581055-57.466309,3.419434-67.130859,13.987793c-0.047363,0.395996-0.102539,0.782715-0.14209,1.162598    c0.296387,0.102539,0.640625,0.137207,0.94873,0.241211C220.294434,42.626465,245.645996,35.46875,275.289062,39.843262z" fill="url(#SVGID_30_)" opacity="0.2"/><linearGradient gradientTransform="matrix(0.7071 0.7071 -0.7071 0.7071 319.420898 186.075195)" gradientUnits="userSpaceOnUse" id="SVGID_31_" x1="-71.227051" x2="-100.282364" y1="-57.809082" y2="0.551266"><stop offset="0" style="stop-color:#232326"/><stop offset="0.315152" style="stop-color:#303033"/><stop offset="0.6" style="stop-color:#37373A"/><stop offset="0.672727" style="stop-color:#48484D"/></linearGradient><path d="M305.09375,148.717285c11.589844-17.311523,12.120117-37.319824,0.984375-52.632324    c-27.981445-38.394531-72.864746-41.702148-97.623047-44.580078c0,4.848145,40.117188,2.531738,65.205078,20.670898    c21.53125,15.54541,39.350586,37.810059,27.004883,59.418945c-12.349609,21.600586-21.607422,32.417969-21.607422,32.417969    l2.317383,17.743164C281.375,181.755859,292.072266,168.208496,305.09375,148.717285z" fill="url(#SVGID_31_)"/><linearGradient gradientTransform="matrix(0.7071 0.7071 -0.7071 0.7071 319.420898 186.075195)" gradientUnits="userSpaceOnUse" id="SVGID_32_" x1="-82.324219" x2="-100.511978" y1="-59.260742" y2="-0.545841"><stop offset="0" style="stop-color:#FBFEFF"/><stop offset="1" style="stop-color:#FFFFFF;stop-opacity:0.8"/></linearGradient><path d="M302.602539,96.274902c11.151367,15.29541,10.597656,35.321777-0.976562,52.640137    c-8.9375,13.375488-16.695312,23.831055-20.737305,29.147461l0.486328,3.693359c0,0,10.697266-13.547363,23.71875-33.038574    c11.589844-17.311523,12.120117-37.319824,0.984375-52.632324c-27.981445-38.394531-72.864746-41.702148-97.623047-44.580078    c0,0.206543,0.169922,0.415527,0.335938,0.621094C234.134766,54.984863,275.989258,59.781738,302.602539,96.274902z" fill="url(#SVGID_32_)"/></g><polygon fill="#D0D2D3" opacity="0.2" points="438.163086,154.01416 440.128906,155.985352 394.166992,201.943359    392.197266,199.97998  "/></g></svg>