<?xml version="1.0" ?><svg id="pilers" viewBox="0 0 8.11 28" xmlns="http://www.w3.org/2000/svg"><defs><style>.cls-1{fill:#b2b2b2;}.cls-2{fill:#fbca39;}.cls-3{fill:#6b6b6a;}</style></defs><title/><polygon class="cls-1" points="4.78 10.16 5.76 10.16 5.76 9.28 5.76 9.28 5.53 9.73 4.78 10.16"/><polygon class="cls-1" points="4.58 1.03 4.47 1.21 4.58 1.38 4.47 1.55 4.58 1.73 4.47 1.9 4.54 2.02 4.54 2.14 4.95 2.3 4.84 2.56 5.09 2.82 4.89 3.02 5.1 3.23 4.89 3.44 5.13 3.69 4.54 4.03 4.68 6.42 5.53 6.96 5.79 7.48 5.79 5.71 4.59 0.68 4.47 0.86 4.58 1.03"/><polygon class="cls-2" points="4.53 15.45 5.07 18.63 5.12 22.55 4.51 26.71 5.01 27.55 6.08 27.57 6.5 26.51 7.18 22.39 7.15 18.53 6.58 15.24 4.53 15.45"/><polygon class="cls-3" points="5.93 10.59 4.62 10.59 4.5 15.02 6.5 14.82 6.21 13.12 7.46 11.18 5.93 10.59"/><polygon class="cls-1" points="5.55 8.84 5.55 7.85 5.24 7.22 4.44 6.71 3.69 6.71 3.69 4.04 3.08 3.69 3.33 3.44 3.12 3.23 3.33 3.02 3.13 2.82 3.38 2.56 3.27 2.3 3.67 2.14 3.67 2.02 3.75 1.9 3.64 1.73 3.75 1.55 3.64 1.38 3.75 1.21 3.64 1.03 3.75 0.86 3.63 0.68 3.8 0.47 3.8 0.38 3.65 0.38 2.38 5.71 2.38 7.55 2.61 7.71 2.61 8.84 2.92 9.46 3.82 9.98 4.34 9.98 5.24 9.46 5.55 8.84"/><polygon class="cls-3" points="2.02 10.55 0.63 11.17 1.89 13.12 1.6 14.82 3.6 15.03 3.54 10.55 2.02 10.55"/><polygon class="cls-1" points="2.64 9.73 2.35 9.17 2.19 9.26 2.19 10.13 3.33 10.13 2.64 9.73"/><polygon class="cls-2" points="0.94 18.56 0.93 22.43 1.6 26.51 2.02 27.57 3.09 27.55 3.59 26.71 2.98 22.59 3.02 18.66 3.57 15.45 1.52 15.24 0.94 18.56"/><path d="M18,12.23V10.85H17.76V9.91L18,9.75V7.69L16.64,2H15.17L13.83,7.64V9.75l0.24,0.15v0.83L13.59,11V12.2L11.82,13l1.44,2.23-0.92,5.32,0,3.94L13,28.6,13.55,30l1.61,0,0.7-1.18-0.63-4.24,0-3.85,0.58-3.43-0.07-4.91H16v0L15.9,17.26v0l0.58,3.39,0,3.85-0.63,4.27L16.59,30l1.61,0,0.53-1.36,0.7-4.21,0-3.94-0.92-5.28L19.93,13Zm-0.4-4.52V9.48L17.36,9,16.5,8.42,16.37,6,17,5.69l-0.25-.25,0.21-.2L16.71,5l0.21-.21-0.25-.26,0.11-.27-0.41-.16V4L16.29,3.9l0.11-.17-0.11-.17,0.12-.18L16.29,3.2,16.4,3l-0.11-.18,0.12-.18Zm0,3.57v0.89h-1l0.76-.43,0.23-.45h0Zm-1.34-8.9h0.1l0.07,0.29-0.17-.2V2.38Zm-0.31.3h0v0h0Zm0,0.32,0,0,0,0,0,0Zm0,0.34,0,0,0,0,0,0Zm0,0.38,0,0,0,0,0,0Zm-0.08.4L15.93,4,16,4.13V4.39l0.29,0.11-0.06.14,0.16,0.17L16.17,5l0.21,0.21-0.21.2,0.17,0.17L16,5.82l0.15,2.52H15.89V5.82L15.52,5.6l0.17-.17-0.21-.2L15.69,5l-0.21-.21,0.16-.17-0.06-.14,0.29-.11V4.13ZM14,11.26l0.16-.09,0.28,0.56,0.69,0.4H14V11.26Zm0.83,9.4,0,3.92,0.61,4.12-0.5.85-1.08,0-0.41-1.06-0.68-4.08,0-3.87,0.58-3.32,2,0.21Zm-1.43-3.84,0.3-1.71-1.26-1.95,1.39-.61h1.51L15.42,17ZM15.65,12l-0.9-.52-0.31-.62V9.71L14.2,9.55V7.71l1.27-5.33h0.15V2.47l-0.17.21,0.12,0.19L15.46,3,15.57,3.2l-0.11.17,0.12,0.18-0.11.17L15.58,3.9,15.5,4V4.14l-0.41.16L15.2,4.56l-0.25.26L15.16,5l-0.21.21,0.21,0.2-0.25.25L15.51,6V8.71h0.75l0.8,0.51,0.31,0.63v1l-0.31.62-0.9.52H15.65ZM19,20.53l0,3.87-0.68,4.11-0.41,1.06-1.08,0-0.5-.85,0.61-4.16,0-3.92-0.54-3.18,2-.21ZM18,15.12l0.3,1.71-2,.2,0.11-4.43h1.32l1.53,0.59Z" transform="translate(-11.82 -2)"/><polygon class="cls-1" points="4.42 0.38 4.52 0.38 4.59 0.67 4.42 0.47 4.42 0.38"/></svg>