<?xml version="1.0" ?><svg enable-background="new 0 0 1024 1024" id="Layer_2" version="1.1" viewBox="0 0 1024 1024" xml:space="preserve" xmlns="http://www.w3.org/2000/svg" xmlns:xlink="http://www.w3.org/1999/xlink"><path d="M774,631h-74.563c5.73-3,11.27-7.457,16.562-11.592c22.927-17.913,39.87-39.091,47.711-59.728  c8.039-21.16,6.623-40.851-4.096-56.994c-14.829-22.335-41.452-33.209-74.93-30.637c-26.984,2.071-58.021,13.039-85.149,30.08  c-11.36,7.136-21.62,15.037-30.535,23.423v-41.977c37.988-8.572,72.868-25.709,101.459-50.306  c43.078-37.06,66.802-86.522,66.802-139.276c0-41.7-14.684-81.172-42.544-114.643l16.354-16.354  c11.822-11.822,18.333-27.59,18.333-44.399s-6.511-32.577-18.333-44.399v0c-11.822-11.822-27.59-18.333-44.398-18.333  s-32.576,6.511-44.398,18.333l-0.427,0.426l-90.412,106.252c-4.52,5.311-11.111,8.357-18.086,8.357  c-6.974,0-13.565-3.046-18.085-8.357L405.243,75.083l-0.817-0.886c-11.822-11.822-27.59-18.333-44.398-18.333  c-16.81,0-32.577,6.511-44.399,18.333c-11.822,11.822-18.333,27.59-18.333,44.399s6.511,32.577,18.333,44.398l14.89,14.89  c-28.658,33.784-43.779,73.809-43.779,116.108c0,52.754,23.724,102.217,66.802,139.276c28.591,24.597,63.471,41.734,101.459,50.306  v41.977c-8.915-8.386-19.175-16.281-30.535-23.416c-27.129-17.041-58.165-28.002-85.149-30.073  c-33.493-2.575-60.101,8.314-74.93,30.65c-10.719,16.143-12.135,35.86-4.096,57.02c7.841,20.637,24.784,41.762,47.711,59.675  c5.292,4.135,10.832,8.592,16.562,11.592H250v182h45v163h433V813h46V631z M449,324.878c16.016,0,29,12.984,29,29  c0,16.016-12.984,29-29,29s-29-12.984-29-29C420,337.861,432.984,324.878,449,324.878z M580,324.878c16.016,0,29,12.984,29,29  c0,16.016-12.984,29-29,29s-29-12.984-29-29C551,337.861,563.984,324.878,580,324.878z M623,290.878c0-16.016,12.984-29,29-29  s29,12.984,29,29c0,16.016-12.984,29-29,29S623,306.894,623,290.878z M368,261.878c16.016,0,29,12.984,29,29  c0,16.016-12.984,29-29,29s-29-12.984-29-29C339,274.861,351.984,261.878,368,261.878z M478.013,457.357  c0.279-18.537,15.384-33.48,33.987-33.48s33.708,14.943,33.987,33.48c-11.041,1.653-22.396,2.52-33.987,2.52  S489.054,459.011,478.013,457.357z M655.72,406.161c-7.109-5.285-11.72-13.744-11.72-23.283c0-16.016,12.984-29,29-29  c6.818,0,13.072,2.37,18.022,6.309C682.284,377.177,670.296,392.692,655.72,406.161z M336.841,95.411  c6.156-6.156,14.391-9.546,23.187-9.546c8.61,0,16.684,3.25,22.795,9.163l89.595,105.29c10.229,12.021,25.148,18.916,40.933,18.916  c15.785,0,30.704-6.895,40.934-18.916l89.595-105.29c6.111-5.913,14.185-9.163,22.795-9.163c8.796,0,17.029,3.39,23.186,9.546v0  c6.155,6.155,9.546,14.389,9.546,23.185c0,8.795-3.391,17.03-9.546,23.186L539.02,292.622l-0.749,0.805  c-0.631,0.731-1.149,1.422-1.633,1.905c-6.156,6.156-14.388,9.668-23.247,9.668c-0.024,0-0.049,0-0.072,0c-0.024,0-0.048,0-0.072,0  c-8.797,0-17.027-3.513-23.184-9.668c-0.483-0.483-1.002-1.112-1.633-1.843l-0.36-0.448L336.841,141.797  c-6.155-6.155-9.546-14.397-9.546-23.193C327.295,109.808,330.686,101.566,336.841,95.411z M332.978,360.187  c4.95-3.939,11.204-6.309,18.022-6.309c16.016,0,29,12.984,29,29c0,9.54-4.611,17.998-11.72,23.283  C353.704,392.692,341.716,377.177,332.978,360.187z M288.335,549.077c-4.522-11.901-4.171-21.918,1.043-29.771  c10.96-16.508,31.963-18.536,47.642-17.333c44.842,3.443,97.976,35.735,117.98,70.692v5.431l-92.378-39.3l-11.744,27.605  l113.25,48.18c1.885,0.802,3.882,1.197,5.871,1.197c2.9,0,5.783-0.841,8.275-2.488c4.199-2.777,6.726-7.477,6.726-12.512v-34.841  l0.218-0.101c-0.07-0.152-0.146-0.304-0.218-0.456v-76.893c8.896,0.918,17.907,1.39,27,1.39s18.104-0.472,27-1.39v76.893  c-0.071,0.152-0.147,0.304-0.218,0.456l0.218,0.101v34.841c0,5.047,2.538,9.755,6.753,12.529c2.486,1.637,5.358,2.471,8.248,2.471  c2.011,0,4.029-0.404,5.932-1.223l120.312-51.807l-11.865-27.555L569,577.987v-5.322c20.004-34.957,73.138-67.249,117.98-70.692  c28.411-2.184,41.592,8.221,47.642,17.333c5.214,7.853,5.565,17.869,1.043,29.771c-14.676,38.63-66.23,70.338-109.572,81.798  l0.061,0.125H397.847l0.061-0.125C340.648,615.735,299.443,578.317,288.335,549.077z M698,946h-24V833H350v113h-25V813h373V946z   M744,783h-15.501H717V682H307v101h-11.499H280V661h464V783z"/></svg>