<?xml version="1.0" ?><svg enable-background="new 0 0 1024 1024" id="Layer_2" version="1.1" viewBox="0 0 1024 1024" xml:space="preserve" xmlns="http://www.w3.org/2000/svg" xmlns:xlink="http://www.w3.org/1999/xlink"><g><path d="M446,719.666c0-11.413-9.252-20.666-20.666-20.666h-3.668C410.252,699,401,708.252,401,719.666v87.668   c0,11.413,9.252,20.666,20.666,20.666h3.668c11.413,0,20.666-9.252,20.666-20.666V719.666z"/><path d="M623,719.666c0-11.413-9.252-20.666-20.666-20.666h-3.668C587.252,699,578,708.252,578,719.666v87.668   c0,11.413,9.252,20.666,20.666,20.666h3.668c11.413,0,20.666-9.252,20.666-20.666V719.666z"/><path d="M913.522,366.673c-22.051-48.06-54.255-94.309-93.129-133.748c-40.853-41.445-87.338-74.315-138.167-97.697   c-54.86-25.236-112.076-38.032-170.059-38.032c-57.982,0-115.199,12.796-170.059,38.032   c-50.829,23.382-97.315,56.252-138.167,97.697c-38.874,39.439-71.078,85.688-93.129,133.748   C88.285,415.77,76.378,466.786,76.378,514.207c0,58.681,17.744,110.203,52.739,153.138c29.741,36.489,71.441,66.135,124.074,88.263   c-0.34,29.043,6.09,66.311,32.854,100.121c41.011,51.807,116.125,78.075,223.253,78.075c109.184,0,185.532-26.51,226.919-78.794   c26.288-33.209,32.871-69.752,32.72-98.471c53.716-22.24,96.181-52.235,126.341-89.268c34.955-42.92,52.679-94.418,52.679-153.063   C947.957,466.786,936.05,415.77,913.522,366.673z M917.957,514.207c0,13.671-1.098,26.885-3.262,39.627   c-65.917-29.97-111.757-96.382-111.757-173.513c0-34.275,9.064-66.426,24.907-94.212   C884.818,355.951,917.957,438.763,917.957,514.207z M511.932,189.798c105.223,0,190.523,85.3,190.523,190.523   s-85.3,190.523-190.523,190.523s-190.523-85.3-190.523-190.523S406.709,189.798,511.932,189.798z M197.863,284.435   c16.441,28.165,25.873,60.921,25.873,95.886c0,77.976-46.85,144.997-113.931,174.484c-2.276-13.041-3.428-26.58-3.428-40.598   C106.378,438.159,140.05,354.626,197.863,284.435z M712.695,836.39c-15.888,20.071-38.958,35.923-68.569,47.115   c-35.635,13.47-80.997,20.299-134.828,20.299c-52.693,0-97.153-6.748-132.145-20.056c-29.113-11.072-51.853-26.765-67.586-46.64   c-34.365-43.412-27.054-94.834-22.316-114.928c5.813-24.65,31.835-42.729,77.344-53.73c36.357-8.79,82.902-12.884,146.479-12.884   c63.577,0,110.121,4.094,146.478,12.884c45.509,11.002,71.531,29.08,77.345,53.731C739.604,742.142,746.863,793.228,712.695,836.39   z"/></g></svg>