<?xml version="1.0" ?><svg style="enable-background:new 0 0 100 100;" version="1.1" viewBox="0 0 100 100" xml:space="preserve" xmlns="http://www.w3.org/2000/svg" xmlns:xlink="http://www.w3.org/1999/xlink"><g id="blue"><g id="Layer_11"><path d="M77.06,48.554l-5.96-22.242c-0.24-0.897-1.361-1.197-2.018-0.541l-3.587,3.587    c-4.507-3.776-10.312-6.051-16.651-6.051c-14.331,0-25.948,11.617-25.948,25.948c0,14.331,11.617,25.948,25.948,25.948    c14.143,0,25.634-11.316,25.934-25.387l0.804,0.215C76.48,50.272,77.301,49.451,77.06,48.554z M62.997,46.659    c0.154,0.843,0.246,1.708,0.246,2.596c0,7.952-6.446,14.398-14.398,14.398c-7.952,0-14.398-6.446-14.398-14.398    s6.446-14.398,14.398-14.398c3.147,0,6.049,1.021,8.418,2.734l-4.463,4.463c-0.656,0.656-0.356,1.777,0.541,2.018L62.997,46.659z" style="fill:#415C8C;"/><g><path d="M65.243,50.255c0-0.888-0.092-1.753-0.246-2.596l-1.932-0.518     c0.105,0.691,0.178,1.393,0.178,2.114c0,7.952-6.446,14.398-14.398,14.398c-1.9,0-3.709-0.377-5.37-1.046     c2.158,1.29,4.673,2.046,7.37,2.046C58.797,64.653,65.243,58.207,65.243,50.255z" style="opacity:0.6;fill:#FFFFFF;"/><path d="M57.263,37.591l-4.463,4.463c-0.656,0.656-0.356,1.777,0.541,2.018l1.22,0.327     c-0.192-0.431-0.141-0.964,0.239-1.345l4.463-4.463c-0.423-0.337-0.853-0.674-1.29-1.013c-0.431-0.334-0.859-0.661-1.284-0.982     c-0.014,0.04-0.118,0.346,0.064,0.646C56.925,37.524,57.218,37.583,57.263,37.591z" style="opacity:0.6;fill:#FFFFFF;"/><path d="M66.534,31.342c1.022-0.905,4.639-4.639,4.666-4.659l-0.099-0.37     c-0.24-0.897-1.361-1.197-2.018-0.541c-1.367,1.263-2.733,2.525-4.1,3.788c0.279,0.273,0.57,0.579,0.865,0.921     C66.102,30.776,66.33,31.065,66.534,31.342z" style="opacity:0.6;fill:#FFFFFF;"/><path d="M24.897,50.255c0-14.331,11.617-25.948,25.948-25.948     c3.767,0,7.338,0.82,10.568,2.265c-3.725-2.07-8.004-3.265-12.568-3.265c-14.331,0-25.948,11.617-25.948,25.948     c0,10.553,6.303,19.628,15.347,23.682C30.285,68.506,24.897,60.011,24.897,50.255z" style="opacity:0.6;fill:#FFFFFF;"/></g><g><path d="M41.456,62.138c-1.515-1.086-4.987-3.903-6.407-8.761c-0.249-0.852-0.601-2.287-0.601-4.122     c0-7.952,6.446-14.398,14.398-14.398c0.102,0,0.917,0.043,1.995,0.14c1.539,0.139,2.795,0.322,3.643,0.461     c-1.115-0.482-2.752-1.056-4.8-1.317c-2.431-0.31-4.287-0.035-4.715,0.033c-0.372,0.059-3.125,0.518-5.604,2.038     c-3.495,2.143-6.789,6.603-6.917,12.043C32.309,54.106,35.867,59.605,41.456,62.138z"/><path d="M52.562,43.399c0.139,0.312,0.403,0.572,0.78,0.673l7.724,2.07c-0.024-0.16-0.039-0.324-0.068-0.482L52.562,43.399z"/><path d="M63.8,28.055c-1.368-0.967-2.841-1.792-4.387-2.483c1.449,0.805,2.821,1.73,4.083,2.787L63.8,28.055z"/><path d="M77.06,48.554l-5.96-22.242c-0.227-0.847-1.236-1.151-1.901-0.63l5.86,21.872c0.24,0.897-0.58,1.717-1.477,1.477     l-0.804-0.215c-0.3,14.071-11.791,25.387-25.934,25.387c-3.778,0-7.364-0.814-10.601-2.266c3.732,2.078,8.027,3.266,12.601,3.266     c14.143,0,25.634-11.316,25.934-25.387l0.804,0.215C76.48,50.272,77.301,49.451,77.06,48.554z"/></g><path d="M77.544,48.425l-5.96-22.242c-0.16-0.596-0.611-1.047-1.207-1.207c-0.595-0.161-1.212,0.005-1.647,0.442l-3.277,3.277    c-4.69-3.792-10.563-5.888-16.607-5.888c-14.584,0-26.448,11.864-26.448,26.448s11.864,26.448,26.448,26.448    c14.059,0,25.768-11.268,26.404-25.243l0.203,0.055c0.15,0.04,0.301,0.06,0.45,0.06c0.444,0,0.872-0.175,1.198-0.501    C77.538,49.637,77.703,49.021,77.544,48.425z M76.395,49.366c-0.18,0.181-0.436,0.25-0.682,0.183l-22.242-5.959    c-0.246-0.066-0.433-0.252-0.499-0.499s0.002-0.501,0.183-0.682l4.162-4.162l0,0l0.666-0.666c-0.128-0.119-0.24-0.236-0.39-0.356    c-0.13-0.104-0.257-0.199-0.382-0.287l-0.003,0.003c-2.482-1.692-5.364-2.584-8.361-2.584c-8.215,0-14.898,6.683-14.898,14.898    s6.684,14.898,14.898,14.898s14.897-6.683,14.897-14.898c0-0.628-0.043-1.26-0.131-1.913l8.873,2.377l-5.407-1.449l7.189,1.927    C73.77,63.746,62.446,74.703,48.846,74.703c-14.032,0-25.448-11.416-25.448-25.448c0-14.032,11.416-25.448,25.448-25.448    c5.779,0,11.404,1.98,15.903,5.585c0.001-0.001,0.003-0.001,0.004-0.002c0.128,0.112,0.257,0.228,0.387,0.349    c0.123,0.114,0.23,0.225,0.345,0.338l3.952-3.952c0.136-0.135,0.313-0.208,0.496-0.208c0.062,0,0.124,0.008,0.186,0.024    c0.247,0.066,0.434,0.253,0.499,0.5l5.96,22.242C76.644,48.93,76.575,49.186,76.395,49.366z M62.743,49.255    c0,7.664-6.234,13.898-13.897,13.898c-7.664,0-13.898-6.234-13.898-13.898s6.234-13.898,13.898-13.898    c2.73,0,5.354,0.804,7.633,2.312l-4.032,4.032c-0.437,0.436-0.602,1.052-0.441,1.648c0.159,0.596,0.61,1.046,1.206,1.206    l9.336,2.502C62.672,47.815,62.743,48.541,62.743,49.255z"/></g></g></svg>