<?xml version="1.0" ?><svg style="enable-background:new 0 0 100 100;" version="1.1" viewBox="0 0 100 100" xml:space="preserve" xmlns="http://www.w3.org/2000/svg" xmlns:xlink="http://www.w3.org/1999/xlink"><g id="blue"><g id="Layer_6"><path d="M68.751,72.84H31.249c-2.258,0-4.089-1.831-4.089-4.089V31.249c0-2.258,1.831-4.089,4.089-4.089    h37.502c2.258,0,4.089,1.831,4.089,4.089v37.502C72.84,71.009,71.009,72.84,68.751,72.84z" style="fill:#415C8C;"/><path d="M29.16,69.751V32.249c0-2.258,1.831-4.089,4.089-4.089h37.502    c0.254,0,0.501,0.03,0.742,0.075c-0.726-0.661-1.683-1.075-2.742-1.075H31.249c-2.258,0-4.089,1.831-4.089,4.089v37.502    c0,2.004,1.444,3.664,3.346,4.014C29.685,72.017,29.16,70.949,29.16,69.751z" style="opacity:0.6;fill:#FFFFFF;"/><path d="M69.493,27.235c0.821,0.748,1.346,1.815,1.346,3.014v37.502c0,2.258-1.831,4.089-4.089,4.089H29.249    c-0.254,0-0.501-0.03-0.742-0.075c0.726,0.661,1.683,1.075,2.742,1.075h37.502c2.258,0,4.089-1.831,4.089-4.089V31.249    C72.84,29.245,71.396,27.585,69.493,27.235z"/><path d="M68.751,72.84H31.249c-2.258,0-4.089-1.831-4.089-4.089V31.249    c0-2.258,1.831-4.089,4.089-4.089h37.502c2.258,0,4.089,1.831,4.089,4.089v37.502C72.84,71.009,71.009,72.84,68.751,72.84z" style="fill:none;stroke:#000000;stroke-miterlimit:10;"/></g></g></svg>