<?xml version="1.0" ?><svg style="enable-background:new 0 0 100 100;" version="1.1" viewBox="0 0 100 100" xml:space="preserve" xmlns="http://www.w3.org/2000/svg" xmlns:xlink="http://www.w3.org/1999/xlink"><g id="blue"><g id="Layer_2_copy"><defs><path d="M71.893,26.598c-0.811-6.427-5.848-12.63-12.393-13.566c-3.385-0.484-6.222,0.576-7.762,1.311v53.41     c-2.469-1.286-5.5-2.054-8.789-2.054c-8.261,0-14.959,4.788-14.959,10.695S34.687,87.09,42.949,87.09     c8.262,0,14.959-4.788,14.959-10.695c0-0.242,0-31.343,0-46.645c0.859-0.883,1.611-1.133,2.167-1.182     c2.753-0.242,5.987,3.976,7.879,10.637C68.81,38.175,72.731,33.24,71.893,26.598z" id="SVGID_1_"/></defs><clipPath id="SVGID_2_"><use style="overflow:visible;" xlink:href="#SVGID_1_"/></clipPath><path d="M71.893,26.598c-0.811-6.427-5.848-12.63-12.393-13.566    c-3.385-0.484-6.222,0.576-7.762,1.311v53.41c-2.469-1.286-5.5-2.054-8.789-2.054c-8.261,0-14.959,4.788-14.959,10.695    S34.687,87.09,42.949,87.09c8.262,0,14.959-4.788,14.959-10.695c0-0.242,0-31.343,0-46.645c0.859-0.883,1.611-1.133,2.167-1.182    c2.753-0.242,5.987,3.976,7.879,10.637C68.81,38.175,72.731,33.24,71.893,26.598z" style="clip-path:url(#SVGID_2_);fill:#415C8C;"/><g style="opacity:0.6;clip-path:url(#SVGID_2_);"><path d="M29.99,77.395c0-5.906,6.697-10.695,14.959-10.695c3.289,0,6.32,0.768,8.789,2.054v-53.41     c1.54-0.735,4.377-1.796,7.762-1.311c0.99,0.142,1.939,0.416,2.851,0.781c-1.477-0.901-3.108-1.532-4.851-1.781     c-3.385-0.484-6.222,0.576-7.762,1.311v53.41c-2.469-1.286-5.5-2.054-8.789-2.054c-8.261,0-14.959,4.788-14.959,10.695     c0,3.923,2.964,7.344,7.37,9.205C32.08,83.638,29.99,80.692,29.99,77.395z" style="fill:#FFFFFF;"/><path d="M62.766,29.609c1.968,1.623,3.892,5.036,5.188,9.596c0.223-0.268,0.657-0.808,1.158-1.568     C67.374,32.978,64.97,29.985,62.766,29.609z" style="fill:#FFFFFF;"/></g><g style="clip-path:url(#SVGID_2_);"><path d="M58.074,27.568c-0.536,0.085-0.886,0.237-0.97,0.278c-0.365,0.179-0.768,0.462-1.197,0.904c0,15.302,0,46.403,0,46.645     c0,5.906-6.697,10.695-14.959,10.695c-2.774,0-5.362-0.549-7.589-1.49c2.597,1.553,5.939,2.49,9.589,2.49     c8.261,0,14.959-4.788,14.959-10.695c0-0.242,0-31.343,0-46.645c0.285-0.283,1.014-0.93,2.167-1.182     c1.012-0.221,1.841-0.025,2.227,0.092c-0.587-0.385-1.114-0.609-1.484-0.742C60.271,27.723,59.276,27.378,58.074,27.568z"/><path d="M71.893,26.598c-0.688-5.456-4.427-10.736-9.542-12.784c4.072,2.482,6.947,7.068,7.542,11.784     c0.619,4.91-1.36,8.882-2.782,11.038c0.302,0.809,0.585,1.664,0.842,2.568C68.81,38.175,72.731,33.24,71.893,26.598z"/></g><use style="overflow:visible;fill:none;stroke:#000000;stroke-miterlimit:10;" xlink:href="#SVGID_1_"/></g></g></svg>