<?xml version="1.0" ?><svg style="enable-background:new 0 0 100 100;" version="1.1" viewBox="0 0 100 100" xml:space="preserve" xmlns="http://www.w3.org/2000/svg" xmlns:xlink="http://www.w3.org/1999/xlink"><g id="blue"><g id="Layer_8"><path d="M28.713,27.267v8.294c0,0.571,0.305,1.1,0.8,1.385l20.212,11.669c1.066,0.616,1.066,2.155,0,2.771    L29.513,63.055c-0.495,0.286-0.8,0.814-0.8,1.385v8.294c0,1.231,1.333,2.001,2.399,1.385l39.375-22.733    c1.066-0.616,1.066-2.155,0-2.771L31.112,25.881C30.046,25.266,28.713,26.035,28.713,27.267z" style="fill:#415C8C;"/><path d="M51.551,49.086c-1.003-0.57-2.006-1.14-3.009-1.71    c0.486,0.484,0.972,0.968,1.458,1.452c0.772,0.703,0.685,2.002-0.276,2.557L29.513,63.055c-0.495,0.286-0.8,0.814-0.8,1.385v8.294    c0,1.115,1.092,1.84,2.091,1.512c-0.054-0.16-0.091-0.328-0.091-0.512V65.44c0-0.571,0.305-1.1,0.8-1.385l20.212-11.669    c0.112-0.085,0.717-0.56,0.8-1.385C52.599,50.255,52.22,49.514,51.551,49.086z" style="opacity:0.6;fill:#FFFFFF;"/><path d="M31.513,37.946c-0.495-0.286-0.8-0.814-0.8-1.385v-8.294    c0-1.008,0.894-1.693,1.803-1.575l-1.403-0.81c-1.066-0.616-2.399,0.154-2.399,1.385v8.294c0,0.571,0.305,1.1,0.8,1.385    l1.902,1.098c0.048-0.024,0.095-0.048,0.143-0.072L31.513,37.946z" style="opacity:0.6;fill:#FFFFFF;"/><path d="M70.487,48.615L31.112,25.881c-0.193-0.112-0.395-0.164-0.597-0.19l37.972,21.923c1.066,0.616,1.066,2.155,0,2.771    L29.112,73.119c-0.1,0.058-0.205,0.092-0.308,0.126c0.308,0.914,1.401,1.398,2.308,0.874l39.375-22.733    C71.554,50.77,71.554,49.23,70.487,48.615z"/><path d="M28.713,27.267v8.294c0,0.571,0.305,1.1,0.8,1.385l20.212,11.669    c1.066,0.616,1.066,2.155,0,2.771L29.513,63.055c-0.495,0.286-0.8,0.814-0.8,1.385v8.294c0,1.231,1.333,2.001,2.399,1.385    l39.375-22.733c1.066-0.616,1.066-2.155,0-2.771L31.112,25.881C30.046,25.266,28.713,26.035,28.713,27.267z" style="fill:none;stroke:#000000;stroke-miterlimit:10;"/></g></g></svg>