<?xml version="1.0" ?><svg style="enable-background:new 0 0 100 100;" version="1.1" viewBox="0 0 100 100" xml:space="preserve" xmlns="http://www.w3.org/2000/svg" xmlns:xlink="http://www.w3.org/1999/xlink"><g id="blue"><g id="Layer_4"><path d="M31.856,25.677l38.625,22.3c1.557,0.899,1.557,3.147,0,4.046l-38.625,22.3    c-1.557,0.899-3.504-0.225-3.504-2.023V27.7C28.352,25.902,30.298,24.778,31.856,25.677z" style="fill:#415C8C;"/><path d="M30.352,73.3V28.7c0-1.529,1.408-2.558,2.788-2.282l-1.284-0.741    c-1.557-0.899-3.504,0.225-3.504,2.023v44.6c0,1.396,1.173,2.371,2.426,2.324C30.519,74.254,30.352,73.809,30.352,73.3z" style="opacity:0.6;fill:#FFFFFF;"/><path d="M70.48,47.977l-38.625-22.3c-0.233-0.134-0.474-0.21-0.716-0.259L68.48,46.977c1.557,0.899,1.557,3.147,0,4.046    l-38.625,22.3c-0.349,0.201-0.716,0.288-1.078,0.301c0.656,0.938,1.961,1.343,3.078,0.699l38.625-22.3    C72.038,51.124,72.038,48.876,70.48,47.977z"/><path d="M31.856,25.677l38.625,22.3c1.557,0.899,1.557,3.147,0,4.046    l-38.625,22.3c-1.557,0.899-3.504-0.225-3.504-2.023V27.7C28.352,25.902,30.298,24.778,31.856,25.677z" style="fill:none;stroke:#000000;stroke-miterlimit:10;"/></g></g></svg>