<?xml version="1.0" ?><!DOCTYPE svg  PUBLIC '-//W3C//DTD SVG 1.1//EN'  'http://www.w3.org/Graphics/SVG/1.1/DTD/svg11.dtd'><svg enable-background="new 0 0 64 64" height="64px" id="SUNNY" version="1.1" viewBox="0 0 64 64" width="64px" xml:space="preserve" xmlns="http://www.w3.org/2000/svg" xmlns:xlink="http://www.w3.org/1999/xlink"><g><defs><rect height="63.957" id="SVGID_1_" width="63.957" x="0.011" y="0.021"/></defs><clipPath id="SVGID_2_"><use overflow="visible" xlink:href="#SVGID_1_"/></clipPath><path clip-path="url(#SVGID_2_)" d="M31.991,46.59c-8.044,0-14.59-6.545-14.59-14.59   c0-8.044,6.545-14.59,14.59-14.59c8.045,0,14.59,6.545,14.59,14.59C46.581,40.045,40.036,46.59,31.991,46.59z M31.991,19.409   C25.049,19.409,19.4,25.058,19.4,32s5.649,12.591,12.591,12.591S44.582,38.942,44.582,32S38.934,19.409,31.991,19.409z    M46.376,19.026l1.558-1.558c0.391-0.39,0.391-1.023,0-1.413c-0.391-0.391-1.022-0.391-1.413,0l-1.558,1.558   c-0.391,0.39-0.391,1.022,0,1.413c0.195,0.195,0.451,0.292,0.707,0.292C45.925,19.319,46.181,19.222,46.376,19.026z M17.456,47.946   l1.558-1.558c0.39-0.391,0.39-1.022,0-1.413c-0.391-0.391-1.023-0.391-1.413,0l-1.558,1.558c-0.391,0.391-0.391,1.022,0,1.413   c0.195,0.195,0.451,0.293,0.707,0.293S17.261,48.142,17.456,47.946z M32.988,12.653V10.45c0-0.553-0.447-1-1-1s-1,0.447-1,1v2.203   c0,0.552,0.447,0.999,1,0.999S32.988,13.205,32.988,12.653z M32.988,53.552v-2.203c0-0.553-0.447-1-1-1s-1,0.447-1,1v2.203   c0,0.553,0.447,0.999,1,0.999S32.988,54.104,32.988,53.552z M13.639,32.001c0-0.552-0.447-1-0.999-1h-2.203c-0.553,0-1,0.447-1,1   S9.885,33,10.438,33h2.203C13.192,33,13.639,32.553,13.639,32.001z M54.539,32.001c0-0.552-0.447-1-1-1h-2.203   c-0.553,0-1,0.447-1,1s0.447,0.999,1,0.999h2.203C54.092,33,54.539,32.553,54.539,32.001z M19.014,19.026   c0.39-0.391,0.39-1.023,0-1.413l-1.558-1.558c-0.39-0.391-1.023-0.391-1.413,0c-0.391,0.39-0.391,1.023,0,1.413l1.558,1.558   c0.195,0.195,0.451,0.292,0.707,0.292C18.563,19.319,18.818,19.222,19.014,19.026z M47.934,47.946c0.391-0.391,0.391-1.022,0-1.413   l-1.558-1.558c-0.391-0.391-1.022-0.391-1.413,0s-0.391,1.022,0,1.413l1.558,1.558c0.195,0.195,0.451,0.293,0.707,0.293   C47.482,48.239,47.738,48.142,47.934,47.946z" fill="#242C35"/></g></svg>