<?xml version="1.0" ?><!DOCTYPE svg  PUBLIC '-//W3C//DTD SVG 1.1//EN'  'http://www.w3.org/Graphics/SVG/1.1/DTD/svg11.dtd'><svg enable-background="new 0 0 64 64" height="64px" id="RAINY2" version="1.1" viewBox="0 0 64 64" width="64px" xml:space="preserve" xmlns="http://www.w3.org/2000/svg" xmlns:xlink="http://www.w3.org/1999/xlink"><g><defs><rect height="63.957" id="SVGID_1_" width="63.957" x="0.011" y="0.021"/></defs><clipPath id="SVGID_2_"><use overflow="visible" xlink:href="#SVGID_1_"/></clipPath><path clip-path="url(#SVGID_2_)" d="M49.685,21.894c-0.457,0-0.918,0.043-1.413,0.133   c-1.901-3.106-5.257-5.005-8.93-5.005c-1.356,0-2.656,0.291-3.866,0.777c-0.607-0.081-1.238-0.038-1.922,0.087   c-1.903-3.107-5.258-5.006-8.931-5.006c-4.357,0-8.25,2.729-9.783,6.745c-0.486-0.099-0.952-0.146-1.407-0.146   c-4.352,0-7.893,3.542-7.893,7.895c0,4.353,3.541,7.894,7.893,7.894h7.819c1.34,2.453,3.913,4.14,6.899,4.14h21.534   c4.827,0,8.754-3.927,8.754-8.756C58.438,25.821,54.512,21.894,49.685,21.894z M20.458,33.267h-7.025   c-3.25,0-5.894-2.645-5.894-5.895c0-3.251,2.644-5.896,5.894-5.896c0.546,0,1.107,0.096,1.763,0.303   c0.258,0.079,0.539,0.054,0.777-0.075c0.238-0.13,0.414-0.35,0.486-0.611c1.014-3.66,4.371-6.214,8.165-6.214   c3.181,0,6.068,1.762,7.535,4.6c0.049,0.095,0.111,0.179,0.185,0.251c-0.008,0.007-0.014,0.015-0.021,0.021   c-0.168,0.151-0.32,0.317-0.478,0.479c-0.187,0.19-0.368,0.383-0.539,0.586c-0.123,0.147-0.24,0.299-0.355,0.453   c-0.189,0.253-0.364,0.515-0.53,0.786c-0.082,0.134-0.169,0.266-0.245,0.405c-0.232,0.42-0.444,0.852-0.617,1.305   c-0.486-0.099-0.951-0.146-1.407-0.146c-4.352,0-7.892,3.542-7.892,7.895c0,0.581,0.072,1.143,0.191,1.688   C20.455,33.223,20.453,33.245,20.458,33.267z M49.685,37.406H28.151c-2.413,0-4.486-1.462-5.396-3.541   c-0.33-0.753-0.497-1.544-0.497-2.352c0-3.252,2.644-5.896,5.894-5.896c0.547,0,1.108,0.096,1.764,0.302   c0.129,0.04,0.264,0.054,0.395,0.041c0.133-0.013,0.263-0.052,0.382-0.116c0.238-0.129,0.414-0.35,0.486-0.611   c0.154-0.557,0.381-1.081,0.639-1.585c0.069-0.134,0.148-0.262,0.225-0.393c0.233-0.399,0.495-0.78,0.792-1.134   c0.066-0.08,0.127-0.165,0.197-0.243c0.807-0.897,1.806-1.63,2.957-2.13c1.041-0.454,2.171-0.728,3.355-0.728   c3.182,0,6.068,1.762,7.534,4.6c0.215,0.413,0.683,0.624,1.134,0.509c0.635-0.161,1.165-0.236,1.675-0.236   c3.724,0,6.755,3.031,6.755,6.757C56.439,34.375,53.408,37.406,49.685,37.406z M44.451,54.984c-0.079,0-0.159-0.01-0.241-0.029   c-0.537-0.135-0.861-0.677-0.729-1.212l2.498-9.993c0.133-0.537,0.67-0.856,1.213-0.729c0.536,0.135,0.86,0.678,0.728,1.213   l-2.498,9.993C45.309,54.682,44.9,54.984,44.451,54.984z M35.312,54.984c-0.08,0-0.16-0.01-0.242-0.029   c-0.537-0.135-0.861-0.677-0.729-1.212l2.499-9.993c0.133-0.537,0.669-0.856,1.212-0.729c0.536,0.135,0.86,0.678,0.728,1.213   l-2.498,9.993C36.168,54.682,35.76,54.984,35.312,54.984z M26.172,54.984c-0.08,0-0.162-0.01-0.243-0.029   c-0.536-0.135-0.861-0.677-0.727-1.212L27.7,43.75c0.133-0.537,0.676-0.862,1.211-0.729c0.536,0.135,0.862,0.678,0.727,1.213   l-2.498,9.993C27.027,54.682,26.62,54.984,26.172,54.984z M17.03,54.984c-0.08,0-0.162-0.01-0.243-0.029   c-0.536-0.135-0.862-0.677-0.727-1.212l2.498-9.993c0.133-0.537,0.677-0.862,1.211-0.729c0.536,0.135,0.862,0.678,0.727,1.213   l-2.499,9.993C17.884,54.682,17.478,54.984,17.03,54.984z" fill="#242C35"/></g></svg>