<?xml version="1.0" ?><!DOCTYPE svg  PUBLIC '-//W3C//DTD SVG 1.1//EN'  'http://www.w3.org/Graphics/SVG/1.1/DTD/svg11.dtd'><svg enable-background="new 0 0 512 512" height="512px" id="Layer_1" version="1.1" viewBox="0 0 512 512" width="512px" xml:space="preserve" xmlns="http://www.w3.org/2000/svg" xmlns:xlink="http://www.w3.org/1999/xlink"><g><radialGradient cx="248.250977" cy="304.210938" gradientTransform="matrix(0.96 0 0 0.367755 18.38916 342.260986)" gradientUnits="userSpaceOnUse" id="SVGID_1_" r="186.110947"><stop offset="0" style="stop-color:#000000"/><stop offset="0.757576" style="stop-color:#000000;stop-opacity:0.5"/><stop offset="1" style="stop-color:#000000;stop-opacity:0"/></radialGradient><path d="M436.84668,444.195312C436.84668,481.640625,356.196289,512,256.712891,512   c-99.487793,0-180.13623-30.359375-180.13623-67.804688c0-37.454102,80.648438-67.813477,180.13623-67.813477   C356.196289,376.381836,436.84668,406.741211,436.84668,444.195312z" fill="url(#SVGID_1_)"/><g><linearGradient gradientTransform="matrix(1 0 0 1 0.175781 -0.215332)" gradientUnits="userSpaceOnUse" id="SVGID_2_" x1="8.196289" x2="503.456055" y1="126.09375" y2="126.09375"><stop offset="0" style="stop-color:#262626"/><stop offset="0.254545" style="stop-color:#4D4D4D"/><stop offset="0.515152" style="stop-color:#808080"/><stop offset="0.745455" style="stop-color:#4D4D4D"/><stop offset="1" style="stop-color:#262626"/></linearGradient><path d="M256.001953,8.222656c135.369141,0,245.317383,108.670898,247.525391,243.534668    c0.024414-1.381348,0.104492-2.746094,0.104492-4.111328C503.631836,110.871582,392.744141,0,256.001953,0    C119.243652,0,8.37207,110.871582,8.37207,247.638184c-0.003906,1.373047,0.07666,2.737793,0.100586,4.11084    C10.676758,116.893555,120.620605,8.222656,256.001953,8.222656z" fill="url(#SVGID_2_)"/><linearGradient gradientTransform="matrix(1 0 0 1 0.175781 -0.215332)" gradientUnits="userSpaceOnUse" id="SVGID_3_" x1="440.082031" x2="440.082031" y1="77.387695" y2="39.354813"><stop offset="0" style="stop-color:#231F20"/><stop offset="1" style="stop-color:#808080"/></linearGradient><path d="M465.869141,47.013184c-12.686523-12.678711-33.25-12.687012-45.936523,0l-9.266602,9.25    l-5.412109,11.474121l0,0l14.678711-12.501953c12.686523-12.686523,33.25-12.678711,45.936523,0    c5.299805,5.299316,8.253906,11.97168,9.128906,18.869141C476.210938,64.469238,473.272461,54.408203,465.869141,47.013184z" fill="url(#SVGID_3_)"/><linearGradient gradientTransform="matrix(1 0 0 1 0.175781 -0.215332)" gradientUnits="userSpaceOnUse" id="SVGID_4_" x1="73.651855" x2="73.651855" y1="77.378906" y2="39.354141"><stop offset="0" style="stop-color:#231F20"/><stop offset="1" style="stop-color:#808080"/></linearGradient><path d="M101.723145,53.93457L101.723145,53.93457l-6.921387-6.921387    c-12.686523-12.687012-33.258301-12.678711-45.944824,0c-7.39502,7.39502-10.341797,17.456055-9.121582,27.083496    c0.871094-6.889648,3.830078-13.562012,9.117676-18.853516c12.69043-12.686523,33.262207-12.694336,45.94873-0.007812    l12.277344,12.276855l1.10791-1.10791L101.723145,53.93457z" fill="url(#SVGID_4_)"/><linearGradient gradientTransform="matrix(1 0 0 1 0.175781 -0.215332)" gradientUnits="userSpaceOnUse" id="SVGID_5_" x1="403.464844" x2="475.084961" y1="416.487305" y2="416.487305"><stop offset="0.409639" style="stop-color:#231F20"/><stop offset="1" style="stop-color:#4D4D4D"/></linearGradient><path d="M407.655273,441.251953l41.729492-41.737305c0.336914,0.305664,0.738281,0.538086,1.05957,0.867188    l15.424805,15.416992c5.291016,5.299805,8.253906,11.97168,9.121094,18.869141    c1.228516-9.634766-1.717773-19.688477-9.121094-27.083008l-15.424805-15.424805    c-0.321289-0.321289-0.722656-0.5625-1.05957-0.867188l-45.744141,45.736328    c0.304688,0.352539,0.529297,0.738281,0.859375,1.067383L407.655273,441.251953z" fill="url(#SVGID_5_)"/><linearGradient gradientTransform="matrix(-1 0 0 1 502.726562 -0.214844)" gradientUnits="userSpaceOnUse" id="SVGID_6_" x1="390.853516" x2="462.472656" y1="416.483398" y2="416.483398"><stop offset="0.409639" style="stop-color:#231F20"/><stop offset="1" style="stop-color:#4D4D4D"/></linearGradient><path d="M107.865723,441.244141l-41.729004-41.729492    c-0.341309,0.305664-0.743164,0.538086-1.063965,0.867188l-15.433105,15.416992    c-5.291016,5.299805-8.242188,11.97168-9.117188,18.869141c-1.224609-9.634766,1.722168-19.688477,9.117188-27.083008    l15.433105-15.424805c0.320801-0.337891,0.722656-0.5625,1.063965-0.867188l45.73584,45.736328    c-0.297363,0.352539-0.525879,0.738281-0.85498,1.067383L107.865723,441.244141z" fill="url(#SVGID_6_)"/><radialGradient cx="259.896484" cy="496.197266" gradientTransform="matrix(1 0 0 1 0.175781 -0.215332)" gradientUnits="userSpaceOnUse" id="SVGID_7_" r="459.068878"><stop offset="0.168675" style="stop-color:#CECECE"/><stop offset="0.337349" style="stop-color:#989899"/><stop offset="0.512048" style="stop-color:#9B9B9C"/><stop offset="0.704819" style="stop-color:#666666"/><stop offset="0.891566" style="stop-color:#9B9B9C"/><stop offset="1" style="stop-color:#D9D9D9"/></radialGradient><path d="M501.158203,255.868164c0,135.375977-109.770508,245.139648-245.15625,245.139648    c-135.38916,0-245.152344-109.763672-245.156738-245.139648C10.849609,120.466797,120.612793,10.703613,256.001953,10.703613    C391.387695,10.703613,501.158203,120.466797,501.158203,255.868164z" fill="url(#SVGID_7_)"/><radialGradient cx="256" cy="256.370117" gradientUnits="userSpaceOnUse" id="SVGID_8_" r="248.523422"><stop offset="0.951515" style="stop-color:#808080"/><stop offset="1" style="stop-color:#404040"/></radialGradient><path d="M256.001953,8.222656c-136.758301,0-247.629883,110.871094-247.633789,247.645508    C8.37207,392.617188,119.243652,503.480469,256.001953,503.489258c136.75-0.008789,247.629883-110.87207,247.629883-247.621094    C503.631836,119.09375,392.751953,8.222656,256.001953,8.222656z" fill="url(#SVGID_8_)"/><radialGradient cx="254.33252" cy="492.722656" gradientTransform="matrix(1 0 0 1 0.175781 -0.214844)" gradientUnits="userSpaceOnUse" id="SVGID_9_" r="427.371246"><stop offset="0.168675" style="stop-color:#CECECE"/><stop offset="0.337349" style="stop-color:#989899"/><stop offset="0.512048" style="stop-color:#9B9B9C"/><stop offset="0.704819" style="stop-color:#666666"/><stop offset="0.891566" style="stop-color:#9B9B9C"/><stop offset="1" style="stop-color:#D9D9D9"/></radialGradient><path d="M450.444336,400.381836c-0.321289-0.329102-0.722656-0.561523-1.05957-0.867188l-3.982422,3.983398    c31.795898-40.742188,50.793945-91.954102,50.801758-147.629883c-0.007812-52.817871-17.086914-101.621094-45.976562-141.270996    c0.072266-0.056152,0.152344-0.104492,0.216797-0.168457l15.424805-15.424805    c12.686523-12.686523,12.686523-33.258301,0.007812-45.944824c-12.686523-12.67041-33.257812-12.686523-45.944336,0    l-14.678711,14.678223c-40.990234-32.575684-92.836914-52.087402-149.251953-52.07959    c-55.692383,0-106.920898,19.005859-147.662598,50.818848L94.92627,53.059082    c-12.686523-12.686523-33.254395-12.678223-45.944824,0c-12.682617,12.694824-12.682617,33.258301,0.007812,45.944824    l13.95166,13.947266c-29.612793,39.946777-47.141602,89.376465-47.141602,142.90918    c0,54.318359,18.054688,104.422852,48.470215,144.666016l-15.280273,15.280273    c-12.694336,12.678711-12.686523,33.25-0.007812,45.9375c12.69043,12.686523,33.258301,12.686523,45.944824,0l15.147461-15.144531    c40.460938,31.001953,91.030762,49.461914,145.92041,49.461914c55.708984,0,106.936523-19.013672,147.686523-50.842773    l-0.032227,0.040039c0.296875,0.337891,0.521484,0.731445,0.851562,1.051758l15.432617,15.433594    c12.678711,12.686523,33.257812,12.686523,45.944336,0c12.686523-12.6875,12.686523-33.250977-0.007812-45.945312    L450.444336,400.381836z" fill="url(#SVGID_9_)"/><linearGradient gradientUnits="userSpaceOnUse" id="SVGID_10_" x1="256.001953" x2="256.001923" y1="494.8125" y2="23.309631"><stop offset="0" style="stop-color:#FFFFFF"/><stop offset="0.187879" style="stop-color:#999999;stop-opacity:0.890909"/><stop offset="1" style="stop-color:#FFFFFF;stop-opacity:0"/></linearGradient><path d="M450.444336,400.381836c-0.321289-0.329102-0.722656-0.561523-1.05957-0.867188    l-3.982422,3.983398c31.795898-40.742188,50.793945-91.954102,50.801758-147.629883    c-0.007812-52.817871-17.086914-101.621094-45.976562-141.270996c0.072266-0.056152,0.152344-0.104492,0.216797-0.168457    l15.424805-15.424805c12.686523-12.686523,12.686523-33.258301,0.007812-45.944824    c-12.686523-12.67041-33.257812-12.686523-45.944336,0l-14.678711,14.678223    c-40.990234-32.575684-92.836914-52.087402-149.251953-52.07959c-55.692383,0-106.920898,19.005859-147.662598,50.818848    L94.92627,53.059082c-12.686523-12.686523-33.254395-12.678223-45.944824,0    c-12.682617,12.694824-12.682617,33.258301,0.007812,45.944824l13.95166,13.947266    c-29.612793,39.946777-47.141602,89.376465-47.141602,142.90918c0,54.318359,18.054688,104.422852,48.470215,144.666016    l-15.280273,15.280273c-12.694336,12.678711-12.686523,33.25-0.007812,45.9375    c12.69043,12.686523,33.258301,12.686523,45.944824,0l15.147461-15.144531    c40.460938,31.001953,91.030762,49.461914,145.92041,49.461914c55.708984,0,106.936523-19.013672,147.686523-50.842773    l-0.032227,0.040039c0.296875,0.337891,0.521484,0.731445,0.851562,1.051758l15.432617,15.433594    c12.678711,12.686523,33.257812,12.686523,45.944336,0c12.686523-12.6875,12.686523-33.250977-0.007812-45.945312    L450.444336,400.381836z" fill="url(#SVGID_10_)" opacity="0.5"/><linearGradient gradientTransform="matrix(1 0 0 1 0.175781 -0.215332)" gradientUnits="userSpaceOnUse" id="SVGID_11_" x1="255.824219" x2="255.824203" y1="47.021973" y2="464.787628"><stop offset="0" style="stop-color:#D9D9D9"/><stop offset="1" style="stop-color:#808080"/></linearGradient><path d="M469.041016,255.868164c0,117.647461-95.382812,213.038086-213.039062,213.038086    c-117.664062,0-213.038574-95.390625-213.04248-213.045898c0-117.65625,95.374023-213.046875,213.04248-213.046875    C373.658203,42.813477,469.032227,138.204102,469.041016,255.868164z" fill="url(#SVGID_11_)"/><radialGradient cx="255.824219" cy="256.075195" gradientTransform="matrix(1 0 0 1 0.175781 -0.215332)" gradientUnits="userSpaceOnUse" id="SVGID_12_" r="213.043442"><stop offset="0.921687" style="stop-color:#333333"/><stop offset="1" style="stop-color:#333333;stop-opacity:0.5"/></radialGradient><path d="M256.001953,42.813477c-117.668457,0-213.04248,95.390625-213.04248,213.046875    c0.003906,117.655273,95.378418,213.045898,213.04248,213.045898c117.65625,0,213.039062-95.390625,213.039062-213.038086    C469.032227,138.204102,373.658203,42.813477,256.001953,42.813477z M256.001953,458.250977    c-111.782715,0-202.387695-90.613281-202.391602-202.390625c0-111.770508,90.60498-202.399902,202.391602-202.399902    c111.770508,0,202.383789,90.621094,202.375977,202.399902C458.37793,367.629883,367.772461,458.250977,256.001953,458.250977z" fill="url(#SVGID_12_)"/><linearGradient gradientTransform="matrix(1 0 0 1 0.175781 -0.215332)" gradientUnits="userSpaceOnUse" id="SVGID_13_" x1="34.260254" x2="475.554993" y1="256.066406" y2="256.066406"><stop offset="0.012121" style="stop-color:#FFFFFF;stop-opacity:0.3"/><stop offset="0.315152" style="stop-color:#FFFFFF"/><stop offset="0.678788" style="stop-color:#FFFFFF"/><stop offset="1" style="stop-color:#FFFFFF;stop-opacity:0.3"/></linearGradient><path d="M256.001953,34.286133c-122.373535,0-221.565918,99.212402-221.565918,221.574219    c0,122.360352,99.192383,221.564453,221.565918,221.556641c122.361328,0.007812,221.557617-99.196289,221.557617-221.548828    C477.551758,133.498535,378.363281,34.286133,256.001953,34.286133z M256.001953,468.90625    c-117.664062,0-213.038574-95.390625-213.04248-213.045898c0-117.65625,95.374023-213.046875,213.04248-213.046875    c117.65625,0,213.030273,95.390625,213.039062,213.054688C469.041016,373.515625,373.658203,468.90625,256.001953,468.90625z" fill="url(#SVGID_13_)" opacity="0.8"/><linearGradient gradientTransform="matrix(1 0 0 1 0.175781 -0.215332)" gradientUnits="userSpaceOnUse" id="SVGID_14_" x1="75.231934" x2="75.231934" y1="45.745605" y2="74.520782"><stop offset="0" style="stop-color:#FFFFFF"/><stop offset="0.521212" style="stop-color:#FFFFFF;stop-opacity:0"/></linearGradient><path d="M48.977539,57.491211c12.694336-12.686523,33.258301-12.686523,45.944824,0l14.184082,14.172363    l2.107422-2.111816c-0.300781-0.337402-0.525879-0.722656-0.85498-1.060059L94.92627,53.059082    c-12.686523-12.686523-33.254395-12.678223-45.944824,0c-6.905273,6.913574-9.912598,16.155273-9.302246,25.180664    C40.201172,70.691895,43.208008,63.272461,48.977539,57.491211z" fill="url(#SVGID_14_)"/><linearGradient gradientTransform="matrix(-1 0 0 1 578.759766 -0.214844)" gradientUnits="userSpaceOnUse" id="SVGID_15_" x1="139.163574" x2="139.163574" y1="45.742676" y2="74.520691"><stop offset="0" style="stop-color:#FFFFFF"/><stop offset="0.521212" style="stop-color:#FFFFFF;stop-opacity:0"/></linearGradient><path d="M466.013672,57.491211c-12.678711-12.686523-33.25-12.686523-45.936523,0l-14.180664,14.172363    l-2.103516-2.111816c0.289062-0.345215,0.513672-0.730469,0.851562-1.060059l15.423828-15.432617    c12.6875-12.686523,33.258789-12.686523,45.945312,0c6.913086,6.913574,9.923828,16.155273,9.305664,25.180664    C474.797852,70.691895,471.794922,63.272461,466.013672,57.491211z" fill="url(#SVGID_15_)"/><linearGradient gradientTransform="matrix(1 0 0 1 0.175781 -0.215332)" gradientUnits="userSpaceOnUse" id="SVGID_16_" x1="75.023438" x2="49.688881" y1="79.499023" y2="54.164467"><stop offset="0" style="stop-color:#FFFFFF;stop-opacity:0"/><stop offset="1" style="stop-color:#808080"/></linearGradient><path d="M67.296875,71.364258c7.624023-7.624023,15.806152-13.585938,23.550293-17.553223    C79.371094,43.52002,61.774414,43.788086,50.73584,54.81543c-11.030273,11.042969-11.297363,28.638672-1.003418,40.121582    C53.69873,87.176758,59.664551,78.995605,67.296875,71.364258z" fill="url(#SVGID_16_)"/><linearGradient gradientTransform="matrix(1 0 0 1 0.175781 -0.215332)" gradientUnits="userSpaceOnUse" id="SVGID_17_" x1="438.931641" x2="463.614258" y1="80.052246" y2="55.369633"><stop offset="0" style="stop-color:#FFFFFF;stop-opacity:0"/><stop offset="1" style="stop-color:#808080"/></linearGradient><path d="M447.563477,71.364258c-7.624023-7.616699-15.811523-13.592773-23.549805-17.54541    c11.475586-10.290527,29.064453-10.030762,40.107422,0.996582c11.026367,11.042969,11.294922,28.632324,0.99707,40.122559    C461.149414,87.176758,455.195312,78.995605,447.563477,71.364258z" fill="url(#SVGID_17_)"/><linearGradient gradientTransform="matrix(1 0 0 1 0.175781 -0.215332)" gradientUnits="userSpaceOnUse" id="SVGID_18_" x1="69.031738" x2="48.07103" y1="439.589844" y2="458.704468"><stop offset="0" style="stop-color:#FFFFFF;stop-opacity:0"/><stop offset="1" style="stop-color:#FFFFFF"/></linearGradient><path d="M67.296875,441.384766c7.624023,7.631836,15.806152,13.601562,23.550293,17.560547    c-11.478027,10.290039-29.068848,10.024414-40.111328-1.011719c-11.030273-11.044922-11.293457-28.628906-0.999512-40.107422    C53.694824,425.575195,59.660645,433.75293,67.296875,441.384766z" fill="url(#SVGID_18_)" opacity="0.8"/><linearGradient gradientTransform="matrix(1 0 0 1 0.175781 -0.215332)" gradientUnits="userSpaceOnUse" id="SVGID_19_" x1="465.323242" x2="446.45874" y1="459.538086" y2="440.673584"><stop offset="0" style="stop-color:#FFFFFF"/><stop offset="1" style="stop-color:#FFFFFF;stop-opacity:0"/></linearGradient><path d="M447.563477,441.384766c-7.629883,7.631836-15.811523,13.59375-23.558594,17.560547    c11.484375,10.290039,29.073242,10.024414,40.113281-1.011719c11.029297-11.032227,11.303711-28.628906,1-40.107422    C461.155273,425.575195,455.193359,433.75293,447.563477,441.384766z" fill="url(#SVGID_19_)" opacity="0.8"/><g><g><linearGradient gradientUnits="userSpaceOnUse" id="SVGID_20_" x1="425.797852" x2="463.307617" y1="70.218262" y2="70.218262"><stop offset="0.012121" style="stop-color:#FFFFFF;stop-opacity:0.3"/><stop offset="0.315152" style="stop-color:#FFFFFF"/><stop offset="0.678788" style="stop-color:#FFFFFF"/><stop offset="1" style="stop-color:#FFFFFF;stop-opacity:0.3"/></linearGradient><path d="M463.307617,70.226074c0,10.362305-8.386719,18.750977-18.756836,18.750977      c-10.354492,0-18.75293-8.396973-18.75293-18.750977c0-10.370117,8.390625-18.766602,18.75293-18.766602      C454.920898,51.459473,463.31543,59.855957,463.307617,70.226074z" fill="url(#SVGID_20_)" opacity="0.8"/><linearGradient gradientTransform="matrix(1 0 0 1 -0.379883 -0.23877)" gradientUnits="userSpaceOnUse" id="SVGID_21_" x1="444.933594" x2="444.933594" y1="86.354492" y2="54.377457"><stop offset="0" style="stop-color:#7B7D80"/><stop offset="1" style="stop-color:#19191A"/></linearGradient><path d="M461.099609,70.218262      c-0.007812,9.139648-7.411133,16.550781-16.548828,16.550781c-9.131836,0-16.542969-7.411133-16.542969-16.542969      c0-9.13916,7.411133-16.540527,16.542969-16.548828C453.688477,53.66748,461.099609,61.086914,461.099609,70.218262z" fill="url(#SVGID_21_)" opacity="0.8"/><radialGradient cx="444.275391" cy="62.542969" gradientTransform="matrix(0.068926 0.997622 -1.316861 0.090982 495.633789 -386.604919)" gradientUnits="userSpaceOnUse" id="SVGID_22_" r="18.767151"><stop offset="0.290909" style="stop-color:#CDCDCD"/><stop offset="0.521212" style="stop-color:#555556"/><stop offset="0.6" style="stop-color:#616162"/><stop offset="1" style="stop-color:#ABACAB"/></radialGradient><path d="M458.201172,70.218262c-0.008789,7.539551-6.110352,13.64209-13.650391,13.64209      c-7.53125,0-13.642578-6.102539-13.642578-13.634277c-0.007812-7.531738,6.111328-13.649902,13.642578-13.649902      C452.09082,56.576172,458.201172,62.686523,458.201172,70.218262z" fill="url(#SVGID_22_)"/><path d="M450.46875,62.108398l-5.902344,5.901855l-5.893555-5.909668      c-0.618164-0.610352-1.605469-0.610352-2.231445,0c-0.610352,0.609863-0.610352,1.605469,0,2.224121l5.90918,5.901367      l-5.90918,5.894043c-0.610352,0.625977-0.602539,1.605469,0.015625,2.231934      c0.610352,0.610352,1.605469,0.610352,2.21582-0.016113l5.893555-5.893555l5.893555,5.893555      c0.610352,0.618164,1.614258,0.618164,2.232422,0c0.610352-0.610352,0.610352-1.605957-0.007812-2.21582l-5.901367-5.894043      l5.90918-5.893555c0.610352-0.618164,0.610352-1.61377,0-2.224121S451.086914,61.490234,450.46875,62.108398z" fill="#808080"/></g><g><linearGradient gradientUnits="userSpaceOnUse" id="SVGID_23_" x1="425.78125" x2="463.307617" y1="440.764648" y2="440.764648"><stop offset="0.012121" style="stop-color:#FFFFFF;stop-opacity:0.3"/><stop offset="0.315152" style="stop-color:#FFFFFF"/><stop offset="0.678788" style="stop-color:#FFFFFF"/><stop offset="1" style="stop-color:#FFFFFF;stop-opacity:0.3"/></linearGradient><path d="M463.307617,440.762695c0,10.362305-8.394531,18.760742-18.764648,18.760742      c-10.354492,0-18.75293-8.398438-18.761719-18.760742c0-10.362305,8.407227-18.756836,18.761719-18.756836      C454.913086,422.005859,463.307617,430.400391,463.307617,440.762695z" fill="url(#SVGID_23_)" opacity="0.8"/><linearGradient gradientTransform="matrix(1 0 0 1 -0.379883 -0.23877)" gradientUnits="userSpaceOnUse" id="SVGID_24_" x1="444.925781" x2="444.925781" y1="456.900391" y2="424.91391"><stop offset="0" style="stop-color:#4A4B4D"/><stop offset="1" style="stop-color:#19191A"/></linearGradient><path d="M461.091797,440.762695c0,9.133789-7.411133,16.541016-16.548828,16.552734      C435.411133,457.303711,428,449.896484,428,440.754883c0-9.12207,7.411133-16.541016,16.542969-16.541016      C453.680664,424.213867,461.083008,431.632812,461.091797,440.762695z" fill="url(#SVGID_24_)" opacity="0.8"/><radialGradient cx="444.266602" cy="433.085938" gradientTransform="matrix(0.068926 0.997622 -1.316861 0.090982 983.579041 -49.765991)" gradientUnits="userSpaceOnUse" id="SVGID_25_" r="18.767445"><stop offset="0.290909" style="stop-color:#CDCDCD"/><stop offset="0.521212" style="stop-color:#555556"/><stop offset="0.6" style="stop-color:#616162"/><stop offset="1" style="stop-color:#ABACAB"/></radialGradient><path d="M458.192383,440.762695c0,7.523438-6.110352,13.641602-13.649414,13.641602      c-7.532227,0-13.650391-6.110352-13.642578-13.649414c0-7.532227,6.110352-13.634766,13.642578-13.634766      C452.082031,427.120117,458.18457,433.230469,458.192383,440.762695z" fill="url(#SVGID_25_)"/><path d="M450.459961,432.644531l-5.901367,5.893555l-5.893555-5.893555      c-0.618164-0.610352-1.605469-0.610352-2.223633-0.007812c-0.610352,0.618164-0.619141,1.614258,0,2.224609l5.901367,5.90918      l-5.901367,5.893555c-0.610352,0.610352-0.619141,1.606445,0.007812,2.216797c0.610352,0.625977,1.605469,0.625977,2.21582,0      l5.893555-5.894531l5.893555,5.894531c0.618164,0.609375,1.614258,0.609375,2.232422,0      c0.610352-0.610352,0.610352-1.606445-0.007812-2.216797l-5.893555-5.893555l5.901367-5.901367      c0.610352-0.618164,0.610352-1.606445,0-2.224609C452.074219,432.03418,451.079102,432.03418,450.459961,432.644531z" fill="#808080"/></g><g><linearGradient gradientUnits="userSpaceOnUse" id="SVGID_26_" x1="50.137695" x2="87.647461" y1="70.218262" y2="70.218262"><stop offset="0.012121" style="stop-color:#FFFFFF;stop-opacity:0.3"/><stop offset="0.315152" style="stop-color:#FFFFFF"/><stop offset="0.678788" style="stop-color:#FFFFFF"/><stop offset="1" style="stop-color:#FFFFFF;stop-opacity:0.3"/></linearGradient><path d="M87.647461,70.226074c0,10.362305-8.386719,18.750977-18.756836,18.750977      c-10.354004,0-18.75293-8.396973-18.75293-18.750977c0-10.370117,8.390625-18.766602,18.75293-18.766602      C79.260742,51.459473,87.655273,59.855957,87.647461,70.226074z" fill="url(#SVGID_26_)" opacity="0.8"/><linearGradient gradientTransform="matrix(1 0 0 1 -0.379883 -0.23877)" gradientUnits="userSpaceOnUse" id="SVGID_27_" x1="69.273438" x2="69.273438" y1="86.354492" y2="54.377457"><stop offset="0" style="stop-color:#7B7D80"/><stop offset="1" style="stop-color:#19191A"/></linearGradient><path d="M85.439453,70.218262c-0.008301,9.139648-7.411133,16.550781-16.548828,16.550781      c-9.131836,0-16.542969-7.411133-16.542969-16.542969c0-9.13916,7.411133-16.540527,16.542969-16.548828      C78.02832,53.66748,85.439453,61.086914,85.439453,70.218262z" fill="url(#SVGID_27_)" opacity="0.8"/><radialGradient cx="68.614746" cy="62.542969" gradientTransform="matrix(0.068926 0.997622 -1.316861 0.090982 145.865906 -11.837662)" gradientUnits="userSpaceOnUse" id="SVGID_28_" r="18.767151"><stop offset="0.290909" style="stop-color:#CDCDCD"/><stop offset="0.521212" style="stop-color:#555556"/><stop offset="0.6" style="stop-color:#616162"/><stop offset="1" style="stop-color:#ABACAB"/></radialGradient><path d="M82.540527,70.218262c-0.007812,7.539551-6.110352,13.64209-13.649902,13.64209      c-7.531738,0-13.64209-6.102539-13.64209-13.634277c-0.008301-7.531738,6.110352-13.649902,13.64209-13.649902      C76.430176,56.576172,82.540527,62.686523,82.540527,70.218262z" fill="url(#SVGID_28_)"/><path d="M74.808105,62.108398l-5.901367,5.901855l-5.893555-5.909668      c-0.618652-0.610352-1.605957-0.610352-2.232422,0c-0.610352,0.609863-0.610352,1.605469,0,2.224121l5.909668,5.901367      l-5.909668,5.894043c-0.610352,0.625977-0.602051,1.605469,0.016113,2.231934      c0.610352,0.610352,1.605957,0.610352,2.216309-0.016113l5.893555-5.893555l5.893555,5.893555      c0.610352,0.618164,1.61377,0.618164,2.232422,0c0.609863-0.610352,0.609863-1.605957-0.008301-2.21582l-5.901367-5.894043      l5.909668-5.893555c0.609863-0.618164,0.609863-1.61377,0-2.224121      C76.422363,61.498047,75.426758,61.490234,74.808105,62.108398z" fill="#808080"/></g><g><linearGradient gradientUnits="userSpaceOnUse" id="SVGID_29_" x1="50.137695" x2="87.663574" y1="440.764648" y2="440.764648"><stop offset="0.012121" style="stop-color:#FFFFFF;stop-opacity:0.3"/><stop offset="0.315152" style="stop-color:#FFFFFF"/><stop offset="0.678788" style="stop-color:#FFFFFF"/><stop offset="1" style="stop-color:#FFFFFF;stop-opacity:0.3"/></linearGradient><path d="M87.663574,440.762695c0,10.362305-8.39502,18.760742-18.765137,18.760742      c-10.354004,0-18.75293-8.398438-18.760742-18.760742c0-10.362305,8.406738-18.756836,18.760742-18.756836      C79.268555,422.005859,87.663574,430.400391,87.663574,440.762695z" fill="url(#SVGID_29_)" opacity="0.8"/><linearGradient gradientTransform="matrix(1 0 0 1 -0.379883 -0.23877)" gradientUnits="userSpaceOnUse" id="SVGID_30_" x1="69.281738" x2="69.281738" y1="456.900391" y2="424.91391"><stop offset="0" style="stop-color:#4A4B4D"/><stop offset="1" style="stop-color:#19191A"/></linearGradient><path d="M85.447266,440.762695c0,9.133789-7.411133,16.541016-16.548828,16.552734      c-9.131348-0.011719-16.54248-7.418945-16.54248-16.560547c0-9.12207,7.411133-16.541016,16.54248-16.541016      C78.036133,424.213867,85.439453,431.632812,85.447266,440.762695z" fill="url(#SVGID_30_)" opacity="0.8"/><radialGradient cx="68.622559" cy="433.085938" gradientTransform="matrix(0.068926 0.997622 -1.316861 0.090982 633.82666 324.98468)" gradientUnits="userSpaceOnUse" id="SVGID_31_" r="18.767643"><stop offset="0.290909" style="stop-color:#CDCDCD"/><stop offset="0.521212" style="stop-color:#555556"/><stop offset="0.6" style="stop-color:#616162"/><stop offset="1" style="stop-color:#ABACAB"/></radialGradient><path d="M82.548828,440.762695c0,7.523438-6.110352,13.641602-13.650391,13.641602      c-7.53125,0-13.649902-6.110352-13.64209-13.649414c0-7.532227,6.11084-13.634766,13.64209-13.634766      C76.438477,427.120117,82.540527,433.230469,82.548828,440.762695z" fill="url(#SVGID_31_)"/><path d="M74.816406,432.644531l-5.901855,5.893555l-5.893555-5.893555      c-0.618164-0.610352-1.605957-0.610352-2.224121-0.007812c-0.610352,0.618164-0.618164,1.614258,0,2.224609l5.901855,5.90918      l-5.901855,5.893555c-0.610352,0.610352-0.618164,1.606445,0.007812,2.216797c0.610352,0.625977,1.605957,0.625977,2.216309,0      l5.893555-5.894531l5.893555,5.894531c0.618652,0.609375,1.614258,0.609375,2.232422,0      c0.610352-0.610352,0.610352-1.606445-0.007812-2.216797l-5.894043-5.893555l5.901855-5.901367      c0.610352-0.618164,0.610352-1.606445,0-2.224609C76.430176,432.03418,75.43457,432.03418,74.816406,432.644531z" fill="#808080"/></g></g><path d="M441.274414,80.487793" fill="#808080"/><path d="M439.050781,78.255859" fill="#808080"/><path d="M433.237305,72.273926" fill="#808080"/><path d="M435.453125,70.049805" fill="#808080"/><path d="M449.480469,86.285156c0.602539-0.610352,0.610352-1.605957-0.007812-2.21582" fill="#808080"/><linearGradient gradientTransform="matrix(1 0 0 -1 0.175293 53.356445)" gradientUnits="userSpaceOnUse" id="SVGID_32_" x1="75.233887" x2="75.233887" y1="-415.854004" y2="-387.076385"><stop offset="0" style="stop-color:#4D4D4D"/><stop offset="1" style="stop-color:#FFFFFF;stop-opacity:0"/></linearGradient><path d="M48.977539,457.254883c12.694336,12.678711,33.258301,12.686523,45.944824,0l14.184082-14.171875    l2.107422,2.103516c-0.300781,0.345703-0.525879,0.731445-0.851074,1.068359L94.92627,461.679688    c-12.686523,12.686523-33.25,12.686523-45.94873,0c-6.905273-6.905273-9.908691-16.147461-9.294434-25.180664    C40.201172,444.0625,43.208008,451.482422,48.977539,457.254883z" fill="url(#SVGID_32_)"/><linearGradient gradientTransform="matrix(1 0 0 1 0.175781 -0.215332)" gradientUnits="userSpaceOnUse" id="SVGID_33_" x1="439.416016" x2="439.416016" y1="473.999023" y2="434.937653"><stop offset="0" style="stop-color:#4D4D4D"/><stop offset="1" style="stop-color:#FFFFFF;stop-opacity:0"/></linearGradient><path d="M466.013672,457.254883c-12.686523,12.686523-33.25,12.695312-45.945312,0l-14.171875-14.171875    l-2.103516,2.103516c0.296875,0.345703,0.521484,0.739258,0.851562,1.060547l15.432617,15.432617    c12.678711,12.686523,33.257812,12.686523,45.936523,0c6.913086-6.905273,9.916016-16.147461,9.297852-25.180664    C474.797852,444.054688,471.794922,451.473633,466.013672,457.254883z" fill="url(#SVGID_33_)"/></g><g/><g/><g><radialGradient cx="253.965332" cy="247.115234" gradientTransform="matrix(1 0 0 1 0.175781 -0.215332)" gradientUnits="userSpaceOnUse" id="SVGID_34_" r="91.014404"><stop offset="0.563636" style="stop-color:#331A00;stop-opacity:0"/><stop offset="0.678788" style="stop-color:#331A00"/><stop offset="0.860606" style="stop-color:#523619;stop-opacity:0.5"/><stop offset="1" style="stop-color:#806040;stop-opacity:0"/></radialGradient><path d="M345.15332,246.893555c0,50.265625-40.743164,91.023438-91.008301,91.023438    c-50.270508,0-91.012207-40.757812-91.016113-91.023438c0.003906-50.258789,40.745605-91.010742,91.010254-91.010742    C304.410156,155.882812,345.15332,196.634766,345.15332,246.893555z" fill="url(#SVGID_34_)" opacity="0.6"/><radialGradient cx="255.828125" cy="256.074707" gradientTransform="matrix(1 0 0 1 0.175781 -0.215332)" gradientUnits="userSpaceOnUse" id="SVGID_35_" r="205.87085"><stop offset="0" style="stop-color:#000000"/><stop offset="0.975758" style="stop-color:#15161A"/><stop offset="1" style="stop-color:#141519;stop-opacity:0"/></radialGradient><path d="M256.001953,49.991699c-113.705566,0-205.876465,92.178711-205.87207,205.876465    c-0.004395,113.680664,92.166504,205.859375,205.87207,205.859375c113.689453,0,205.868164-92.178711,205.875977-205.859375    C461.870117,142.17041,369.691406,49.991699,256.001953,49.991699z M255.994141,420.543945    c-90.950195,0.008789-164.689453-73.734375-164.689453-164.691895c0-90.958008,73.739258-164.685059,164.697266-164.685059    c90.950195,0,164.701172,73.727051,164.701172,164.685059C420.703125,346.80957,346.952148,420.552734,255.994141,420.543945z" fill="url(#SVGID_35_)"/><linearGradient gradientTransform="matrix(1 0 0 1 0.175781 -0.215332)" gradientUnits="userSpaceOnUse" id="SVGID_36_" x1="255.826172" x2="255.826172" y1="60.456055" y2="224.631973"><stop offset="0" style="stop-color:#FFFFFF;stop-opacity:0.7"/><stop offset="0.248485" style="stop-color:#FFFFFF;stop-opacity:0.4"/><stop offset="1" style="stop-color:#000000;stop-opacity:0"/></linearGradient><path d="M256.001953,67.263184    c89.295898,0.008301,164.87793,66.652832,190.31543,151.813965c-20.146484-91.126953-97.606445-159.080566-190.31543-159.080566    c-92.708496,0-170.165039,67.945801-190.314941,159.080566C91.128418,133.916016,166.706055,67.271484,256.001953,67.263184z" fill="url(#SVGID_36_)" opacity="0.5"/><linearGradient gradientTransform="matrix(1 0 0 -1 0.175781 336.213867)" gradientUnits="userSpaceOnUse" id="SVGID_37_" x1="255.817871" x2="255.817871" y1="-101.678223" y2="62.497192"><stop offset="0" style="stop-color:#FFFFFF;stop-opacity:0.7"/><stop offset="0.248485" style="stop-color:#FFFFFF;stop-opacity:0.4"/><stop offset="1" style="stop-color:#000000;stop-opacity:0"/></linearGradient><path d="M255.994141,430.854492c84.823242,0,156.647461-66.65332,180.791992-151.797852    c-19.133789,91.118164-92.716797,159.080078-180.78418,159.080078C167.92627,438.128906,94.348145,370.174805,75.20166,279.056641    C99.374512,364.208984,171.178223,430.862305,255.994141,430.854492z" fill="url(#SVGID_37_)" opacity="0.4"/><linearGradient gradientTransform="matrix(1 0 0 1 0.175781 -0.215332)" gradientUnits="userSpaceOnUse" id="SVGID_38_" x1="255.828125" x2="255.82811" y1="91.652832" y2="423.284119"><stop offset="0" style="stop-color:#222626"/><stop offset="0.848485" style="stop-color:#17191A"/><stop offset="1" style="stop-color:#4F5256"/></linearGradient><path d="M256.001953,89.513184c-90.958008,0-166.343262,75.380859-166.343262,166.338867    c0,90.95752,75.385254,166.338379,166.335449,166.338379c90.958008,0,166.355469-75.380859,166.355469-166.338379    C422.349609,164.894043,346.952148,89.513184,256.001953,89.513184z M256.001953,409.021484    c-84.59082,0-153.166504-68.579102-153.166504-153.169434c0-84.59082,68.567871-153.162598,153.166504-153.162598    c84.59082,0,153.178711,68.571777,153.170898,153.162598C409.172852,340.433594,340.584961,409.013672,256.001953,409.021484z" fill="url(#SVGID_38_)"/><radialGradient cx="254.442871" cy="239.495605" gradientTransform="matrix(1 0 0 0.410617 0.175781 140.939301)" gradientUnits="userSpaceOnUse" id="SVGID_39_" r="104.666161"><stop offset="0.381818" style="stop-color:#303033"/><stop offset="0.939394" style="stop-color:#0C0C0D"/></radialGradient><path d="M315.52832,255.852051c0,32.884277-26.65332,59.525879-59.52832,59.533691    c-32.875,0-59.528809-26.649414-59.528809-59.533691c0-32.876465,26.653809-59.52832,59.528809-59.52832    C288.882812,196.32373,315.520508,222.975586,315.52832,255.852051z" fill="url(#SVGID_39_)"/><radialGradient cx="255.821289" cy="256.064453" gradientTransform="matrix(1 0 0 1 0.175781 -0.215332)" gradientUnits="userSpaceOnUse" id="SVGID_40_" r="74.41748"><stop offset="0" style="stop-color:#000000"/><stop offset="0.969697" style="stop-color:#15161A"/><stop offset="1" style="stop-color:#141519;stop-opacity:0.5"/></radialGradient><path d="M256,181.433594c-41.11084,0-74.41748,33.319824-74.42334,74.418457    c0.005859,41.098145,33.318359,74.416504,74.41748,74.412598c41.102539,0.011719,74.422852-33.314453,74.422852-74.412598    C330.416992,214.753418,297.09668,181.433594,256,181.433594z M256,315.385742c-32.875,0-59.528809-26.649414-59.528809-59.533691    c0-32.876465,26.653809-59.52832,59.528809-59.52832c32.882812,0,59.520508,26.651855,59.52832,59.52832    C315.52832,288.736328,288.875,315.37793,256,315.385742z" fill="url(#SVGID_40_)"/><linearGradient gradientTransform="matrix(1 0 0 1 0.175781 -0.215332)" gradientUnits="userSpaceOnUse" id="SVGID_41_" x1="255.82373" x2="255.82373" y1="185.560059" y2="245.303909"><stop offset="0" style="stop-color:#FFFFFF;stop-opacity:0.7"/><stop offset="0.248485" style="stop-color:#FFFFFF;stop-opacity:0.4"/><stop offset="1" style="stop-color:#000000;stop-opacity:0"/></linearGradient><path d="M256,189.502441c31.557617,0,58.248047,23.54248,67.241211,53.643066    c-7.12207-32.208496-34.480469-57.889648-67.241211-57.889648c-32.760254,0-60.118652,25.681152-67.241211,57.889648    C197.751953,213.044922,224.441895,189.502441,256,189.502441z" fill="url(#SVGID_41_)" opacity="0.3"/><linearGradient gradientTransform="matrix(1 0 0 -1 0.175293 345.272461)" gradientUnits="userSpaceOnUse" id="SVGID_42_" x1="255.824707" x2="255.824707" y1="19.031738" y2="78.774582"><stop offset="0" style="stop-color:#FFFFFF;stop-opacity:0.7"/><stop offset="0.248485" style="stop-color:#FFFFFF;stop-opacity:0.4"/><stop offset="1" style="stop-color:#000000;stop-opacity:0"/></linearGradient><path d="M256,322.086914c31.557617,0,58.248047-23.542969,67.241211-53.645508    c-7.12207,32.194336-34.480469,57.888672-67.241211,57.888672c-32.760254,0-60.118652-25.694336-67.241211-57.888672    C197.751953,298.543945,224.441895,322.086914,256,322.086914z" fill="url(#SVGID_42_)" opacity="0.25"/><linearGradient gradientTransform="matrix(1 0 0 1 0.175781 -0.215332)" gradientUnits="userSpaceOnUse" id="SVGID_43_" x1="255.819824" x2="255.819824" y1="258.035156" y2="327.193115"><stop offset="0" style="stop-color:#000000;stop-opacity:0"/><stop offset="1" style="stop-color:#FFFFFF;stop-opacity:0.4"/></linearGradient><path d="M256,294.111328c-46.725586,0-62.495605-40.54541-62.495605-38.25293    c0,34.519531,27.96875,62.50293,62.489746,62.494141c34.533203,0,62.501953-27.974609,62.493164-62.500488    C318.496094,253.565918,302.095703,294.111328,256,294.111328z" fill="url(#SVGID_43_)" opacity="0.8"/><radialGradient cx="255.027344" cy="255.899414" gradientTransform="matrix(1 0 0 1 0.175781 -0.215332)" gradientUnits="userSpaceOnUse" id="SVGID_44_" r="61.893181"><stop offset="0.890909" style="stop-color:#2E2E31;stop-opacity:0"/><stop offset="1" style="stop-color:#0C0C0D"/></radialGradient><path d="M318.487305,255.852051c0.008789,34.525879-27.959961,62.500488-62.493164,62.500488    c-34.520996,0.008789-62.489746-27.974609-62.489746-62.494141c0-34.526855,27.962891-62.514648,62.495605-62.514648    C290.527344,193.349609,318.496094,221.331543,318.487305,255.852051z" fill="url(#SVGID_44_)"/><radialGradient cx="252.9375" cy="209.208984" gradientTransform="matrix(0.866 0.5 -0.60873 1.05432 132.56955 -104.538925)" gradientUnits="userSpaceOnUse" id="SVGID_45_" r="16.432138"><stop offset="0.2" style="stop-color:#808080;stop-opacity:0.5"/><stop offset="1" style="stop-color:#FFFFFF;stop-opacity:0"/></radialGradient><path d="M235.92627,249.242188c-5.229004,9.049805-14.684082,13.381836-21.127441,9.660156    c-6.443848-3.71875-7.431641-14.080566-2.204102-23.137695c5.230957-9.049316,14.691895-13.380371,21.141602-9.654785    C240.166016,229.822754,241.16748,240.18457,235.92627,249.242188z" fill="url(#SVGID_45_)" opacity="0.7"/><radialGradient cx="166.369629" cy="285.84375" gradientTransform="matrix(-0.5736 0.8192 0.997343 0.698335 93.98613 -108.271904)" gradientUnits="userSpaceOnUse" id="SVGID_46_" r="24.366346"><stop offset="0.206061" style="stop-color:#FFFFFF;stop-opacity:0.6"/><stop offset="0.612121" style="stop-color:#DDDDDD;stop-opacity:0.404545"/><stop offset="1" style="stop-color:#FFFFFF;stop-opacity:0"/></radialGradient><path d="M268.158203,248.57959c10.286133,7.194336,22.768555,7.091797,27.886719-0.21875    c5.119141-7.309082,0.931641-19.076172-9.339844-26.270508c-10.27832-7.202637-22.771484-7.106445-27.892578,0.20459    C253.70166,229.604004,257.880859,241.378906,268.158203,248.57959z" fill="url(#SVGID_46_)"/><linearGradient gradientTransform="matrix(1 0 0 1 0.175781 -0.215332)" gradientUnits="userSpaceOnUse" id="SVGID_47_" x1="268.772461" x2="256.656128" y1="110.54541" y2="253.340439"><stop offset="0" style="stop-color:#807366;stop-opacity:0"/><stop offset="0.709091" style="stop-color:#807366;stop-opacity:0.8"/><stop offset="0.921212" style="stop-color:#807366;stop-opacity:0.5"/><stop offset="1" style="stop-color:#807366;stop-opacity:0"/></linearGradient><path d="M411.413086,261.214844c0.015625-1.380859,0.200195-2.746094,0.200195-4.125977    c0-85.835449-69.350586-155.418945-154.904785-155.418945c-85.546387,0-154.90918,69.583496-154.90918,155.418945    c0,1.379883,0.176758,2.737305,0.212891,4.125977H411.413086z" fill="url(#SVGID_47_)" opacity="0.5"/></g></g></svg>