<?xml version="1.0" ?><!DOCTYPE svg  PUBLIC '-//W3C//DTD SVG 1.1//EN'  'http://www.w3.org/Graphics/SVG/1.1/DTD/svg11.dtd'><svg enable-background="new 0 0 512 512" height="512px" id="Layer_1" version="1.1" viewBox="0 0 512 512" width="512px" xml:space="preserve" xmlns="http://www.w3.org/2000/svg" xmlns:xlink="http://www.w3.org/1999/xlink"><g><g/><g><linearGradient gradientUnits="userSpaceOnUse" id="SVGID_1_" x1="255.939453" x2="255.939438" y1="21.166992" y2="501.080322"><stop offset="0.012121" style="stop-color:#7F8599"/><stop offset="0.018182" style="stop-color:#505460"/><stop offset="1" style="stop-color:#18181A"/></linearGradient><path d="M16.32373,21.802734v476.705078c0,7.412109,6.008301,13.416016,13.416016,13.416016h452.399902    c7.408203,0,13.416016-6.003906,13.416016-13.416016V21.802734H16.32373z" fill="url(#SVGID_1_)"/><linearGradient gradientUnits="userSpaceOnUse" id="SVGID_2_" x1="13.382324" x2="493.941711" y1="266.863281" y2="266.863281"><stop offset="0" style="stop-color:#18181A"/><stop offset="0.024242" style="stop-color:#808080;stop-opacity:0.5"/><stop offset="0.345455" style="stop-color:#FFFFFF;stop-opacity:0"/><stop offset="0.630303" style="stop-color:#FFFFFF;stop-opacity:0.5"/><stop offset="0.987879" style="stop-color:#808080;stop-opacity:0.5"/><stop offset="1" style="stop-color:#18181A"/></linearGradient><path d="M16.32373,21.802734v476.705078c0,7.412109,6.008301,13.416016,13.416016,13.416016h452.399902    c7.408203,0,13.416016-6.003906,13.416016-13.416016V21.802734H16.32373z" fill="url(#SVGID_2_)"/><g><linearGradient gradientUnits="userSpaceOnUse" id="SVGID_3_" x1="255.939453" x2="255.939453" y1="-0.958496" y2="21.908211"><stop offset="0" style="stop-color:#0D0D0D"/><stop offset="1" style="stop-color:#222226"/></linearGradient><polygon fill="url(#SVGID_3_)" points="482.139648,0 29.739746,0 16.32373,21.802734 495.555664,21.802734    "/><linearGradient gradientUnits="userSpaceOnUse" id="SVGID_4_" x1="255.939453" x2="255.939453" y1="0.108887" y2="21.162954"><stop offset="0" style="stop-color:#131313"/><stop offset="0.460606" style="stop-color:#1C1C1E"/><stop offset="0.581818" style="stop-color:#1F1F22"/><stop offset="1" style="stop-color:#28282D"/></linearGradient><polygon fill="url(#SVGID_4_)" points="17.618652,21.07959 30.144043,0.724121 481.735352,0.724121 494.260742,21.07959    "/><linearGradient gradientUnits="userSpaceOnUse" id="SVGID_5_" x1="255.938965" x2="255.938965" y1="1.135742" y2="20.419085"><stop offset="0" style="stop-color:#19191A"/><stop offset="0.460606" style="stop-color:#212123"/><stop offset="0.581818" style="stop-color:#252528"/><stop offset="1" style="stop-color:#2E2E33"/></linearGradient><polygon fill="url(#SVGID_5_)" points="18.913086,20.355469 30.547852,1.447266 481.331055,1.447266 492.964844,20.355469    "/><linearGradient gradientUnits="userSpaceOnUse" id="SVGID_6_" x1="255.937988" x2="255.937988" y1="2.123047" y2="19.677576"><stop offset="0" style="stop-color:#1F1F20"/><stop offset="0.460606" style="stop-color:#252528"/><stop offset="0.581818" style="stop-color:#2A2A2E"/><stop offset="1" style="stop-color:#333339"/></linearGradient><polygon fill="url(#SVGID_6_)" points="20.20752,19.631836 30.952148,2.170898 480.925781,2.170898 491.668945,19.631836    "/><linearGradient gradientUnits="userSpaceOnUse" id="SVGID_7_" x1="255.937988" x2="255.937988" y1="3.070312" y2="18.938019"><stop offset="0" style="stop-color:#252526"/><stop offset="0.460606" style="stop-color:#2A2A2D"/><stop offset="0.581818" style="stop-color:#303035"/><stop offset="1" style="stop-color:#393940"/></linearGradient><polygon fill="url(#SVGID_7_)" points="21.50293,18.908203 31.356445,2.894531 480.521484,2.894531 490.374023,18.908203    "/><linearGradient gradientUnits="userSpaceOnUse" id="SVGID_8_" x1="255.937012" x2="255.937012" y1="3.978516" y2="18.201241"><stop offset="0" style="stop-color:#2B2B2D"/><stop offset="0.460606" style="stop-color:#2F2F32"/><stop offset="0.581818" style="stop-color:#36363B"/><stop offset="1" style="stop-color:#3F3F47"/></linearGradient><polygon fill="url(#SVGID_8_)" points="22.796875,18.18457 31.760742,3.618164 480.117188,3.618164 489.078125,18.18457    "/><linearGradient gradientUnits="userSpaceOnUse" id="SVGID_9_" x1="255.937012" x2="255.937012" y1="4.846191" y2="17.465847"><stop offset="0" style="stop-color:#313133"/><stop offset="0.460606" style="stop-color:#343437"/><stop offset="0.581818" style="stop-color:#3C3C41"/><stop offset="1" style="stop-color:#45454D"/></linearGradient><polygon fill="url(#SVGID_9_)" points="24.091797,17.460938 32.165039,4.341797 479.712891,4.341797 487.783203,17.460938    "/></g><linearGradient gradientUnits="userSpaceOnUse" id="SVGID_10_" x1="255.939941" x2="255.939926" y1="183.215332" y2="495.166138"><stop offset="0" style="stop-color:#121416"/><stop offset="0.036364" style="stop-color:#181A19"/><stop offset="0.945455" style="stop-color:#181A19"/><stop offset="0.987879" style="stop-color:#5E5E66"/></linearGradient><path d="M471.828125,487.796875c0,3.791016-3.057617,6.852539-6.839844,6.852539H46.891113    c-3.782227,0-6.839355-3.061523-6.839355-6.852539V188.406738c0-3.798828,3.057129-6.868652,6.839355-6.868652h418.097168    c3.782227,0,6.839844,3.069824,6.839844,6.868652V487.796875z" fill="url(#SVGID_10_)"/><linearGradient gradientUnits="userSpaceOnUse" id="SVGID_11_" x1="39.988281" x2="55.604492" y1="341.52832" y2="341.52832"><stop offset="0" style="stop-color:#808080;stop-opacity:0"/><stop offset="0.30303" style="stop-color:#999999"/><stop offset="0.612121" style="stop-color:#808080"/><stop offset="0.8" style="stop-color:#808080;stop-opacity:0"/></linearGradient><path d="M39.988281,487.796875V188.406738l15.616211,27.026855v262.950195    l-8.776855,16.265625C43.049316,494.649414,39.988281,491.587891,39.988281,487.796875z" fill="url(#SVGID_11_)" opacity="0.4"/><linearGradient gradientUnits="userSpaceOnUse" id="SVGID_12_" x1="456.143555" x2="471.759766" y1="341.52832" y2="341.52832"><stop offset="0.2" style="stop-color:#808080;stop-opacity:0"/><stop offset="0.387879" style="stop-color:#808080"/><stop offset="0.69697" style="stop-color:#999999"/><stop offset="1" style="stop-color:#808080;stop-opacity:0"/></linearGradient><path d="M471.759766,487.796875V188.406738l-15.616211,27.026855v262.950195    l8.777344,16.265625C468.698242,494.649414,471.759766,491.587891,471.759766,487.796875z" fill="url(#SVGID_12_)" opacity="0.4"/><rect height="275.110352" width="407.675293" x="52.098145" y="208.946289"/><linearGradient gradientUnits="userSpaceOnUse" id="SVGID_13_" x1="255.939941" x2="255.939941" y1="492.349609" y2="340.285156"><stop offset="0" style="stop-color:#231F20"/><stop offset="1" style="stop-color:#231F20;stop-opacity:0"/></linearGradient><path d="M471.828125,487.796875c0,3.791016-3.057617,6.852539-6.839844,6.852539H46.891113    c-3.782227,0-6.839355-3.061523-6.839355-6.852539V188.406738c0-3.798828,3.057129-6.868652,6.839355-6.868652h418.097168    c3.782227,0,6.839844,3.069824,6.839844,6.868652V487.796875z" fill="url(#SVGID_13_)" opacity="0.5"/></g><g><linearGradient gradientUnits="userSpaceOnUse" id="SVGID_14_" x1="84.276367" x2="84.27636" y1="475.917969" y2="215.982819"><stop offset="0" style="stop-color:#BABEC3"/><stop offset="0.939394" style="stop-color:#FEFEFE"/><stop offset="0.969697" style="stop-color:#C3C7CC"/><stop offset="1" style="stop-color:#9999A6"/></linearGradient><rect fill="url(#SVGID_14_)" height="262.161133" width="54.587891" x="56.982422" y="215.433594"/><rect fill="#808080" height="262.161133" width="3.587402" x="56.982422" y="215.433594"/><rect fill="#808080" height="262.161133" width="3.586914" x="107.983398" y="215.433594"/><polygon fill="#F1F1F2" opacity="0.3" points="104.383301,215.433594 104.383301,474.237305 64.161133,474.237305     64.161133,215.433594 60.569824,215.433594 60.569824,474.237305 60.569824,477.594727 64.161133,477.594727     104.383301,477.594727 107.983398,477.594727 107.983398,474.237305 107.983398,215.433594   "/><linearGradient gradientUnits="userSpaceOnUse" id="SVGID_15_" x1="141.495605" x2="141.49559" y1="475.917969" y2="215.982819"><stop offset="0" style="stop-color:#BABEC3"/><stop offset="0.939394" style="stop-color:#FEFEFE"/><stop offset="0.969697" style="stop-color:#C3C7CC"/><stop offset="1" style="stop-color:#9999A6"/></linearGradient><rect fill="url(#SVGID_15_)" height="262.161133" width="54.592285" x="114.199219" y="215.433594"/><rect fill="#808080" height="262.161133" width="3.591309" x="114.199219" y="215.433594"/><rect fill="#808080" height="262.161133" width="3.591797" x="165.199707" y="215.433594"/><polygon fill="#F1F1F2" opacity="0.3" points="161.604004,215.433594 161.604004,474.237305 121.390625,474.237305     121.390625,215.433594 117.790527,215.433594 117.790527,474.237305 117.790527,477.594727 121.390625,477.594727     161.604004,477.594727 165.199707,477.594727 165.199707,474.237305 165.199707,215.433594   "/><linearGradient gradientUnits="userSpaceOnUse" id="SVGID_16_" x1="198.716309" x2="198.716293" y1="475.917969" y2="215.982819"><stop offset="0" style="stop-color:#BABEC3"/><stop offset="0.939394" style="stop-color:#FEFEFE"/><stop offset="0.969697" style="stop-color:#C3C7CC"/><stop offset="1" style="stop-color:#9999A6"/></linearGradient><rect fill="url(#SVGID_16_)" height="262.161133" width="54.591797" x="171.42041" y="215.433594"/><rect fill="#808080" height="262.161133" width="3.591309" x="171.42041" y="215.433594"/><rect fill="#808080" height="262.161133" width="3.591309" x="222.420898" y="215.433594"/><polygon fill="#F1F1F2" opacity="0.3" points="218.820801,215.433594 218.820801,474.237305 178.607422,474.237305     178.607422,215.433594 175.011719,215.433594 175.011719,474.237305 175.011719,477.594727 178.607422,477.594727     218.820801,477.594727 222.420898,477.594727 222.420898,474.237305 222.420898,215.433594   "/><linearGradient gradientUnits="userSpaceOnUse" id="SVGID_17_" x1="256.001465" x2="256.001465" y1="475.917969" y2="215.982819"><stop offset="0" style="stop-color:#BABEC3"/><stop offset="0.939394" style="stop-color:#FEFEFE"/><stop offset="0.969697" style="stop-color:#C3C7CC"/><stop offset="1" style="stop-color:#9999A6"/></linearGradient><rect fill="url(#SVGID_17_)" height="262.161133" width="52.057617" x="229.972656" y="215.433594"/><rect fill="#808080" height="262.161133" width="3.442871" x="229.972656" y="215.433594"/><rect fill="#808080" height="262.161133" width="3.447266" x="278.583008" y="215.433594"/><polygon fill="#F1F1F2" opacity="0.3" points="275.135742,215.433594 275.135742,474.237305 236.867188,474.237305     236.867188,215.433594 233.415527,215.433594 233.415527,474.237305 233.415527,477.594727 236.867188,477.594727     275.135742,477.594727 278.583008,477.594727 278.583008,474.237305 278.583008,215.433594   "/><linearGradient gradientUnits="userSpaceOnUse" id="SVGID_18_" x1="313.154297" x2="313.154297" y1="475.917969" y2="215.982819"><stop offset="0" style="stop-color:#BABEC3"/><stop offset="0.939394" style="stop-color:#FEFEFE"/><stop offset="0.969697" style="stop-color:#C3C7CC"/><stop offset="1" style="stop-color:#9999A6"/></linearGradient><rect fill="url(#SVGID_18_)" height="262.161133" width="54.592773" x="285.858398" y="215.433594"/><rect fill="#808080" height="262.161133" width="3.591797" x="285.858398" y="215.433594"/><rect fill="#808080" height="262.161133" width="3.591797" x="336.859375" y="215.433594"/><polygon fill="#F1F1F2" opacity="0.3" points="333.263672,215.433594 333.263672,474.237305 293.049805,474.237305     293.049805,215.433594 289.450195,215.433594 289.450195,474.237305 289.450195,477.594727 293.049805,477.594727     333.263672,477.594727 336.859375,477.594727 336.859375,474.237305 336.859375,215.433594   "/><linearGradient gradientUnits="userSpaceOnUse" id="SVGID_19_" x1="370.375977" x2="370.375977" y1="475.917969" y2="215.982819"><stop offset="0" style="stop-color:#BABEC3"/><stop offset="0.939394" style="stop-color:#FEFEFE"/><stop offset="0.969697" style="stop-color:#C3C7CC"/><stop offset="1" style="stop-color:#9999A6"/></linearGradient><rect fill="url(#SVGID_19_)" height="262.161133" width="54.591797" x="343.080078" y="215.433594"/><rect fill="#808080" height="262.161133" width="3.59082" x="343.080078" y="215.433594"/><rect fill="#808080" height="262.161133" width="3.591797" x="394.080078" y="215.433594"/><polygon fill="#F1F1F2" opacity="0.3" points="390.480469,215.433594 390.480469,474.237305 350.258789,474.237305     350.258789,215.433594 346.670898,215.433594 346.670898,474.237305 346.670898,477.594727 350.258789,477.594727     390.480469,477.594727 394.080078,477.594727 394.080078,474.237305 394.080078,215.433594   "/><linearGradient gradientUnits="userSpaceOnUse" id="SVGID_20_" x1="427.594727" x2="427.594727" y1="475.917969" y2="215.982819"><stop offset="0" style="stop-color:#BABEC3"/><stop offset="0.939394" style="stop-color:#FEFEFE"/><stop offset="0.969697" style="stop-color:#C3C7CC"/><stop offset="1" style="stop-color:#9999A6"/></linearGradient><rect fill="url(#SVGID_20_)" height="262.161133" width="54.587891" x="400.300781" y="215.433594"/><rect fill="#808080" height="262.161133" width="3.586914" x="400.300781" y="215.433594"/><rect fill="#808080" height="262.161133" width="3.586914" x="451.301758" y="215.433594"/><polygon fill="#F1F1F2" opacity="0.3" points="447.701172,215.433594 447.701172,474.237305 407.487305,474.237305     407.487305,215.433594 403.887695,215.433594 403.887695,474.237305 403.887695,477.594727 407.487305,477.594727     447.701172,477.594727 451.301758,477.594727 451.301758,474.237305 451.301758,215.433594   "/><linearGradient gradientUnits="userSpaceOnUse" id="SVGID_21_" x1="111.813965" x2="111.813957" y1="361.849609" y2="207.362595"><stop offset="0.4" style="stop-color:#18181A"/><stop offset="0.70303" style="stop-color:#303030"/><stop offset="0.848485" style="stop-color:#333333"/><stop offset="0.89697" style="stop-color:#1A1A1A"/></linearGradient><rect fill="url(#SVGID_21_)" height="151.009766" width="38.013184" x="92.807617" y="213.669922"/><rect fill="#808080" height="149.246094" width="3.752441" x="92.807617" y="215.433594"/><rect fill="#808080" height="149.246094" width="3.752441" x="127.068359" y="215.433594"/><linearGradient gradientUnits="userSpaceOnUse" id="SVGID_22_" x1="111.813965" x2="111.813957" y1="214.875488" y2="379.22467"><stop offset="0" style="stop-color:#FFFFFF;stop-opacity:0"/><stop offset="0.406061" style="stop-color:#FFFFFF"/><stop offset="0.678788" style="stop-color:#FFFFFF"/><stop offset="1" style="stop-color:#FFFFFF;stop-opacity:0"/></linearGradient><polygon fill="url(#SVGID_22_)" opacity="0.1" points="124.655273,215.433594 124.655273,358.022461 98.972656,358.022461     98.972656,215.433594 96.560059,215.433594 96.560059,360.643555 127.068359,360.643555 127.068359,215.433594   "/><linearGradient gradientUnits="userSpaceOnUse" id="SVGID_23_" x1="111.813965" x2="111.813965" y1="374.274414" y2="364.270905"><stop offset="0.006061" style="stop-color:#232323;stop-opacity:0.3"/><stop offset="1" style="stop-color:#232323"/></linearGradient><rect fill="url(#SVGID_23_)" height="9.77832" opacity="0.5" width="38.013184" x="92.807617" y="364.679688"/><linearGradient gradientUnits="userSpaceOnUse" id="SVGID_24_" x1="170.109863" x2="170.109863" y1="361.849609" y2="207.362595"><stop offset="0.4" style="stop-color:#18181A"/><stop offset="0.70303" style="stop-color:#303030"/><stop offset="0.848485" style="stop-color:#333333"/><stop offset="0.89697" style="stop-color:#1A1A1A"/></linearGradient><rect fill="url(#SVGID_24_)" height="151.009766" width="38.01709" x="151.101562" y="213.669922"/><rect fill="#808080" height="149.246094" width="3.752441" x="151.101562" y="215.433594"/><rect fill="#808080" height="149.246094" width="3.756836" x="185.361816" y="215.433594"/><linearGradient gradientUnits="userSpaceOnUse" id="SVGID_25_" x1="170.10791" x2="170.10791" y1="214.875488" y2="379.22467"><stop offset="0" style="stop-color:#FFFFFF;stop-opacity:0"/><stop offset="0.406061" style="stop-color:#FFFFFF"/><stop offset="0.678788" style="stop-color:#FFFFFF"/><stop offset="1" style="stop-color:#FFFFFF;stop-opacity:0"/></linearGradient><polygon fill="url(#SVGID_25_)" opacity="0.1" points="182.949219,215.433594 182.949219,358.022461 157.266602,358.022461     157.266602,215.433594 154.854004,215.433594 154.854004,360.643555 185.361816,360.643555 185.361816,215.433594   "/><linearGradient gradientUnits="userSpaceOnUse" id="SVGID_26_" x1="170.109863" x2="170.109863" y1="374.274414" y2="364.270905"><stop offset="0.006061" style="stop-color:#232323;stop-opacity:0.3"/><stop offset="1" style="stop-color:#232323"/></linearGradient><rect fill="url(#SVGID_26_)" height="9.77832" opacity="0.5" width="38.01709" x="151.101562" y="364.679688"/><linearGradient gradientUnits="userSpaceOnUse" id="SVGID_27_" x1="284.550781" x2="284.550781" y1="361.849609" y2="207.362595"><stop offset="0.4" style="stop-color:#18181A"/><stop offset="0.70303" style="stop-color:#303030"/><stop offset="0.848485" style="stop-color:#333333"/><stop offset="0.89697" style="stop-color:#1A1A1A"/></linearGradient><rect fill="url(#SVGID_27_)" height="151.009766" width="38.013672" x="265.543945" y="213.669922"/><rect fill="#808080" height="149.246094" width="3.75293" x="265.543945" y="215.433594"/><rect fill="#808080" height="149.246094" width="3.756836" x="299.800781" y="215.433594"/><linearGradient gradientUnits="userSpaceOnUse" id="SVGID_28_" x1="284.548828" x2="284.548828" y1="214.875488" y2="379.22467"><stop offset="0" style="stop-color:#FFFFFF;stop-opacity:0"/><stop offset="0.406061" style="stop-color:#FFFFFF"/><stop offset="0.678788" style="stop-color:#FFFFFF"/><stop offset="1" style="stop-color:#FFFFFF;stop-opacity:0"/></linearGradient><polygon fill="url(#SVGID_28_)" opacity="0.1" points="297.391602,215.433594 297.391602,358.022461 271.705078,358.022461     271.705078,215.433594 269.296875,215.433594 269.296875,360.643555 299.800781,360.643555 299.800781,215.433594   "/><linearGradient gradientUnits="userSpaceOnUse" id="SVGID_29_" x1="284.550781" x2="284.550781" y1="374.274414" y2="364.270905"><stop offset="0.006061" style="stop-color:#232323;stop-opacity:0.3"/><stop offset="1" style="stop-color:#232323"/></linearGradient><rect fill="url(#SVGID_29_)" height="9.77832" opacity="0.5" width="38.013672" x="265.543945" y="364.679688"/><linearGradient gradientUnits="userSpaceOnUse" id="SVGID_30_" x1="341.771484" x2="341.771484" y1="361.849609" y2="207.362595"><stop offset="0.4" style="stop-color:#18181A"/><stop offset="0.70303" style="stop-color:#303030"/><stop offset="0.848485" style="stop-color:#333333"/><stop offset="0.89697" style="stop-color:#1A1A1A"/></linearGradient><rect fill="url(#SVGID_30_)" height="151.009766" width="38.012695" x="322.765625" y="213.669922"/><rect fill="#808080" height="149.246094" width="3.748047" x="322.765625" y="215.433594"/><rect fill="#808080" height="149.246094" width="3.756836" x="357.021484" y="215.433594"/><linearGradient gradientUnits="userSpaceOnUse" id="SVGID_31_" x1="341.767578" x2="341.767578" y1="214.875488" y2="379.22467"><stop offset="0" style="stop-color:#FFFFFF;stop-opacity:0"/><stop offset="0.406061" style="stop-color:#FFFFFF"/><stop offset="0.678788" style="stop-color:#FFFFFF"/><stop offset="1" style="stop-color:#FFFFFF;stop-opacity:0"/></linearGradient><polygon fill="url(#SVGID_31_)" opacity="0.1" points="354.608398,215.433594 354.608398,358.022461 328.925781,358.022461     328.925781,215.433594 326.513672,215.433594 326.513672,360.643555 357.021484,360.643555 357.021484,215.433594   "/><linearGradient gradientUnits="userSpaceOnUse" id="SVGID_32_" x1="341.771484" x2="341.771484" y1="374.274414" y2="364.270905"><stop offset="0.006061" style="stop-color:#232323;stop-opacity:0.3"/><stop offset="1" style="stop-color:#232323"/></linearGradient><rect fill="url(#SVGID_32_)" height="9.77832" opacity="0.5" width="38.012695" x="322.765625" y="364.679688"/><linearGradient gradientUnits="userSpaceOnUse" id="SVGID_33_" x1="398.988281" x2="398.988281" y1="361.849609" y2="207.362595"><stop offset="0.4" style="stop-color:#18181A"/><stop offset="0.70303" style="stop-color:#303030"/><stop offset="0.848485" style="stop-color:#333333"/><stop offset="0.89697" style="stop-color:#1A1A1A"/></linearGradient><rect fill="url(#SVGID_33_)" height="151.009766" width="38.013672" x="379.981445" y="213.669922"/><rect fill="#808080" height="149.246094" width="3.75293" x="379.981445" y="215.433594"/><rect fill="#808080" height="149.246094" width="3.75293" x="414.242188" y="215.433594"/><linearGradient gradientUnits="userSpaceOnUse" id="SVGID_34_" x1="398.988281" x2="398.988281" y1="214.875488" y2="379.22467"><stop offset="0" style="stop-color:#FFFFFF;stop-opacity:0"/><stop offset="0.406061" style="stop-color:#FFFFFF"/><stop offset="0.678788" style="stop-color:#FFFFFF"/><stop offset="1" style="stop-color:#FFFFFF;stop-opacity:0"/></linearGradient><polygon fill="url(#SVGID_34_)" opacity="0.1" points="411.830078,215.433594 411.830078,358.022461 386.147461,358.022461     386.147461,215.433594 383.734375,215.433594 383.734375,360.643555 414.242188,360.643555 414.242188,215.433594   "/><linearGradient gradientUnits="userSpaceOnUse" id="SVGID_35_" x1="398.988281" x2="398.988281" y1="374.274414" y2="364.270905"><stop offset="0.006061" style="stop-color:#232323;stop-opacity:0.3"/><stop offset="1" style="stop-color:#232323"/></linearGradient><rect fill="url(#SVGID_35_)" height="9.77832" opacity="0.5" width="38.013672" x="379.981445" y="364.679688"/></g><g><linearGradient gradientUnits="userSpaceOnUse" id="SVGID_36_" x1="354.019531" x2="462.69043" y1="122.277344" y2="122.277344"><stop offset="0.006061" style="stop-color:#161A17"/><stop offset="0.963636" style="stop-color:#161A17"/><stop offset="1" style="stop-color:#272727"/></linearGradient><path d="M462.69043,134.353516c0,2.662598-2.158203,4.825195-4.825195,4.825195h-99.020508    c-2.666992,0-4.825195-2.162598-4.825195-4.825195V110.20166c0-2.671387,2.158203-4.825684,4.825195-4.825684h99.020508    c2.666992,0,4.825195,2.154297,4.825195,4.825684V134.353516z" fill="url(#SVGID_36_)"/><linearGradient gradientUnits="userSpaceOnUse" id="SVGID_37_" x1="408.354492" x2="408.354492" y1="104.166016" y2="140.09259"><stop offset="0" style="stop-color:#DADAF2"/><stop offset="1" style="stop-color:#E6E6FF;stop-opacity:0"/></linearGradient><path d="M458.852539,104.689453H357.856445c-2.717773,0-4.922852,2.24707-4.922852,5.028809    v25.118652c0,2.780273,2.205078,5.028809,4.922852,5.028809h100.996094c2.722656,0,4.922852-2.248535,4.922852-5.028809    v-25.118652C463.775391,106.936523,461.575195,104.689453,458.852539,104.689453z M462.69043,134.353516    c0,2.662598-2.158203,4.825195-4.825195,4.825195h-99.020508c-2.666992,0-4.825195-2.162598-4.825195-4.825195V110.20166    c0-2.671387,2.158203-4.825684,4.825195-4.825684h99.020508c2.666992,0,4.825195,2.154297,4.825195,4.825684V134.353516z" fill="url(#SVGID_37_)" opacity="0.1"/><linearGradient gradientUnits="userSpaceOnUse" id="SVGID_38_" x1="408.355469" x2="408.355469" y1="105.972656" y2="113.231972"><stop offset="0" style="stop-color:#000000"/><stop offset="0.775758" style="stop-color:#363A3D"/><stop offset="0.8" style="stop-color:#3D4245"/><stop offset="1" style="stop-color:#454A4D"/></linearGradient><path d="M459.972656,109.743652c0,1.915527-23.113281,3.485352-51.620117,3.485352    s-51.615234-1.569824-51.615234-3.485352c0-1.908203,23.108398-3.46875,51.615234-3.46875    S459.972656,107.835449,459.972656,109.743652z" fill="url(#SVGID_38_)"/><linearGradient gradientUnits="userSpaceOnUse" id="SVGID_39_" x1="356.199219" x2="459.438477" y1="124.495117" y2="124.495117"><stop offset="0" style="stop-color:#090907"/><stop offset="0.266667" style="stop-color:#2E2F33"/><stop offset="0.309091" style="stop-color:#2E2F33"/><stop offset="0.369697" style="stop-color:#0D0E0E"/><stop offset="0.618182" style="stop-color:#0D0E0E"/><stop offset="0.842424" style="stop-color:#232326"/><stop offset="1" style="stop-color:#111111"/></linearGradient><path d="M457.894531,110.565918c-5.422852,1.509766-25.716797,2.663086-50.080078,2.663086    c-24.355469,0-44.657227-1.15332-50.072266-2.663086c-0.9375,0.65332-1.542969,1.585938-1.542969,2.663086v18.09668    c0,1.135742,0.699219,2.120117,1.733398,2.781738c-1.021484,0.271484,21.375,4.316406,49.881836,4.316406    c28.510742,0,50.907227-4.044922,49.880859-4.316406c1.039062-0.661621,1.743164-1.645996,1.743164-2.781738v-18.09668    C459.438477,112.151855,458.827148,111.219238,457.894531,110.565918z" fill="url(#SVGID_39_)"/><linearGradient gradientUnits="userSpaceOnUse" id="SVGID_40_" x1="356.199219" x2="459.438477" y1="113.504395" y2="113.504395"><stop offset="0" style="stop-color:#E6E6FF;stop-opacity:0"/><stop offset="0.327273" style="stop-color:#DADAF2"/><stop offset="0.563636" style="stop-color:#DADAF2"/><stop offset="1" style="stop-color:#E6E6FF;stop-opacity:0"/></linearGradient><path d="M457.894531,110.565918c-5.422852,1.509766-25.716797,2.663086-50.080078,2.663086    c-24.355469,0-44.657227-1.15332-50.072266-2.663086c-0.9375,0.65332-1.542969,1.585938-1.542969,2.663086v3.213867    c0-1.060059,0.605469-1.992676,1.542969-2.662598c5.415039,1.518066,25.716797,2.662598,50.072266,2.662598    c24.363281,0,44.657227-1.144531,50.080078-2.662598c0.932617,0.669922,1.543945,1.602539,1.543945,2.662598v-3.213867    C459.438477,112.151855,458.827148,111.219238,457.894531,110.565918z" fill="url(#SVGID_40_)" opacity="0.5"/><linearGradient gradientUnits="userSpaceOnUse" id="SVGID_41_" x1="354.019531" x2="462.69043" y1="70.174316" y2="70.174316"><stop offset="0.006061" style="stop-color:#161A17"/><stop offset="0.963636" style="stop-color:#161A17"/><stop offset="1" style="stop-color:#272727"/></linearGradient><path d="M462.69043,82.250488c0,2.662598-2.158203,4.825195-4.825195,4.825195h-99.020508    c-2.666992,0-4.825195-2.162598-4.825195-4.825195V58.098633c0-2.671387,2.158203-4.825684,4.825195-4.825684h99.020508    c2.666992,0,4.825195,2.154297,4.825195,4.825684V82.250488z" fill="url(#SVGID_41_)"/><linearGradient gradientUnits="userSpaceOnUse" id="SVGID_42_" x1="408.354492" x2="408.354492" y1="52.0625" y2="87.989578"><stop offset="0" style="stop-color:#DADAF2"/><stop offset="1" style="stop-color:#E6E6FF;stop-opacity:0"/></linearGradient><path d="M458.852539,52.585938H357.856445c-2.717773,0-4.922852,2.247559-4.922852,5.029297    v25.118652c0,2.780273,2.205078,5.028809,4.922852,5.028809h100.996094c2.722656,0,4.922852-2.248535,4.922852-5.028809V57.615234    C463.775391,54.833496,461.575195,52.585938,458.852539,52.585938z M462.69043,82.250488    c0,2.662598-2.158203,4.825195-4.825195,4.825195h-99.020508c-2.666992,0-4.825195-2.162598-4.825195-4.825195V58.098633    c0-2.671387,2.158203-4.825684,4.825195-4.825684h99.020508c2.666992,0,4.825195,2.154297,4.825195,4.825684V82.250488z" fill="url(#SVGID_42_)" opacity="0.1"/><linearGradient gradientUnits="userSpaceOnUse" id="SVGID_43_" x1="408.355469" x2="408.355469" y1="53.869629" y2="61.128944"><stop offset="0" style="stop-color:#000000"/><stop offset="0.775758" style="stop-color:#363A3D"/><stop offset="0.8" style="stop-color:#3D4245"/><stop offset="1" style="stop-color:#454A4D"/></linearGradient><path d="M459.972656,57.640625c0,1.915527-23.113281,3.485352-51.620117,3.485352    s-51.615234-1.569824-51.615234-3.485352c0-1.908203,23.108398-3.46875,51.615234-3.46875    S459.972656,55.732422,459.972656,57.640625z" fill="url(#SVGID_43_)"/><linearGradient gradientUnits="userSpaceOnUse" id="SVGID_44_" x1="356.199219" x2="459.438477" y1="72.391602" y2="72.391602"><stop offset="0" style="stop-color:#090907"/><stop offset="0.266667" style="stop-color:#2E2F33"/><stop offset="0.309091" style="stop-color:#2E2F33"/><stop offset="0.369697" style="stop-color:#0D0E0E"/><stop offset="0.618182" style="stop-color:#0D0E0E"/><stop offset="0.842424" style="stop-color:#232326"/><stop offset="1" style="stop-color:#111111"/></linearGradient><path d="M457.894531,58.462891c-5.422852,1.509766-25.716797,2.663086-50.080078,2.663086    c-24.355469,0-44.657227-1.15332-50.072266-2.663086c-0.9375,0.65332-1.542969,1.585938-1.542969,2.663086v18.09668    c0,1.135742,0.699219,2.120117,1.733398,2.781738c-1.021484,0.271484,21.375,4.316406,49.881836,4.316406    c28.510742,0,50.907227-4.044922,49.880859-4.316406c1.039062-0.661621,1.743164-1.645996,1.743164-2.781738v-18.09668    C459.438477,60.048828,458.827148,59.116211,457.894531,58.462891z" fill="url(#SVGID_44_)"/><linearGradient gradientUnits="userSpaceOnUse" id="SVGID_45_" x1="356.199219" x2="459.438477" y1="61.401367" y2="61.401367"><stop offset="0" style="stop-color:#E6E6FF;stop-opacity:0"/><stop offset="0.327273" style="stop-color:#DADAF2"/><stop offset="0.563636" style="stop-color:#DADAF2"/><stop offset="1" style="stop-color:#E6E6FF;stop-opacity:0"/></linearGradient><path d="M457.894531,58.462891c-5.422852,1.509766-25.716797,2.663086-50.080078,2.663086    c-24.355469,0-44.657227-1.15332-50.072266-2.663086c-0.9375,0.65332-1.542969,1.585938-1.542969,2.663086v3.213867    c0-1.060059,0.605469-1.992676,1.542969-2.662598c5.415039,1.518066,25.716797,2.662598,50.072266,2.662598    c24.363281,0,44.657227-1.144531,50.080078-2.662598c0.932617,0.669922,1.543945,1.602539,1.543945,2.662598v-3.213867    C459.438477,60.048828,458.827148,59.116211,457.894531,58.462891z" fill="url(#SVGID_45_)" opacity="0.5"/><linearGradient gradientUnits="userSpaceOnUse" id="SVGID_46_" x1="58.77832" x2="58.778316" y1="141.141602" y2="42.630928"><stop offset="0" style="stop-color:#E6E6FF;stop-opacity:0"/><stop offset="1" style="stop-color:#DADAF2"/></linearGradient><path d="M70.82666,138.924316c0,2.399902-1.941895,4.341797-4.341797,4.341797H51.071777    c-2.399902,0-4.341797-1.941895-4.341797-4.341797V43.401855c0-2.399902,1.941895-4.341797,4.341797-4.341797h15.413086    c2.399902,0,4.341797,1.941895,4.341797,4.341797V138.924316z" fill="url(#SVGID_46_)" opacity="0.1"/><g><linearGradient gradientUnits="userSpaceOnUse" id="SVGID_47_" x1="58.77832" x2="58.778316" y1="138.644531" y2="45.056297"><stop offset="0" style="stop-color:#262626"/><stop offset="1" style="stop-color:#262626"/></linearGradient><path d="M51.071777,140.662598c-0.958496,0-1.738281-0.78125-1.738281-1.738281V43.401855     c0-0.958008,0.779785-1.738281,1.738281-1.738281h15.413086c0.958008,0,1.738281,0.780273,1.738281,1.738281v95.522461     c0,0.957031-0.780273,1.738281-1.738281,1.738281H51.071777z" fill="url(#SVGID_47_)"/><linearGradient gradientUnits="userSpaceOnUse" id="SVGID_48_" x1="58.77832" x2="58.778316" y1="137.639648" y2="46.031654"><stop offset="0" style="stop-color:#1B1B1C"/><stop offset="1" style="stop-color:#1B1B1C"/></linearGradient><path d="M52.381836,43.580078c0-0.479004,0.594727-0.869141,1.074219-0.869141h10.849609     c0.478516,0,0.869141,1.335938,0.869141,1.81543v94.219727c0,0.478516-0.595703,0.869141-1.074219,0.869141H53.250977     c-0.479004,0-0.869141-1.335938-0.869141-1.814453V43.580078z" fill="url(#SVGID_48_)"/><rect fill="#101012" height="94.80957" width="6.695312" x="55.430664" y="43.758301"/></g><path d="M51.398438,127.713379c-3.180176,0-5.766602-2.586426-5.766602-5.758301v-14.772461    c0-3.171875,2.586426-5.758301,5.766602-5.758301h14.759766c3.180176,0,5.766602,2.586426,5.766602,5.758301v14.772461    c0,3.171875-2.586426,5.758301-5.766602,5.758301H51.398438z" fill="#777980" opacity="0.5"/><linearGradient gradientUnits="userSpaceOnUse" id="SVGID_49_" x1="58.77832" x2="58.77832" y1="125.92334" y2="103.524269"><stop offset="0" style="stop-color:#45454D"/><stop offset="0.078788" style="stop-color:#676771"/><stop offset="0.921212" style="stop-color:#91949C"/><stop offset="1" style="stop-color:#A7AAB3"/></linearGradient><path d="M70.186523,121.955078c0,2.230469-1.802246,4.019531-4.02832,4.019531H51.398438    c-2.226074,0-4.02832-1.789062-4.02832-4.019531v-14.772461c0-2.213379,1.802246-4.02002,4.02832-4.02002h14.759766    c2.226074,0,4.02832,1.806641,4.02832,4.02002V121.955078z" fill="url(#SVGID_49_)"/><linearGradient gradientTransform="matrix(0 -1 1 0 -253.4375 77.928711)" gradientUnits="userSpaceOnUse" id="SVGID_50_" x1="-36.63916" x2="-36.63916" y1="323.573242" y2="300.931854"><stop offset="0" style="stop-color:#45454D"/><stop offset="0.072727" style="stop-color:#676771;stop-opacity:0"/><stop offset="0.921212" style="stop-color:#91949C;stop-opacity:0"/><stop offset="1" style="stop-color:#45454D"/></linearGradient><path d="M66.158203,103.162598c2.226074,0,4.02832,1.806641,4.02832,4.02002v14.772461    c0,2.230469-1.802246,4.019531-4.02832,4.019531H51.398438c-2.226074,0-4.02832-1.789062-4.02832-4.019531v-14.772461    c0-2.213379,1.802246-4.02002,4.02832-4.02002H66.158203z" fill="url(#SVGID_50_)" opacity="0.5"/><linearGradient gradientUnits="userSpaceOnUse" id="SVGID_51_" x1="93.513672" x2="93.513664" y1="141.141602" y2="42.630928"><stop offset="0" style="stop-color:#E6E6FF;stop-opacity:0"/><stop offset="1" style="stop-color:#DADAF2"/></linearGradient><path d="M105.562012,138.924316c0,2.399902-1.941895,4.341797-4.341797,4.341797H85.807129    c-2.399902,0-4.341797-1.941895-4.341797-4.341797V43.401855c0-2.399902,1.941895-4.341797,4.341797-4.341797h15.413086    c2.399902,0,4.341797,1.941895,4.341797,4.341797V138.924316z" fill="url(#SVGID_51_)" opacity="0.1"/><g><linearGradient gradientUnits="userSpaceOnUse" id="SVGID_52_" x1="93.513672" x2="93.513664" y1="138.644531" y2="45.056297"><stop offset="0" style="stop-color:#262626"/><stop offset="1" style="stop-color:#262626"/></linearGradient><path d="M85.807129,140.662598c-0.958008,0-1.738281-0.78125-1.738281-1.738281V43.401855     c0-0.958008,0.780273-1.738281,1.738281-1.738281h15.413086c0.958008,0,1.738281,0.780273,1.738281,1.738281v95.522461     c0,0.957031-0.780273,1.738281-1.738281,1.738281H85.807129z" fill="url(#SVGID_52_)"/><linearGradient gradientUnits="userSpaceOnUse" id="SVGID_53_" x1="93.513672" x2="93.513664" y1="137.639648" y2="46.031654"><stop offset="0" style="stop-color:#1B1B1C"/><stop offset="1" style="stop-color:#1B1B1C"/></linearGradient><path d="M87.117188,43.580078c0-0.479004,0.594727-0.869141,1.074219-0.869141h10.849609     c0.478516,0,0.869141,1.335938,0.869141,1.81543v94.219727c0,0.478516-0.595703,0.869141-1.074219,0.869141H87.986328     c-0.478516,0-0.869141-1.335938-0.869141-1.814453V43.580078z" fill="url(#SVGID_53_)"/><rect fill="#101012" height="94.80957" width="6.695312" x="90.166016" y="43.758301"/></g><path d="M86.133789,92.978027c-3.180176,0-5.766602-2.586426-5.766602-5.758301V72.447266    c0-3.171875,2.586426-5.758301,5.766602-5.758301h14.759766c3.180176,0,5.766602,2.586426,5.766602,5.758301v14.772461    c0,3.171875-2.586426,5.758301-5.766602,5.758301H86.133789z" fill="#777980" opacity="0.5"/><linearGradient gradientUnits="userSpaceOnUse" id="SVGID_54_" x1="93.513672" x2="93.513672" y1="91.187988" y2="68.788918"><stop offset="0" style="stop-color:#45454D"/><stop offset="0.078788" style="stop-color:#676771"/><stop offset="0.921212" style="stop-color:#91949C"/><stop offset="1" style="stop-color:#A7AAB3"/></linearGradient><path d="M104.921875,87.219727c0,2.230469-1.802246,4.019531-4.02832,4.019531H86.133789    c-2.226074,0-4.02832-1.789062-4.02832-4.019531V72.447266c0-2.213379,1.802246-4.02002,4.02832-4.02002h14.759766    c2.226074,0,4.02832,1.806641,4.02832,4.02002V87.219727z" fill="url(#SVGID_54_)"/><linearGradient gradientTransform="matrix(0 -1 1 0 -253.4375 77.928711)" gradientUnits="userSpaceOnUse" id="SVGID_55_" x1="-1.903809" x2="-1.90381" y1="358.308594" y2="335.667206"><stop offset="0" style="stop-color:#45454D"/><stop offset="0.072727" style="stop-color:#676771;stop-opacity:0"/><stop offset="0.921212" style="stop-color:#91949C;stop-opacity:0"/><stop offset="1" style="stop-color:#45454D"/></linearGradient><path d="M100.893555,68.427246c2.226074,0,4.02832,1.806641,4.02832,4.02002v14.772461    c0,2.230469-1.802246,4.019531-4.02832,4.019531H86.133789c-2.226074,0-4.02832-1.789062-4.02832-4.019531V72.447266    c0-2.213379,1.802246-4.02002,4.02832-4.02002H100.893555z" fill="url(#SVGID_55_)" opacity="0.5"/><linearGradient gradientUnits="userSpaceOnUse" id="SVGID_56_" x1="128.249023" x2="128.249023" y1="141.141602" y2="42.630928"><stop offset="0" style="stop-color:#E6E6FF;stop-opacity:0"/><stop offset="1" style="stop-color:#DADAF2"/></linearGradient><path d="M140.297363,138.924316c0,2.399902-1.941895,4.341797-4.341797,4.341797H120.54248    c-2.399902,0-4.341797-1.941895-4.341797-4.341797V43.401855c0-2.399902,1.941895-4.341797,4.341797-4.341797h15.413086    c2.399902,0,4.341797,1.941895,4.341797,4.341797V138.924316z" fill="url(#SVGID_56_)" opacity="0.1"/><g><linearGradient gradientUnits="userSpaceOnUse" id="SVGID_57_" x1="128.249023" x2="128.249023" y1="138.644531" y2="45.056297"><stop offset="0" style="stop-color:#262626"/><stop offset="1" style="stop-color:#262626"/></linearGradient><path d="M120.54248,140.662598c-0.958008,0-1.738281-0.78125-1.738281-1.738281V43.401855     c0-0.958008,0.780273-1.738281,1.738281-1.738281h15.413086c0.958008,0,1.738281,0.780273,1.738281,1.738281v95.522461     c0,0.957031-0.780273,1.738281-1.738281,1.738281H120.54248z" fill="url(#SVGID_57_)"/><linearGradient gradientUnits="userSpaceOnUse" id="SVGID_58_" x1="128.249023" x2="128.249023" y1="137.639648" y2="46.031654"><stop offset="0" style="stop-color:#1B1B1C"/><stop offset="1" style="stop-color:#1B1B1C"/></linearGradient><path d="M121.852539,43.580078c0-0.479004,0.594727-0.869141,1.07373-0.869141h10.850098     c0.478516,0,0.869141,1.335938,0.869141,1.81543v94.219727c0,0.478516-0.595215,0.869141-1.074219,0.869141H122.72168     c-0.478516,0-0.869141-1.335938-0.869141-1.814453V43.580078z" fill="url(#SVGID_58_)"/><rect fill="#101012" height="94.80957" width="6.695312" x="124.901367" y="43.758301"/></g><path d="M120.869141,119.029297c-3.180176,0-5.766602-2.586426-5.766602-5.757812V98.498535    c0-3.171387,2.586426-5.758301,5.766602-5.758301h14.759766c3.180176,0,5.766602,2.586914,5.766602,5.758301v14.772949    c0,3.171387-2.586426,5.757812-5.766602,5.757812H120.869141z" fill="#777980" opacity="0.5"/><linearGradient gradientUnits="userSpaceOnUse" id="SVGID_59_" x1="128.249023" x2="128.249023" y1="117.239746" y2="94.840675"><stop offset="0" style="stop-color:#45454D"/><stop offset="0.078788" style="stop-color:#676771"/><stop offset="0.921212" style="stop-color:#91949C"/><stop offset="1" style="stop-color:#A7AAB3"/></linearGradient><path d="M139.657227,113.271484c0,2.22998-1.802246,4.019531-4.02832,4.019531h-14.759766    c-2.226074,0-4.02832-1.789551-4.02832-4.019531V98.498535c0-2.213379,1.802246-4.019531,4.02832-4.019531h14.759766    c2.226074,0,4.02832,1.806152,4.02832,4.019531V113.271484z" fill="url(#SVGID_59_)"/><linearGradient gradientTransform="matrix(0 -1 1 0 -253.4375 77.928711)" gradientUnits="userSpaceOnUse" id="SVGID_60_" x1="-27.955566" x2="-27.955568" y1="393.043945" y2="370.402557"><stop offset="0" style="stop-color:#45454D"/><stop offset="0.072727" style="stop-color:#676771;stop-opacity:0"/><stop offset="0.921212" style="stop-color:#91949C;stop-opacity:0"/><stop offset="1" style="stop-color:#45454D"/></linearGradient><path d="M135.628906,94.479004c2.226074,0,4.02832,1.806152,4.02832,4.019531v14.772949    c0,2.22998-1.802246,4.019531-4.02832,4.019531h-14.759766c-2.226074,0-4.02832-1.789551-4.02832-4.019531V98.498535    c0-2.213379,1.802246-4.019531,4.02832-4.019531H135.628906z" fill="url(#SVGID_60_)" opacity="0.5"/><linearGradient gradientUnits="userSpaceOnUse" id="SVGID_61_" x1="162.984375" x2="162.984375" y1="141.141602" y2="42.630928"><stop offset="0" style="stop-color:#E6E6FF;stop-opacity:0"/><stop offset="1" style="stop-color:#DADAF2"/></linearGradient><path d="M175.032715,138.924316c0,2.399902-1.941895,4.341797-4.341797,4.341797h-15.413086    c-2.399902,0-4.341797-1.941895-4.341797-4.341797V43.401855c0-2.399902,1.941895-4.341797,4.341797-4.341797h15.413086    c2.399902,0,4.341797,1.941895,4.341797,4.341797V138.924316z" fill="url(#SVGID_61_)" opacity="0.1"/><g><linearGradient gradientUnits="userSpaceOnUse" id="SVGID_62_" x1="162.984375" x2="162.984375" y1="138.644531" y2="45.056297"><stop offset="0" style="stop-color:#262626"/><stop offset="1" style="stop-color:#262626"/></linearGradient><path d="M155.277832,140.662598c-0.958008,0-1.738281-0.78125-1.738281-1.738281V43.401855     c0-0.958008,0.780273-1.738281,1.738281-1.738281h15.413086c0.958496,0,1.738281,0.780273,1.738281,1.738281v95.522461     c0,0.957031-0.779785,1.738281-1.738281,1.738281H155.277832z" fill="url(#SVGID_62_)"/><linearGradient gradientUnits="userSpaceOnUse" id="SVGID_63_" x1="162.984375" x2="162.984375" y1="137.639648" y2="46.031654"><stop offset="0" style="stop-color:#1B1B1C"/><stop offset="1" style="stop-color:#1B1B1C"/></linearGradient><path d="M156.587891,43.580078c0-0.479004,0.594727-0.869141,1.074219-0.869141h10.849609     c0.479004,0,0.869141,1.335938,0.869141,1.81543v94.219727c0,0.478516-0.595215,0.869141-1.074219,0.869141h-10.849609     c-0.478516,0-0.869141-1.335938-0.869141-1.814453V43.580078z" fill="url(#SVGID_63_)"/><rect fill="#101012" height="94.80957" width="6.695312" x="159.636719" y="43.758301"/></g><path d="M155.604492,75.610352c-3.180176,0-5.766602-2.586426-5.766602-5.758301V55.07959    c0-3.171875,2.586426-5.758301,5.766602-5.758301h14.759766c3.180176,0,5.766602,2.586426,5.766602,5.758301v14.772461    c0,3.171875-2.586426,5.758301-5.766602,5.758301H155.604492z" fill="#777980" opacity="0.5"/><linearGradient gradientUnits="userSpaceOnUse" id="SVGID_64_" x1="162.984375" x2="162.984375" y1="73.820312" y2="51.421242"><stop offset="0" style="stop-color:#45454D"/><stop offset="0.078788" style="stop-color:#676771"/><stop offset="0.921212" style="stop-color:#91949C"/><stop offset="1" style="stop-color:#A7AAB3"/></linearGradient><path d="M174.392578,69.852051c0,2.230469-1.802246,4.019531-4.02832,4.019531h-14.759766    c-2.226074,0-4.02832-1.789062-4.02832-4.019531V55.07959c0-2.213379,1.802246-4.02002,4.02832-4.02002h14.759766    c2.226074,0,4.02832,1.806641,4.02832,4.02002V69.852051z" fill="url(#SVGID_64_)"/><linearGradient gradientTransform="matrix(0 -1 1 0 -253.4375 77.928711)" gradientUnits="userSpaceOnUse" id="SVGID_65_" x1="15.463379" x2="15.463378" y1="427.779297" y2="405.137909"><stop offset="0" style="stop-color:#45454D"/><stop offset="0.072727" style="stop-color:#676771;stop-opacity:0"/><stop offset="0.921212" style="stop-color:#91949C;stop-opacity:0"/><stop offset="1" style="stop-color:#45454D"/></linearGradient><path d="M170.364258,51.05957c2.226074,0,4.02832,1.806641,4.02832,4.02002v14.772461    c0,2.230469-1.802246,4.019531-4.02832,4.019531h-14.759766c-2.226074,0-4.02832-1.789062-4.02832-4.019531V55.07959    c0-2.213379,1.802246-4.02002,4.02832-4.02002H170.364258z" fill="url(#SVGID_65_)" opacity="0.5"/><linearGradient gradientUnits="userSpaceOnUse" id="SVGID_66_" x1="262.989258" x2="262.989258" y1="49.883301" y2="142.850388"><stop offset="0" style="stop-color:#262626"/><stop offset="1" style="stop-color:#1A1A1A"/></linearGradient><path d="M332.517578,136.320801c0,2.399902-1.942383,4.341797-4.341797,4.341797H197.802246    c-2.399902,0-4.341797-1.941895-4.341797-4.341797V54.689453c0-2.399902,1.941895-4.342285,4.341797-4.342285h130.373535    c2.399414,0,4.341797,1.942383,4.341797,4.342285V136.320801z" fill="url(#SVGID_66_)"/><linearGradient gradientUnits="userSpaceOnUse" id="SVGID_67_" x1="189.973145" x2="333.624756" y1="95.504883" y2="95.504883"><stop offset="0" style="stop-color:#E6E6FF;stop-opacity:0"/><stop offset="0.343373" style="stop-color:#DADAF2"/><stop offset="0.692771" style="stop-color:#DADAF2"/><stop offset="1" style="stop-color:#E6E6FF;stop-opacity:0"/></linearGradient><path d="M328.175781,47.744141H197.802246c-3.828613,0-6.945312,3.112305-6.945312,6.945312    v81.631348c0,3.833008,3.116699,6.945312,6.945312,6.945312h130.373535c3.829102,0,6.945312-3.112305,6.945312-6.945312V54.689453    C335.121094,50.856445,332.004883,47.744141,328.175781,47.744141z M332.517578,136.320801    c0,2.399902-1.942383,4.341797-4.341797,4.341797H197.802246c-2.399902,0-4.341797-1.941895-4.341797-4.341797V54.689453    c0-2.399902,1.941895-4.342285,4.341797-4.342285h130.373535c2.399414,0,4.341797,1.942383,4.341797,4.342285V136.320801z" fill="url(#SVGID_67_)" opacity="0.1"/><path d="M328.175781,50.347168H197.802246c-2.399902,0-4.341797,1.942383-4.341797,4.342285v81.631348    c0,2.399902,1.941895,4.341797,4.341797,4.341797h130.373535c2.399414,0,4.341797-1.941895,4.341797-4.341797V54.689453    C332.517578,52.289551,330.575195,50.347168,328.175781,50.347168z M329.914062,136.320801    c0,0.958496-0.780273,1.738281-1.738281,1.738281H197.802246c-0.958008,0-1.738281-0.779785-1.738281-1.738281V54.689453    c0-0.958496,0.780273-1.739746,1.738281-1.739746h130.373535c0.958008,0,1.738281,0.78125,1.738281,1.739746V136.320801z" fill="#808080"/><linearGradient gradientUnits="userSpaceOnUse" id="SVGID_68_" x1="262.654297" x2="262.654297" y1="57.342285" y2="96.694191"><stop offset="0" style="stop-color:#FFFFFF"/><stop offset="1" style="stop-color:#000000;stop-opacity:0.3"/></linearGradient><path d="M324.495117,95.768066V65.357422c0-4.316406-3.498047-7.818848-7.814453-7.818848    H208.627441c-4.312012,0-7.814453,3.502441-7.814453,7.818848v30.410645H324.495117z" fill="url(#SVGID_68_)" opacity="0.3"/><linearGradient gradientUnits="userSpaceOnUse" id="SVGID_69_" x1="35.239258" x2="474.439331" y1="162.491211" y2="162.491211"><stop offset="0" style="stop-color:#E6E6FF;stop-opacity:0"/><stop offset="0.343373" style="stop-color:#DADAF2"/><stop offset="0.692771" style="stop-color:#DADAF2"/><stop offset="1" style="stop-color:#E6E6FF;stop-opacity:0"/></linearGradient><path d="M44.393555,170.021484c-4.091797,0-6.945312-1.924805-6.945312-4.689453v-5.681641    c0-2.765625,2.853516-4.689941,6.945312-4.689941h423.024414c4.091797,0,6.945312,1.924316,6.945312,4.689941v5.681641    c0,2.764648-2.853516,4.689453-6.945312,4.689453H44.393555z" fill="url(#SVGID_69_)" opacity="0.1"/><linearGradient gradientUnits="userSpaceOnUse" id="SVGID_70_" x1="255.905762" x2="255.905762" y1="160.125" y2="168.816208"><stop offset="0" style="stop-color:#111211"/><stop offset="1" style="stop-color:#242625"/></linearGradient><path d="M471.759766,165.332031c0,1.161621-1.941406,2.085938-4.341797,2.085938H44.393555    c-2.399902,0-4.341797-0.924316-4.341797-2.085938v-5.681641c0-1.162109,1.941895-2.086426,4.341797-2.086426h423.024414    c2.400391,0,4.341797,0.924316,4.341797,2.086426V165.332031z" fill="url(#SVGID_70_)"/></g></g></svg>